<?xml version="1.0" standalone="no"?>
<svg width="567.429" height="265.447" viewBox="0 0 567.429 265.447" xmlns="http://www.w3.org/2000/svg" shape-rendering="crispEdges">
<title>
punzi/BDTBm4.svg
</title>
<desc>
Creator: ROOT Version 6.26/02
CreationDate: Wed May  4 16:53:17 2022</desc>
<defs>
</defs>
<rect x="0.5" y="0" width="566.929" height="264.947" fill="white"/>
<rect x="57.1929" y="52.9894" width="453.543" height="185.463" fill="white"/>
<rect x="57.1929" y="52.9894" width="453.543" height="185.463" fill="none" stroke="black"/>
<rect x="57.1929" y="52.9894" width="453.543" height="185.463" fill="white"/>
<rect x="57.1929" y="52.9894" width="453.543" height="185.463" fill="none" stroke="black"/>
<path d="M57.1929,238.452h 453.543" fill="none" stroke="black"/>
<path d="M57.1929,52.9894v 185.463" fill="none" stroke="black" stroke-dasharray=" 1, 2"/>
<path d="M170.578,52.9894v 185.463" fill="none" stroke="black" stroke-dasharray=" 1, 2"/>
<path d="M283.963,52.9894v 185.463" fill="none" stroke="black" stroke-dasharray=" 1, 2"/>
<path d="M397.349,52.9894v 185.463" fill="none" stroke="black" stroke-dasharray=" 1, 2"/>
<path d="M510.734,52.9894v 185.463" fill="none" stroke="black" stroke-dasharray=" 1, 2"/>
<path d="M510.734,52.9894v 185.463" fill="none" stroke="black" stroke-dasharray=" 1, 2"/>
<path d="M57.1929,238.452v -185.463" fill="none" stroke="black"/>
<path d="M510.736,238.176h -453.543" fill="none" stroke="black" stroke-dasharray=" 1, 2"/>
<path d="M510.736,201.139h -453.543" fill="none" stroke="black" stroke-dasharray=" 1, 2"/>
<path d="M510.736,164.101h -453.543" fill="none" stroke="black" stroke-dasharray=" 1, 2"/>
<path d="M510.736,127.064h -453.543" fill="none" stroke="black" stroke-dasharray=" 1, 2"/>
<path d="M510.736,90.0267h -453.543" fill="none" stroke="black" stroke-dasharray=" 1, 2"/>
<path d="M510.736,52.9894h -453.543" fill="none" stroke="black" stroke-dasharray=" 1, 2"/>
<path d="M510.736,238.176h -453.543" fill="none" stroke="black" stroke-dasharray=" 1, 2"/>
<path d="M57.1929,90.0267l 0.0680315, 30.8521h 1.04315l 0.0453543, 1.92594h 1.0885" fill="none" stroke="#0000ee" stroke-width="3"/>
<path d="M59.438,122.805l 0.0453543, 2.62965h 1.0885l 0.0453543, 1.33335h 1.04315" fill="none" stroke="#0000ee" stroke-width="3"/>
<path d="M61.6603,126.768h 0.0453543l 0.0453543, 0.055556h 1.0885l 0.0453543, 1.07408h 0.997795" fill="none" stroke="#0000ee" stroke-width="3"/>
<path d="M63.8827,127.897h 0.0907087l 0.0453543, 1.07408h 1.0885l 0.0453543, 0.148149h 0.952441" fill="none" stroke="#0000ee" stroke-width="3"/>
<path d="M66.105,129.12h 0.136063l 0.0453543, 0.55556h 1.0885l 0.0453543, 0.055556h 0.907087" fill="none" stroke="#0000ee" stroke-width="3"/>
<path d="M68.3274,129.731h 0.181417l 0.0453543, 0.0370374h 1.0885l 0.0453543, 0.0185187h 0.861732" fill="none" stroke="#0000ee" stroke-width="3"/>
<path d="M70.5498,129.786h 0.226772l 0.0453543, 0.388892h 1.0885l 0.0453543, 0.0370374h 0.816378" fill="none" stroke="#0000ee" stroke-width="3"/>
<path d="M72.7721,130.212h 0.272126l 0.0453543, 0.129631h 1.0885l 0.0453543, 2.14817h 0.771024" fill="none" stroke="#0000ee" stroke-width="3"/>
<path d="M74.9945,132.49h 0.31748l 0.0453543, 0.814822h 1.0885l 0.0453543, 0.814822h 0.725669" fill="none" stroke="#0000ee" stroke-width="3"/>
<path d="M77.2169,134.12h 0.362835l 0.0453543, 0.055556h 1.81417" fill="none" stroke="#0000ee" stroke-width="3"/>
<path d="M79.4392,134.175h 0.408189l 0.0453543, 0.0185187h 1.0885l 0.0453543, 0.0740747h 0.634961" fill="none" stroke="#0000ee" stroke-width="3"/>
<path d="M81.6616,134.268h 0.453543l 0.0453543, 0.0370374h 1.0885l 0.0453543, 0.240743h 0.589606" fill="none" stroke="#0000ee" stroke-width="3"/>
<path d="M83.8839,134.546h 0.498898l 0.0453543, 0.0370374h 1.0885l 0.0453543, 0.111112h 0.544252" fill="none" stroke="#0000ee" stroke-width="3"/>
<path d="M86.1063,134.694h 0.544252l 0.0453543, 0.0185187h 1.0885l 0.0453543, 0.0370374h 0.498898" fill="none" stroke="#0000ee" stroke-width="3"/>
<path d="M88.3287,134.749h 0.589606l 0.0453543, 0.055556h 1.0885l 0.0453543, 0.0370374h 0.453543" fill="none" stroke="#0000ee" stroke-width="3"/>
<path d="M90.551,134.842h 0.634961l 0.0453543, 0.0185187h 1.0885l 0.0453543, 0.148149h 0.408189" fill="none" stroke="#0000ee" stroke-width="3"/>
<path d="M92.7734,135.009h 0.680315l 0.0453543, 0.0370374h 1.0885l 0.0453543, 0.0740747h 0.362835" fill="none" stroke="#0000ee" stroke-width="3"/>
<path d="M94.9958,135.12h 0.725669l 0.0453543, 0.055556h 1.0885l 0.0453543, 0.055556h 0.31748" fill="none" stroke="#0000ee" stroke-width="3"/>
<path d="M97.2181,135.231h 0.771024l 0.0453543, 0.055556h 1.0885l 0.0453543, 0.0740747h 0.272126" fill="none" stroke="#0000ee" stroke-width="3"/>
<path d="M99.4405,135.36h 0.816378l 0.0453543, 0.0740747h 1.0885l 0.0453543, 0.0185187h 0.226772" fill="none" stroke="#0000ee" stroke-width="3"/>
<path d="M101.663,135.453h 1.99559l 0.0453543, 0.0185187h 0.181417" fill="none" stroke="#0000ee" stroke-width="3"/>
<path d="M103.885,135.472h 2.04094l 0.0453543, 0.0185187h 0.136063" fill="none" stroke="#0000ee" stroke-width="3"/>
<path d="M106.108,135.49h 0.952441l 0.0453543, 0.111112h 1.0885l 0.0453543, 0.0185187h 0.0907087" fill="none" stroke="#0000ee" stroke-width="3"/>
<path d="M108.33,135.62h 2.13165l 0.0453543, 0.0740747h 0.0453543" fill="none" stroke="#0000ee" stroke-width="3"/>
<path d="M110.552,135.694h 1.04315l 0.0453543, 0.0370374h 1.0885l 0.0453543, 0.0370374" fill="none" stroke="#0000ee" stroke-width="3"/>
<path d="M112.775,135.768h 1.0885l 0.0453543, 0.518523h 1.0885" fill="none" stroke="#0000ee" stroke-width="3"/>
<path d="M114.997,136.286l 0.0453543, 0.055556h 1.0885l 0.0453543, 0.111112h 1.04315" fill="none" stroke="#0000ee" stroke-width="3"/>
<path d="M117.219,136.453h 0.0453543l 0.0453543, 0.0185187h 2.13165" fill="none" stroke="#0000ee" stroke-width="3"/>
<path d="M119.442,136.472h 0.0907087l 0.0453543, 0.0185187h 1.0885l 0.0453543, 0.0185187h 0.952441" fill="none" stroke="#0000ee" stroke-width="3"/>
<path d="M121.664,136.509h 0.136063l 0.0453543, 0.055556h 1.0885l 0.0453543, 0.0185187h 0.907087" fill="none" stroke="#0000ee" stroke-width="3"/>
<path d="M123.886,136.583h 0.181417l 0.0453543, 0.203706h 1.0885l 0.0453543, 0.0925934h 0.861732" fill="none" stroke="#0000ee" stroke-width="3"/>
<path d="M126.109,136.879h 0.226772l 0.0453543, 0.111112h 1.0885l 0.0453543, 0.0740747h 0.816378" fill="none" stroke="#0000ee" stroke-width="3"/>
<path d="M128.331,137.064h 0.272126l 0.0453543, 0.0370374h 1.0885l 0.0453543, 0.0185187h 0.771024" fill="none" stroke="#0000ee" stroke-width="3"/>
<path d="M130.554,137.12h 0.31748l 0.0453543, 0.111112h 1.0885l 0.0453543, 0.0370374h 0.725669" fill="none" stroke="#0000ee" stroke-width="3"/>
<path d="M132.776,137.268h 0.362835l 0.0453543, 0.222224h 1.0885l 0.0453543, 0.888897h 0.680315" fill="none" stroke="#0000ee" stroke-width="3"/>
<path d="M134.998,138.379h 0.408189l 0.0453543, 0.0925934h 1.0885l 0.0453543, 0.0185187h 0.634961" fill="none" stroke="#0000ee" stroke-width="3"/>
<path d="M137.221,138.49h 0.453543l 0.0453543, 0.111112h 1.0885l 0.0453543, 0.0925934h 0.589606" fill="none" stroke="#0000ee" stroke-width="3"/>
<path d="M139.443,138.694h 0.498898l 0.0453543, 0.0740747h 1.0885l 0.0453543, 0.0185187h 0.544252" fill="none" stroke="#0000ee" stroke-width="3"/>
<path d="M141.665,138.786h 0.544252l 0.0453543, 0.0370374h 1.0885l 0.0453543, 0.0185187h 0.498898" fill="none" stroke="#0000ee" stroke-width="3"/>
<path d="M143.888,138.842h 0.589606l 0.0453543, 1.51853h 1.0885l 0.0453543, 0.111112h 0.453543" fill="none" stroke="#0000ee" stroke-width="3"/>
<path d="M146.11,140.472h 0.634961l 0.0453543, 0.0925934h 1.0885l 0.0453543, 0.0185187h 0.408189" fill="none" stroke="#0000ee" stroke-width="3"/>
<path d="M148.332,140.583h 0.680315l 0.0453543, 0.055556h 1.0885l 0.0453543, 0.462967h 0.362835" fill="none" stroke="#0000ee" stroke-width="3"/>
<path d="M150.555,141.101h 0.725669l 0.0453543, 0.111112h 1.0885l 0.0453543, 0.111112h 0.31748" fill="none" stroke="#0000ee" stroke-width="3"/>
<path d="M152.777,141.323h 0.771024l 0.0453543, 0.185187h 1.0885l 0.0453543, 0.296299h 0.272126" fill="none" stroke="#0000ee" stroke-width="3"/>
<path d="M155,141.805h 0.816378l 0.0453543, 0.148149h 1.0885l 0.0453543, 1.14816h 0.226772" fill="none" stroke="#0000ee" stroke-width="3"/>
<path d="M157.222,143.101h 0.861732l 0.0453543, 0.148149h 1.0885l 0.0453543, 0.166668h 0.181417" fill="none" stroke="#0000ee" stroke-width="3"/>
<path d="M159.444,143.416h 0.907087l 0.0453543, 0.166668h 1.0885l 0.0453543, 0.0185187h 0.136063" fill="none" stroke="#0000ee" stroke-width="3"/>
<path d="M161.667,143.601h 0.952441l 0.0453543, 1.79631h 1.0885l 0.0453543, 0.148149h 0.0907087" fill="none" stroke="#0000ee" stroke-width="3"/>
<path d="M163.889,145.546h 0.997795l 0.0453543, 0.296299h 1.0885l 0.0453543, 0.148149h 0.0453543" fill="none" stroke="#0000ee" stroke-width="3"/>
<path d="M166.111,145.99h 1.04315l 0.0453543, 0.0370374h 1.0885l 0.0453543, 0.185187" fill="none" stroke="#0000ee" stroke-width="3"/>
<path d="M168.334,146.212h 1.0885l 0.0453543, 1.07408h 1.0885" fill="none" stroke="#0000ee" stroke-width="3"/>
<path d="M170.556,147.286l 0.0453543, 0.814822h 1.0885l 0.0453543, 0.444448h 1.04315" fill="none" stroke="#0000ee" stroke-width="3"/>
<path d="M172.778,148.546h 0.0453543l 0.0453543, 0.592598h 1.0885l 0.0453543, 0.0740747h 0.997795" fill="none" stroke="#0000ee" stroke-width="3"/>
<path d="M175.001,149.212h 0.0907087l 0.0453543, 0.129631h 2.0863" fill="none" stroke="#0000ee" stroke-width="3"/>
<path d="M177.223,149.342h 0.136063l 0.0453543, 0.0370374h 1.0885l 0.0453543, 0.0740747h 0.907087" fill="none" stroke="#0000ee" stroke-width="3"/>
<path d="M179.446,149.453h 0.181417l 0.0453543, 0.055556h 1.0885l 0.0453543, 0.129631h 0.861732" fill="none" stroke="#0000ee" stroke-width="3"/>
<path d="M181.668,149.638h 0.226772l 0.0453543, 0.0185187h 1.95024" fill="none" stroke="#0000ee" stroke-width="3"/>
<path d="M183.89,149.657h 0.272126l 0.0453543, 0.0185187h 1.0885l 0.0453543, 0.148149h 0.771024" fill="none" stroke="#0000ee" stroke-width="3"/>
<path d="M186.113,149.824h 0.31748l 0.0453543, 0.0185187h 1.0885l 0.0453543, 0.166668h 0.725669" fill="none" stroke="#0000ee" stroke-width="3"/>
<path d="M188.335,150.009h 1.49669l 0.0453543, 0.0740747h 0.680315" fill="none" stroke="#0000ee" stroke-width="3"/>
<path d="M190.557,150.083h 0.408189l 0.0453543, 1.16668h 1.76882" fill="none" stroke="#0000ee" stroke-width="3"/>
<path d="M192.78,151.249h 1.5874l 0.0453543, 0.333336h 0.589606" fill="none" stroke="#0000ee" stroke-width="3"/>
<path d="M195.002,151.583h 0.498898l 0.0453543, 0.314818h 1.0885l 0.0453543, 0.203706h 0.544252" fill="none" stroke="#0000ee" stroke-width="3"/>
<path d="M197.224,152.101h 0.544252l 0.0453543, 0.185187h 1.0885l 0.0453543, 0.0185187h 0.498898" fill="none" stroke="#0000ee" stroke-width="3"/>
<path d="M199.447,152.305h 0.589606l 0.0453543, 0.0370374h 1.0885l 0.0453543, 0.0370374h 0.453543" fill="none" stroke="#0000ee" stroke-width="3"/>
<path d="M201.669,152.379h 0.634961l 0.0453543, 0.0740747h 1.54205" fill="none" stroke="#0000ee" stroke-width="3"/>
<path d="M203.891,152.453h 0.680315l 0.0453543, 0.185187h 1.0885l 0.0453543, 0.055556h 0.362835" fill="none" stroke="#0000ee" stroke-width="3"/>
<path d="M206.114,152.694h 0.725669l 0.0453543, 0.129631h 1.0885l 0.0453543, 0.0370374h 0.31748" fill="none" stroke="#0000ee" stroke-width="3"/>
<path d="M208.336,152.861h 0.771024l 0.0453543, 0.0370374h 1.0885l 0.0453543, 0.0370374h 0.272126" fill="none" stroke="#0000ee" stroke-width="3"/>
<path d="M210.559,152.935h 0.816378l 0.0453543, 0.111112h 1.0885l 0.0453543, 0.129631h 0.226772" fill="none" stroke="#0000ee" stroke-width="3"/>
<path d="M212.781,153.175h 0.861732l 0.0453543, 0.796303h 1.0885l 0.0453543, 0.111112h 0.181417" fill="none" stroke="#0000ee" stroke-width="3"/>
<path d="M215.003,154.083h 0.907087l 0.0453543, 0.0740747h 1.0885l 0.0453543, 0.055556h 0.136063" fill="none" stroke="#0000ee" stroke-width="3"/>
<path d="M217.226,154.212h 0.952441l 0.0453543, 0.0370374h 1.0885l 0.0453543, 0.0370374h 0.0907087" fill="none" stroke="#0000ee" stroke-width="3"/>
<path d="M219.448,154.287h 0.997795l 0.0453543, 0.0925934h 1.0885l 0.0453543, 0.0370374h 0.0453543" fill="none" stroke="#0000ee" stroke-width="3"/>
<path d="M221.67,154.416h 1.04315l 0.0453543, 0.0370374h 1.0885l 0.0453543, 0.055556" fill="none" stroke="#0000ee" stroke-width="3"/>
<path d="M223.893,154.509h 1.0885l 0.0453543, 0.111112h 1.0885" fill="none" stroke="#0000ee" stroke-width="3"/>
<path d="M226.115,154.62l 0.0453543, 0.0740747h 1.0885l 0.0453543, 0.203706h 1.04315" fill="none" stroke="#0000ee" stroke-width="3"/>
<path d="M228.337,154.898h 0.0453543l 0.0453543, 0.129631h 1.0885l 0.0453543, 0.0925934h 0.997795" fill="none" stroke="#0000ee" stroke-width="3"/>
<path d="M230.56,155.12h 0.0907087l 0.0453543, 0.0185187h 1.0885l 0.0453543, 0.111112h 0.952441" fill="none" stroke="#0000ee" stroke-width="3"/>
<path d="M232.782,155.25h 0.136063l 0.0453543, 0.0740747h 1.0885l 0.0453543, 0.111112h 0.907087" fill="none" stroke="#0000ee" stroke-width="3"/>
<path d="M235.005,155.435h 0.181417l 0.0453543, 0.0185187h 1.0885l 0.0453543, 0.0925934h 0.861732" fill="none" stroke="#0000ee" stroke-width="3"/>
<path d="M237.227,155.546h 0.226772l 0.0453543, 0.0185187h 1.0885l 0.0453543, 0.0740747h 0.816378" fill="none" stroke="#0000ee" stroke-width="3"/>
<path d="M239.449,155.638h 0.272126l 0.0453543, 0.0740747h 1.0885l 0.0453543, 0.111112h 0.771024" fill="none" stroke="#0000ee" stroke-width="3"/>
<path d="M241.672,155.824h 0.31748l 0.0453543, 0.0925934h 1.0885l 0.0453543, 0.0740747h 0.725669" fill="none" stroke="#0000ee" stroke-width="3"/>
<path d="M243.894,155.99h 0.362835l 0.0453543, 0.055556h 1.0885l 0.0453543, 0.0370374h 0.680315" fill="none" stroke="#0000ee" stroke-width="3"/>
<path d="M246.116,156.083h 0.408189l 0.0453543, 0.055556h 1.0885l 0.0453543, 0.0740747h 0.634961" fill="none" stroke="#0000ee" stroke-width="3"/>
<path d="M248.339,156.212h 0.453543l 0.0453543, 0.055556h 1.0885l 0.0453543, 0.0185187h 0.589606" fill="none" stroke="#0000ee" stroke-width="3"/>
<path d="M250.561,156.287h 0.498898l 0.0453543, 0.129631h 1.0885l 0.0453543, 0.111112h 0.544252" fill="none" stroke="#0000ee" stroke-width="3"/>
<path d="M252.783,156.527h 0.544252l 0.0453543, 0.055556h 1.0885l 0.0453543, 0.148149h 0.498898" fill="none" stroke="#0000ee" stroke-width="3"/>
<path d="M255.006,156.731h 0.589606l 0.0453543, 0.055556h 1.0885l 0.0453543, 0.0925934h 0.453543" fill="none" stroke="#0000ee" stroke-width="3"/>
<path d="M257.228,156.879h 0.634961l 0.0453543, 0.0740747h 1.0885l 0.0453543, 0.0925934h 0.408189" fill="none" stroke="#0000ee" stroke-width="3"/>
<path d="M259.451,157.046h 0.680315l 0.0453543, 0.0925934h 1.0885l 0.0453543, 0.0925934h 0.362835" fill="none" stroke="#0000ee" stroke-width="3"/>
<path d="M261.673,157.231h 0.725669l 0.0453543, 0.0740747h 1.0885l 0.0453543, 0.148149h 0.31748" fill="none" stroke="#0000ee" stroke-width="3"/>
<path d="M263.895,157.453h 0.771024l 0.0453543, 0.518523h 1.0885l 0.0453543, 0.407411h 0.272126" fill="none" stroke="#0000ee" stroke-width="3"/>
<path d="M266.118,158.379h 0.816378l 0.0453543, 0.611117h 1.0885l 0.0453543, 0.27778h 0.226772" fill="none" stroke="#0000ee" stroke-width="3"/>
<path d="M268.34,159.268h 0.861732l 0.0453543, 0.055556h 1.0885l 0.0453543, 0.055556h 0.181417" fill="none" stroke="#0000ee" stroke-width="3"/>
<path d="M270.562,159.379h 0.907087l 0.0453543, 0.351855h 1.0885l 0.0453543, 0.185187h 0.136063" fill="none" stroke="#0000ee" stroke-width="3"/>
<path d="M272.785,159.916h 0.952441l 0.0453543, 0.42593h 1.0885l 0.0453543, 2.07409h 0.0907087" fill="none" stroke="#0000ee" stroke-width="3"/>
<path d="M275.007,162.416h 0.997795l 0.0453543, 1.35186h 1.0885l 0.0453543, 0.055556h 0.0453543" fill="none" stroke="#0000ee" stroke-width="3"/>
<path d="M277.229,163.824h 1.04315l 0.0453543, 0.537042h 1.0885l 0.0453543, 0.666673" fill="none" stroke="#0000ee" stroke-width="3"/>
<path d="M279.452,165.027h 1.0885l 0.0453543, 1.14816h 1.0885" fill="none" stroke="#0000ee" stroke-width="3"/>
<path d="M281.674,166.176l 0.0453543, 0.351855h 1.0885l 0.0453543, 0.42593h 1.04315" fill="none" stroke="#0000ee" stroke-width="3"/>
<path d="M283.897,166.953h 0.0453543l 0.0453543, 0.185187h 1.0885l 0.0453543, 0.0740747h 0.997795" fill="none" stroke="#0000ee" stroke-width="3"/>
<path d="M286.119,167.213h 0.0907087l 0.0453543, 0.185187h 1.0885l 0.0453543, 0.333336h 0.952441" fill="none" stroke="#0000ee" stroke-width="3"/>
<path d="M288.341,167.731h 0.136063l 0.0453543, 0.0370374h 1.0885l 0.0453543, 0.388892h 0.907087" fill="none" stroke="#0000ee" stroke-width="3"/>
<path d="M290.564,168.157h 0.181417l 0.0453543, 0.259262h 1.0885l 0.0453543, 0.185187h 0.861732" fill="none" stroke="#0000ee" stroke-width="3"/>
<path d="M292.786,168.602h 0.226772l 0.0453543, 0.0740747h 1.0885l 0.0453543, 0.203706h 0.816378" fill="none" stroke="#0000ee" stroke-width="3"/>
<path d="M295.008,168.879h 0.272126l 0.0453543, 0.333336h 1.0885l 0.0453543, 0.0370374h 0.771024" fill="none" stroke="#0000ee" stroke-width="3"/>
<path d="M297.231,169.25h 0.31748l 0.0453543, 0.0185187h 1.0885l 0.0453543, 0.259262h 0.725669" fill="none" stroke="#0000ee" stroke-width="3"/>
<path d="M299.453,169.527h 0.362835l 0.0453543, 0.0370374h 1.0885l 0.0453543, 0.055556h 0.680315" fill="none" stroke="#0000ee" stroke-width="3"/>
<path d="M301.675,169.62h 0.408189l 0.0453543, 0.0740747h 1.0885l 0.0453543, 0.055556h 0.634961" fill="none" stroke="#0000ee" stroke-width="3"/>
<path d="M303.898,169.75h 0.453543l 0.0453543, 0.222224h 1.0885l 0.0453543, 0.111112h 0.589606" fill="none" stroke="#0000ee" stroke-width="3"/>
<path d="M306.12,170.083h 0.498898l 0.0453543, 0.129631h 1.0885l 0.0453543, 1.12964h 0.544252" fill="none" stroke="#0000ee" stroke-width="3"/>
<path d="M308.343,171.342h 0.544252l 0.0453543, 1.24075h 1.0885l 0.0453543, 0.388892h 0.498898" fill="none" stroke="#0000ee" stroke-width="3"/>
<path d="M310.565,172.972h 1.72346l 0.0453543, 0.055556h 0.453543" fill="none" stroke="#0000ee" stroke-width="3"/>
<path d="M312.787,173.027h 0.634961l 0.0453543, 0.0740747h 1.0885l 0.0453543, 0.055556h 0.408189" fill="none" stroke="#0000ee" stroke-width="3"/>
<path d="M315.01,173.157h 0.680315l 0.0453543, 0.0370374h 1.0885l 0.0453543, 0.259262h 0.362835" fill="none" stroke="#0000ee" stroke-width="3"/>
<path d="M317.232,173.453h 0.725669l 0.0453543, 1.24075h 1.0885l 0.0453543, 0.129631h 0.31748" fill="none" stroke="#0000ee" stroke-width="3"/>
<path d="M319.454,174.824h 0.771024l 0.0453543, 0.0925934h 1.0885l 0.0453543, 0.0185187h 0.272126" fill="none" stroke="#0000ee" stroke-width="3"/>
<path d="M321.677,174.935h 0.816378l 0.0453543, 0.111112h 1.0885l 0.0453543, 0.0185187h 0.226772" fill="none" stroke="#0000ee" stroke-width="3"/>
<path d="M323.899,175.065h 0.861732l 0.0453543, 0.148149h 1.0885l 0.0453543, 0.222224h 0.181417" fill="none" stroke="#0000ee" stroke-width="3"/>
<path d="M326.121,175.435h 0.907087l 0.0453543, 3.61114h 1.0885l 0.0453543, 0.111112h 0.136063" fill="none" stroke="#0000ee" stroke-width="3"/>
<path d="M328.344,179.157h 0.952441l 0.0453543, 0.055556h 1.0885l 0.0453543, 0.0370374h 0.0907087" fill="none" stroke="#0000ee" stroke-width="3"/>
<path d="M330.566,179.25h 0.997795l 0.0453543, 0.148149h 1.0885l 0.0453543, 0.0925934h 0.0453543" fill="none" stroke="#0000ee" stroke-width="3"/>
<path d="M332.789,179.49h 1.04315l 0.0453543, 0.0370374h 1.0885l 0.0453543, 0.0740747" fill="none" stroke="#0000ee" stroke-width="3"/>
<path d="M335.011,179.602h 1.0885l 0.0453543, 0.0370374h 1.0885" fill="none" stroke="#0000ee" stroke-width="3"/>
<path d="M337.233,179.639l 0.0453543, 0.0185187h 1.0885l 0.0453543, 0.111112h 1.04315" fill="none" stroke="#0000ee" stroke-width="3"/>
<path d="M339.456,179.768h 0.0453543l 0.0453543, 0.0370374h 1.0885l 0.0453543, 0.055556h 0.997795" fill="none" stroke="#0000ee" stroke-width="3"/>
<path d="M341.678,179.861h 0.0907087l 0.0453543, 0.111112h 1.0885l 0.0453543, 0.0925934h 0.952441" fill="none" stroke="#0000ee" stroke-width="3"/>
<path d="M343.9,180.065h 0.136063l 0.0453543, 0.0370374h 1.0885l 0.0453543, 0.0370374h 0.907087" fill="none" stroke="#0000ee" stroke-width="3"/>
<path d="M346.123,180.139h 0.181417l 0.0453543, 0.055556h 1.0885l 0.0453543, 0.0370374h 0.861732" fill="none" stroke="#0000ee" stroke-width="3"/>
<path d="M348.345,180.231h 0.226772l 0.0453543, 0.055556h 1.0885l 0.0453543, 0.0370374h 0.816378" fill="none" stroke="#0000ee" stroke-width="3"/>
<path d="M350.567,180.324h 0.272126l 0.0453543, 0.129631h 1.0885l 0.0453543, 0.055556h 0.771024" fill="none" stroke="#0000ee" stroke-width="3"/>
<path d="M352.79,180.509h 0.31748l 0.0453543, 0.0370374h 1.0885l 0.0453543, 0.55556h 0.725669" fill="none" stroke="#0000ee" stroke-width="3"/>
<path d="M355.012,181.102h 0.362835l 0.0453543, 0.0185187h 1.0885l 0.0453543, 0.0740747h 0.680315" fill="none" stroke="#0000ee" stroke-width="3"/>
<path d="M357.234,181.194h 0.408189l 0.0453543, 0.0925934h 1.0885l 0.0453543, 0.0925934h 0.634961" fill="none" stroke="#0000ee" stroke-width="3"/>
<path d="M359.457,181.379h 0.453543l 0.0453543, 0.129631h 1.0885l 0.0453543, 0.111112h 0.589606" fill="none" stroke="#0000ee" stroke-width="3"/>
<path d="M361.679,181.62h 0.498898l 0.0453543, 0.222224h 1.0885l 0.0453543, 0.111112h 0.544252" fill="none" stroke="#0000ee" stroke-width="3"/>
<path d="M363.902,181.953h 0.544252l 0.0453543, 0.203706h 1.0885l 0.0453543, 0.388892h 0.498898" fill="none" stroke="#0000ee" stroke-width="3"/>
<path d="M366.124,182.546h 0.589606l 0.0453543, 0.444448h 1.0885l 0.0453543, 0.148149h 0.453543" fill="none" stroke="#0000ee" stroke-width="3"/>
<path d="M368.346,183.139h 0.634961l 0.0453543, 0.055556h 1.0885l 0.0453543, 0.0740747h 0.408189" fill="none" stroke="#0000ee" stroke-width="3"/>
<path d="M370.569,183.268h 0.680315l 0.0453543, 0.166668h 1.0885l 0.0453543, 0.370374h 0.362835" fill="none" stroke="#0000ee" stroke-width="3"/>
<path d="M372.791,183.805h 0.725669l 0.0453543, 0.481486h 1.0885l 0.0453543, 0.0740747h 0.31748" fill="none" stroke="#0000ee" stroke-width="3"/>
<path d="M375.013,184.361h 0.771024l 0.0453543, 0.148149h 1.0885l 0.0453543, 0.574079h 0.272126" fill="none" stroke="#0000ee" stroke-width="3"/>
<path d="M377.236,185.083h 0.816378l 0.0453543, 0.925934h 1.0885l 0.0453543, 0.333336h 0.226772" fill="none" stroke="#0000ee" stroke-width="3"/>
<path d="M379.458,186.342h 0.861732l 0.0453543, 1.29631h 1.0885l 0.0453543, 0.203706h 0.181417" fill="none" stroke="#0000ee" stroke-width="3"/>
<path d="M381.68,187.842h 0.907087l 0.0453543, 0.055556h 1.0885l 0.0453543, 0.222224h 0.136063" fill="none" stroke="#0000ee" stroke-width="3"/>
<path d="M383.903,188.12h 0.952441l 0.0453543, 0.148149h 1.0885l 0.0453543, 0.129631h 0.0907087" fill="none" stroke="#0000ee" stroke-width="3"/>
<path d="M386.125,188.398h 0.997795l 0.0453543, 0.462967h 1.0885l 0.0453543, 0.185187h 0.0453543" fill="none" stroke="#0000ee" stroke-width="3"/>
<path d="M388.348,189.046h 1.04315l 0.0453543, 0.407411h 1.0885l 0.0453543, 0.166668" fill="none" stroke="#0000ee" stroke-width="3"/>
<path d="M390.57,189.62h 1.0885l 0.0453543, 0.0185187h 1.0885" fill="none" stroke="#0000ee" stroke-width="3"/>
<path d="M392.792,189.639l 0.0453543, 0.0370374h 1.0885l 0.0453543, 0.0740747h 1.04315" fill="none" stroke="#0000ee" stroke-width="3"/>
<path d="M395.015,189.75h 0.0453543l 0.0453543, 0.259262h 1.0885l 0.0453543, 0.407411h 0.997795" fill="none" stroke="#0000ee" stroke-width="3"/>
<path d="M397.237,190.417h 0.0907087l 0.0453543, 0.0185187h 1.0885l 0.0453543, 0.0185187h 0.952441" fill="none" stroke="#0000ee" stroke-width="3"/>
<path d="M399.459,190.454h 0.136063l 0.0453543, 0.111112h 1.0885l 0.0453543, 0.0185187h 0.907087" fill="none" stroke="#0000ee" stroke-width="3"/>
<path d="M401.682,190.583h 0.181417l 0.0453543, 0.055556h 1.0885l 0.0453543, 0.0740747h 0.861732" fill="none" stroke="#0000ee" stroke-width="3"/>
<path d="M403.904,190.713h 0.226772l 0.0453543, 0.0740747h 1.0885l 0.0453543, 0.0740747h 0.816378" fill="none" stroke="#0000ee" stroke-width="3"/>
<path d="M406.126,190.861h 0.272126l 0.0453543, 0.0185187h 1.0885l 0.0453543, 0.0185187h 0.771024" fill="none" stroke="#0000ee" stroke-width="3"/>
<path d="M408.349,190.898h 0.31748l 0.0453543, 0.0740747h 1.0885l 0.0453543, 0.0185187h 0.725669" fill="none" stroke="#0000ee" stroke-width="3"/>
<path d="M410.571,190.991h 0.362835l 0.0453543, 0.055556h 1.81417" fill="none" stroke="#0000ee" stroke-width="3"/>
<path d="M412.794,191.046h 0.408189l 0.0453543, 0.055556h 1.0885l 0.0453543, 0.0740747h 0.634961" fill="none" stroke="#0000ee" stroke-width="3"/>
<path d="M415.016,191.176h 0.453543l 0.0453543, 0.0740747h 1.0885l 0.0453543, 0.129631h 0.589606" fill="none" stroke="#0000ee" stroke-width="3"/>
<path d="M417.238,191.379h 0.498898l 0.0453543, 0.129631h 1.0885l 0.0453543, 0.0370374h 0.544252" fill="none" stroke="#0000ee" stroke-width="3"/>
<path d="M419.461,191.546h 0.544252l 0.0453543, 0.055556h 1.0885l 0.0453543, 0.203706h 0.498898" fill="none" stroke="#0000ee" stroke-width="3"/>
<path d="M421.683,191.805h 0.589606l 0.0453543, 0.111112h 1.0885l 0.0453543, 0.148149h 0.453543" fill="none" stroke="#0000ee" stroke-width="3"/>
<path d="M423.905,192.065h 0.634961l 0.0453543, 0.0740747h 1.0885l 0.0453543, 0.0740747h 0.408189" fill="none" stroke="#0000ee" stroke-width="3"/>
<path d="M426.128,192.213h 0.680315l 0.0453543, 0.055556h 1.0885l 0.0453543, 0.0185187h 0.362835" fill="none" stroke="#0000ee" stroke-width="3"/>
<path d="M428.35,192.287h 0.725669l 0.0453543, 0.055556h 1.0885l 0.0453543, 0.055556h 0.31748" fill="none" stroke="#0000ee" stroke-width="3"/>
<path d="M430.572,192.398h 0.771024l 0.0453543, 0.0925934h 1.0885l 0.0453543, 0.129631h 0.272126" fill="none" stroke="#0000ee" stroke-width="3"/>
<path d="M432.795,192.62h 0.816378l 0.0453543, 0.0925934h 1.0885l 0.0453543, 0.055556h 0.226772" fill="none" stroke="#0000ee" stroke-width="3"/>
<path d="M435.017,192.768h 0.861732l 0.0453543, 0.0185187h 1.0885l 0.0453543, 0.055556h 0.181417" fill="none" stroke="#0000ee" stroke-width="3"/>
<path d="M437.24,192.842h 0.907087l 0.0453543, 0.0925934h 1.0885l 0.0453543, 0.055556h 0.136063" fill="none" stroke="#0000ee" stroke-width="3"/>
<path d="M439.462,192.991h 0.952441l 0.0453543, 0.055556h 1.0885l 0.0453543, 0.148149h 0.0907087" fill="none" stroke="#0000ee" stroke-width="3"/>
<path d="M441.684,193.194h 0.997795l 0.0453543, 0.055556h 1.0885l 0.0453543, 0.055556h 0.0453543" fill="none" stroke="#0000ee" stroke-width="3"/>
<path d="M443.907,193.305h 1.04315l 0.0453543, 0.0370374h 1.0885l 0.0453543, 0.148149" fill="none" stroke="#0000ee" stroke-width="3"/>
<path d="M446.129,193.491h 1.0885l 0.0453543, 0.0925934h 1.0885" fill="none" stroke="#0000ee" stroke-width="3"/>
<path d="M448.351,193.583l 0.0453543, 0.111112h 1.0885l 0.0453543, 0.0370374h 1.04315" fill="none" stroke="#0000ee" stroke-width="3"/>
<path d="M450.574,193.731h 0.0453543l 0.0453543, 0.0185187h 1.0885l 0.0453543, 0.240743h 0.997795" fill="none" stroke="#0000ee" stroke-width="3"/>
<path d="M452.796,193.991h 0.0907087l 0.0453543, 0.203706h 1.0885l 0.0453543, 0.888897h 0.952441" fill="none" stroke="#0000ee" stroke-width="3"/>
<path d="M455.018,195.083h 0.136063l 0.0453543, 0.185187h 1.0885l 0.0453543, 0.574079h 0.907087" fill="none" stroke="#0000ee" stroke-width="3"/>
<path d="M457.241,195.842h 0.181417l 0.0453543, 0.333336h 1.0885l 0.0453543, 0.240743h 0.861732" fill="none" stroke="#0000ee" stroke-width="3"/>
<path d="M459.463,196.417h 0.226772l 0.0453543, 0.27778h 1.0885l 0.0453543, 0.462967h 0.816378" fill="none" stroke="#0000ee" stroke-width="3"/>
<path d="M461.686,197.157h 0.272126l 0.0453543, 0.259262h 1.0885l 0.0453543, 0.166668h 0.771024" fill="none" stroke="#0000ee" stroke-width="3"/>
<path d="M463.908,197.583h 0.31748l 0.0453543, 0.27778h 1.0885l 0.0453543, 0.055556h 0.725669" fill="none" stroke="#0000ee" stroke-width="3"/>
<path d="M466.13,197.917h 0.362835l 0.0453543, 0.722229h 1.0885l 0.0453543, 0.240743h 0.680315" fill="none" stroke="#0000ee" stroke-width="3"/>
<path d="M468.353,198.88h 0.408189l 0.0453543, 0.0370374h 1.0885l 0.0453543, 0.111112h 0.634961" fill="none" stroke="#0000ee" stroke-width="3"/>
<path d="M470.575,199.028h 0.453543l 0.0453543, 0.0740747h 1.0885l 0.0453543, 0.111112h 0.589606" fill="none" stroke="#0000ee" stroke-width="3"/>
<path d="M472.797,199.213h 0.498898l 0.0453543, 0.240743h 1.0885l 0.0453543, 0.148149h 0.544252" fill="none" stroke="#0000ee" stroke-width="3"/>
<path d="M475.02,199.602h 0.544252l 0.0453543, 0.0925934h 1.0885l 0.0453543, 0.129631h 0.498898" fill="none" stroke="#0000ee" stroke-width="3"/>
<path d="M477.242,199.824h 1.72346l 0.0453543, 0.259262h 0.453543" fill="none" stroke="#0000ee" stroke-width="3"/>
<path d="M479.464,200.083h 0.634961l 0.0453543, 0.0740747h 1.0885l 0.0453543, 0.0185187h 0.408189" fill="none" stroke="#0000ee" stroke-width="3"/>
<path d="M481.687,200.176h 0.680315l 0.0453543, 0.462967h 1.0885l 0.0453543, 0.203706h 0.362835" fill="none" stroke="#0000ee" stroke-width="3"/>
<path d="M483.909,200.843h 0.725669l 0.0453543, 0.222224h 1.0885l 0.0453543, 0.203706h 0.31748" fill="none" stroke="#0000ee" stroke-width="3"/>
<path d="M486.132,201.268h 0.771024l 0.0453543, 0.0185187h 1.40598" fill="none" stroke="#0000ee" stroke-width="3"/>
<path d="M488.354,201.287h 0.816378l 0.0453543, 0.185187h 1.0885l 0.0453543, 0.129631h 0.226772" fill="none" stroke="#0000ee" stroke-width="3"/>
<path d="M490.576,201.602h 0.861732l 0.0453543, 0.685191h 1.0885l 0.0453543, 0.296299h 0.181417" fill="none" stroke="#0000ee" stroke-width="3"/>
<path d="M492.799,202.583h 0.907087l 0.0453543, 0.0185187h 1.0885l 0.0453543, 0.0925934h 0.136063" fill="none" stroke="#0000ee" stroke-width="3"/>
<path d="M495.021,202.694h 0.952441l 0.0453543, 0.296299h 1.0885l 0.0453543, 1.22223h 0.0907087" fill="none" stroke="#0000ee" stroke-width="3"/>
<path d="M497.243,204.213h 0.997795l 0.0453543, 1.79631h 1.0885l 0.0453543, 0.944453h 0.0453543" fill="none" stroke="#0000ee" stroke-width="3"/>
<path d="M499.466,206.954h 1.04315l 0.0453543, 0.777785h 1.0885l 0.0453543, 4.44448" fill="none" stroke="#0000ee" stroke-width="3"/>
<path d="M501.688,212.176h 1.0885l 0.0453543, 0.240743h 1.0885" fill="none" stroke="#0000ee" stroke-width="3"/>
<path d="M503.91,212.417l 0.0453543, 1.75927h 1.0885l 0.0453543, 1.9815h 1.04315" fill="none" stroke="#0000ee" stroke-width="3"/>
<path d="M506.133,216.157h 0.0453543l 0.0453543, 0.70371h 1.0885l 0.0453543, 0.055556h 0.997795" fill="none" stroke="#0000ee" stroke-width="3"/>
<path d="M508.355,216.917h 0.0907087l 0.0453543, 1.1852h 1.0885l 0.0453543, 11.5186h 0.952441" fill="none" stroke="#0000ee" stroke-width="3"/>
<path d="M510.577,229.621h 0.15874" fill="none" stroke="#0000ee" stroke-width="3"/>
<path d="M57.1929,238.452h 453.543" fill="none" stroke="black"/>
<path d="M57.1929,232.093v 6.35872" fill="none" stroke="black"/>
<path d="M79.87,235.273v 3.17936" fill="none" stroke="black"/>
<path d="M102.547,235.273v 3.17936" fill="none" stroke="black"/>
<path d="M125.224,235.273v 3.17936" fill="none" stroke="black"/>
<path d="M147.901,235.273v 3.17936" fill="none" stroke="black"/>
<path d="M170.578,232.093v 6.35872" fill="none" stroke="black"/>
<path d="M193.255,235.273v 3.17936" fill="none" stroke="black"/>
<path d="M215.932,235.273v 3.17936" fill="none" stroke="black"/>
<path d="M238.609,235.273v 3.17936" fill="none" stroke="black"/>
<path d="M261.286,235.273v 3.17936" fill="none" stroke="black"/>
<path d="M283.963,232.093v 6.35872" fill="none" stroke="black"/>
<path d="M306.64,235.273v 3.17936" fill="none" stroke="black"/>
<path d="M329.318,235.273v 3.17936" fill="none" stroke="black"/>
<path d="M351.995,235.273v 3.17936" fill="none" stroke="black"/>
<path d="M374.672,235.273v 3.17936" fill="none" stroke="black"/>
<path d="M397.349,232.093v 6.35872" fill="none" stroke="black"/>
<path d="M420.026,235.273v 3.17936" fill="none" stroke="black"/>
<path d="M442.703,235.273v 3.17936" fill="none" stroke="black"/>
<path d="M465.38,235.273v 3.17936" fill="none" stroke="black"/>
<path d="M488.057,235.273v 3.17936" fill="none" stroke="black"/>
<path d="M510.734,232.093v 6.35872" fill="none" stroke="black"/>
<path d="M510.734,232.093v 6.35872" fill="none" stroke="black"/>
<text xml:space="preserve" x="56.7656" y="247.141" fill="black" font-size="9.00747" font-family="Helvetica">1</text>
<text xml:space="preserve" x="52.4922" y="247.141" fill="black" font-size="9.00747" font-family="Times">&#8722;</text>
<text xml:space="preserve" x="165.736" y="247.141" fill="black" font-size="9.00747" font-family="Helvetica">0.5</text>
<text xml:space="preserve" x="161.462" y="247.141" fill="black" font-size="9.00747" font-family="Times">&#8722;</text>
<text xml:space="preserve" x="280.403" y="247.141" fill="black" font-size="9.00747" font-family="Helvetica">0</text>
<text xml:space="preserve" x="390.798" y="247.141" fill="black" font-size="9.00747" font-family="Helvetica">0.5</text>
<text xml:space="preserve" x="508.315" y="247.141" fill="black" font-size="9.00747" font-family="Helvetica">1</text>
<path d="M57.1929,238.452v -185.463" fill="none" stroke="black"/>
<path d="M69.0984,238.176h -11.9055" fill="none" stroke="black"/>
<path d="M63.1457,230.769h -5.95276" fill="none" stroke="black"/>
<path d="M63.1457,223.361h -5.95276" fill="none" stroke="black"/>
<path d="M63.1457,215.954h -5.95276" fill="none" stroke="black"/>
<path d="M63.1457,208.546h -5.95276" fill="none" stroke="black"/>
<path d="M69.0984,201.139h -11.9055" fill="none" stroke="black"/>
<path d="M63.1457,193.731h -5.95276" fill="none" stroke="black"/>
<path d="M63.1457,186.324h -5.95276" fill="none" stroke="black"/>
<path d="M63.1457,178.916h -5.95276" fill="none" stroke="black"/>
<path d="M63.1457,171.509h -5.95276" fill="none" stroke="black"/>
<path d="M69.0984,164.101h -11.9055" fill="none" stroke="black"/>
<path d="M63.1457,156.694h -5.95276" fill="none" stroke="black"/>
<path d="M63.1457,149.287h -5.95276" fill="none" stroke="black"/>
<path d="M63.1457,141.879h -5.95276" fill="none" stroke="black"/>
<path d="M63.1457,134.472h -5.95276" fill="none" stroke="black"/>
<path d="M69.0984,127.064h -11.9055" fill="none" stroke="black"/>
<path d="M63.1457,119.657h -5.95276" fill="none" stroke="black"/>
<path d="M63.1457,112.249h -5.95276" fill="none" stroke="black"/>
<path d="M63.1457,104.842h -5.95276" fill="none" stroke="black"/>
<path d="M63.1457,97.4342h -5.95276" fill="none" stroke="black"/>
<path d="M69.0984,90.0267h -11.9055" fill="none" stroke="black"/>
<path d="M63.1457,82.6193h -5.95276" fill="none" stroke="black"/>
<path d="M63.1457,75.2118h -5.95276" fill="none" stroke="black"/>
<path d="M63.1457,67.8043h -5.95276" fill="none" stroke="black"/>
<path d="M63.1457,60.3968h -5.95276" fill="none" stroke="black"/>
<path d="M69.0984,52.9894h -11.9055" fill="none" stroke="black"/>
<path d="M69.0984,238.176h -11.9055" fill="none" stroke="black"/>
<text xml:space="preserve" x="41.8089" y="241.443" fill="black" font-size="9.00747" font-family="Helvetica">0.6</text>
<text xml:space="preserve" x="41.8089" y="204.408" fill="black" font-size="9.00747" font-family="Helvetica">0.7</text>
<text xml:space="preserve" x="41.8089" y="167.372" fill="black" font-size="9.00747" font-family="Helvetica">0.8</text>
<text xml:space="preserve" x="41.8089" y="130.337" fill="black" font-size="9.00747" font-family="Helvetica">0.9</text>
<text xml:space="preserve" x="50.3556" y="93.3012" fill="black" font-size="9.00747" font-family="Helvetica">1</text>
<text xml:space="preserve" x="43.2334" y="56.2656" fill="black" font-size="9.00747" font-family="Helvetica">1.1</text>
<path d="M57.2268,238.452l 0.0341721, -34.1381" fill="none" stroke="#00aa00" stroke-width="3"/>
<path d="M57.2609,204.314h 1.04315l 0.0453543, -2.46869h 1.0885" fill="none" stroke="#00aa00" stroke-width="3"/>
<path d="M59.438,201.845l 0.0453543, -4.50458h 1.0885l 0.0453543, -1.214h 1.04315" fill="none" stroke="#00aa00" stroke-width="3"/>
<path d="M61.6603,196.127h 0.0453543l 0.0453543, -0.164444h 1.0885l 0.0453543, -0.959312h 0.997795" fill="none" stroke="#00aa00" stroke-width="3"/>
<path d="M63.8827,195.003h 0.0907087l 0.0453543, -0.769591h 1.0885l 0.0453543, -0.363084h 0.952441" fill="none" stroke="#00aa00" stroke-width="3"/>
<path d="M66.105,193.87h 0.136063l 0.0453543, -0.338646h 1.0885l 0.0453543, -0.173672h 0.907087" fill="none" stroke="#00aa00" stroke-width="3"/>
<path d="M68.3274,193.358h 0.181417l 0.0453543, -0.0374188h 1.0885l 0.0453543, -0.0355644h 0.861732" fill="none" stroke="#00aa00" stroke-width="3"/>
<path d="M70.5498,193.285h 0.226772l 0.0453543, -0.293699h 1.0885l 0.0453543, -0.105634h 0.816378" fill="none" stroke="#00aa00" stroke-width="3"/>
<path d="M72.7721,192.886h 0.272126l 0.0453543, 0.0201995h 1.0885l 0.0453543, -0.895358h 0.771024" fill="none" stroke="#00aa00" stroke-width="3"/>
<path d="M74.9945,192.01h 0.31748l 0.0453543, -0.501986h 1.0885l 0.0453543, -0.210362h 0.725669" fill="none" stroke="#00aa00" stroke-width="3"/>
<path d="M77.2169,191.298h 0.362835l 0.0453543, -0.0781049h 1.0885l 0.0453543, -0.035432h 0.680315" fill="none" stroke="#00aa00" stroke-width="3"/>
<path d="M79.4392,191.185h 0.408189l 0.0453543, -0.0556094h 1.0885l 0.0453543, -0.0275508h 0.634961" fill="none" stroke="#00aa00" stroke-width="3"/>
<path d="M81.6616,191.101h 0.453543l 0.0453543, 0.0128262h 1.0885l 0.0453543, 0.00353216h 0.589606" fill="none" stroke="#00aa00" stroke-width="3"/>
<path d="M83.8839,191.118h 0.498898l 0.0453543, -0.00494502h 1.0885l 0.0453543, -0.0326725h 0.544252" fill="none" stroke="#00aa00" stroke-width="3"/>
<path d="M86.1063,191.08h 0.544252l 0.0453543, -0.127158h 1.0885l 0.0453543, -0.112058h 0.498898" fill="none" stroke="#00aa00" stroke-width="3"/>
<path d="M88.3287,190.841h 0.589606l 0.0453543, -0.114795h 1.0885l 0.0453543, -0.00507748h 0.453543" fill="none" stroke="#00aa00" stroke-width="3"/>
<path d="M90.551,190.721h 0.634961l 0.0453543, -0.0204203h 1.0885l 0.0453543, -0.127997h 0.408189" fill="none" stroke="#00aa00" stroke-width="3"/>
<path d="M92.7734,190.573h 0.680315l 0.0453543, -0.0410393h 1.0885l 0.0453543, -0.208088h 0.362835" fill="none" stroke="#00aa00" stroke-width="3"/>
<path d="M94.9958,190.324h 0.725669l 0.0453543, -0.278334h 1.0885l 0.0453543, -0.0621881h 0.31748" fill="none" stroke="#00aa00" stroke-width="3"/>
<path d="M97.2181,189.983h 0.771024l 0.0453543, -0.0623205h 1.0885l 0.0453543, 0.0073513h 0.272126" fill="none" stroke="#00aa00" stroke-width="3"/>
<path d="M99.4405,189.928h 0.816378l 0.0453543, -0.192105h 1.0885l 0.0453543, -0.0208839h 0.226772" fill="none" stroke="#00aa00" stroke-width="3"/>
<path d="M101.663,189.715h 0.861732l 0.0453543, -0.127158h 1.0885l 0.0453543, -0.0391407h 0.181417" fill="none" stroke="#00aa00" stroke-width="3"/>
<path d="M103.885,189.549h 2.04094l 0.0453543, -0.0391407h 0.136063" fill="none" stroke="#00aa00" stroke-width="3"/>
<path d="M106.108,189.51h 0.952441l 0.0453543, 0.0380369h 1.0885l 0.0453543, -0.0756323h 0.0907087" fill="none" stroke="#00aa00" stroke-width="3"/>
<path d="M108.33,189.472h 0.997795l 0.0453543, -0.0182348h 1.0885l 0.0453543, -0.0293611h 0.0453543" fill="none" stroke="#00aa00" stroke-width="3"/>
<path d="M110.552,189.424h 1.04315l 0.0453543, 0.0126716h 1.0885l 0.0453543, -0.0785905" fill="none" stroke="#00aa00" stroke-width="3"/>
<path d="M112.775,189.359h 1.0885l 0.0453543, -0.594021h 1.0885" fill="none" stroke="#00aa00" stroke-width="3"/>
<path d="M114.997,188.764l 0.0453543, -0.0641528h 1.0885l 0.0453543, -0.165592h 1.04315" fill="none" stroke="#00aa00" stroke-width="3"/>
<path d="M117.219,188.535h 0.0453543l 0.0453543, -0.095567h 1.0885l 0.0453543, -0.0185438h 0.997795" fill="none" stroke="#00aa00" stroke-width="3"/>
<path d="M119.442,188.421h 0.0907087l 0.0453543, -0.114287h 1.0885l 0.0453543, -0.077288h 0.952441" fill="none" stroke="#00aa00" stroke-width="3"/>
<path d="M121.664,188.229h 0.136063l 0.0453543, -0.21374h 1.0885l 0.0453543, -0.058965h 0.907087" fill="none" stroke="#00aa00" stroke-width="3"/>
<path d="M123.886,187.956h 0.181417l 0.0453543, -0.239436h 1.0885l 0.0453543, -0.146783h 0.861732" fill="none" stroke="#00aa00" stroke-width="3"/>
<path d="M126.109,187.57h 0.226772l 0.0453543, -0.432844h 1.0885l 0.0453543, -0.239635h 0.816378" fill="none" stroke="#00aa00" stroke-width="3"/>
<path d="M128.331,186.898h 0.272126l 0.0453543, -0.176961h 1.0885l 0.0453543, -0.155128h 0.771024" fill="none" stroke="#00aa00" stroke-width="3"/>
<path d="M130.554,186.566h 0.31748l 0.0453543, -0.324583h 1.0885l 0.0453543, -0.121308h 0.725669" fill="none" stroke="#00aa00" stroke-width="3"/>
<path d="M132.776,186.12h 0.362835l 0.0453543, -0.213188h 1.0885l 0.0453543, -0.0511721h 0.680315" fill="none" stroke="#00aa00" stroke-width="3"/>
<path d="M134.998,185.855h 0.408189l 0.0453543, -0.133471h 1.0885l 0.0453543, -0.00353216h 0.634961" fill="none" stroke="#00aa00" stroke-width="3"/>
<path d="M137.221,185.718h 0.453543l 0.0453543, -0.0793411h 1.0885l 0.0453543, -0.0565587h 0.589606" fill="none" stroke="#00aa00" stroke-width="3"/>
<path d="M139.443,185.582h 0.498898l 0.0453543, -0.227979h 1.0885l 0.0453543, -0.0619894h 0.544252" fill="none" stroke="#00aa00" stroke-width="3"/>
<path d="M141.665,185.292h 0.544252l 0.0453543, -0.065654h 1.0885l 0.0453543, -0.0816149h 0.498898" fill="none" stroke="#00aa00" stroke-width="3"/>
<path d="M143.888,185.145h 0.589606l 0.0453543, -2.42397h 1.0885l 0.0453543, -0.00468011h 0.453543" fill="none" stroke="#00aa00" stroke-width="3"/>
<path d="M146.11,182.717h 0.634961l 0.0453543, 0.0196697h 1.0885l 0.0453543, -0.024394h 0.408189" fill="none" stroke="#00aa00" stroke-width="3"/>
<path d="M148.332,182.712h 0.680315l 0.0453543, -0.0327828h 1.0885l 0.0453543, -0.512759h 0.362835" fill="none" stroke="#00aa00" stroke-width="3"/>
<path d="M150.555,182.166h 0.725669l 0.0453543, 0.0559406h 1.0885l 0.0453543, -0.00534239h 0.31748" fill="none" stroke="#00aa00" stroke-width="3"/>
<path d="M152.777,182.217h 0.771024l 0.0453543, -0.618459h 1.0885l 0.0453543, -0.443727h 0.272126" fill="none" stroke="#00aa00" stroke-width="3"/>
<path d="M155,181.155h 0.816378l 0.0453543, 0.00534239h 1.0885l 0.0453543, -1.51011h 0.226772" fill="none" stroke="#00aa00" stroke-width="3"/>
<path d="M157.222,179.65h 0.861732l 0.0453543, -0.145591h 1.0885l 0.0453543, -0.0443065h 0.181417" fill="none" stroke="#00aa00" stroke-width="3"/>
<path d="M159.444,179.46h 0.907087l 0.0453543, -0.322839h 1.0885l 0.0453543, -0.00501125h 0.136063" fill="none" stroke="#00aa00" stroke-width="3"/>
<path d="M161.667,179.132h 0.952441l 0.0453543, -1.1976h 1.0885l 0.0453543, -0.0209943h 0.0907087" fill="none" stroke="#00aa00" stroke-width="3"/>
<path d="M163.889,177.914h 0.997795l 0.0453543, 0.00169985h 1.0885l 0.0453543, -0.153781h 0.0453543" fill="none" stroke="#00aa00" stroke-width="3"/>
<path d="M166.111,177.762h 1.04315l 0.0453543, -0.0551017h 1.0885l 0.0453543, -0.143428" fill="none" stroke="#00aa00" stroke-width="3"/>
<path d="M168.334,177.563h 1.0885l 0.0453543, -0.772969h 1.0885" fill="none" stroke="#00aa00" stroke-width="3"/>
<path d="M170.556,176.79l 0.0453543, -0.710163h 1.0885l 0.0453543, -0.280983h 1.04315" fill="none" stroke="#00aa00" stroke-width="3"/>
<path d="M172.778,175.799h 0.0453543l 0.0453543, 0.0818357h 1.0885l 0.0453543, -0.00130248h 0.997795" fill="none" stroke="#00aa00" stroke-width="3"/>
<path d="M175.001,175.879h 0.0907087l 0.0453543, 0.00342178h 1.0885l 0.0453543, -0.0230473h 0.952441" fill="none" stroke="#00aa00" stroke-width="3"/>
<path d="M177.223,175.86h 0.136063l 0.0453543, -0.0352554h 1.0885l 0.0453543, -0.0475517h 0.907087" fill="none" stroke="#00aa00" stroke-width="3"/>
<path d="M179.446,175.777h 0.181417l 0.0453543, -0.157027h 1.0885l 0.0453543, 0.0262263h 0.861732" fill="none" stroke="#00aa00" stroke-width="3"/>
<path d="M181.668,175.646h 0.226772l 0.0453543, -0.0292948h 1.0885l 0.0453543, -0.0694731h 0.816378" fill="none" stroke="#00aa00" stroke-width="3"/>
<path d="M183.89,175.547h 0.272126l 0.0453543, -0.00620335h 1.0885l 0.0453543, -0.0496047h 0.771024" fill="none" stroke="#00aa00" stroke-width="3"/>
<path d="M186.113,175.492h 0.31748l 0.0453543, -0.00622543h 1.0885l 0.0453543, -0.125833h 0.725669" fill="none" stroke="#00aa00" stroke-width="3"/>
<path d="M188.335,175.36h 0.362835l 0.0453543, -0.0465362h 1.0885l 0.0453543, -0.0483685h 0.680315" fill="none" stroke="#00aa00" stroke-width="3"/>
<path d="M190.557,175.265h 0.408189l 0.0453543, 0.209302h 1.0885l 0.0453543, -0.164091h 0.634961" fill="none" stroke="#00aa00" stroke-width="3"/>
<path d="M192.78,175.31h 0.453543l 0.0453543, -0.0469336h 1.0885l 0.0453543, -0.493244h 0.589606" fill="none" stroke="#00aa00" stroke-width="3"/>
<path d="M195.002,174.77h 0.498898l 0.0453543, -1.23299h 1.0885l 0.0453543, -0.0989225h 0.544252" fill="none" stroke="#00aa00" stroke-width="3"/>
<path d="M197.224,173.438h 0.544252l 0.0453543, -0.285685h 1.0885l 0.0453543, -0.0552341h 0.498898" fill="none" stroke="#00aa00" stroke-width="3"/>
<path d="M199.447,173.097h 0.589606l 0.0453543, -0.0622322h 1.0885l 0.0453543, -0.0622984h 0.453543" fill="none" stroke="#00aa00" stroke-width="3"/>
<path d="M201.669,172.972h 0.634961l 0.0453543, 0.0206411h 1.54205" fill="none" stroke="#00aa00" stroke-width="3"/>
<path d="M203.891,172.993h 0.680315l 0.0453543, -0.215418h 1.0885l 0.0453543, 0.00326725h 0.362835" fill="none" stroke="#00aa00" stroke-width="3"/>
<path d="M206.114,172.781h 0.725669l 0.0453543, -0.341913h 1.0885l 0.0453543, 0.0102433h 0.31748" fill="none" stroke="#00aa00" stroke-width="3"/>
<path d="M208.336,172.449h 0.771024l 0.0453543, -0.0386551h 1.0885l 0.0453543, 0.0346814h 0.272126" fill="none" stroke="#00aa00" stroke-width="3"/>
<path d="M210.559,172.445h 0.816378l 0.0453543, 0.00626958h 1.0885l 0.0453543, -0.246081h 0.226772" fill="none" stroke="#00aa00" stroke-width="3"/>
<path d="M212.781,172.205h 0.861732l 0.0453543, -1.03241h 1.0885l 0.0453543, -0.219833h 0.181417" fill="none" stroke="#00aa00" stroke-width="3"/>
<path d="M215.003,170.953h 0.907087l 0.0453543, 0.0199567h 1.0885l 0.0453543, -0.147909h 0.136063" fill="none" stroke="#00aa00" stroke-width="3"/>
<path d="M217.226,170.825h 0.952441l 0.0453543, -0.0904012h 1.0885l 0.0453543, -0.0402887h 0.0907087" fill="none" stroke="#00aa00" stroke-width="3"/>
<path d="M219.448,170.694h 0.997795l 0.0453543, -0.189015h 1.0885l 0.0453543, -0.0152766h 0.0453543" fill="none" stroke="#00aa00" stroke-width="3"/>
<path d="M221.67,170.49h 1.04315l 0.0453543, -0.217184h 1.0885l 0.0453543, -0.0989667" fill="none" stroke="#00aa00" stroke-width="3"/>
<path d="M223.893,170.174h 1.0885l 0.0453543, -0.0717249h 1.0885" fill="none" stroke="#00aa00" stroke-width="3"/>
<path d="M226.115,170.102l 0.0453543, -0.234072h 1.0885l 0.0453543, -0.596714h 1.04315" fill="none" stroke="#00aa00" stroke-width="3"/>
<path d="M228.337,169.271h 0.0453543l 0.0453543, -0.0557198h 1.0885l 0.0453543, -0.322596h 0.997795" fill="none" stroke="#00aa00" stroke-width="3"/>
<path d="M230.56,168.893h 0.0907087l 0.0453543, -0.111086h 1.0885l 0.0453543, -0.229303h 0.952441" fill="none" stroke="#00aa00" stroke-width="3"/>
<path d="M232.782,168.553h 0.136063l 0.0453543, -0.343502h 1.0885l 0.0453543, 0.0285443h 0.907087" fill="none" stroke="#00aa00" stroke-width="3"/>
<path d="M235.005,168.238h 0.181417l 0.0453543, -0.216212h 1.0885l 0.0453543, -0.0153428h 0.861732" fill="none" stroke="#00aa00" stroke-width="3"/>
<path d="M237.227,168.006h 0.226772l 0.0453543, -0.0082785h 1.0885l 0.0453543, -0.059252h 0.816378" fill="none" stroke="#00aa00" stroke-width="3"/>
<path d="M239.449,167.939h 0.272126l 0.0453543, 0.0710626h 1.0885l 0.0453543, 0.0284118h 0.771024" fill="none" stroke="#00aa00" stroke-width="3"/>
<path d="M241.672,168.038h 0.31748l 0.0453543, -0.172237h 1.0885l 0.0453543, -0.0596272h 0.725669" fill="none" stroke="#00aa00" stroke-width="3"/>
<path d="M243.894,167.806h 0.362835l 0.0453543, 0.00105965h 1.0885l 0.0453543, -0.0167998h 0.680315" fill="none" stroke="#00aa00" stroke-width="3"/>
<path d="M246.116,167.791h 0.408189l 0.0453543, 0.00103757h 1.0885l 0.0453543, -0.112323h 0.634961" fill="none" stroke="#00aa00" stroke-width="3"/>
<path d="M248.339,167.679h 0.453543l 0.0453543, -0.0253212h 1.0885l 0.0453543, -0.0347035h 0.589606" fill="none" stroke="#00aa00" stroke-width="3"/>
<path d="M250.561,167.619h 0.498898l 0.0453543, -0.190913h 1.0885l 0.0453543, -0.024703h 0.544252" fill="none" stroke="#00aa00" stroke-width="3"/>
<path d="M252.783,167.404h 0.544252l 0.0453543, -0.157667h 1.0885l 0.0453543, -0.0686122h 0.498898" fill="none" stroke="#00aa00" stroke-width="3"/>
<path d="M255.006,167.177h 0.589606l 0.0453543, -0.052298h 1.0885l 0.0453543, 0.0099342h 0.453543" fill="none" stroke="#00aa00" stroke-width="3"/>
<path d="M257.228,167.135h 0.634961l 0.0453543, -0.0875975h 1.0885l 0.0453543, -0.282793h 0.408189" fill="none" stroke="#00aa00" stroke-width="3"/>
<path d="M259.451,166.765h 0.680315l 0.0453543, -0.070312h 1.0885l 0.0453543, -0.150669h 0.362835" fill="none" stroke="#00aa00" stroke-width="3"/>
<path d="M261.673,166.544h 0.725669l 0.0453543, -0.249481h 1.0885l 0.0453543, -0.205329h 0.31748" fill="none" stroke="#00aa00" stroke-width="3"/>
<path d="M263.895,166.089h 0.771024l 0.0453543, -1.17566h 1.0885l 0.0453543, -0.258951h 0.272126" fill="none" stroke="#00aa00" stroke-width="3"/>
<path d="M266.118,164.654h 0.816378l 0.0453543, -1.33944h 1.0885l 0.0453543, -0.0899817h 0.226772" fill="none" stroke="#00aa00" stroke-width="3"/>
<path d="M268.34,163.225h 0.861732l 0.0453543, -0.0292948h 1.0885l 0.0453543, -0.113603h 0.181417" fill="none" stroke="#00aa00" stroke-width="3"/>
<path d="M270.562,163.082h 0.907087l 0.0453543, 0.122765h 1.0885l 0.0453543, 0.0423859h 0.136063" fill="none" stroke="#00aa00" stroke-width="3"/>
<path d="M272.785,163.247h 0.952441l 0.0453543, 0.0833148h 1.0885l 0.0453543, -0.127621h 0.0907087" fill="none" stroke="#00aa00" stroke-width="3"/>
<path d="M275.007,163.203h 0.997795l 0.0453543, 0.3741h 1.0885l 0.0453543, -0.261623h 0.0453543" fill="none" stroke="#00aa00" stroke-width="3"/>
<path d="M277.229,163.315h 1.04315l 0.0453543, -0.330787h 1.0885l 0.0453543, -1.35324" fill="none" stroke="#00aa00" stroke-width="3"/>
<path d="M279.452,161.631h 1.0885l 0.0453543, -0.655061h 1.0885" fill="none" stroke="#00aa00" stroke-width="3"/>
<path d="M281.674,160.976l 0.0453543, -0.395182h 1.0885l 0.0453543, -0.0802021h 1.04315" fill="none" stroke="#00aa00" stroke-width="3"/>
<path d="M283.897,160.501h 0.0453543l 0.0453543, -0.145039h 1.0885l 0.0453543, -0.106958h 0.997795" fill="none" stroke="#00aa00" stroke-width="3"/>
<path d="M286.119,160.249h 0.0907087l 0.0453543, -0.0544835h 1.0885l 0.0453543, -0.20917h 0.952441" fill="none" stroke="#00aa00" stroke-width="3"/>
<path d="M288.341,159.985h 0.136063l 0.0453543, -0.238421h 1.0885l 0.0453543, -1.242h 0.907087" fill="none" stroke="#00aa00" stroke-width="3"/>
<path d="M290.564,158.505h 0.181417l 0.0453543, -0.107289h 1.0885l 0.0453543, -0.153318h 0.861732" fill="none" stroke="#00aa00" stroke-width="3"/>
<path d="M292.786,158.244h 0.226772l 0.0453543, -0.111859h 1.0885l 0.0453543, -0.166872h 0.816378" fill="none" stroke="#00aa00" stroke-width="3"/>
<path d="M295.008,157.965h 0.272126l 0.0453543, -0.254823h 1.0885l 0.0453543, -0.18365h 0.771024" fill="none" stroke="#00aa00" stroke-width="3"/>
<path d="M297.231,157.527h 0.31748l 0.0453543, -0.0442844h 1.0885l 0.0453543, -0.144024h 0.725669" fill="none" stroke="#00aa00" stroke-width="3"/>
<path d="M299.453,157.339h 0.362835l 0.0453543, -0.0252108h 1.0885l 0.0453543, -0.0698043h 0.680315" fill="none" stroke="#00aa00" stroke-width="3"/>
<path d="M301.675,157.244h 0.408189l 0.0453543, -0.0186321h 1.0885l 0.0453543, -0.00600467h 0.634961" fill="none" stroke="#00aa00" stroke-width="3"/>
<path d="M303.898,157.219h 0.453543l 0.0453543, 0.00788113h 1.0885l 0.0453543, -0.204711h 0.589606" fill="none" stroke="#00aa00" stroke-width="3"/>
<path d="M306.12,157.022h 0.498898l 0.0453543, -0.282749h 1.0885l 0.0453543, -3.04783h 0.544252" fill="none" stroke="#00aa00" stroke-width="3"/>
<path d="M308.343,153.692h 0.544252l 0.0453543, -4.76254h 1.0885l 0.0453543, -1.54106h 0.498898" fill="none" stroke="#00aa00" stroke-width="3"/>
<path d="M310.565,147.388h 0.589606l 0.0453543, -0.072056h 1.0885l 0.0453543, -0.0476179h 0.453543" fill="none" stroke="#00aa00" stroke-width="3"/>
<path d="M312.787,147.268h 0.634961l 0.0453543, -0.0275067h 1.0885l 0.0453543, 0.0605324h 0.408189" fill="none" stroke="#00aa00" stroke-width="3"/>
<path d="M315.01,147.301h 0.680315l 0.0453543, -0.104066h 1.0885l 0.0453543, -0.187646h 0.362835" fill="none" stroke="#00aa00" stroke-width="3"/>
<path d="M317.232,147.01h 0.725669l 0.0453543, -0.062762h 1.0885l 0.0453543, -0.114199h 0.31748" fill="none" stroke="#00aa00" stroke-width="3"/>
<path d="M319.454,146.833h 0.771024l 0.0453543, 0.0283014h 1.0885l 0.0453543, -0.0898051h 0.272126" fill="none" stroke="#00aa00" stroke-width="3"/>
<path d="M321.677,146.771h 0.816378l 0.0453543, -0.208883h 1.0885l 0.0453543, -0.0164687h 0.226772" fill="none" stroke="#00aa00" stroke-width="3"/>
<path d="M323.899,146.546h 0.861732l 0.0453543, -0.0582144h 1.0885l 0.0453543, -0.347035h 0.181417" fill="none" stroke="#00aa00" stroke-width="3"/>
<path d="M326.121,146.141h 0.907087l 0.0453543, -4.44198h 1.0885l 0.0453543, -0.23182h 0.136063" fill="none" stroke="#00aa00" stroke-width="3"/>
<path d="M328.344,141.467h 0.952441l 0.0453543, -0.176122h 1.0885l 0.0453543, -0.0777075h 0.0907087" fill="none" stroke="#00aa00" stroke-width="3"/>
<path d="M330.566,141.213h 0.997795l 0.0453543, 0.088326h 1.0885l 0.0453543, -0.0147026h 0.0453543" fill="none" stroke="#00aa00" stroke-width="3"/>
<path d="M332.789,141.287h 1.04315l 0.0453543, -0.11793h 1.0885l 0.0453543, 0.0441741" fill="none" stroke="#00aa00" stroke-width="3"/>
<path d="M335.011,141.213h 1.0885l 0.0453543, -0.0380149h 1.0885" fill="none" stroke="#00aa00" stroke-width="3"/>
<path d="M337.233,141.175l 0.0453543, -0.139277h 1.0885l 0.0453543, -0.476886h 1.04315" fill="none" stroke="#00aa00" stroke-width="3"/>
<path d="M339.456,140.559h 0.0453543l 0.0453543, 0.0422314h 1.0885l 0.0453543, 0.0229811h 0.997795" fill="none" stroke="#00aa00" stroke-width="3"/>
<path d="M341.678,140.624h 0.0907087l 0.0453543, -0.155945h 1.0885l 0.0453543, -0.0561392h 0.952441" fill="none" stroke="#00aa00" stroke-width="3"/>
<path d="M343.9,140.412h 0.136063l 0.0453543, -0.200825h 1.0885l 0.0453543, -0.0388317h 0.907087" fill="none" stroke="#00aa00" stroke-width="3"/>
<path d="M346.123,140.172h 0.181417l 0.0453543, -0.220959h 1.0885l 0.0453543, -0.161243h 0.861732" fill="none" stroke="#00aa00" stroke-width="3"/>
<path d="M348.345,139.79h 0.226772l 0.0453543, -0.303854h 1.0885l 0.0453543, 0.0424301h 0.816378" fill="none" stroke="#00aa00" stroke-width="3"/>
<path d="M350.567,139.528h 0.272126l 0.0453543, -0.0150779h 1.0885l 0.0453543, -0.0591637h 0.771024" fill="none" stroke="#00aa00" stroke-width="3"/>
<path d="M352.79,139.454h 0.31748l 0.0453543, -0.24469h 1.0885l 0.0453543, 0.144532h 0.725669" fill="none" stroke="#00aa00" stroke-width="3"/>
<path d="M355.012,139.354h 0.362835l 0.0453543, -0.102344h 1.0885l 0.0453543, 0.0439533h 0.680315" fill="none" stroke="#00aa00" stroke-width="3"/>
<path d="M357.234,139.296h 0.408189l 0.0453543, -0.14111h 1.0885l 0.0453543, -0.0587884h 0.634961" fill="none" stroke="#00aa00" stroke-width="3"/>
<path d="M359.457,139.096h 0.453543l 0.0453543, -0.556006h 1.0885l 0.0453543, -0.288644h 0.589606" fill="none" stroke="#00aa00" stroke-width="3"/>
<path d="M361.679,138.251h 0.498898l 0.0453543, -0.287164h 1.0885l 0.0453543, -0.0812617h 0.544252" fill="none" stroke="#00aa00" stroke-width="3"/>
<path d="M363.902,137.883h 0.544252l 0.0453543, 0.0258068h 1.0885l 0.0453543, -0.0967811h 0.498898" fill="none" stroke="#00aa00" stroke-width="3"/>
<path d="M366.124,137.812h 0.589606l 0.0453543, -0.713606h 1.0885l 0.0453543, -0.0833589h 0.453543" fill="none" stroke="#00aa00" stroke-width="3"/>
<path d="M368.346,137.015h 0.634961l 0.0453543, -0.0206852h 1.0885l 0.0453543, -0.470594h 0.408189" fill="none" stroke="#00aa00" stroke-width="3"/>
<path d="M370.569,136.523h 0.680315l 0.0453543, -0.106186h 1.0885l 0.0453543, -0.343524h 0.362835" fill="none" stroke="#00aa00" stroke-width="3"/>
<path d="M372.791,136.074h 0.725669l 0.0453543, -0.172921h 1.0885l 0.0453543, -0.087156h 0.31748" fill="none" stroke="#00aa00" stroke-width="3"/>
<path d="M375.013,135.814h 0.771024l 0.0453543, -0.393681h 1.0885l 0.0453543, -0.687292h 0.272126" fill="none" stroke="#00aa00" stroke-width="3"/>
<path d="M377.236,134.733h 0.816378l 0.0453543, 0.298269h 1.0885l 0.0453543, -0.094132h 0.226772" fill="none" stroke="#00aa00" stroke-width="3"/>
<path d="M379.458,134.937h 0.861732l 0.0453543, -0.0701575h 1.0885l 0.0453543, -0.343679h 0.181417" fill="none" stroke="#00aa00" stroke-width="3"/>
<path d="M381.68,134.523h 0.907087l 0.0453543, -0.0694069h 1.0885l 0.0453543, -0.14239h 0.136063" fill="none" stroke="#00aa00" stroke-width="3"/>
<path d="M383.903,134.311h 0.952441l 0.0453543, 0.0410834h 1.0885l 0.0453543, -0.300167h 0.0907087" fill="none" stroke="#00aa00" stroke-width="3"/>
<path d="M386.125,134.052h 0.997795l 0.0453543, 0.0530486h 1.0885l 0.0453543, -0.0981719h 0.0453543" fill="none" stroke="#00aa00" stroke-width="3"/>
<path d="M388.348,134.007h 1.04315l 0.0453543, 0.168859h 1.0885l 0.0453543, -0.121263" fill="none" stroke="#00aa00" stroke-width="3"/>
<path d="M390.57,134.055h 1.0885l 0.0453543, -0.0237538h 1.0885" fill="none" stroke="#00aa00" stroke-width="3"/>
<path d="M392.792,134.031l 0.0453543, -0.139807h 1.0885l 0.0453543, -0.141595h 1.04315" fill="none" stroke="#00aa00" stroke-width="3"/>
<path d="M395.015,133.749h 0.0453543l 0.0453543, 0.0354099h 1.0885l 0.0453543, -0.0641749h 0.997795" fill="none" stroke="#00aa00" stroke-width="3"/>
<path d="M397.237,133.721h 0.0907087l 0.0453543, -0.0705769h 1.0885l 0.0453543, 0.0224071h 0.952441" fill="none" stroke="#00aa00" stroke-width="3"/>
<path d="M399.459,133.672h 0.136063l 0.0453543, 0.134487h 1.0885l 0.0453543, -0.070599h 0.907087" fill="none" stroke="#00aa00" stroke-width="3"/>
<path d="M401.682,133.736h 0.181417l 0.0453543, 0.0672655h 1.0885l 0.0453543, -0.00337763h 0.861732" fill="none" stroke="#00aa00" stroke-width="3"/>
<path d="M403.904,133.8h 0.226772l 0.0453543, -0.0033997h 1.0885l 0.0453543, 0.0431586h 0.816378" fill="none" stroke="#00aa00" stroke-width="3"/>
<path d="M406.126,133.84h 0.272126l 0.0453543, -0.117378h 1.0885l 0.0453543, -0.21098h 0.771024" fill="none" stroke="#00aa00" stroke-width="3"/>
<path d="M408.349,133.512h 0.31748l 0.0453543, -0.0504216h 1.0885l 0.0453543, -0.0243277h 0.725669" fill="none" stroke="#00aa00" stroke-width="3"/>
<path d="M410.571,133.437h 0.362835l 0.0453543, 0.0674421h 1.0885l 0.0453543, -0.0468232h 0.680315" fill="none" stroke="#00aa00" stroke-width="3"/>
<path d="M412.794,133.458h 0.408189l 0.0453543, -0.0730494h 1.0885l 0.0453543, 0.0430923h 0.634961" fill="none" stroke="#00aa00" stroke-width="3"/>
<path d="M415.016,133.428h 0.453543l 0.0453543, -0.0506865h 1.0885l 0.0453543, -0.501037h 0.589606" fill="none" stroke="#00aa00" stroke-width="3"/>
<path d="M417.238,132.876h 0.498898l 0.0453543, -0.0782152h 1.0885l 0.0453543, -0.286171h 0.544252" fill="none" stroke="#00aa00" stroke-width="3"/>
<path d="M419.461,132.511h 0.544252l 0.0453543, -0.12197h 1.0885l 0.0453543, -0.274449h 0.498898" fill="none" stroke="#00aa00" stroke-width="3"/>
<path d="M421.683,132.115h 0.589606l 0.0453543, -0.00721885h 1.0885l 0.0453543, -0.057508h 0.453543" fill="none" stroke="#00aa00" stroke-width="3"/>
<path d="M423.905,132.05h 0.634961l 0.0453543, -0.0049671h 1.0885l 0.0453543, -0.0049671h 0.408189" fill="none" stroke="#00aa00" stroke-width="3"/>
<path d="M426.128,132.04h 0.680315l 0.0453543, -0.219347h 1.0885l 0.0453543, -0.0732702h 0.362835" fill="none" stroke="#00aa00" stroke-width="3"/>
<path d="M428.35,131.748h 0.725669l 0.0453543, 0.0201112h 1.0885l 0.0453543, -0.0760076h 0.31748" fill="none" stroke="#00aa00" stroke-width="3"/>
<path d="M430.572,131.692h 0.771024l 0.0453543, -0.271468h 1.0885l 0.0453543, 0.06274h 0.272126" fill="none" stroke="#00aa00" stroke-width="3"/>
<path d="M432.795,131.483h 0.816378l 0.0453543, 0.0172634h 1.0885l 0.0453543, 0.068259h 0.226772" fill="none" stroke="#00aa00" stroke-width="3"/>
<path d="M435.017,131.569h 0.861732l 0.0453543, -0.0254978h 1.0885l 0.0453543, 0.068259h 0.181417" fill="none" stroke="#00aa00" stroke-width="3"/>
<path d="M437.24,131.611h 0.907087l 0.0453543, 0.0655436h 1.0885l 0.0453543, -0.0766037h 0.136063" fill="none" stroke="#00aa00" stroke-width="3"/>
<path d="M439.462,131.6h 0.952441l 0.0453543, 0.0683252h 1.0885l 0.0453543, -0.204777h 0.0907087" fill="none" stroke="#00aa00" stroke-width="3"/>
<path d="M441.684,131.464h 0.997795l 0.0453543, -0.0770452h 1.0885l 0.0453543, -0.0771777h 0.0453543" fill="none" stroke="#00aa00" stroke-width="3"/>
<path d="M443.907,131.31h 1.04315l 0.0453543, -0.00291403h 1.0885l 0.0453543, 0.182546" fill="none" stroke="#00aa00" stroke-width="3"/>
<path d="M446.129,131.489h 1.0885l 0.0453543, 0.0169985h 1.0885" fill="none" stroke="#00aa00" stroke-width="3"/>
<path d="M448.351,131.506l 0.0453543, 0.039803h 1.0885l 0.0453543, -0.00293611h 1.04315" fill="none" stroke="#00aa00" stroke-width="3"/>
<path d="M450.574,131.543h 0.0453543l 0.0453543, -0.0257848h 1.0885l 0.0453543, -0.141264h 0.997795" fill="none" stroke="#00aa00" stroke-width="3"/>
<path d="M452.796,131.376h 0.0907087l 0.0453543, 0.251578h 1.0885l 0.0453543, -1.85705h 0.952441" fill="none" stroke="#00aa00" stroke-width="3"/>
<path d="M455.018,129.771h 0.136063l 0.0453543, 0.230782h 1.0885l 0.0453543, -0.334959h 0.907087" fill="none" stroke="#00aa00" stroke-width="3"/>
<path d="M457.241,129.666h 0.181417l 0.0453543, 0.115148h 1.0885l 0.0453543, -0.101814h 0.861732" fill="none" stroke="#00aa00" stroke-width="3"/>
<path d="M459.463,129.68h 0.226772l 0.0453543, -0.056073h 1.0885l 0.0453543, -0.689521h 0.816378" fill="none" stroke="#00aa00" stroke-width="3"/>
<path d="M461.686,128.934h 0.272126l 0.0453543, 0.173186h 1.0885l 0.0453543, -0.097046h 0.771024" fill="none" stroke="#00aa00" stroke-width="3"/>
<path d="M463.908,129.01h 0.31748l 0.0453543, -0.47172h 1.0885l 0.0453543, -0.187867h 0.725669" fill="none" stroke="#00aa00" stroke-width="3"/>
<path d="M466.13,128.351h 0.362835l 0.0453543, -2.16972h 1.0885l 0.0453543, -0.223365h 0.680315" fill="none" stroke="#00aa00" stroke-width="3"/>
<path d="M468.353,125.958h 0.408189l 0.0453543, 0.047353h 1.0885l 0.0453543, -0.284096h 0.634961" fill="none" stroke="#00aa00" stroke-width="3"/>
<path d="M470.575,125.721h 0.453543l 0.0453543, 0.0414808h 1.0885l 0.0453543, -0.0713938h 0.589606" fill="none" stroke="#00aa00" stroke-width="3"/>
<path d="M472.797,125.691h 0.498898l 0.0453543, 0.0946398h 1.0885l 0.0453543, -0.13144h 0.544252" fill="none" stroke="#00aa00" stroke-width="3"/>
<path d="M475.02,125.654h 0.544252l 0.0453543, 0.118857h 1.0885l 0.0453543, 0.112764h 0.498898" fill="none" stroke="#00aa00" stroke-width="3"/>
<path d="M477.242,125.886h 1.72346l 0.0453543, -0.0966045h 0.453543" fill="none" stroke="#00aa00" stroke-width="3"/>
<path d="M479.464,125.789h 0.634961l 0.0453543, -0.0123846h 1.0885l 0.0453543, -0.191642h 0.408189" fill="none" stroke="#00aa00" stroke-width="3"/>
<path d="M481.687,125.585h 0.680315l 0.0453543, 0.0561172h 1.0885l 0.0453543, -0.116429h 0.362835" fill="none" stroke="#00aa00" stroke-width="3"/>
<path d="M483.909,125.525h 0.725669l 0.0453543, -0.0932269h 1.0885l 0.0453543, 0.154422h 0.31748" fill="none" stroke="#00aa00" stroke-width="3"/>
<path d="M486.132,125.586h 0.771024l 0.0453543, -0.0304649h 1.0885l 0.0453543, -0.326879h 0.272126" fill="none" stroke="#00aa00" stroke-width="3"/>
<path d="M488.354,125.229h 0.816378l 0.0453543, 0.184997h 1.0885l 0.0453543, 0.00401783h 0.226772" fill="none" stroke="#00aa00" stroke-width="3"/>
<path d="M490.576,125.418h 0.861732l 0.0453543, -0.538146h 1.0885l 0.0453543, -0.111859h 0.181417" fill="none" stroke="#00aa00" stroke-width="3"/>
<path d="M492.799,124.768h 0.907087l 0.0453543, 0.0240849h 1.0885l 0.0453543, 0.120557h 0.136063" fill="none" stroke="#00aa00" stroke-width="3"/>
<path d="M495.021,124.912h 0.952441l 0.0453543, -0.501942h 1.0885l 0.0453543, -3.16166h 0.0907087" fill="none" stroke="#00aa00" stroke-width="3"/>
<path d="M497.243,121.249h 0.997795l 0.0453543, -7.14792h 1.0885l 0.0453543, -1.87054h 0.0453543" fill="none" stroke="#00aa00" stroke-width="3"/>
<path d="M499.466,112.23h 1.04315l 0.0453543, -1.57751h 1.0885l 0.0453543, -1.47125" fill="none" stroke="#00aa00" stroke-width="3"/>
<path d="M501.688,109.182h 1.0885l 0.0453543, -0.552805h 1.0885" fill="none" stroke="#00aa00" stroke-width="3"/>
<path d="M503.91,108.629l 0.0453543, -2.68724h 1.0885l 0.0453543, -2.5262h 1.04315" fill="none" stroke="#00aa00" stroke-width="3"/>
<path d="M506.133,103.415h 0.0453543l 0.0453543, -0.840124h 1.0885l 0.0453543, 0.00626958h 0.997795" fill="none" stroke="#00aa00" stroke-width="3"/>
<path d="M508.355,102.581h 0.0907087l 0.0453543, -0.836349h 1.0885l 0.0453543, -11.7184h 0.952441" fill="none" stroke="#00aa00" stroke-width="3"/>
<path d="M510.577,90.0267h 0.15874" fill="none" stroke="#00aa00" stroke-width="3"/>
<path d="M57.1929,238.452h 453.543" fill="none" stroke="black"/>
<path d="M57.1929,232.093v 6.35872" fill="none" stroke="black"/>
<path d="M79.87,235.273v 3.17936" fill="none" stroke="black"/>
<path d="M102.547,235.273v 3.17936" fill="none" stroke="black"/>
<path d="M125.224,235.273v 3.17936" fill="none" stroke="black"/>
<path d="M147.901,235.273v 3.17936" fill="none" stroke="black"/>
<path d="M170.578,232.093v 6.35872" fill="none" stroke="black"/>
<path d="M193.255,235.273v 3.17936" fill="none" stroke="black"/>
<path d="M215.932,235.273v 3.17936" fill="none" stroke="black"/>
<path d="M238.609,235.273v 3.17936" fill="none" stroke="black"/>
<path d="M261.286,235.273v 3.17936" fill="none" stroke="black"/>
<path d="M283.963,232.093v 6.35872" fill="none" stroke="black"/>
<path d="M306.64,235.273v 3.17936" fill="none" stroke="black"/>
<path d="M329.318,235.273v 3.17936" fill="none" stroke="black"/>
<path d="M351.995,235.273v 3.17936" fill="none" stroke="black"/>
<path d="M374.672,235.273v 3.17936" fill="none" stroke="black"/>
<path d="M397.349,232.093v 6.35872" fill="none" stroke="black"/>
<path d="M420.026,235.273v 3.17936" fill="none" stroke="black"/>
<path d="M442.703,235.273v 3.17936" fill="none" stroke="black"/>
<path d="M465.38,235.273v 3.17936" fill="none" stroke="black"/>
<path d="M488.057,235.273v 3.17936" fill="none" stroke="black"/>
<path d="M510.734,232.093v 6.35872" fill="none" stroke="black"/>
<path d="M510.734,232.093v 6.35872" fill="none" stroke="black"/>
<path d="M57.1929,238.452v -185.463" fill="none" stroke="black"/>
<path d="M69.0984,238.176h -11.9055" fill="none" stroke="black"/>
<path d="M63.1457,230.769h -5.95276" fill="none" stroke="black"/>
<path d="M63.1457,223.361h -5.95276" fill="none" stroke="black"/>
<path d="M63.1457,215.954h -5.95276" fill="none" stroke="black"/>
<path d="M63.1457,208.546h -5.95276" fill="none" stroke="black"/>
<path d="M69.0984,201.139h -11.9055" fill="none" stroke="black"/>
<path d="M63.1457,193.731h -5.95276" fill="none" stroke="black"/>
<path d="M63.1457,186.324h -5.95276" fill="none" stroke="black"/>
<path d="M63.1457,178.916h -5.95276" fill="none" stroke="black"/>
<path d="M63.1457,171.509h -5.95276" fill="none" stroke="black"/>
<path d="M69.0984,164.101h -11.9055" fill="none" stroke="black"/>
<path d="M63.1457,156.694h -5.95276" fill="none" stroke="black"/>
<path d="M63.1457,149.287h -5.95276" fill="none" stroke="black"/>
<path d="M63.1457,141.879h -5.95276" fill="none" stroke="black"/>
<path d="M63.1457,134.472h -5.95276" fill="none" stroke="black"/>
<path d="M69.0984,127.064h -11.9055" fill="none" stroke="black"/>
<path d="M63.1457,119.657h -5.95276" fill="none" stroke="black"/>
<path d="M63.1457,112.249h -5.95276" fill="none" stroke="black"/>
<path d="M63.1457,104.842h -5.95276" fill="none" stroke="black"/>
<path d="M63.1457,97.4342h -5.95276" fill="none" stroke="black"/>
<path d="M69.0984,90.0267h -11.9055" fill="none" stroke="black"/>
<path d="M63.1457,82.6193h -5.95276" fill="none" stroke="black"/>
<path d="M63.1457,75.2118h -5.95276" fill="none" stroke="black"/>
<path d="M63.1457,67.8043h -5.95276" fill="none" stroke="black"/>
<path d="M63.1457,60.3968h -5.95276" fill="none" stroke="black"/>
<path d="M69.0984,52.9894h -11.9055" fill="none" stroke="black"/>
<path d="M69.0984,238.176h -11.9055" fill="none" stroke="black"/>
<rect x="57.1929" y="21.1957" width="226.772" height="31.7936" fill="none" stroke="black"/>
<path d="M57.1929,52.9894h 226.772" fill="none" stroke="black"/>
<path d="M283.965,52.9894v -31.7936" fill="none" stroke="black"/>
<path d="M283.965,21.1957h -226.772" fill="none" stroke="black"/>
<path d="M57.1929,21.1957v 31.7936" fill="none" stroke="black"/>
<text xml:space="preserve" x="125.139" y="32.05" fill="black" font-size="13.5683" font-family="Helvetica">Signal efficiency</text>
<path d="M67.3976,29.1441h 47.622" fill="none" stroke="#0000ee" stroke-width="3"/>
<text xml:space="preserve" x="125.139" y="48.4311" fill="black" font-size="13.5683" font-family="Helvetica">Background efficiency</text>
<path d="M67.3976,45.041h 47.622" fill="none" stroke="#ff0000" stroke-width="3"/>
<rect x="283.965" y="21.1957" width="226.772" height="31.7936" fill="none" stroke="black"/>
<path d="M283.965,52.9894h 226.772" fill="none" stroke="black"/>
<path d="M510.736,52.9894v -31.7936" fill="none" stroke="black"/>
<path d="M510.736,21.1957h -226.772" fill="none" stroke="black"/>
<path d="M283.965,21.1957v 31.7936" fill="none" stroke="black"/>
<text xml:space="preserve" x="502.617" y="44.1578" fill="black" font-size="20.7455" font-family="Helvetica">}</text>
<text xml:space="preserve" x="489.085" y="44.1578" fill="black" font-size="20.7455" font-family="Helvetica">B</text>
<path d="M481.25,28.4889l 2.84889, 15.6689" fill="none" stroke="black" stroke-width="2"/>
<path d="M484.099,44.1578l 2.84889, -21.3667" fill="none" stroke="black"/>
<path d="M486.948,22.7911h 15.6689" fill="none" stroke="black"/>
<text xml:space="preserve" x="454.186" y="44.1578" fill="black" font-size="20.7455" font-family="Helvetica"> + </text>
<text xml:space="preserve" x="351.626" y="44.1578" fill="black" font-size="20.7455" font-family="Helvetica">eS / {{5./3.}</text>
<path d="M294.169,37.0925h 47.622" fill="none" stroke="#00aa00" stroke-width="3"/>
<text xml:space="preserve" x="181.405" y="13.5322" fill="black" font-size="13.8297" font-family="Helvetica">Signal Efficiency BDTB - MassID4</text>
<path d="M57.1929,90.0267h 453.543" fill="none" stroke="black"/>
<text xml:space="preserve" x="85.2545" y="203.696" fill="black" font-size="8.52133" font-family="Helvetica" font-weight="bold">For 54492 background</text>
<text xml:space="preserve" x="228.411" y="214.379" fill="black" font-size="8.52133" font-family="Helvetica" font-weight="bold"> is</text>
<text xml:space="preserve" x="225.562" y="214.379" fill="black" font-size="8.52133" font-family="Helvetica" font-weight="bold">}</text>
<text xml:space="preserve" x="219.865" y="214.379" fill="black" font-size="8.52133" font-family="Helvetica" font-weight="bold">B</text>
<path d="M216.303,207.969l 1.42445, 6.41" fill="none" stroke="black"/>
<path d="M217.728,214.379l 0.712223, -9.25889" fill="none" stroke="black"/>
<path d="M218.44,205.12h 7.12223" fill="none" stroke="black"/>
<text xml:space="preserve" x="205.62" y="214.379" fill="black" font-size="8.52133" font-family="Helvetica" font-weight="bold"> + </text>
<text xml:space="preserve" x="85.2545" y="214.379" fill="black" font-size="8.52133" font-family="Helvetica" font-weight="bold">events the maximum eS / {{5./3.}</text>
<text xml:space="preserve" x="85.2545" y="225.062" fill="black" font-size="8.52133" font-family="Helvetica" font-weight="bold">8.37e-03 when cutting at  1.00</text>
<path d="M510.736,238.452v -185.463" fill="none" stroke="#00aa00"/>
<path d="M498.831,238.452h 11.9055" fill="none" stroke="#00aa00"/>
<path d="M504.783,234.425h 5.95276" fill="none" stroke="#00aa00"/>
<path d="M504.783,230.399h 5.95276" fill="none" stroke="#00aa00"/>
<path d="M504.783,226.372h 5.95276" fill="none" stroke="#00aa00"/>
<path d="M504.783,222.345h 5.95276" fill="none" stroke="#00aa00"/>
<path d="M498.831,218.319h 11.9055" fill="none" stroke="#00aa00"/>
<path d="M504.783,214.292h 5.95276" fill="none" stroke="#00aa00"/>
<path d="M504.783,210.265h 5.95276" fill="none" stroke="#00aa00"/>
<path d="M504.783,206.238h 5.95276" fill="none" stroke="#00aa00"/>
<path d="M504.783,202.212h 5.95276" fill="none" stroke="#00aa00"/>
<path d="M498.831,198.185h 11.9055" fill="none" stroke="#00aa00"/>
<path d="M504.783,194.158h 5.95276" fill="none" stroke="#00aa00"/>
<path d="M504.783,190.132h 5.95276" fill="none" stroke="#00aa00"/>
<path d="M504.783,186.105h 5.95276" fill="none" stroke="#00aa00"/>
<path d="M504.783,182.078h 5.95276" fill="none" stroke="#00aa00"/>
<path d="M498.831,178.051h 11.9055" fill="none" stroke="#00aa00"/>
<path d="M504.783,174.025h 5.95276" fill="none" stroke="#00aa00"/>
<path d="M504.783,169.998h 5.95276" fill="none" stroke="#00aa00"/>
<path d="M504.783,165.971h 5.95276" fill="none" stroke="#00aa00"/>
<path d="M504.783,161.945h 5.95276" fill="none" stroke="#00aa00"/>
<path d="M498.831,157.918h 11.9055" fill="none" stroke="#00aa00"/>
<path d="M504.783,153.891h 5.95276" fill="none" stroke="#00aa00"/>
<path d="M504.783,149.864h 5.95276" fill="none" stroke="#00aa00"/>
<path d="M504.783,145.838h 5.95276" fill="none" stroke="#00aa00"/>
<path d="M504.783,141.811h 5.95276" fill="none" stroke="#00aa00"/>
<path d="M498.831,137.784h 11.9055" fill="none" stroke="#00aa00"/>
<path d="M504.783,133.758h 5.95276" fill="none" stroke="#00aa00"/>
<path d="M504.783,129.731h 5.95276" fill="none" stroke="#00aa00"/>
<path d="M504.783,125.704h 5.95276" fill="none" stroke="#00aa00"/>
<path d="M504.783,121.677h 5.95276" fill="none" stroke="#00aa00"/>
<path d="M498.831,117.651h 11.9055" fill="none" stroke="#00aa00"/>
<path d="M504.783,113.624h 5.95276" fill="none" stroke="#00aa00"/>
<path d="M504.783,109.597h 5.95276" fill="none" stroke="#00aa00"/>
<path d="M504.783,105.571h 5.95276" fill="none" stroke="#00aa00"/>
<path d="M504.783,101.544h 5.95276" fill="none" stroke="#00aa00"/>
<path d="M498.831,97.5171h 11.9055" fill="none" stroke="#00aa00"/>
<path d="M504.783,93.4904h 5.95276" fill="none" stroke="#00aa00"/>
<path d="M504.783,89.4637h 5.95276" fill="none" stroke="#00aa00"/>
<path d="M504.783,85.437h 5.95276" fill="none" stroke="#00aa00"/>
<path d="M504.783,81.4103h 5.95276" fill="none" stroke="#00aa00"/>
<path d="M498.831,77.3836h 11.9055" fill="none" stroke="#00aa00"/>
<path d="M504.783,73.3569h 5.95276" fill="none" stroke="#00aa00"/>
<path d="M504.783,69.3301h 5.95276" fill="none" stroke="#00aa00"/>
<path d="M504.783,65.3034h 5.95276" fill="none" stroke="#00aa00"/>
<path d="M504.783,61.2767h 5.95276" fill="none" stroke="#00aa00"/>
<path d="M498.831,57.25h 11.9055" fill="none" stroke="#00aa00"/>
<path d="M498.831,57.25h 11.9055" fill="none" stroke="#00aa00"/>
<path d="M504.783,53.2233h 5.95276" fill="none" stroke="#00aa00"/>
<text xml:space="preserve" x="513.3" y="242.156" fill="#00aa00" font-size="10.2228" font-family="Helvetica" font-weight="bold">0</text>
<text xml:space="preserve" x="513.3" y="222.213" fill="#00aa00" font-size="10.2228" font-family="Helvetica" font-weight="bold">0.001</text>
<text xml:space="preserve" x="513.3" y="202.271" fill="#00aa00" font-size="10.2228" font-family="Helvetica" font-weight="bold">0.002</text>
<text xml:space="preserve" x="513.3" y="181.617" fill="#00aa00" font-size="10.2228" font-family="Helvetica" font-weight="bold">0.003</text>
<text xml:space="preserve" x="513.3" y="161.675" fill="#00aa00" font-size="10.2228" font-family="Helvetica" font-weight="bold">0.004</text>
<text xml:space="preserve" x="513.3" y="141.732" fill="#00aa00" font-size="10.2228" font-family="Helvetica" font-weight="bold">0.005</text>
<text xml:space="preserve" x="513.3" y="121.79" fill="#00aa00" font-size="10.2228" font-family="Helvetica" font-weight="bold">0.006</text>
<text xml:space="preserve" x="513.3" y="101.136" fill="#00aa00" font-size="10.2228" font-family="Helvetica" font-weight="bold">0.007</text>
<text xml:space="preserve" x="513.3" y="81.1934" fill="#00aa00" font-size="10.2228" font-family="Helvetica" font-weight="bold">0.008</text>
<text xml:space="preserve" x="513.3" y="61.2511" fill="#00aa00" font-size="10.2228" font-family="Helvetica" font-weight="bold">0.009</text>
<g transform="rotate(-90,544.638,137.459)">
<text xml:space="preserve" x="544.638" y="137.459" fill="#00aa00" font-size="9.00747" font-family="Helvetica" font-weight="bold">Punzi Figure of Merit</text>
</g></svg>
