<?xml version="1.0" standalone="no"?>
<svg width="567.429" height="265.447" viewBox="0 0 567.429 265.447" xmlns="http://www.w3.org/2000/svg" shape-rendering="crispEdges">
<title>
punzi/BDTBm4.svg
</title>
<desc>
Creator: ROOT Version 6.26/02
CreationDate: Wed May  4 16:53:16 2022</desc>
<defs>
</defs>
<rect x="0.5" y="0" width="566.929" height="264.947" fill="white"/>
<rect x="57.1929" y="52.9894" width="453.543" height="185.463" fill="white"/>
<rect x="57.1929" y="52.9894" width="453.543" height="185.463" fill="none" stroke="black"/>
<rect x="57.1929" y="52.9894" width="453.543" height="185.463" fill="white"/>
<rect x="57.1929" y="52.9894" width="453.543" height="185.463" fill="none" stroke="black"/>
<path d="M57.1929,238.452h 453.543" fill="none" stroke="black"/>
<path d="M57.1929,52.9894v 185.463" fill="none" stroke="black" stroke-dasharray=" 1, 2"/>
<path d="M170.578,52.9894v 185.463" fill="none" stroke="black" stroke-dasharray=" 1, 2"/>
<path d="M283.963,52.9894v 185.463" fill="none" stroke="black" stroke-dasharray=" 1, 2"/>
<path d="M397.349,52.9894v 185.463" fill="none" stroke="black" stroke-dasharray=" 1, 2"/>
<path d="M510.734,52.9894v 185.463" fill="none" stroke="black" stroke-dasharray=" 1, 2"/>
<path d="M510.734,52.9894v 185.463" fill="none" stroke="black" stroke-dasharray=" 1, 2"/>
<path d="M57.1929,238.452v -185.463" fill="none" stroke="black"/>
<path d="M510.736,235.441h -453.543" fill="none" stroke="black" stroke-dasharray=" 1, 2"/>
<path d="M510.736,198.95h -453.543" fill="none" stroke="black" stroke-dasharray=" 1, 2"/>
<path d="M510.736,162.46h -453.543" fill="none" stroke="black" stroke-dasharray=" 1, 2"/>
<path d="M510.736,125.97h -453.543" fill="none" stroke="black" stroke-dasharray=" 1, 2"/>
<path d="M510.736,89.4796h -453.543" fill="none" stroke="black" stroke-dasharray=" 1, 2"/>
<path d="M510.736,52.9894h -453.543" fill="none" stroke="black" stroke-dasharray=" 1, 2"/>
<path d="M510.736,235.441h -453.543" fill="none" stroke="black" stroke-dasharray=" 1, 2"/>
<path d="M57.1929,89.4796l 0.0680315, 29.247h 1.04315l 0.0453543, 3.01045h 1.0885" fill="none" stroke="#0000ee" stroke-width="3"/>
<path d="M59.438,121.737l 0.0453543, 2.6273h 1.0885l 0.0453543, 1.67855h 1.04315" fill="none" stroke="#0000ee" stroke-width="3"/>
<path d="M61.6603,126.043h 0.0453543l 0.0453543, 0.0729806h 1.0885l 0.0453543, 0.930502h 0.997795" fill="none" stroke="#0000ee" stroke-width="3"/>
<path d="M63.8827,127.046h 0.0907087l 0.0453543, 0.930502h 1.0885l 0.0453543, 0.0182451h 0.952441" fill="none" stroke="#0000ee" stroke-width="3"/>
<path d="M66.105,127.995h 0.136063l 0.0453543, 0.474374h 1.0885l 0.0453543, 0.0182451h 0.907087" fill="none" stroke="#0000ee" stroke-width="3"/>
<path d="M68.3274,128.488h 0.181417l 0.0453543, 0.0364903h 1.99559" fill="none" stroke="#0000ee" stroke-width="3"/>
<path d="M70.5498,128.524h 0.226772l 0.0453543, 0.401393h 1.0885l 0.0453543, 0.0912257h 0.816378" fill="none" stroke="#0000ee" stroke-width="3"/>
<path d="M72.7721,129.017h 0.272126l 0.0453543, 0.0547354h 1.0885l 0.0453543, 1.44137h 0.771024" fill="none" stroke="#0000ee" stroke-width="3"/>
<path d="M74.9945,130.513h 0.31748l 0.0453543, 1.3319h 1.0885l 0.0453543, 0.948747h 0.725669" fill="none" stroke="#0000ee" stroke-width="3"/>
<path d="M77.2169,132.794h 0.362835l 0.0453543, 0.218942h 1.81417" fill="none" stroke="#0000ee" stroke-width="3"/>
<path d="M79.4392,133.013h 0.408189l 0.0453543, 0.0182451h 1.76882" fill="none" stroke="#0000ee" stroke-width="3"/>
<path d="M81.6616,133.031h 0.453543l 0.0453543, 0.0547354h 1.0885l 0.0453543, 0.0547354h 0.589606" fill="none" stroke="#0000ee" stroke-width="3"/>
<path d="M83.8839,133.14h 0.498898l 0.0453543, 0.200697h 1.0885l 0.0453543, 0.145961h 0.544252" fill="none" stroke="#0000ee" stroke-width="3"/>
<path d="M86.1063,133.487h 0.544252l 0.0453543, 0.0364903h 1.0885l 0.0453543, 0.127716h 0.498898" fill="none" stroke="#0000ee" stroke-width="3"/>
<path d="M88.3287,133.651h 1.72346l 0.0453543, 0.109471h 0.453543" fill="none" stroke="#0000ee" stroke-width="3"/>
<path d="M90.551,133.761h 0.634961l 0.0453543, 0.200697h 1.0885l 0.0453543, 0.145961h 0.408189" fill="none" stroke="#0000ee" stroke-width="3"/>
<path d="M92.7734,134.107h 0.680315l 0.0453543, 0.0912257h 1.0885l 0.0453543, 0.182451h 0.362835" fill="none" stroke="#0000ee" stroke-width="3"/>
<path d="M94.9958,134.381h 0.725669l 0.0453543, 0.218942h 1.0885l 0.0453543, 0.109471h 0.31748" fill="none" stroke="#0000ee" stroke-width="3"/>
<path d="M97.2181,134.709h 0.771024l 0.0453543, 0.0729806h 1.40598" fill="none" stroke="#0000ee" stroke-width="3"/>
<path d="M99.4405,134.782h 1.95024l 0.0453543, 0.0182451h 0.226772" fill="none" stroke="#0000ee" stroke-width="3"/>
<path d="M101.663,134.801h 0.861732l 0.0453543, 0.0364903h 1.0885l 0.0453543, 0.0912257h 0.181417" fill="none" stroke="#0000ee" stroke-width="3"/>
<path d="M103.885,134.928h 2.22236" fill="none" stroke="#0000ee" stroke-width="3"/>
<path d="M106.108,134.928h 0.952441l 0.0453543, 0.0364903h 1.22457" fill="none" stroke="#0000ee" stroke-width="3"/>
<path d="M108.33,134.965h 2.22236" fill="none" stroke="#0000ee" stroke-width="3"/>
<path d="M110.552,134.965h 1.04315l 0.0453543, 0.0182451h 1.0885l 0.0453543, 0.0547354" fill="none" stroke="#0000ee" stroke-width="3"/>
<path d="M112.775,135.038h 1.0885l 0.0453543, 0.0729806h 1.0885" fill="none" stroke="#0000ee" stroke-width="3"/>
<path d="M114.997,135.111l 0.0453543, 0.237187h 1.0885l 0.0453543, 0.383148h 1.04315" fill="none" stroke="#0000ee" stroke-width="3"/>
<path d="M117.219,135.731h 0.0453543l 0.0453543, 0.145961h 1.0885l 0.0453543, 0.164206h 0.997795" fill="none" stroke="#0000ee" stroke-width="3"/>
<path d="M119.442,136.041h 0.0907087l 0.0453543, 0.0364903h 1.0885l 0.0453543, 0.0364903h 0.952441" fill="none" stroke="#0000ee" stroke-width="3"/>
<path d="M121.664,136.114h 0.136063l 0.0453543, 0.0182451h 1.0885l 0.0453543, 0.0364903h 0.907087" fill="none" stroke="#0000ee" stroke-width="3"/>
<path d="M123.886,136.169h 1.31528l 0.0453543, 0.401393h 0.861732" fill="none" stroke="#0000ee" stroke-width="3"/>
<path d="M126.109,136.57h 0.226772l 0.0453543, 0.474374h 1.95024" fill="none" stroke="#0000ee" stroke-width="3"/>
<path d="M128.331,137.045h 0.272126l 0.0453543, 0.784541h 1.0885l 0.0453543, 0.894012h 0.771024" fill="none" stroke="#0000ee" stroke-width="3"/>
<path d="M130.554,138.723h 0.31748l 0.0453543, 0.109471h 1.85953" fill="none" stroke="#0000ee" stroke-width="3"/>
<path d="M132.776,138.833h 0.362835l 0.0453543, 0.0364903h 1.0885l 0.0453543, 0.291922h 0.680315" fill="none" stroke="#0000ee" stroke-width="3"/>
<path d="M134.998,139.161h 0.408189l 0.0453543, 0.474374h 1.0885l 0.0453543, 0.0547354h 0.634961" fill="none" stroke="#0000ee" stroke-width="3"/>
<path d="M137.221,139.69h 0.453543l 0.0453543, 0.164206h 1.0885l 0.0453543, 0.127716h 0.589606" fill="none" stroke="#0000ee" stroke-width="3"/>
<path d="M139.443,139.982h 0.498898l 0.0453543, 0.127716h 1.0885l 0.0453543, 0.419638h 0.544252" fill="none" stroke="#0000ee" stroke-width="3"/>
<path d="M141.665,140.53h 0.544252l 0.0453543, 0.693315h 1.0885l 0.0453543, 0.200697h 0.498898" fill="none" stroke="#0000ee" stroke-width="3"/>
<path d="M143.888,141.424h 0.589606l 0.0453543, 0.0364903h 1.0885l 0.0453543, 0.0547354h 0.453543" fill="none" stroke="#0000ee" stroke-width="3"/>
<path d="M146.11,141.515h 0.634961l 0.0453543, 0.875767h 1.0885l 0.0453543, 1.00348h 0.408189" fill="none" stroke="#0000ee" stroke-width="3"/>
<path d="M148.332,143.394h 0.680315l 0.0453543, 0.164206h 1.0885l 0.0453543, 0.0912257h 0.362835" fill="none" stroke="#0000ee" stroke-width="3"/>
<path d="M150.555,143.649h 0.725669l 0.0453543, 0.0912257h 1.0885l 0.0453543, 0.0547354h 0.31748" fill="none" stroke="#0000ee" stroke-width="3"/>
<path d="M152.777,143.795h 0.771024l 0.0453543, 0.0182451h 1.0885l 0.0453543, 0.0364903h 0.272126" fill="none" stroke="#0000ee" stroke-width="3"/>
<path d="M155,143.85h 1.95024l 0.0453543, 0.164206h 0.226772" fill="none" stroke="#0000ee" stroke-width="3"/>
<path d="M157.222,144.014h 0.861732l 0.0453543, 0.164206h 1.0885l 0.0453543, 0.0364903h 0.181417" fill="none" stroke="#0000ee" stroke-width="3"/>
<path d="M159.444,144.215h 0.907087l 0.0453543, 0.200697h 1.0885l 0.0453543, 0.237187h 0.136063" fill="none" stroke="#0000ee" stroke-width="3"/>
<path d="M161.667,144.653h 0.952441l 0.0453543, 0.0729806h 1.0885l 0.0453543, 0.127716h 0.0907087" fill="none" stroke="#0000ee" stroke-width="3"/>
<path d="M163.889,144.854h 0.997795l 0.0453543, 0.0547354h 1.0885l 0.0453543, 0.200697h 0.0453543" fill="none" stroke="#0000ee" stroke-width="3"/>
<path d="M166.111,145.109h 1.04315l 0.0453543, 0.127716h 1.0885l 0.0453543, 0.109471" fill="none" stroke="#0000ee" stroke-width="3"/>
<path d="M168.334,145.346h 1.0885l 0.0453543, 0.127716h 1.0885" fill="none" stroke="#0000ee" stroke-width="3"/>
<path d="M170.556,145.474l 0.0453543, 0.0547354h 1.0885l 0.0453543, 0.0912257h 1.04315" fill="none" stroke="#0000ee" stroke-width="3"/>
<path d="M172.778,145.62h 0.0453543l 0.0453543, 0.0912257h 1.0885l 0.0453543, 0.0182451h 0.997795" fill="none" stroke="#0000ee" stroke-width="3"/>
<path d="M175.001,145.729h 0.0907087l 0.0453543, 0.0912257h 1.0885l 0.0453543, 0.510864h 0.952441" fill="none" stroke="#0000ee" stroke-width="3"/>
<path d="M177.223,146.331h 0.136063l 0.0453543, 0.875767h 1.0885l 0.0453543, 0.419638h 0.907087" fill="none" stroke="#0000ee" stroke-width="3"/>
<path d="M179.446,147.627h 0.181417l 0.0453543, 0.437883h 1.0885l 0.0453543, 0.364903h 0.861732" fill="none" stroke="#0000ee" stroke-width="3"/>
<path d="M181.668,148.43h 0.226772l 0.0453543, 0.218942h 1.0885l 0.0453543, 0.529109h 0.816378" fill="none" stroke="#0000ee" stroke-width="3"/>
<path d="M183.89,149.178h 0.272126l 0.0453543, 0.948747h 1.0885l 0.0453543, 0.0912257h 0.771024" fill="none" stroke="#0000ee" stroke-width="3"/>
<path d="M186.113,150.218h 0.31748l 0.0453543, 0.109471h 1.0885l 0.0453543, 0.164206h 0.725669" fill="none" stroke="#0000ee" stroke-width="3"/>
<path d="M188.335,150.491h 0.362835l 0.0453543, 0.0729806h 1.0885l 0.0453543, 0.0364903h 0.680315" fill="none" stroke="#0000ee" stroke-width="3"/>
<path d="M190.557,150.601h 0.408189l 0.0453543, 0.0182451h 1.0885l 0.0453543, 0.0182451h 0.634961" fill="none" stroke="#0000ee" stroke-width="3"/>
<path d="M192.78,150.637h 1.5874l 0.0453543, 0.474374h 0.589606" fill="none" stroke="#0000ee" stroke-width="3"/>
<path d="M195.002,151.112h 0.498898l 0.0453543, 0.182451h 1.0885l 0.0453543, 0.0547354h 0.544252" fill="none" stroke="#0000ee" stroke-width="3"/>
<path d="M197.224,151.349h 0.544252l 0.0453543, 0.0912257h 1.63276" fill="none" stroke="#0000ee" stroke-width="3"/>
<path d="M199.447,151.44h 2.22236" fill="none" stroke="#0000ee" stroke-width="3"/>
<path d="M201.669,151.44h 2.22236" fill="none" stroke="#0000ee" stroke-width="3"/>
<path d="M203.891,151.44h 0.680315l 0.0453543, 0.0182451h 1.0885l 0.0453543, 0.0912257h 0.362835" fill="none" stroke="#0000ee" stroke-width="3"/>
<path d="M206.114,151.55h 0.725669l 0.0453543, 0.109471h 1.0885l 0.0453543, 0.0364903h 0.31748" fill="none" stroke="#0000ee" stroke-width="3"/>
<path d="M208.336,151.696h 1.90488l 0.0453543, 0.0547354h 0.272126" fill="none" stroke="#0000ee" stroke-width="3"/>
<path d="M210.559,151.75h 0.816378l 0.0453543, 0.0729806h 1.0885l 0.0453543, 0.930502h 0.226772" fill="none" stroke="#0000ee" stroke-width="3"/>
<path d="M212.781,152.754h 0.861732l 0.0453543, 0.474374h 1.0885l 0.0453543, 0.0182451h 0.181417" fill="none" stroke="#0000ee" stroke-width="3"/>
<path d="M215.003,153.246h 0.907087l 0.0453543, 0.0729806h 1.0885l 0.0453543, 0.0364903h 0.136063" fill="none" stroke="#0000ee" stroke-width="3"/>
<path d="M217.226,153.356h 0.952441l 0.0453543, 0.0182451h 1.0885l 0.0453543, 0.0912257h 0.0907087" fill="none" stroke="#0000ee" stroke-width="3"/>
<path d="M219.448,153.465h 0.997795l 0.0453543, 0.0364903h 1.0885l 0.0453543, 0.0912257h 0.0453543" fill="none" stroke="#0000ee" stroke-width="3"/>
<path d="M221.67,153.593h 1.04315l 0.0453543, 0.182451h 1.0885l 0.0453543, 0.0912257" fill="none" stroke="#0000ee" stroke-width="3"/>
<path d="M223.893,153.867h 1.0885l 0.0453543, 0.0364903h 1.0885" fill="none" stroke="#0000ee" stroke-width="3"/>
<path d="M226.115,153.903h 2.22236" fill="none" stroke="#0000ee" stroke-width="3"/>
<path d="M228.337,153.903h 0.0453543l 0.0453543, 0.0364903h 1.0885l 0.0453543, 0.0182451h 0.997795" fill="none" stroke="#0000ee" stroke-width="3"/>
<path d="M230.56,153.958h 2.22236" fill="none" stroke="#0000ee" stroke-width="3"/>
<path d="M232.782,153.958h 2.22236" fill="none" stroke="#0000ee" stroke-width="3"/>
<path d="M235.005,153.958h 0.181417l 0.0453543, 0.0182451h 1.0885l 0.0453543, 0.0364903h 0.861732" fill="none" stroke="#0000ee" stroke-width="3"/>
<path d="M237.227,154.013h 0.226772l 0.0453543, 0.0547354h 1.0885l 0.0453543, 0.0182451h 0.816378" fill="none" stroke="#0000ee" stroke-width="3"/>
<path d="M239.449,154.086h 1.40598l 0.0453543, 0.0182451h 0.771024" fill="none" stroke="#0000ee" stroke-width="3"/>
<path d="M241.672,154.104h 0.31748l 0.0453543, 0.0364903h 1.0885l 0.0453543, 0.0547354h 0.725669" fill="none" stroke="#0000ee" stroke-width="3"/>
<path d="M243.894,154.195h 0.362835l 0.0453543, 0.255432h 1.0885l 0.0453543, 0.0364903h 0.680315" fill="none" stroke="#0000ee" stroke-width="3"/>
<path d="M246.116,154.487h 0.408189l 0.0453543, 0.109471h 1.0885l 0.0453543, 0.164206h 0.634961" fill="none" stroke="#0000ee" stroke-width="3"/>
<path d="M248.339,154.761h 1.5874l 0.0453543, 0.218942h 0.589606" fill="none" stroke="#0000ee" stroke-width="3"/>
<path d="M250.561,154.98h 0.498898l 0.0453543, 0.145961h 1.0885l 0.0453543, 0.0364903h 0.544252" fill="none" stroke="#0000ee" stroke-width="3"/>
<path d="M252.783,155.162h 2.22236" fill="none" stroke="#0000ee" stroke-width="3"/>
<path d="M255.006,155.162h 0.589606l 0.0453543, 0.0182451h 1.0885l 0.0453543, 0.0547354h 0.453543" fill="none" stroke="#0000ee" stroke-width="3"/>
<path d="M257.228,155.235h 0.634961l 0.0453543, 0.109471h 1.0885l 0.0453543, 0.273677h 0.408189" fill="none" stroke="#0000ee" stroke-width="3"/>
<path d="M259.451,155.618h 0.680315l 0.0453543, 0.0182451h 1.0885l 0.0453543, 0.0364903h 0.362835" fill="none" stroke="#0000ee" stroke-width="3"/>
<path d="M261.673,155.673h 0.725669l 0.0453543, 0.0547354h 1.0885l 0.0453543, 0.0912257h 0.31748" fill="none" stroke="#0000ee" stroke-width="3"/>
<path d="M263.895,155.819h 0.771024l 0.0453543, 0.200697h 1.0885l 0.0453543, 0.693315h 0.272126" fill="none" stroke="#0000ee" stroke-width="3"/>
<path d="M266.118,156.713h 0.816378l 0.0453543, 1.75153h 1.0885l 0.0453543, 0.948747h 0.226772" fill="none" stroke="#0000ee" stroke-width="3"/>
<path d="M268.34,159.413h 0.861732l 0.0453543, 0.310167h 1.0885l 0.0453543, 0.401393h 0.181417" fill="none" stroke="#0000ee" stroke-width="3"/>
<path d="M270.562,160.125h 0.907087l 0.0453543, 0.255432h 1.0885l 0.0453543, 0.182451h 0.136063" fill="none" stroke="#0000ee" stroke-width="3"/>
<path d="M272.785,160.563h 2.0863l 0.0453543, 0.0364903h 0.0907087" fill="none" stroke="#0000ee" stroke-width="3"/>
<path d="M275.007,160.599h 2.22236" fill="none" stroke="#0000ee" stroke-width="3"/>
<path d="M277.229,160.599h 1.04315l 0.0453543, 0.0729806h 1.0885l 0.0453543, 0.255432" fill="none" stroke="#0000ee" stroke-width="3"/>
<path d="M279.452,160.928h 1.0885l 0.0453543, 0.200697h 1.0885" fill="none" stroke="#0000ee" stroke-width="3"/>
<path d="M281.674,161.128l 0.0453543, 0.0912257h 1.0885l 0.0453543, 0.0182451h 1.04315" fill="none" stroke="#0000ee" stroke-width="3"/>
<path d="M283.897,161.238h 0.0453543l 0.0453543, 0.109471h 1.0885l 0.0453543, 0.310167h 0.997795" fill="none" stroke="#0000ee" stroke-width="3"/>
<path d="M286.119,161.657h 0.0907087l 0.0453543, 0.529109h 1.0885l 0.0453543, 1.16769h 0.952441" fill="none" stroke="#0000ee" stroke-width="3"/>
<path d="M288.341,163.354h 0.136063l 0.0453543, 0.748051h 1.0885l 0.0453543, 0.273677h 0.907087" fill="none" stroke="#0000ee" stroke-width="3"/>
<path d="M290.564,164.376h 0.181417l 0.0453543, 0.328413h 1.0885l 0.0453543, 0.145961h 0.861732" fill="none" stroke="#0000ee" stroke-width="3"/>
<path d="M292.786,164.85h 0.226772l 0.0453543, 0.237187h 1.0885l 0.0453543, 0.419638h 0.816378" fill="none" stroke="#0000ee" stroke-width="3"/>
<path d="M295.008,165.507h 0.272126l 0.0453543, 0.255432h 1.0885l 0.0453543, 0.383148h 0.771024" fill="none" stroke="#0000ee" stroke-width="3"/>
<path d="M297.231,166.146h 0.31748l 0.0453543, 0.748051h 1.0885l 0.0453543, 0.401393h 0.725669" fill="none" stroke="#0000ee" stroke-width="3"/>
<path d="M299.453,167.295h 0.362835l 0.0453543, 0.63858h 1.0885l 0.0453543, 0.620335h 0.680315" fill="none" stroke="#0000ee" stroke-width="3"/>
<path d="M301.675,168.554h 0.408189l 0.0453543, 0.419638h 1.0885l 0.0453543, 0.127716h 0.634961" fill="none" stroke="#0000ee" stroke-width="3"/>
<path d="M303.898,169.101h 0.453543l 0.0453543, 0.0729806h 1.0885l 0.0453543, 0.0912257h 0.589606" fill="none" stroke="#0000ee" stroke-width="3"/>
<path d="M306.12,169.266h 0.498898l 0.0453543, 0.109471h 1.0885l 0.0453543, 1.84276h 0.544252" fill="none" stroke="#0000ee" stroke-width="3"/>
<path d="M308.343,171.218h 0.544252l 0.0453543, 0.912257h 1.0885l 0.0453543, 0.109471h 0.498898" fill="none" stroke="#0000ee" stroke-width="3"/>
<path d="M310.565,172.24h 0.589606l 0.0453543, 0.0912257h 1.0885l 0.0453543, 0.0364903h 0.453543" fill="none" stroke="#0000ee" stroke-width="3"/>
<path d="M312.787,172.367h 1.76882l 0.0453543, 0.0547354h 0.408189" fill="none" stroke="#0000ee" stroke-width="3"/>
<path d="M315.01,172.422h 0.680315l 0.0453543, 0.218942h 1.49669" fill="none" stroke="#0000ee" stroke-width="3"/>
<path d="M317.232,172.641h 0.725669l 0.0453543, 0.0182451h 1.0885l 0.0453543, 0.0182451h 0.31748" fill="none" stroke="#0000ee" stroke-width="3"/>
<path d="M319.454,172.677h 1.90488l 0.0453543, 0.109471h 0.272126" fill="none" stroke="#0000ee" stroke-width="3"/>
<path d="M321.677,172.787h 1.95024l 0.0453543, 0.0729806h 0.226772" fill="none" stroke="#0000ee" stroke-width="3"/>
<path d="M323.899,172.86h 0.861732l 0.0453543, 0.0729806h 1.0885l 0.0453543, 4.03218h 0.181417" fill="none" stroke="#0000ee" stroke-width="3"/>
<path d="M326.121,176.965h 0.907087l 0.0453543, 1.47786h 1.0885l 0.0453543, 0.0547354h 0.136063" fill="none" stroke="#0000ee" stroke-width="3"/>
<path d="M328.344,178.498h 0.952441l 0.0453543, 0.0364903h 1.22457" fill="none" stroke="#0000ee" stroke-width="3"/>
<path d="M330.566,178.534h 2.22236" fill="none" stroke="#0000ee" stroke-width="3"/>
<path d="M332.789,178.534h 1.04315l 0.0453543, 0.0182451h 1.0885l 0.0453543, 0.0547354" fill="none" stroke="#0000ee" stroke-width="3"/>
<path d="M335.011,178.607h 1.0885l 0.0453543, 0.0182451h 1.0885" fill="none" stroke="#0000ee" stroke-width="3"/>
<path d="M337.233,178.625h 1.13386l 0.0453543, 0.0729806h 1.04315" fill="none" stroke="#0000ee" stroke-width="3"/>
<path d="M339.456,178.698h 0.0453543l 0.0453543, 0.0364903h 1.0885l 0.0453543, 0.0729806h 0.997795" fill="none" stroke="#0000ee" stroke-width="3"/>
<path d="M341.678,178.808h 0.0907087l 0.0453543, 0.273677h 1.0885l 0.0453543, 0.474374h 0.952441" fill="none" stroke="#0000ee" stroke-width="3"/>
<path d="M343.9,179.556h 0.136063l 0.0453543, 0.0182451h 2.04094" fill="none" stroke="#0000ee" stroke-width="3"/>
<path d="M346.123,179.574h 0.181417l 0.0453543, 0.0364903h 1.0885l 0.0453543, 0.0912257h 0.861732" fill="none" stroke="#0000ee" stroke-width="3"/>
<path d="M348.345,179.702h 0.226772l 0.0453543, 0.0729806h 1.95024" fill="none" stroke="#0000ee" stroke-width="3"/>
<path d="M350.567,179.775h 0.272126l 0.0453543, 0.0912257h 1.0885l 0.0453543, 0.255432h 0.771024" fill="none" stroke="#0000ee" stroke-width="3"/>
<path d="M352.79,180.121h 0.31748l 0.0453543, 0.200697h 1.0885l 0.0453543, 0.200697h 0.725669" fill="none" stroke="#0000ee" stroke-width="3"/>
<path d="M355.012,180.523h 0.362835l 0.0453543, 0.0729806h 1.0885l 0.0453543, 0.0364903h 0.680315" fill="none" stroke="#0000ee" stroke-width="3"/>
<path d="M357.234,180.632h 0.408189l 0.0453543, 0.255432h 1.0885l 0.0453543, 0.583844h 0.634961" fill="none" stroke="#0000ee" stroke-width="3"/>
<path d="M359.457,181.472h 0.453543l 0.0453543, 0.0547354h 1.0885l 0.0453543, 0.0182451h 0.589606" fill="none" stroke="#0000ee" stroke-width="3"/>
<path d="M361.679,181.545h 0.498898l 0.0453543, 0.145961h 1.0885l 0.0453543, 0.346658h 0.544252" fill="none" stroke="#0000ee" stroke-width="3"/>
<path d="M363.902,182.037h 0.544252l 0.0453543, 0.310167h 1.0885l 0.0453543, 0.164206h 0.498898" fill="none" stroke="#0000ee" stroke-width="3"/>
<path d="M366.124,182.512h 0.589606l 0.0453543, 0.127716h 1.0885l 0.0453543, 0.419638h 0.453543" fill="none" stroke="#0000ee" stroke-width="3"/>
<path d="M368.346,183.059h 0.634961l 0.0453543, 1.4961h 1.0885l 0.0453543, 0.693315h 0.408189" fill="none" stroke="#0000ee" stroke-width="3"/>
<path d="M370.569,185.248h 0.680315l 0.0453543, 0.63858h 1.0885l 0.0453543, 0.912257h 0.362835" fill="none" stroke="#0000ee" stroke-width="3"/>
<path d="M372.791,186.799h 0.725669l 0.0453543, 0.127716h 1.0885l 0.0453543, 0.0182451h 0.31748" fill="none" stroke="#0000ee" stroke-width="3"/>
<path d="M375.013,186.945h 0.771024l 0.0453543, 0.182451h 1.0885l 0.0453543, 0.127716h 0.272126" fill="none" stroke="#0000ee" stroke-width="3"/>
<path d="M377.236,187.255h 0.816378l 0.0453543, 0.127716h 1.0885l 0.0453543, 0.0364903h 0.226772" fill="none" stroke="#0000ee" stroke-width="3"/>
<path d="M379.458,187.42h 0.861732l 0.0453543, 0.109471h 1.0885l 0.0453543, 0.310167h 0.181417" fill="none" stroke="#0000ee" stroke-width="3"/>
<path d="M381.68,187.839h 2.04094l 0.0453543, 0.0364903h 0.136063" fill="none" stroke="#0000ee" stroke-width="3"/>
<path d="M383.903,187.876h 0.952441l 0.0453543, 0.0364903h 1.0885l 0.0453543, 0.0729806h 0.0907087" fill="none" stroke="#0000ee" stroke-width="3"/>
<path d="M386.125,187.985h 0.997795l 0.0453543, 0.0729806h 1.0885l 0.0453543, 0.0547354h 0.0453543" fill="none" stroke="#0000ee" stroke-width="3"/>
<path d="M388.348,188.113h 1.04315l 0.0453543, 0.0547354h 1.13386" fill="none" stroke="#0000ee" stroke-width="3"/>
<path d="M390.57,188.168h 2.22236" fill="none" stroke="#0000ee" stroke-width="3"/>
<path d="M392.792,188.168h 2.22236" fill="none" stroke="#0000ee" stroke-width="3"/>
<path d="M395.015,188.168h 0.0453543l 0.0453543, 0.0364903h 1.0885l 0.0453543, 0.0364903h 0.997795" fill="none" stroke="#0000ee" stroke-width="3"/>
<path d="M397.237,188.241h 0.0907087l 0.0453543, 0.109471h 2.0863" fill="none" stroke="#0000ee" stroke-width="3"/>
<path d="M399.459,188.35h 1.26992l 0.0453543, 0.0182451h 0.907087" fill="none" stroke="#0000ee" stroke-width="3"/>
<path d="M401.682,188.368h 0.181417l 0.0453543, 0.0182451h 1.99559" fill="none" stroke="#0000ee" stroke-width="3"/>
<path d="M403.904,188.387h 0.226772l 0.0453543, 0.0364903h 1.0885l 0.0453543, 0.0364903h 0.816378" fill="none" stroke="#0000ee" stroke-width="3"/>
<path d="M406.126,188.46h 0.272126l 0.0453543, 0.0182451h 1.0885l 0.0453543, 0.0182451h 0.771024" fill="none" stroke="#0000ee" stroke-width="3"/>
<path d="M408.349,188.496h 0.31748l 0.0453543, 0.0364903h 1.85953" fill="none" stroke="#0000ee" stroke-width="3"/>
<path d="M410.571,188.533h 0.362835l 0.0453543, 0.0364903h 1.0885l 0.0453543, 0.0364903h 0.680315" fill="none" stroke="#0000ee" stroke-width="3"/>
<path d="M412.794,188.605h 0.408189l 0.0453543, 0.0729806h 1.0885l 0.0453543, 0.109471h 0.634961" fill="none" stroke="#0000ee" stroke-width="3"/>
<path d="M415.016,188.788h 0.453543l 0.0453543, 0.109471h 1.0885l 0.0453543, 0.0729806h 0.589606" fill="none" stroke="#0000ee" stroke-width="3"/>
<path d="M417.238,188.97h 0.498898l 0.0453543, 0.0547354h 1.0885l 0.0453543, 0.218942h 0.544252" fill="none" stroke="#0000ee" stroke-width="3"/>
<path d="M419.461,189.244h 0.544252l 0.0453543, 0.0729806h 1.0885l 0.0453543, 0.127716h 0.498898" fill="none" stroke="#0000ee" stroke-width="3"/>
<path d="M421.683,189.445h 0.589606l 0.0453543, 0.164206h 1.0885l 0.0453543, 0.273677h 0.453543" fill="none" stroke="#0000ee" stroke-width="3"/>
<path d="M423.905,189.883h 0.634961l 0.0453543, 0.109471h 1.0885l 0.0453543, 0.145961h 0.408189" fill="none" stroke="#0000ee" stroke-width="3"/>
<path d="M426.128,190.138h 2.22236" fill="none" stroke="#0000ee" stroke-width="3"/>
<path d="M428.35,190.138h 1.85953l 0.0453543, 0.0182451h 0.31748" fill="none" stroke="#0000ee" stroke-width="3"/>
<path d="M430.572,190.156h 0.771024l 0.0453543, 0.0729806h 1.40598" fill="none" stroke="#0000ee" stroke-width="3"/>
<path d="M432.795,190.229h 0.816378l 0.0453543, 0.0182451h 1.0885l 0.0453543, 0.109471h 0.226772" fill="none" stroke="#0000ee" stroke-width="3"/>
<path d="M435.017,190.357h 2.22236" fill="none" stroke="#0000ee" stroke-width="3"/>
<path d="M437.24,190.357h 2.22236" fill="none" stroke="#0000ee" stroke-width="3"/>
<path d="M439.462,190.357h 2.22236" fill="none" stroke="#0000ee" stroke-width="3"/>
<path d="M441.684,190.357h 0.997795l 0.0453543, 0.0364903h 1.0885l 0.0453543, 0.0364903h 0.0453543" fill="none" stroke="#0000ee" stroke-width="3"/>
<path d="M443.907,190.43h 1.04315l 0.0453543, 0.0182451h 1.0885l 0.0453543, 0.0182451" fill="none" stroke="#0000ee" stroke-width="3"/>
<path d="M446.129,190.466h 1.0885l 0.0453543, 0.0182451h 1.0885" fill="none" stroke="#0000ee" stroke-width="3"/>
<path d="M448.351,190.485l 0.0453543, 0.0547354h 1.0885l 0.0453543, 0.0182451h 1.04315" fill="none" stroke="#0000ee" stroke-width="3"/>
<path d="M450.574,190.558h 0.0453543l 0.0453543, 0.164206h 1.0885l 0.0453543, 0.0729806h 0.997795" fill="none" stroke="#0000ee" stroke-width="3"/>
<path d="M452.796,190.795h 0.0907087l 0.0453543, 0.0547354h 1.0885l 0.0453543, 0.401393h 0.952441" fill="none" stroke="#0000ee" stroke-width="3"/>
<path d="M455.018,191.251h 0.136063l 0.0453543, 0.200697h 1.0885l 0.0453543, 0.164206h 0.907087" fill="none" stroke="#0000ee" stroke-width="3"/>
<path d="M457.241,191.616h 0.181417l 0.0453543, 0.401393h 1.0885l 0.0453543, 0.200697h 0.861732" fill="none" stroke="#0000ee" stroke-width="3"/>
<path d="M459.463,192.218h 0.226772l 0.0453543, 0.328413h 1.0885l 0.0453543, 0.0364903h 0.816378" fill="none" stroke="#0000ee" stroke-width="3"/>
<path d="M461.686,192.583h 0.272126l 0.0453543, 0.182451h 1.90488" fill="none" stroke="#0000ee" stroke-width="3"/>
<path d="M463.908,192.765h 0.31748l 0.0453543, 0.0182451h 1.85953" fill="none" stroke="#0000ee" stroke-width="3"/>
<path d="M466.13,192.784h 0.362835l 0.0453543, 0.0182451h 1.0885l 0.0453543, 0.0729806h 0.680315" fill="none" stroke="#0000ee" stroke-width="3"/>
<path d="M468.353,192.875h 2.22236" fill="none" stroke="#0000ee" stroke-width="3"/>
<path d="M470.575,192.875h 2.22236" fill="none" stroke="#0000ee" stroke-width="3"/>
<path d="M472.797,192.875h 1.63276l 0.0453543, 0.0182451h 0.544252" fill="none" stroke="#0000ee" stroke-width="3"/>
<path d="M475.02,192.893h 0.544252l 0.0453543, 0.0182451h 1.63276" fill="none" stroke="#0000ee" stroke-width="3"/>
<path d="M477.242,192.911h 2.22236" fill="none" stroke="#0000ee" stroke-width="3"/>
<path d="M479.464,192.911h 1.76882l 0.0453543, 0.127716h 0.408189" fill="none" stroke="#0000ee" stroke-width="3"/>
<path d="M481.687,193.039h 0.680315l 0.0453543, 0.474374h 1.0885l 0.0453543, 0.164206h 0.362835" fill="none" stroke="#0000ee" stroke-width="3"/>
<path d="M483.909,193.678h 0.725669l 0.0453543, 0.255432h 1.0885l 0.0453543, 0.0912257h 0.31748" fill="none" stroke="#0000ee" stroke-width="3"/>
<path d="M486.132,194.024h 0.771024l 0.0453543, 0.109471h 1.0885l 0.0453543, 0.0547354h 0.272126" fill="none" stroke="#0000ee" stroke-width="3"/>
<path d="M488.354,194.188h 0.816378l 0.0453543, 0.60209h 1.0885l 0.0453543, 1.25891h 0.226772" fill="none" stroke="#0000ee" stroke-width="3"/>
<path d="M490.576,196.049h 0.861732l 0.0453543, 0.419638h 1.0885l 0.0453543, 0.328413h 0.181417" fill="none" stroke="#0000ee" stroke-width="3"/>
<path d="M492.799,196.798h 0.907087l 0.0453543, 0.419638h 1.0885l 0.0453543, 0.0729806h 0.136063" fill="none" stroke="#0000ee" stroke-width="3"/>
<path d="M495.021,197.29h 0.952441l 0.0453543, 0.583844h 1.0885l 0.0453543, 3.06518h 0.0907087" fill="none" stroke="#0000ee" stroke-width="3"/>
<path d="M497.243,200.939h 0.997795l 0.0453543, 1.4961h 1.0885l 0.0453543, 0.383148h 0.0453543" fill="none" stroke="#0000ee" stroke-width="3"/>
<path d="M499.466,202.818h 1.04315l 0.0453543, 0.912257h 1.0885l 0.0453543, 1.87925" fill="none" stroke="#0000ee" stroke-width="3"/>
<path d="M501.688,205.61h 1.0885l 0.0453543, 3.64903h 1.0885" fill="none" stroke="#0000ee" stroke-width="3"/>
<path d="M503.91,209.259l 0.0453543, 1.89749h 1.0885l 0.0453543, 1.51435h 1.04315" fill="none" stroke="#0000ee" stroke-width="3"/>
<path d="M506.133,212.671h 0.0453543l 0.0453543, 0.656825h 1.0885l 0.0453543, 0.109471h 0.997795" fill="none" stroke="#0000ee" stroke-width="3"/>
<path d="M508.355,213.437h 0.0907087l 0.0453543, 0.145961h 1.0885l 0.0453543, 16.0375h 0.952441" fill="none" stroke="#0000ee" stroke-width="3"/>
<path d="M510.577,229.621h 0.15874" fill="none" stroke="#0000ee" stroke-width="3"/>
<path d="M57.1929,238.452h 453.543" fill="none" stroke="black"/>
<path d="M57.1929,232.093v 6.35872" fill="none" stroke="black"/>
<path d="M79.87,235.273v 3.17936" fill="none" stroke="black"/>
<path d="M102.547,235.273v 3.17936" fill="none" stroke="black"/>
<path d="M125.224,235.273v 3.17936" fill="none" stroke="black"/>
<path d="M147.901,235.273v 3.17936" fill="none" stroke="black"/>
<path d="M170.578,232.093v 6.35872" fill="none" stroke="black"/>
<path d="M193.255,235.273v 3.17936" fill="none" stroke="black"/>
<path d="M215.932,235.273v 3.17936" fill="none" stroke="black"/>
<path d="M238.609,235.273v 3.17936" fill="none" stroke="black"/>
<path d="M261.286,235.273v 3.17936" fill="none" stroke="black"/>
<path d="M283.963,232.093v 6.35872" fill="none" stroke="black"/>
<path d="M306.64,235.273v 3.17936" fill="none" stroke="black"/>
<path d="M329.318,235.273v 3.17936" fill="none" stroke="black"/>
<path d="M351.995,235.273v 3.17936" fill="none" stroke="black"/>
<path d="M374.672,235.273v 3.17936" fill="none" stroke="black"/>
<path d="M397.349,232.093v 6.35872" fill="none" stroke="black"/>
<path d="M420.026,235.273v 3.17936" fill="none" stroke="black"/>
<path d="M442.703,235.273v 3.17936" fill="none" stroke="black"/>
<path d="M465.38,235.273v 3.17936" fill="none" stroke="black"/>
<path d="M488.057,235.273v 3.17936" fill="none" stroke="black"/>
<path d="M510.734,232.093v 6.35872" fill="none" stroke="black"/>
<path d="M510.734,232.093v 6.35872" fill="none" stroke="black"/>
<text xml:space="preserve" x="56.7656" y="247.141" fill="black" font-size="9.00747" font-family="Helvetica">1</text>
<text xml:space="preserve" x="52.4922" y="247.141" fill="black" font-size="9.00747" font-family="Times">&#8722;</text>
<text xml:space="preserve" x="165.736" y="247.141" fill="black" font-size="9.00747" font-family="Helvetica">0.5</text>
<text xml:space="preserve" x="161.462" y="247.141" fill="black" font-size="9.00747" font-family="Times">&#8722;</text>
<text xml:space="preserve" x="280.403" y="247.141" fill="black" font-size="9.00747" font-family="Helvetica">0</text>
<text xml:space="preserve" x="390.798" y="247.141" fill="black" font-size="9.00747" font-family="Helvetica">0.5</text>
<text xml:space="preserve" x="508.315" y="247.141" fill="black" font-size="9.00747" font-family="Helvetica">1</text>
<path d="M57.1929,238.452v -185.463" fill="none" stroke="black"/>
<path d="M69.0984,235.441h -11.9055" fill="none" stroke="black"/>
<path d="M63.1457,228.143h -5.95276" fill="none" stroke="black"/>
<path d="M63.1457,220.845h -5.95276" fill="none" stroke="black"/>
<path d="M63.1457,213.547h -5.95276" fill="none" stroke="black"/>
<path d="M63.1457,206.249h -5.95276" fill="none" stroke="black"/>
<path d="M69.0984,198.95h -11.9055" fill="none" stroke="black"/>
<path d="M63.1457,191.652h -5.95276" fill="none" stroke="black"/>
<path d="M63.1457,184.354h -5.95276" fill="none" stroke="black"/>
<path d="M63.1457,177.056h -5.95276" fill="none" stroke="black"/>
<path d="M63.1457,169.758h -5.95276" fill="none" stroke="black"/>
<path d="M69.0984,162.46h -11.9055" fill="none" stroke="black"/>
<path d="M63.1457,155.162h -5.95276" fill="none" stroke="black"/>
<path d="M63.1457,147.864h -5.95276" fill="none" stroke="black"/>
<path d="M63.1457,140.566h -5.95276" fill="none" stroke="black"/>
<path d="M63.1457,133.268h -5.95276" fill="none" stroke="black"/>
<path d="M69.0984,125.97h -11.9055" fill="none" stroke="black"/>
<path d="M63.1457,118.672h -5.95276" fill="none" stroke="black"/>
<path d="M63.1457,111.374h -5.95276" fill="none" stroke="black"/>
<path d="M63.1457,104.076h -5.95276" fill="none" stroke="black"/>
<path d="M63.1457,96.7777h -5.95276" fill="none" stroke="black"/>
<path d="M69.0984,89.4796h -11.9055" fill="none" stroke="black"/>
<path d="M63.1457,82.1816h -5.95276" fill="none" stroke="black"/>
<path d="M63.1457,74.8835h -5.95276" fill="none" stroke="black"/>
<path d="M63.1457,67.5855h -5.95276" fill="none" stroke="black"/>
<path d="M63.1457,60.2874h -5.95276" fill="none" stroke="black"/>
<path d="M69.0984,52.9894h -11.9055" fill="none" stroke="black"/>
<path d="M69.0984,235.441h -11.9055" fill="none" stroke="black"/>
<text xml:space="preserve" x="41.8089" y="238.595" fill="black" font-size="9.00747" font-family="Helvetica">0.6</text>
<text xml:space="preserve" x="41.8089" y="202.271" fill="black" font-size="9.00747" font-family="Helvetica">0.7</text>
<text xml:space="preserve" x="41.8089" y="165.948" fill="black" font-size="9.00747" font-family="Helvetica">0.8</text>
<text xml:space="preserve" x="41.8089" y="128.912" fill="black" font-size="9.00747" font-family="Helvetica">0.9</text>
<text xml:space="preserve" x="50.3556" y="92.5889" fill="black" font-size="9.00747" font-family="Helvetica">1</text>
<text xml:space="preserve" x="43.2334" y="56.2656" fill="black" font-size="9.00747" font-family="Helvetica">1.1</text>
<path d="M57.226,238.452l 0.0349195, -33.3004" fill="none" stroke="#00aa00" stroke-width="3"/>
<path d="M57.2609,205.152h 1.04315l 0.0453543, -5.86847h 1.0885" fill="none" stroke="#00aa00" stroke-width="3"/>
<path d="M59.438,199.283l 0.0453543, -3.72541h 1.0885l 0.0453543, -1.64131h 1.04315" fill="none" stroke="#00aa00" stroke-width="3"/>
<path d="M61.6603,193.917h 0.0453543l 0.0453543, -0.0381928h 1.0885l 0.0453543, -0.565302h 0.997795" fill="none" stroke="#00aa00" stroke-width="3"/>
<path d="M63.8827,193.313h 0.0907087l 0.0453543, -0.561321h 1.0885l 0.0453543, -0.0839329h 0.952441" fill="none" stroke="#00aa00" stroke-width="3"/>
<path d="M66.105,192.668h 0.136063l 0.0453543, -0.162842h 1.0885l 0.0453543, -0.0183787h 0.907087" fill="none" stroke="#00aa00" stroke-width="3"/>
<path d="M68.3274,192.487h 0.181417l 0.0453543, -0.00371923h 1.0885l 0.0453543, -0.049568h 0.861732" fill="none" stroke="#00aa00" stroke-width="3"/>
<path d="M70.5498,192.433h 0.226772l 0.0453543, -0.44024h 1.0885l 0.0453543, -0.0931331h 0.816378" fill="none" stroke="#00aa00" stroke-width="3"/>
<path d="M72.7721,191.9h 0.272126l 0.0453543, -0.323617h 1.0885l 0.0453543, -0.774971h 0.771024" fill="none" stroke="#00aa00" stroke-width="3"/>
<path d="M74.9945,190.801h 0.31748l 0.0453543, -0.38891h 1.0885l 0.0453543, -0.419904h 0.725669" fill="none" stroke="#00aa00" stroke-width="3"/>
<path d="M77.2169,189.993h 0.362835l 0.0453543, -0.0296016h 1.0885l 0.0453543, -0.0174869h 0.680315" fill="none" stroke="#00aa00" stroke-width="3"/>
<path d="M79.4392,189.945h 0.408189l 0.0453543, -0.0374751h 1.0885l 0.0453543, -0.0175087h 0.634961" fill="none" stroke="#00aa00" stroke-width="3"/>
<path d="M81.6616,189.89h 0.453543l 0.0453543, -0.0950688h 1.0885l 0.0453543, -0.0601385h 0.589606" fill="none" stroke="#00aa00" stroke-width="3"/>
<path d="M83.8839,189.735h 0.498898l 0.0453543, -0.150879h 1.0885l 0.0453543, -0.0380841h 0.544252" fill="none" stroke="#00aa00" stroke-width="3"/>
<path d="M86.1063,189.546h 0.544252l 0.0453543, -0.0227504h 1.0885l 0.0453543, -0.194683h 0.498898" fill="none" stroke="#00aa00" stroke-width="3"/>
<path d="M88.3287,189.329h 0.589606l 0.0453543, -0.15934h 1.0885l 0.0453543, -0.0689907h 0.453543" fill="none" stroke="#00aa00" stroke-width="3"/>
<path d="M90.551,189.101h 0.634961l 0.0453543, -0.331838h 1.0885l 0.0453543, -0.0574197h 0.408189" fill="none" stroke="#00aa00" stroke-width="3"/>
<path d="M92.7734,188.711h 0.680315l 0.0453543, -0.443654h 1.0885l 0.0453543, -0.659849h 0.362835" fill="none" stroke="#00aa00" stroke-width="3"/>
<path d="M94.9958,187.608h 0.725669l 0.0453543, -0.125758h 1.0885l 0.0453543, -0.199664h 0.31748" fill="none" stroke="#00aa00" stroke-width="3"/>
<path d="M97.2181,187.282h 0.771024l 0.0453543, -0.0118972h 1.0885l 0.0453543, -0.0182482h 0.272126" fill="none" stroke="#00aa00" stroke-width="3"/>
<path d="M99.4405,187.252h 1.95024l 0.0453543, -0.0212062h 0.226772" fill="none" stroke="#00aa00" stroke-width="3"/>
<path d="M101.663,187.231h 0.861732l 0.0453543, -0.0424993h 1.0885l 0.0453543, 0.0762769h 0.181417" fill="none" stroke="#00aa00" stroke-width="3"/>
<path d="M103.885,187.265h 0.907087l 0.0453543, -0.0365181h 1.0885l 0.0453543, -0.0364963h 0.136063" fill="none" stroke="#00aa00" stroke-width="3"/>
<path d="M106.108,187.192h 0.952441l 0.0453543, 0.0305151h 1.0885l 0.0453543, -0.0548097h 0.0907087" fill="none" stroke="#00aa00" stroke-width="3"/>
<path d="M108.33,187.167h 2.13165l 0.0453543, -0.0182699h 0.0453543" fill="none" stroke="#00aa00" stroke-width="3"/>
<path d="M110.552,187.149h 1.04315l 0.0453543, -0.00302324h 1.0885l 0.0453543, -0.155447" fill="none" stroke="#00aa00" stroke-width="3"/>
<path d="M112.775,186.991h 1.0885l 0.0453543, -0.103878h 1.0885" fill="none" stroke="#00aa00" stroke-width="3"/>
<path d="M114.997,186.887l 0.0453543, -0.685687h 1.0885l 0.0453543, -0.0485893h 1.04315" fill="none" stroke="#00aa00" stroke-width="3"/>
<path d="M117.219,186.153h 0.0453543l 0.0453543, -0.118798h 1.0885l 0.0453543, -0.0478933h 0.997795" fill="none" stroke="#00aa00" stroke-width="3"/>
<path d="M119.442,185.986h 0.0907087l 0.0453543, -0.00652497h 1.0885l 0.0453543, -0.211975h 0.952441" fill="none" stroke="#00aa00" stroke-width="3"/>
<path d="M121.664,185.767h 0.136063l 0.0453543, -0.0406941h 1.0885l 0.0453543, 0.0120712h 0.907087" fill="none" stroke="#00aa00" stroke-width="3"/>
<path d="M123.886,185.739h 0.181417l 0.0453543, -0.0187049h 1.0885l 0.0453543, -0.242403h 0.861732" fill="none" stroke="#00aa00" stroke-width="3"/>
<path d="M126.109,185.478h 0.226772l 0.0453543, 0.213323h 1.0885l 0.0453543, -0.0564845h 0.816378" fill="none" stroke="#00aa00" stroke-width="3"/>
<path d="M128.331,185.634h 0.272126l 0.0453543, -1.85094h 1.0885l 0.0453543, -0.692865h 0.771024" fill="none" stroke="#00aa00" stroke-width="3"/>
<path d="M130.554,183.091h 0.31748l 0.0453543, -0.101942h 1.85953" fill="none" stroke="#00aa00" stroke-width="3"/>
<path d="M132.776,182.989h 0.362835l 0.0453543, -0.165017h 1.0885l 0.0453543, -0.676792h 0.680315" fill="none" stroke="#00aa00" stroke-width="3"/>
<path d="M134.998,182.147h 0.408189l 0.0453543, -0.146942h 1.0885l 0.0453543, -0.0523738h 0.634961" fill="none" stroke="#00aa00" stroke-width="3"/>
<path d="M137.221,181.948h 0.453543l 0.0453543, -0.197598h 1.0885l 0.0453543, -0.431322h 0.589606" fill="none" stroke="#00aa00" stroke-width="3"/>
<path d="M139.443,181.319h 0.498898l 0.0453543, -0.130934h 1.0885l 0.0453543, -1.13902h 0.544252" fill="none" stroke="#00aa00" stroke-width="3"/>
<path d="M141.665,180.049h 0.544252l 0.0453543, -0.298061h 1.0885l 0.0453543, 0.0727534h 0.498898" fill="none" stroke="#00aa00" stroke-width="3"/>
<path d="M143.888,179.823h 0.589606l 0.0453543, -0.0299714h 1.0885l 0.0453543, -0.0139852h 0.453543" fill="none" stroke="#00aa00" stroke-width="3"/>
<path d="M146.11,179.779h 0.634961l 0.0453543, -1.00145h 1.0885l 0.0453543, -0.358699h 0.408189" fill="none" stroke="#00aa00" stroke-width="3"/>
<path d="M148.332,178.419h 0.680315l 0.0453543, -0.00306674h 1.0885l 0.0453543, 0.059747h 0.362835" fill="none" stroke="#00aa00" stroke-width="3"/>
<path d="M150.555,178.476h 0.725669l 0.0453543, -0.00408898h 1.0885l 0.0453543, -0.0578547h 0.31748" fill="none" stroke="#00aa00" stroke-width="3"/>
<path d="M152.777,178.414h 0.771024l 0.0453543, -0.0477193h 1.0885l 0.0453543, -0.0315374h 0.272126" fill="none" stroke="#00aa00" stroke-width="3"/>
<path d="M155,178.335h 0.816378l 0.0453543, -0.0426951h 1.0885l 0.0453543, -0.174499h 0.226772" fill="none" stroke="#00aa00" stroke-width="3"/>
<path d="M157.222,178.118h 0.861732l 0.0453543, 0.0391498h 1.0885l 0.0453543, 0.0110707h 0.181417" fill="none" stroke="#00aa00" stroke-width="3"/>
<path d="M159.444,178.168h 0.907087l 0.0453543, -0.164408h 1.0885l 0.0453543, 0.0395631h 0.136063" fill="none" stroke="#00aa00" stroke-width="3"/>
<path d="M161.667,178.043h 0.952441l 0.0453543, 0.0220979h 1.0885l 0.0453543, 0.0494375h 0.0907087" fill="none" stroke="#00aa00" stroke-width="3"/>
<path d="M163.889,178.115h 0.997795l 0.0453543, -0.0157252h 1.0885l 0.0453543, -0.122604h 0.0453543" fill="none" stroke="#00aa00" stroke-width="3"/>
<path d="M166.111,177.976h 1.04315l 0.0453543, -0.0586595h 1.0885l 0.0453543, -0.0968306" fill="none" stroke="#00aa00" stroke-width="3"/>
<path d="M168.334,177.821h 1.0885l 0.0453543, -0.0374098h 1.0885" fill="none" stroke="#00aa00" stroke-width="3"/>
<path d="M170.556,177.783l 0.0453543, 0.00565497h 1.0885l 0.0453543, -0.0702304h 1.04315" fill="none" stroke="#00aa00" stroke-width="3"/>
<path d="M172.778,177.719h 0.0453543l 0.0453543, -0.135698h 1.0885l 0.0453543, -0.0707307h 0.997795" fill="none" stroke="#00aa00" stroke-width="3"/>
<path d="M175.001,177.512h 0.0907087l 0.0453543, -0.0271439h 1.0885l 0.0453543, -0.680663h 0.952441" fill="none" stroke="#00aa00" stroke-width="3"/>
<path d="M177.223,176.804h 0.136063l 0.0453543, -0.271961h 1.0885l 0.0453543, -0.647473h 0.907087" fill="none" stroke="#00aa00" stroke-width="3"/>
<path d="M179.446,175.885h 0.181417l 0.0453543, -0.254952h 1.0885l 0.0453543, 0.151466h 0.861732" fill="none" stroke="#00aa00" stroke-width="3"/>
<path d="M181.668,175.782h 0.226772l 0.0453543, -0.117275h 1.0885l 0.0453543, -0.0165952h 0.816378" fill="none" stroke="#00aa00" stroke-width="3"/>
<path d="M183.89,175.648h 0.272126l 0.0453543, 0.138155h 1.0885l 0.0453543, 0.0606822h 0.771024" fill="none" stroke="#00aa00" stroke-width="3"/>
<path d="M186.113,175.847h 0.31748l 0.0453543, -0.449549h 1.0885l 0.0453543, -0.517691h 0.725669" fill="none" stroke="#00aa00" stroke-width="3"/>
<path d="M188.335,174.879h 0.362835l 0.0453543, -0.0948948h 1.0885l 0.0453543, 0.0335818h 0.680315" fill="none" stroke="#00aa00" stroke-width="3"/>
<path d="M190.557,174.818h 0.408189l 0.0453543, -0.00637272h 1.0885l 0.0453543, -0.0295364h 0.634961" fill="none" stroke="#00aa00" stroke-width="3"/>
<path d="M192.78,174.782h 0.453543l 0.0453543, -0.0695562h 1.0885l 0.0453543, -2.1938h 0.589606" fill="none" stroke="#00aa00" stroke-width="3"/>
<path d="M195.002,172.519h 0.498898l 0.0453543, -0.379579h 1.0885l 0.0453543, -0.04487h 0.544252" fill="none" stroke="#00aa00" stroke-width="3"/>
<path d="M197.224,172.094h 0.544252l 0.0453543, -0.0108967h 1.0885l 0.0453543, -0.0479803h 0.498898" fill="none" stroke="#00aa00" stroke-width="3"/>
<path d="M199.447,172.035h 0.589606l 0.0453543, -0.048002h 1.5874" fill="none" stroke="#00aa00" stroke-width="3"/>
<path d="M201.669,171.987h 1.76882l 0.0453543, -0.0480455h 0.408189" fill="none" stroke="#00aa00" stroke-width="3"/>
<path d="M203.891,171.939h 0.680315l 0.0453543, -0.0550708h 1.0885l 0.0453543, 0.0369966h 0.362835" fill="none" stroke="#00aa00" stroke-width="3"/>
<path d="M206.114,171.921h 0.725669l 0.0453543, -0.234986h 1.0885l 0.0453543, -0.159079h 0.31748" fill="none" stroke="#00aa00" stroke-width="3"/>
<path d="M208.336,171.527h 0.771024l 0.0453543, -0.0725359h 1.0885l 0.0453543, 0.0511775h 0.272126" fill="none" stroke="#00aa00" stroke-width="3"/>
<path d="M210.559,171.506h 0.816378l 0.0453543, -0.222371h 1.0885l 0.0453543, -1.67805h 0.226772" fill="none" stroke="#00aa00" stroke-width="3"/>
<path d="M212.781,169.605h 0.861732l 0.0453543, -0.049481h 1.0885l 0.0453543, -0.00767771h 0.181417" fill="none" stroke="#00aa00" stroke-width="3"/>
<path d="M215.003,169.548h 0.907087l 0.0453543, -0.0806921h 1.0885l 0.0453543, -0.0154207h 0.136063" fill="none" stroke="#00aa00" stroke-width="3"/>
<path d="M217.226,169.452h 0.952441l 0.0453543, -0.0577025h 1.0885l 0.0453543, -0.0887178h 0.0907087" fill="none" stroke="#00aa00" stroke-width="3"/>
<path d="M219.448,169.306h 0.997795l 0.0453543, -0.0656412h 1.0885l 0.0453543, -0.365594h 0.0453543" fill="none" stroke="#00aa00" stroke-width="3"/>
<path d="M221.67,168.874h 1.04315l 0.0453543, -0.230223h 1.0885l 0.0453543, 0.0108967" fill="none" stroke="#00aa00" stroke-width="3"/>
<path d="M223.893,168.655h 1.0885l 0.0453543, -0.0158774h 1.0885" fill="none" stroke="#00aa00" stroke-width="3"/>
<path d="M226.115,168.639h 1.13386l 0.0453543, -0.0252951h 1.04315" fill="none" stroke="#00aa00" stroke-width="3"/>
<path d="M228.337,168.614h 0.0453543l 0.0453543, 0.00939596h 1.0885l 0.0453543, -0.00793871h 0.997795" fill="none" stroke="#00aa00" stroke-width="3"/>
<path d="M230.56,168.615h 2.22236" fill="none" stroke="#00aa00" stroke-width="3"/>
<path d="M232.782,168.615h 1.26992l 0.0453543, -0.0506338h 0.907087" fill="none" stroke="#00aa00" stroke-width="3"/>
<path d="M235.005,168.565h 0.181417l 0.0453543, 0.0173564h 1.0885l 0.0453543, -0.0159209h 0.861732" fill="none" stroke="#00aa00" stroke-width="3"/>
<path d="M237.227,168.566h 0.226772l 0.0453543, 0.00143549h 1.0885l 0.0453543, -0.0586812h 0.816378" fill="none" stroke="#00aa00" stroke-width="3"/>
<path d="M239.449,168.509h 1.40598l 0.0453543, -0.00798221h 0.771024" fill="none" stroke="#00aa00" stroke-width="3"/>
<path d="M241.672,168.501h 0.31748l 0.0453543, 0.00937421h 1.0885l 0.0453543, -0.481934h 0.725669" fill="none" stroke="#00aa00" stroke-width="3"/>
<path d="M243.894,168.028h 0.362835l 0.0453543, -0.113752h 1.0885l 0.0453543, -0.118711h 0.680315" fill="none" stroke="#00aa00" stroke-width="3"/>
<path d="M246.116,167.796h 0.408189l 0.0453543, -0.151793h 1.0885l 0.0453543, 0.00297974h 0.634961" fill="none" stroke="#00aa00" stroke-width="3"/>
<path d="M248.339,167.647h 0.453543l 0.0453543, -0.0257301h 1.0885l 0.0453543, 0.158165h 0.589606" fill="none" stroke="#00aa00" stroke-width="3"/>
<path d="M250.561,167.78h 0.498898l 0.0453543, -0.0918063h 1.0885l 0.0453543, 0.0349738h 0.544252" fill="none" stroke="#00aa00" stroke-width="3"/>
<path d="M252.783,167.723h 2.22236" fill="none" stroke="#00aa00" stroke-width="3"/>
<path d="M255.006,167.723h 0.589606l 0.0453543, 0.0174652h 1.0885l 0.0453543, -0.15375h 0.453543" fill="none" stroke="#00aa00" stroke-width="3"/>
<path d="M257.228,167.586h 0.634961l 0.0453543, -0.101594h 1.0885l 0.0453543, 0.0816056h 0.408189" fill="none" stroke="#00aa00" stroke-width="3"/>
<path d="M259.451,167.566h 0.680315l 0.0453543, 0.0175304h 1.0885l 0.0453543, 0.00915671h 0.362835" fill="none" stroke="#00aa00" stroke-width="3"/>
<path d="M261.673,167.593h 0.725669l 0.0453543, -0.128716h 1.0885l 0.0453543, -0.145855h 0.31748" fill="none" stroke="#00aa00" stroke-width="3"/>
<path d="M263.895,167.319h 0.771024l 0.0453543, 0.0630747h 1.0885l 0.0453543, -0.245121h 0.272126" fill="none" stroke="#00aa00" stroke-width="3"/>
<path d="M266.118,167.137h 0.816378l 0.0453543, 0.432497h 1.0885l 0.0453543, 0.445112h 0.226772" fill="none" stroke="#00aa00" stroke-width="3"/>
<path d="M268.34,168.014h 0.861732l 0.0453543, -0.20173h 1.0885l 0.0453543, -1.07836h 0.181417" fill="none" stroke="#00aa00" stroke-width="3"/>
<path d="M270.562,166.734h 0.907087l 0.0453543, -0.668918h 1.0885l 0.0453543, -0.0383886h 0.136063" fill="none" stroke="#00aa00" stroke-width="3"/>
<path d="M272.785,166.027h 0.952441l 0.0453543, -0.0816056h 1.0885l 0.0453543, 0.00859121h 0.0907087" fill="none" stroke="#00aa00" stroke-width="3"/>
<path d="M275.007,165.954h 0.997795l 0.0453543, -0.05444h 1.17921" fill="none" stroke="#00aa00" stroke-width="3"/>
<path d="M277.229,165.899h 1.04315l 0.0453543, -0.0918498h 1.0885l 0.0453543, -0.268242" fill="none" stroke="#00aa00" stroke-width="3"/>
<path d="M279.452,165.539h 1.0885l 0.0453543, -0.26909h 1.0885" fill="none" stroke="#00aa00" stroke-width="3"/>
<path d="M281.674,165.27l 0.0453543, -0.0201404h 1.0885l 0.0453543, -0.230157h 1.04315" fill="none" stroke="#00aa00" stroke-width="3"/>
<path d="M283.897,165.02h 0.0453543l 0.0453543, -0.0853249h 1.0885l 0.0453543, -0.470233h 0.997795" fill="none" stroke="#00aa00" stroke-width="3"/>
<path d="M286.119,164.464h 0.0907087l 0.0453543, -1.24333h 1.0885l 0.0453543, -0.773339h 0.952441" fill="none" stroke="#00aa00" stroke-width="3"/>
<path d="M288.341,162.448h 0.136063l 0.0453543, -0.375338h 1.0885l 0.0453543, -0.33547h 0.907087" fill="none" stroke="#00aa00" stroke-width="3"/>
<path d="M290.564,161.737h 0.181417l 0.0453543, 0.010179h 1.0885l 0.0453543, -0.233398h 0.861732" fill="none" stroke="#00aa00" stroke-width="3"/>
<path d="M292.786,161.514h 0.226772l 0.0453543, -0.200991h 1.0885l 0.0453543, -0.372467h 0.816378" fill="none" stroke="#00aa00" stroke-width="3"/>
<path d="M295.008,160.94h 0.272126l 0.0453543, -0.275441h 1.0885l 0.0453543, -1.41218h 0.771024" fill="none" stroke="#00aa00" stroke-width="3"/>
<path d="M297.231,159.253h 0.31748l 0.0453543, -0.788325h 1.0885l 0.0453543, -0.38767h 0.725669" fill="none" stroke="#00aa00" stroke-width="3"/>
<path d="M299.453,158.077h 0.362835l 0.0453543, -1.46201h 1.0885l 0.0453543, -0.972938h 0.680315" fill="none" stroke="#00aa00" stroke-width="3"/>
<path d="M301.675,155.642h 0.408189l 0.0453543, -0.00948296h 1.0885l 0.0453543, -0.058877h 0.634961" fill="none" stroke="#00aa00" stroke-width="3"/>
<path d="M303.898,155.573h 0.453543l 0.0453543, 0.0121582h 1.0885l 0.0453543, -0.0652062h 0.589606" fill="none" stroke="#00aa00" stroke-width="3"/>
<path d="M306.12,155.52h 0.498898l 0.0453543, -0.110707h 1.0885l 0.0453543, -7.64287h 0.544252" fill="none" stroke="#00aa00" stroke-width="3"/>
<path d="M308.343,147.767h 0.544252l 0.0453543, -2.87953h 1.0885l 0.0453543, -0.172237h 0.498898" fill="none" stroke="#00aa00" stroke-width="3"/>
<path d="M310.565,144.715h 0.589606l 0.0453543, -0.0828889h 1.0885l 0.0453543, 0.00341473h 0.453543" fill="none" stroke="#00aa00" stroke-width="3"/>
<path d="M312.787,144.635h 0.634961l 0.0453543, -0.0366486h 1.0885l 0.0453543, -0.160014h 0.408189" fill="none" stroke="#00aa00" stroke-width="3"/>
<path d="M315.01,144.439h 0.680315l 0.0453543, -0.311372h 1.0885l 0.0453543, -0.0369096h 0.362835" fill="none" stroke="#00aa00" stroke-width="3"/>
<path d="M317.232,144.09h 0.725669l 0.0453543, -0.053744h 1.0885l 0.0453543, -0.0168562h 0.31748" fill="none" stroke="#00aa00" stroke-width="3"/>
<path d="M319.454,144.02h 1.90488l 0.0453543, 0.120625h 0.272126" fill="none" stroke="#00aa00" stroke-width="3"/>
<path d="M321.677,144.14h 0.816378l 0.0453543, -0.147856h 1.0885l 0.0453543, 0.00645972h 0.226772" fill="none" stroke="#00aa00" stroke-width="3"/>
<path d="M323.899,143.999h 0.861732l 0.0453543, -0.141744h 1.0885l 0.0453543, -4.75981h 0.181417" fill="none" stroke="#00aa00" stroke-width="3"/>
<path d="M326.121,139.097h 0.907087l 0.0453543, -0.246013h 1.0885l 0.0453543, -0.180568h 0.136063" fill="none" stroke="#00aa00" stroke-width="3"/>
<path d="M328.344,138.671h 0.952441l 0.0453543, -0.0394326h 1.22457" fill="none" stroke="#00aa00" stroke-width="3"/>
<path d="M330.566,138.631h 0.997795l 0.0453543, -0.0406071h 1.17921" fill="none" stroke="#00aa00" stroke-width="3"/>
<path d="M332.789,138.591h 1.04315l 0.0453543, -0.060356h 1.0885l 0.0453543, -0.100006" fill="none" stroke="#00aa00" stroke-width="3"/>
<path d="M335.011,138.43h 1.0885l 0.0453543, -0.0197924h 1.0885" fill="none" stroke="#00aa00" stroke-width="3"/>
<path d="M337.233,138.411l 0.0453543, -0.0814751h 1.0885l 0.0453543, -0.0386278h 1.04315" fill="none" stroke="#00aa00" stroke-width="3"/>
<path d="M339.456,138.291h 0.0453543l 0.0453543, -0.121386h 1.0885l 0.0453543, -0.0388453h 0.997795" fill="none" stroke="#00aa00" stroke-width="3"/>
<path d="M341.678,138.13h 0.0907087l 0.0453543, 0.0687732h 1.0885l 0.0453543, 0.176413h 0.952441" fill="none" stroke="#00aa00" stroke-width="3"/>
<path d="M343.9,138.376h 0.136063l 0.0453543, -0.0200317h 2.04094" fill="none" stroke="#00aa00" stroke-width="3"/>
<path d="M346.123,138.356h 0.181417l 0.0453543, -0.0811706h 1.0885l 0.0453543, 0.0228374h 0.861732" fill="none" stroke="#00aa00" stroke-width="3"/>
<path d="M348.345,138.297h 0.226772l 0.0453543, -0.0393021h 1.95024" fill="none" stroke="#00aa00" stroke-width="3"/>
<path d="M350.567,138.258h 0.272126l 0.0453543, -0.183112h 1.0885l 0.0453543, -0.159644h 0.771024" fill="none" stroke="#00aa00" stroke-width="3"/>
<path d="M352.79,137.915h 0.31748l 0.0453543, 0.0247514h 1.0885l 0.0453543, -0.0583115h 0.725669" fill="none" stroke="#00aa00" stroke-width="3"/>
<path d="M355.012,137.882h 0.362835l 0.0453543, 0.0843461h 1.0885l 0.0453543, 0.000674247h 0.680315" fill="none" stroke="#00aa00" stroke-width="3"/>
<path d="M357.234,137.967h 0.408189l 0.0453543, -0.411856h 1.0885l 0.0453543, -0.454181h 0.634961" fill="none" stroke="#00aa00" stroke-width="3"/>
<path d="M359.457,137.101h 0.453543l 0.0453543, 0.0215324h 1.0885l 0.0453543, 0.0212279h 0.589606" fill="none" stroke="#00aa00" stroke-width="3"/>
<path d="M361.679,137.143h 0.498898l 0.0453543, -0.0408898h 1.0885l 0.0453543, -0.103225h 0.544252" fill="none" stroke="#00aa00" stroke-width="3"/>
<path d="M363.902,136.999h 0.544252l 0.0453543, 0.107575h 1.0885l 0.0453543, 0.0219891h 0.498898" fill="none" stroke="#00aa00" stroke-width="3"/>
<path d="M366.124,137.129h 0.589606l 0.0453543, 0.0642275h 1.0885l 0.0453543, -0.703h 0.453543" fill="none" stroke="#00aa00" stroke-width="3"/>
<path d="M368.346,136.49h 0.634961l 0.0453543, 0.0346476h 1.0885l 0.0453543, -0.0943511h 0.408189" fill="none" stroke="#00aa00" stroke-width="3"/>
<path d="M370.569,136.43h 0.680315l 0.0453543, -0.0309719h 1.0885l 0.0453543, -0.0605735h 0.362835" fill="none" stroke="#00aa00" stroke-width="3"/>
<path d="M372.791,136.339h 0.725669l 0.0453543, -0.0689472h 1.0885l 0.0453543, -0.0667069h 0.31748" fill="none" stroke="#00aa00" stroke-width="3"/>
<path d="M375.013,136.203h 0.771024l 0.0453543, -0.0927633h 1.0885l 0.0453543, 0.0190964h 0.272126" fill="none" stroke="#00aa00" stroke-width="3"/>
<path d="M377.236,136.129h 0.816378l 0.0453543, -0.11423h 1.0885l 0.0453543, -0.000935246h 0.226772" fill="none" stroke="#00aa00" stroke-width="3"/>
<path d="M379.458,136.014h 0.861732l 0.0453543, -0.00289274h 1.0885l 0.0453543, 0.192095h 0.181417" fill="none" stroke="#00aa00" stroke-width="3"/>
<path d="M381.68,136.203h 2.04094l 0.0453543, 0.043565h 0.136063" fill="none" stroke="#00aa00" stroke-width="3"/>
<path d="M383.903,136.247h 0.952441l 0.0453543, 0.0435433h 1.0885l 0.0453543, -0.0464795h 0.0907087" fill="none" stroke="#00aa00" stroke-width="3"/>
<path d="M386.125,136.244h 0.997795l 0.0453543, -0.00197924h 1.0885l 0.0453543, 0.0208147h 0.0453543" fill="none" stroke="#00aa00" stroke-width="3"/>
<path d="M388.348,136.263h 1.04315l 0.0453543, 0.0208147h 1.13386" fill="none" stroke="#00aa00" stroke-width="3"/>
<path d="M390.57,136.284h 2.22236" fill="none" stroke="#00aa00" stroke-width="3"/>
<path d="M392.792,136.284h 2.22236" fill="none" stroke="#00aa00" stroke-width="3"/>
<path d="M395.015,136.284h 0.0453543l 0.0453543, -0.00102225h 1.0885l 0.0453543, -0.135002h 0.997795" fill="none" stroke="#00aa00" stroke-width="3"/>
<path d="M397.237,136.148h 0.0907087l 0.0453543, -0.00317549h 1.0885l 0.0453543, -0.0447395h 0.952441" fill="none" stroke="#00aa00" stroke-width="3"/>
<path d="M399.459,136.1h 0.136063l 0.0453543, -0.179132h 1.0885l 0.0453543, -0.112686h 0.907087" fill="none" stroke="#00aa00" stroke-width="3"/>
<path d="M401.682,135.808h 0.181417l 0.0453543, 0.0218369h 1.99559" fill="none" stroke="#00aa00" stroke-width="3"/>
<path d="M403.904,135.83h 0.226772l 0.0453543, -0.00117449h 1.0885l 0.0453543, -0.0460663h 0.816378" fill="none" stroke="#00aa00" stroke-width="3"/>
<path d="M406.126,135.783h 0.272126l 0.0453543, -0.0680119h 1.0885l 0.0453543, -0.113078h 0.771024" fill="none" stroke="#00aa00" stroke-width="3"/>
<path d="M408.349,135.601h 0.31748l 0.0453543, -0.046262h 1.0885l 0.0453543, -0.0450658h 0.725669" fill="none" stroke="#00aa00" stroke-width="3"/>
<path d="M410.571,135.51h 0.362835l 0.0453543, -0.0914583h 1.0885l 0.0453543, -0.18196h 0.680315" fill="none" stroke="#00aa00" stroke-width="3"/>
<path d="M412.794,135.237h 0.408189l 0.0453543, -0.274484h 1.0885l 0.0453543, 0.0862819h 0.634961" fill="none" stroke="#00aa00" stroke-width="3"/>
<path d="M415.016,135.049h 0.453543l 0.0453543, -0.186136h 1.0885l 0.0453543, -0.321964h 0.589606" fill="none" stroke="#00aa00" stroke-width="3"/>
<path d="M417.238,134.54h 0.498898l 0.0453543, -0.208081h 1.0885l 0.0453543, 0.0811271h 0.544252" fill="none" stroke="#00aa00" stroke-width="3"/>
<path d="M419.461,134.413h 0.544252l 0.0453543, 0.0423036h 1.0885l 0.0453543, -0.0748849h 0.498898" fill="none" stroke="#00aa00" stroke-width="3"/>
<path d="M421.683,134.381h 0.589606l 0.0453543, -0.0310589h 1.0885l 0.0453543, -0.313481h 0.453543" fill="none" stroke="#00aa00" stroke-width="3"/>
<path d="M423.905,134.036h 0.634961l 0.0453543, -0.422557h 1.0885l 0.0453543, 0.0843461h 0.408189" fill="none" stroke="#00aa00" stroke-width="3"/>
<path d="M426.128,133.698h 2.22236" fill="none" stroke="#00aa00" stroke-width="3"/>
<path d="M428.35,133.698h 1.85953l 0.0453543, -0.0242511h 0.31748" fill="none" stroke="#00aa00" stroke-width="3"/>
<path d="M430.572,133.674h 0.771024l 0.0453543, 0.0421513h 1.40598" fill="none" stroke="#00aa00" stroke-width="3"/>
<path d="M432.795,133.716h 0.816378l 0.0453543, 0.0221414h 1.0885l 0.0453543, 0.0864776h 0.226772" fill="none" stroke="#00aa00" stroke-width="3"/>
<path d="M435.017,133.825h 2.22236" fill="none" stroke="#00aa00" stroke-width="3"/>
<path d="M437.24,133.825h 2.22236" fill="none" stroke="#00aa00" stroke-width="3"/>
<path d="M439.462,133.825h 2.22236" fill="none" stroke="#00aa00" stroke-width="3"/>
<path d="M441.684,133.825h 0.997795l 0.0453543, -0.0485458h 1.0885l 0.0453543, 0.0443045h 0.0453543" fill="none" stroke="#00aa00" stroke-width="3"/>
<path d="M443.907,133.82h 1.04315l 0.0453543, 0.0221631h 1.0885l 0.0453543, 0.0221631" fill="none" stroke="#00aa00" stroke-width="3"/>
<path d="M446.129,133.865h 1.0885l 0.0453543, -0.0242946h 1.0885" fill="none" stroke="#00aa00" stroke-width="3"/>
<path d="M448.351,133.84l 0.0453543, 0.0664677h 1.0885l 0.0453543, 0.0221631h 1.04315" fill="none" stroke="#00aa00" stroke-width="3"/>
<path d="M450.574,133.929h 0.0453543l 0.0453543, 0.0601385h 1.0885l 0.0453543, -0.00430648h 0.997795" fill="none" stroke="#00aa00" stroke-width="3"/>
<path d="M452.796,133.985h 0.0907087l 0.0453543, -0.0730362h 1.0885l 0.0453543, 0.302019h 0.952441" fill="none" stroke="#00aa00" stroke-width="3"/>
<path d="M455.018,134.214h 0.136063l 0.0453543, 0.197641h 1.0885l 0.0453543, 0.060182h 0.907087" fill="none" stroke="#00aa00" stroke-width="3"/>
<path d="M457.241,134.472h 0.181417l 0.0453543, 0.255866h 1.0885l 0.0453543, 0.197924h 0.861732" fill="none" stroke="#00aa00" stroke-width="3"/>
<path d="M459.463,134.926h 0.226772l 0.0453543, 0.0271874h 1.0885l 0.0453543, -0.517387h 0.816378" fill="none" stroke="#00aa00" stroke-width="3"/>
<path d="M461.686,134.435h 0.272126l 0.0453543, -0.0588987h 1.0885l 0.0453543, -0.047045h 0.771024" fill="none" stroke="#00aa00" stroke-width="3"/>
<path d="M463.908,134.329h 0.31748l 0.0453543, 0.0223371h 1.85953" fill="none" stroke="#00aa00" stroke-width="3"/>
<path d="M466.13,134.352h 0.362835l 0.0453543, -0.11895h 1.0885l 0.0453543, -0.052091h 0.680315" fill="none" stroke="#00aa00" stroke-width="3"/>
<path d="M468.353,134.181h 2.22236" fill="none" stroke="#00aa00" stroke-width="3"/>
<path d="M470.575,134.181h 2.22236" fill="none" stroke="#00aa00" stroke-width="3"/>
<path d="M472.797,134.181h 1.63276l 0.0453543, -0.0248166h 0.544252" fill="none" stroke="#00aa00" stroke-width="3"/>
<path d="M475.02,134.156h 0.544252l 0.0453543, 0.0223371h 1.63276" fill="none" stroke="#00aa00" stroke-width="3"/>
<path d="M477.242,134.178h 2.22236" fill="none" stroke="#00aa00" stroke-width="3"/>
<path d="M479.464,134.178h 1.76882l 0.0453543, -0.0323856h 0.408189" fill="none" stroke="#00aa00" stroke-width="3"/>
<path d="M481.687,134.146h 0.680315l 0.0453543, 0.29793h 1.0885l 0.0453543, -0.0351478h 0.362835" fill="none" stroke="#00aa00" stroke-width="3"/>
<path d="M483.909,134.409h 0.725669l 0.0453543, 0.124083h 1.0885l 0.0453543, -0.0301889h 0.31748" fill="none" stroke="#00aa00" stroke-width="3"/>
<path d="M486.132,134.502h 0.771024l 0.0453543, 0.0870431h 1.0885l 0.0453543, -0.122648h 0.272126" fill="none" stroke="#00aa00" stroke-width="3"/>
<path d="M488.354,134.467h 0.816378l 0.0453543, -1.26989h 1.0885l 0.0453543, -0.726686h 0.226772" fill="none" stroke="#00aa00" stroke-width="3"/>
<path d="M490.576,132.47h 0.861732l 0.0453543, -0.215346h 1.0885l 0.0453543, -0.43167h 0.181417" fill="none" stroke="#00aa00" stroke-width="3"/>
<path d="M492.799,131.823h 0.907087l 0.0453543, 0.0279704h 1.0885l 0.0453543, -0.158035h 0.136063" fill="none" stroke="#00aa00" stroke-width="3"/>
<path d="M495.021,131.693h 0.952441l 0.0453543, -0.268959h 1.0885l 0.0453543, -9.63536h 0.0907087" fill="none" stroke="#00aa00" stroke-width="3"/>
<path d="M497.243,121.789h 0.997795l 0.0453543, -2.37826h 1.0885l 0.0453543, -1.30882h 0.0453543" fill="none" stroke="#00aa00" stroke-width="3"/>
<path d="M499.466,118.102h 1.04315l 0.0453543, -1.52443h 1.0885l 0.0453543, -7.42674" fill="none" stroke="#00aa00" stroke-width="3"/>
<path d="M501.688,109.151h 1.0885l 0.0453543, -4.97957h 1.0885" fill="none" stroke="#00aa00" stroke-width="3"/>
<path d="M503.91,104.171l 0.0453543, -3.46182h 1.0885l 0.0453543, -2.58297h 1.04315" fill="none" stroke="#00aa00" stroke-width="3"/>
<path d="M506.133,98.1263h 0.0453543l 0.0453543, 0.281161h 1.0885l 0.0453543, 0.161667h 0.997795" fill="none" stroke="#00aa00" stroke-width="3"/>
<path d="M508.355,98.5691h 0.0907087l 0.0453543, -0.47467h 1.0885l 0.0453543, -8.61479h 0.952441" fill="none" stroke="#00aa00" stroke-width="3"/>
<path d="M510.577,89.4796h 0.15874" fill="none" stroke="#00aa00" stroke-width="3"/>
<path d="M57.1929,238.452h 453.543" fill="none" stroke="black"/>
<path d="M57.1929,232.093v 6.35872" fill="none" stroke="black"/>
<path d="M79.87,235.273v 3.17936" fill="none" stroke="black"/>
<path d="M102.547,235.273v 3.17936" fill="none" stroke="black"/>
<path d="M125.224,235.273v 3.17936" fill="none" stroke="black"/>
<path d="M147.901,235.273v 3.17936" fill="none" stroke="black"/>
<path d="M170.578,232.093v 6.35872" fill="none" stroke="black"/>
<path d="M193.255,235.273v 3.17936" fill="none" stroke="black"/>
<path d="M215.932,235.273v 3.17936" fill="none" stroke="black"/>
<path d="M238.609,235.273v 3.17936" fill="none" stroke="black"/>
<path d="M261.286,235.273v 3.17936" fill="none" stroke="black"/>
<path d="M283.963,232.093v 6.35872" fill="none" stroke="black"/>
<path d="M306.64,235.273v 3.17936" fill="none" stroke="black"/>
<path d="M329.318,235.273v 3.17936" fill="none" stroke="black"/>
<path d="M351.995,235.273v 3.17936" fill="none" stroke="black"/>
<path d="M374.672,235.273v 3.17936" fill="none" stroke="black"/>
<path d="M397.349,232.093v 6.35872" fill="none" stroke="black"/>
<path d="M420.026,235.273v 3.17936" fill="none" stroke="black"/>
<path d="M442.703,235.273v 3.17936" fill="none" stroke="black"/>
<path d="M465.38,235.273v 3.17936" fill="none" stroke="black"/>
<path d="M488.057,235.273v 3.17936" fill="none" stroke="black"/>
<path d="M510.734,232.093v 6.35872" fill="none" stroke="black"/>
<path d="M510.734,232.093v 6.35872" fill="none" stroke="black"/>
<path d="M57.1929,238.452v -185.463" fill="none" stroke="black"/>
<path d="M69.0984,235.441h -11.9055" fill="none" stroke="black"/>
<path d="M63.1457,228.143h -5.95276" fill="none" stroke="black"/>
<path d="M63.1457,220.845h -5.95276" fill="none" stroke="black"/>
<path d="M63.1457,213.547h -5.95276" fill="none" stroke="black"/>
<path d="M63.1457,206.249h -5.95276" fill="none" stroke="black"/>
<path d="M69.0984,198.95h -11.9055" fill="none" stroke="black"/>
<path d="M63.1457,191.652h -5.95276" fill="none" stroke="black"/>
<path d="M63.1457,184.354h -5.95276" fill="none" stroke="black"/>
<path d="M63.1457,177.056h -5.95276" fill="none" stroke="black"/>
<path d="M63.1457,169.758h -5.95276" fill="none" stroke="black"/>
<path d="M69.0984,162.46h -11.9055" fill="none" stroke="black"/>
<path d="M63.1457,155.162h -5.95276" fill="none" stroke="black"/>
<path d="M63.1457,147.864h -5.95276" fill="none" stroke="black"/>
<path d="M63.1457,140.566h -5.95276" fill="none" stroke="black"/>
<path d="M63.1457,133.268h -5.95276" fill="none" stroke="black"/>
<path d="M69.0984,125.97h -11.9055" fill="none" stroke="black"/>
<path d="M63.1457,118.672h -5.95276" fill="none" stroke="black"/>
<path d="M63.1457,111.374h -5.95276" fill="none" stroke="black"/>
<path d="M63.1457,104.076h -5.95276" fill="none" stroke="black"/>
<path d="M63.1457,96.7777h -5.95276" fill="none" stroke="black"/>
<path d="M69.0984,89.4796h -11.9055" fill="none" stroke="black"/>
<path d="M63.1457,82.1816h -5.95276" fill="none" stroke="black"/>
<path d="M63.1457,74.8835h -5.95276" fill="none" stroke="black"/>
<path d="M63.1457,67.5855h -5.95276" fill="none" stroke="black"/>
<path d="M63.1457,60.2874h -5.95276" fill="none" stroke="black"/>
<path d="M69.0984,52.9894h -11.9055" fill="none" stroke="black"/>
<path d="M69.0984,235.441h -11.9055" fill="none" stroke="black"/>
<rect x="57.1929" y="21.1957" width="226.772" height="31.7936" fill="none" stroke="black"/>
<path d="M57.1929,52.9894h 226.772" fill="none" stroke="black"/>
<path d="M283.965,52.9894v -31.7936" fill="none" stroke="black"/>
<path d="M283.965,21.1957h -226.772" fill="none" stroke="black"/>
<path d="M57.1929,21.1957v 31.7936" fill="none" stroke="black"/>
<text xml:space="preserve" x="125.139" y="32.05" fill="black" font-size="13.5683" font-family="Helvetica">Signal efficiency</text>
<path d="M67.3976,29.1441h 47.622" fill="none" stroke="#0000ee" stroke-width="3"/>
<text xml:space="preserve" x="125.139" y="48.4311" fill="black" font-size="13.5683" font-family="Helvetica">Background efficiency</text>
<path d="M67.3976,45.041h 47.622" fill="none" stroke="#ff0000" stroke-width="3"/>
<rect x="283.965" y="21.1957" width="226.772" height="31.7936" fill="none" stroke="black"/>
<path d="M283.965,52.9894h 226.772" fill="none" stroke="black"/>
<path d="M510.736,52.9894v -31.7936" fill="none" stroke="black"/>
<path d="M510.736,21.1957h -226.772" fill="none" stroke="black"/>
<path d="M283.965,21.1957v 31.7936" fill="none" stroke="black"/>
<text xml:space="preserve" x="502.617" y="44.1578" fill="black" font-size="20.7455" font-family="Helvetica">}</text>
<text xml:space="preserve" x="489.085" y="44.1578" fill="black" font-size="20.7455" font-family="Helvetica">B</text>
<path d="M481.25,28.4889l 2.84889, 15.6689" fill="none" stroke="black" stroke-width="2"/>
<path d="M484.099,44.1578l 2.84889, -21.3667" fill="none" stroke="black"/>
<path d="M486.948,22.7911h 15.6689" fill="none" stroke="black"/>
<text xml:space="preserve" x="454.186" y="44.1578" fill="black" font-size="20.7455" font-family="Helvetica"> + </text>
<text xml:space="preserve" x="351.626" y="44.1578" fill="black" font-size="20.7455" font-family="Helvetica">eS / {{5./3.}</text>
<path d="M294.169,37.0925h 47.622" fill="none" stroke="#00aa00" stroke-width="3"/>
<text xml:space="preserve" x="181.405" y="13.5322" fill="black" font-size="13.8297" font-family="Helvetica">Signal Efficiency BDTB - MassID4</text>
<path d="M57.1929,89.4796h 453.543" fill="none" stroke="black"/>
<text xml:space="preserve" x="85.2545" y="203.696" fill="black" font-size="8.52133" font-family="Helvetica" font-weight="bold">For 54492 background</text>
<text xml:space="preserve" x="228.411" y="214.379" fill="black" font-size="8.52133" font-family="Helvetica" font-weight="bold"> is</text>
<text xml:space="preserve" x="225.562" y="214.379" fill="black" font-size="8.52133" font-family="Helvetica" font-weight="bold">}</text>
<text xml:space="preserve" x="219.865" y="214.379" fill="black" font-size="8.52133" font-family="Helvetica" font-weight="bold">B</text>
<path d="M216.303,207.969l 1.42445, 6.41" fill="none" stroke="black"/>
<path d="M217.728,214.379l 0.712223, -9.25889" fill="none" stroke="black"/>
<path d="M218.44,205.12h 7.12223" fill="none" stroke="black"/>
<text xml:space="preserve" x="205.62" y="214.379" fill="black" font-size="8.52133" font-family="Helvetica" font-weight="bold"> + </text>
<text xml:space="preserve" x="85.2545" y="214.379" fill="black" font-size="8.52133" font-family="Helvetica" font-weight="bold">events the maximum eS / {{5./3.}</text>
<text xml:space="preserve" x="85.2545" y="225.062" fill="black" font-size="8.52133" font-family="Helvetica" font-weight="bold">8.42e-03 when cutting at  1.00</text>
<path d="M510.736,238.452v -185.463" fill="none" stroke="#00aa00"/>
<path d="M498.831,238.452h 11.9055" fill="none" stroke="#00aa00"/>
<path d="M504.783,234.447h 5.95276" fill="none" stroke="#00aa00"/>
<path d="M504.783,230.442h 5.95276" fill="none" stroke="#00aa00"/>
<path d="M504.783,226.437h 5.95276" fill="none" stroke="#00aa00"/>
<path d="M504.783,222.431h 5.95276" fill="none" stroke="#00aa00"/>
<path d="M498.831,218.426h 11.9055" fill="none" stroke="#00aa00"/>
<path d="M504.783,214.421h 5.95276" fill="none" stroke="#00aa00"/>
<path d="M504.783,210.416h 5.95276" fill="none" stroke="#00aa00"/>
<path d="M504.783,206.41h 5.95276" fill="none" stroke="#00aa00"/>
<path d="M504.783,202.405h 5.95276" fill="none" stroke="#00aa00"/>
<path d="M498.831,198.4h 11.9055" fill="none" stroke="#00aa00"/>
<path d="M504.783,194.395h 5.95276" fill="none" stroke="#00aa00"/>
<path d="M504.783,190.39h 5.95276" fill="none" stroke="#00aa00"/>
<path d="M504.783,186.384h 5.95276" fill="none" stroke="#00aa00"/>
<path d="M504.783,182.379h 5.95276" fill="none" stroke="#00aa00"/>
<path d="M498.831,178.374h 11.9055" fill="none" stroke="#00aa00"/>
<path d="M504.783,174.369h 5.95276" fill="none" stroke="#00aa00"/>
<path d="M504.783,170.364h 5.95276" fill="none" stroke="#00aa00"/>
<path d="M504.783,166.358h 5.95276" fill="none" stroke="#00aa00"/>
<path d="M504.783,162.353h 5.95276" fill="none" stroke="#00aa00"/>
<path d="M498.831,158.348h 11.9055" fill="none" stroke="#00aa00"/>
<path d="M504.783,154.343h 5.95276" fill="none" stroke="#00aa00"/>
<path d="M504.783,150.338h 5.95276" fill="none" stroke="#00aa00"/>
<path d="M504.783,146.332h 5.95276" fill="none" stroke="#00aa00"/>
<path d="M504.783,142.327h 5.95276" fill="none" stroke="#00aa00"/>
<path d="M498.831,138.322h 11.9055" fill="none" stroke="#00aa00"/>
<path d="M504.783,134.317h 5.95276" fill="none" stroke="#00aa00"/>
<path d="M504.783,130.312h 5.95276" fill="none" stroke="#00aa00"/>
<path d="M504.783,126.306h 5.95276" fill="none" stroke="#00aa00"/>
<path d="M504.783,122.301h 5.95276" fill="none" stroke="#00aa00"/>
<path d="M498.831,118.296h 11.9055" fill="none" stroke="#00aa00"/>
<path d="M504.783,114.291h 5.95276" fill="none" stroke="#00aa00"/>
<path d="M504.783,110.286h 5.95276" fill="none" stroke="#00aa00"/>
<path d="M504.783,106.28h 5.95276" fill="none" stroke="#00aa00"/>
<path d="M504.783,102.275h 5.95276" fill="none" stroke="#00aa00"/>
<path d="M498.831,98.27h 11.9055" fill="none" stroke="#00aa00"/>
<path d="M504.783,94.2648h 5.95276" fill="none" stroke="#00aa00"/>
<path d="M504.783,90.2596h 5.95276" fill="none" stroke="#00aa00"/>
<path d="M504.783,86.2544h 5.95276" fill="none" stroke="#00aa00"/>
<path d="M504.783,82.2492h 5.95276" fill="none" stroke="#00aa00"/>
<path d="M498.831,78.244h 11.9055" fill="none" stroke="#00aa00"/>
<path d="M504.783,74.2388h 5.95276" fill="none" stroke="#00aa00"/>
<path d="M504.783,70.2336h 5.95276" fill="none" stroke="#00aa00"/>
<path d="M504.783,66.2284h 5.95276" fill="none" stroke="#00aa00"/>
<path d="M504.783,62.2232h 5.95276" fill="none" stroke="#00aa00"/>
<path d="M498.831,58.218h 11.9055" fill="none" stroke="#00aa00"/>
<path d="M498.831,58.218h 11.9055" fill="none" stroke="#00aa00"/>
<path d="M504.783,54.2128h 5.95276" fill="none" stroke="#00aa00"/>
<text xml:space="preserve" x="513.3" y="242.156" fill="#00aa00" font-size="10.2228" font-family="Helvetica" font-weight="bold">0</text>
<text xml:space="preserve" x="513.3" y="222.213" fill="#00aa00" font-size="10.2228" font-family="Helvetica" font-weight="bold">0.001</text>
<text xml:space="preserve" x="513.3" y="202.271" fill="#00aa00" font-size="10.2228" font-family="Helvetica" font-weight="bold">0.002</text>
<text xml:space="preserve" x="513.3" y="182.329" fill="#00aa00" font-size="10.2228" font-family="Helvetica" font-weight="bold">0.003</text>
<text xml:space="preserve" x="513.3" y="162.387" fill="#00aa00" font-size="10.2228" font-family="Helvetica" font-weight="bold">0.004</text>
<text xml:space="preserve" x="513.3" y="142.445" fill="#00aa00" font-size="10.2228" font-family="Helvetica" font-weight="bold">0.005</text>
<text xml:space="preserve" x="513.3" y="122.502" fill="#00aa00" font-size="10.2228" font-family="Helvetica" font-weight="bold">0.006</text>
<text xml:space="preserve" x="513.3" y="101.848" fill="#00aa00" font-size="10.2228" font-family="Helvetica" font-weight="bold">0.007</text>
<text xml:space="preserve" x="513.3" y="81.9056" fill="#00aa00" font-size="10.2228" font-family="Helvetica" font-weight="bold">0.008</text>
<text xml:space="preserve" x="513.3" y="61.9634" fill="#00aa00" font-size="10.2228" font-family="Helvetica" font-weight="bold">0.009</text>
<g transform="rotate(-90,544.638,137.459)">
<text xml:space="preserve" x="544.638" y="137.459" fill="#00aa00" font-size="9.00747" font-family="Helvetica" font-weight="bold">Punzi Figure of Merit</text>
</g></svg>
