<?xml version="1.0" standalone="no"?>
<svg width="567.429" height="265.447" viewBox="0 0 567.429 265.447" xmlns="http://www.w3.org/2000/svg" shape-rendering="crispEdges">
<title>
punzi/BDTBm2.svg
</title>
<desc>
Creator: ROOT Version 6.26/02
CreationDate: Wed May  4 16:53:08 2022</desc>
<defs>
</defs>
<rect x="0.5" y="0" width="566.929" height="264.947" fill="white"/>
<rect x="57.1929" y="52.9894" width="453.543" height="185.463" fill="white"/>
<rect x="57.1929" y="52.9894" width="453.543" height="185.463" fill="none" stroke="black"/>
<rect x="57.1929" y="52.9894" width="453.543" height="185.463" fill="white"/>
<rect x="57.1929" y="52.9894" width="453.543" height="185.463" fill="none" stroke="black"/>
<path d="M57.1929,238.452h 453.543" fill="none" stroke="black"/>
<path d="M57.1929,52.9894v 185.463" fill="none" stroke="black" stroke-dasharray=" 1, 2"/>
<path d="M170.578,52.9894v 185.463" fill="none" stroke="black" stroke-dasharray=" 1, 2"/>
<path d="M283.963,52.9894v 185.463" fill="none" stroke="black" stroke-dasharray=" 1, 2"/>
<path d="M397.349,52.9894v 185.463" fill="none" stroke="black" stroke-dasharray=" 1, 2"/>
<path d="M510.734,52.9894v 185.463" fill="none" stroke="black" stroke-dasharray=" 1, 2"/>
<path d="M510.734,52.9894v 185.463" fill="none" stroke="black" stroke-dasharray=" 1, 2"/>
<path d="M57.1929,238.452v -185.463" fill="none" stroke="black"/>
<path d="M510.736,213.344h -453.543" fill="none" stroke="black" stroke-dasharray=" 1, 2"/>
<path d="M510.736,181.273h -453.543" fill="none" stroke="black" stroke-dasharray=" 1, 2"/>
<path d="M510.736,149.202h -453.543" fill="none" stroke="black" stroke-dasharray=" 1, 2"/>
<path d="M510.736,117.131h -453.543" fill="none" stroke="black" stroke-dasharray=" 1, 2"/>
<path d="M510.736,85.0604h -453.543" fill="none" stroke="black" stroke-dasharray=" 1, 2"/>
<path d="M510.736,52.9894h -453.543" fill="none" stroke="black" stroke-dasharray=" 1, 2"/>
<path d="M510.736,213.344h -453.543" fill="none" stroke="black" stroke-dasharray=" 1, 2"/>
<path d="M57.1929,85.0604l 0.0680315, 29.9543h 1.04315l 0.0453543, 2.80622h 1.0885" fill="none" stroke="#0000ee" stroke-width="3"/>
<path d="M59.438,117.821l 0.0453543, 2.6619h 1.0885l 0.0453543, 0.46503h 1.04315" fill="none" stroke="#0000ee" stroke-width="3"/>
<path d="M61.6603,120.948h 0.0453543l 0.0453543, 0.801776h 1.0885l 0.0453543, 0.657456h 0.997795" fill="none" stroke="#0000ee" stroke-width="3"/>
<path d="M63.8827,122.407h 0.0907087l 0.0453543, 0.352781h 1.0885l 0.0453543, 2.40533h 0.952441" fill="none" stroke="#0000ee" stroke-width="3"/>
<path d="M66.105,125.165h 0.136063l 0.0453543, 0.865918h 1.0885l 0.0453543, 1.53941h 0.907087" fill="none" stroke="#0000ee" stroke-width="3"/>
<path d="M68.3274,127.571h 0.181417l 0.0453543, 0.60935h 1.0885l 0.0453543, 0.288639h 0.861732" fill="none" stroke="#0000ee" stroke-width="3"/>
<path d="M70.5498,128.469h 0.226772l 0.0453543, 0.0801776h 1.0885l 0.0453543, 0.0641421h 0.816378" fill="none" stroke="#0000ee" stroke-width="3"/>
<path d="M72.7721,128.613h 0.272126l 0.0453543, 0.272604h 1.0885l 0.0453543, 0.400888h 0.771024" fill="none" stroke="#0000ee" stroke-width="3"/>
<path d="M74.9945,129.286h 0.31748l 0.0453543, 0.93006h 1.0885l 0.0453543, 0.416923h 0.725669" fill="none" stroke="#0000ee" stroke-width="3"/>
<path d="M77.2169,130.633h 0.362835l 0.0453543, 0.769705h 1.0885l 0.0453543, 0.256568h 0.680315" fill="none" stroke="#0000ee" stroke-width="3"/>
<path d="M79.4392,131.66h 0.408189l 0.0453543, 0.032071h 1.0885l 0.0453543, 0.112249h 0.634961" fill="none" stroke="#0000ee" stroke-width="3"/>
<path d="M81.6616,131.804h 0.453543l 0.0453543, 0.112249h 1.0885l 0.0453543, 0.14432h 0.589606" fill="none" stroke="#0000ee" stroke-width="3"/>
<path d="M83.8839,132.06h 0.498898l 0.0453543, 0.0962131h 1.0885l 0.0453543, 0.032071h 0.544252" fill="none" stroke="#0000ee" stroke-width="3"/>
<path d="M86.1063,132.189h 0.544252l 0.0453543, 0.032071h 1.0885l 0.0453543, 0.0801776h 0.498898" fill="none" stroke="#0000ee" stroke-width="3"/>
<path d="M88.3287,132.301h 1.72346l 0.0453543, 0.032071h 0.453543" fill="none" stroke="#0000ee" stroke-width="3"/>
<path d="M90.551,132.333h 0.634961l 0.0453543, 0.0481065h 1.54205" fill="none" stroke="#0000ee" stroke-width="3"/>
<path d="M92.7734,132.381h 0.680315l 0.0453543, 0.0481065h 1.49669" fill="none" stroke="#0000ee" stroke-width="3"/>
<path d="M94.9958,132.429h 0.725669l 0.0453543, 0.112249h 1.0885l 0.0453543, 0.0160355h 0.31748" fill="none" stroke="#0000ee" stroke-width="3"/>
<path d="M97.2181,132.558h 0.771024l 0.0453543, 0.112249h 1.0885l 0.0453543, 0.14432h 0.272126" fill="none" stroke="#0000ee" stroke-width="3"/>
<path d="M99.4405,132.814h 0.816378l 0.0453543, 0.112249h 1.0885l 0.0453543, 0.0962131h 0.226772" fill="none" stroke="#0000ee" stroke-width="3"/>
<path d="M101.663,133.023h 0.861732l 0.0453543, 0.0962131h 1.0885l 0.0453543, 0.0641421h 0.181417" fill="none" stroke="#0000ee" stroke-width="3"/>
<path d="M103.885,133.183h 0.907087l 0.0453543, 0.112249h 1.0885l 0.0453543, 0.192426h 0.136063" fill="none" stroke="#0000ee" stroke-width="3"/>
<path d="M106.108,133.488h 0.952441l 0.0453543, 0.0801776h 1.0885l 0.0453543, 0.14432h 0.0907087" fill="none" stroke="#0000ee" stroke-width="3"/>
<path d="M108.33,133.712h 0.997795l 0.0453543, 0.0801776h 1.0885l 0.0453543, 0.0160355h 0.0453543" fill="none" stroke="#0000ee" stroke-width="3"/>
<path d="M110.552,133.808h 1.04315l 0.0453543, 0.176391h 1.0885l 0.0453543, 0.0160355" fill="none" stroke="#0000ee" stroke-width="3"/>
<path d="M112.775,134.001h 1.0885l 0.0453543, 0.160355h 1.0885" fill="none" stroke="#0000ee" stroke-width="3"/>
<path d="M114.997,134.161l 0.0453543, 0.032071h 1.0885l 0.0453543, 0.0962131h 1.04315" fill="none" stroke="#0000ee" stroke-width="3"/>
<path d="M117.219,134.289h 0.0453543l 0.0453543, 0.0481065h 1.0885l 0.0453543, 0.0481065h 0.997795" fill="none" stroke="#0000ee" stroke-width="3"/>
<path d="M119.442,134.386h 0.0907087l 0.0453543, 0.208462h 1.0885l 0.0453543, 0.128284h 0.952441" fill="none" stroke="#0000ee" stroke-width="3"/>
<path d="M121.664,134.722h 2.22236" fill="none" stroke="#0000ee" stroke-width="3"/>
<path d="M123.886,134.722h 1.31528l 0.0453543, 0.0160355h 0.861732" fill="none" stroke="#0000ee" stroke-width="3"/>
<path d="M126.109,134.738h 1.36063l 0.0453543, 0.0641421h 0.816378" fill="none" stroke="#0000ee" stroke-width="3"/>
<path d="M128.331,134.803h 0.272126l 0.0453543, 0.0160355h 1.0885l 0.0453543, 0.032071h 0.771024" fill="none" stroke="#0000ee" stroke-width="3"/>
<path d="M130.554,134.851h 0.31748l 0.0453543, 0.0962131h 1.0885l 0.0453543, 0.112249h 0.725669" fill="none" stroke="#0000ee" stroke-width="3"/>
<path d="M132.776,135.059h 0.362835l 0.0453543, 0.0962131h 1.0885l 0.0453543, 0.0160355h 0.680315" fill="none" stroke="#0000ee" stroke-width="3"/>
<path d="M134.998,135.171h 1.54205l 0.0453543, 0.0641421h 0.634961" fill="none" stroke="#0000ee" stroke-width="3"/>
<path d="M137.221,135.236h 0.453543l 0.0453543, 0.032071h 1.0885l 0.0453543, 0.0801776h 0.589606" fill="none" stroke="#0000ee" stroke-width="3"/>
<path d="M139.443,135.348h 0.498898l 0.0453543, 0.0641421h 1.0885l 0.0453543, 0.0962131h 0.544252" fill="none" stroke="#0000ee" stroke-width="3"/>
<path d="M141.665,135.508h 0.544252l 0.0453543, 0.160355h 1.0885l 0.0453543, 0.0641421h 0.498898" fill="none" stroke="#0000ee" stroke-width="3"/>
<path d="M143.888,135.733h 0.589606l 0.0453543, 0.0641421h 1.0885l 0.0453543, 0.0481065h 0.453543" fill="none" stroke="#0000ee" stroke-width="3"/>
<path d="M146.11,135.845h 0.634961l 0.0453543, 0.128284h 1.0885l 0.0453543, 0.208462h 0.408189" fill="none" stroke="#0000ee" stroke-width="3"/>
<path d="M148.332,136.182h 0.680315l 0.0453543, 0.112249h 1.0885l 0.0453543, 0.0962131h 0.362835" fill="none" stroke="#0000ee" stroke-width="3"/>
<path d="M150.555,136.39h 0.725669l 0.0453543, 0.0160355h 1.0885l 0.0453543, 0.032071h 0.31748" fill="none" stroke="#0000ee" stroke-width="3"/>
<path d="M152.777,136.438h 0.771024l 0.0453543, 0.224497h 1.0885l 0.0453543, 0.032071h 0.272126" fill="none" stroke="#0000ee" stroke-width="3"/>
<path d="M155,136.695h 0.816378l 0.0453543, 0.032071h 1.0885l 0.0453543, 0.0160355h 0.226772" fill="none" stroke="#0000ee" stroke-width="3"/>
<path d="M157.222,136.743h 0.861732l 0.0453543, 0.0160355h 1.31528" fill="none" stroke="#0000ee" stroke-width="3"/>
<path d="M159.444,136.759h 0.907087l 0.0453543, 0.128284h 1.26992" fill="none" stroke="#0000ee" stroke-width="3"/>
<path d="M161.667,136.887h 2.0863l 0.0453543, 0.032071h 0.0907087" fill="none" stroke="#0000ee" stroke-width="3"/>
<path d="M163.889,136.919h 2.13165l 0.0453543, 0.032071h 0.0453543" fill="none" stroke="#0000ee" stroke-width="3"/>
<path d="M166.111,136.951h 2.22236" fill="none" stroke="#0000ee" stroke-width="3"/>
<path d="M168.334,136.951h 1.0885l 0.0453543, 1.29888h 1.0885" fill="none" stroke="#0000ee" stroke-width="3"/>
<path d="M170.556,138.25l 0.0453543, 0.0962131h 1.0885l 0.0453543, 0.208462h 1.04315" fill="none" stroke="#0000ee" stroke-width="3"/>
<path d="M172.778,138.555h 0.0453543l 0.0453543, 0.224497h 1.0885l 0.0453543, 0.0641421h 0.997795" fill="none" stroke="#0000ee" stroke-width="3"/>
<path d="M175.001,138.844h 0.0907087l 0.0453543, 0.112249h 1.0885l 0.0453543, 0.32071h 0.952441" fill="none" stroke="#0000ee" stroke-width="3"/>
<path d="M177.223,139.276h 0.136063l 0.0453543, 5.00308h 1.0885l 0.0453543, 0.272604h 0.907087" fill="none" stroke="#0000ee" stroke-width="3"/>
<path d="M179.446,144.552h 0.181417l 0.0453543, 0.497101h 1.0885l 0.0453543, 0.112249h 0.861732" fill="none" stroke="#0000ee" stroke-width="3"/>
<path d="M181.668,145.161h 0.226772l 0.0453543, 0.721598h 1.0885l 0.0453543, 0.0801776h 0.816378" fill="none" stroke="#0000ee" stroke-width="3"/>
<path d="M183.89,145.963h 0.272126l 0.0453543, 0.128284h 1.0885l 0.0453543, 0.801776h 0.771024" fill="none" stroke="#0000ee" stroke-width="3"/>
<path d="M186.113,146.893h 0.31748l 0.0453543, 0.513136h 1.0885l 0.0453543, 0.304675h 0.725669" fill="none" stroke="#0000ee" stroke-width="3"/>
<path d="M188.335,147.711h 0.362835l 0.0453543, 0.112249h 1.0885l 0.0453543, 0.448994h 0.680315" fill="none" stroke="#0000ee" stroke-width="3"/>
<path d="M190.557,148.272h 0.408189l 0.0453543, 0.208462h 1.0885l 0.0453543, 0.336746h 0.634961" fill="none" stroke="#0000ee" stroke-width="3"/>
<path d="M192.78,148.818h 0.453543l 0.0453543, 0.817811h 1.0885l 0.0453543, 0.304675h 0.589606" fill="none" stroke="#0000ee" stroke-width="3"/>
<path d="M195.002,149.94h 0.498898l 0.0453543, 0.272604h 1.0885l 0.0453543, 0.46503h 0.544252" fill="none" stroke="#0000ee" stroke-width="3"/>
<path d="M197.224,150.678h 0.544252l 0.0453543, 0.352781h 1.0885l 0.0453543, 0.577278h 0.498898" fill="none" stroke="#0000ee" stroke-width="3"/>
<path d="M199.447,151.608h 0.589606l 0.0453543, 0.60935h 1.0885l 0.0453543, 0.513136h 0.453543" fill="none" stroke="#0000ee" stroke-width="3"/>
<path d="M201.669,152.73h 0.634961l 0.0453543, 0.14432h 1.0885l 0.0453543, 0.240533h 0.408189" fill="none" stroke="#0000ee" stroke-width="3"/>
<path d="M203.891,153.115h 0.680315l 0.0453543, 0.112249h 1.0885l 0.0453543, 0.0481065h 0.362835" fill="none" stroke="#0000ee" stroke-width="3"/>
<path d="M206.114,153.275h 0.725669l 0.0453543, 0.0641421h 1.0885l 0.0453543, 0.112249h 0.31748" fill="none" stroke="#0000ee" stroke-width="3"/>
<path d="M208.336,153.452h 0.771024l 0.0453543, 0.032071h 1.40598" fill="none" stroke="#0000ee" stroke-width="3"/>
<path d="M210.559,153.484h 0.816378l 0.0453543, 0.0481065h 1.36063" fill="none" stroke="#0000ee" stroke-width="3"/>
<path d="M212.781,153.532h 0.861732l 0.0453543, 0.0160355h 1.0885l 0.0453543, 0.0801776h 0.181417" fill="none" stroke="#0000ee" stroke-width="3"/>
<path d="M215.003,153.628h 0.907087l 0.0453543, 0.240533h 1.0885l 0.0453543, 0.160355h 0.136063" fill="none" stroke="#0000ee" stroke-width="3"/>
<path d="M217.226,154.029h 0.952441l 0.0453543, 0.60935h 1.0885l 0.0453543, 0.208462h 0.0907087" fill="none" stroke="#0000ee" stroke-width="3"/>
<path d="M219.448,154.847h 0.997795l 0.0453543, 0.112249h 1.0885l 0.0453543, 0.0801776h 0.0453543" fill="none" stroke="#0000ee" stroke-width="3"/>
<path d="M221.67,155.039h 1.04315l 0.0453543, 0.32071h 1.13386" fill="none" stroke="#0000ee" stroke-width="3"/>
<path d="M223.893,155.36h 1.0885l 0.0453543, 0.208462h 1.0885" fill="none" stroke="#0000ee" stroke-width="3"/>
<path d="M226.115,155.569l 0.0453543, 0.128284h 1.0885l 0.0453543, 0.112249h 1.04315" fill="none" stroke="#0000ee" stroke-width="3"/>
<path d="M228.337,155.809h 0.0453543l 0.0453543, 0.0160355h 1.0885l 0.0453543, 0.128284h 0.997795" fill="none" stroke="#0000ee" stroke-width="3"/>
<path d="M230.56,155.953h 0.0907087l 0.0453543, 0.416923h 1.0885l 0.0453543, 0.0962131h 0.952441" fill="none" stroke="#0000ee" stroke-width="3"/>
<path d="M232.782,156.467h 1.26992l 0.0453543, 0.0160355h 0.907087" fill="none" stroke="#0000ee" stroke-width="3"/>
<path d="M235.005,156.483h 0.181417l 0.0453543, 0.192426h 1.0885l 0.0453543, 0.0962131h 0.861732" fill="none" stroke="#0000ee" stroke-width="3"/>
<path d="M237.227,156.771h 0.226772l 0.0453543, 0.0962131h 1.0885l 0.0453543, 0.0801776h 0.816378" fill="none" stroke="#0000ee" stroke-width="3"/>
<path d="M239.449,156.948h 0.272126l 0.0453543, 0.0641421h 1.0885l 0.0453543, 0.032071h 0.771024" fill="none" stroke="#0000ee" stroke-width="3"/>
<path d="M241.672,157.044h 0.31748l 0.0453543, 0.0641421h 1.0885l 0.0453543, 0.0801776h 0.725669" fill="none" stroke="#0000ee" stroke-width="3"/>
<path d="M243.894,157.188h 0.362835l 0.0453543, 0.384852h 1.0885l 0.0453543, 0.0641421h 0.680315" fill="none" stroke="#0000ee" stroke-width="3"/>
<path d="M246.116,157.637h 1.54205l 0.0453543, 0.176391h 0.634961" fill="none" stroke="#0000ee" stroke-width="3"/>
<path d="M248.339,157.814h 0.453543l 0.0453543, 0.0160355h 1.0885l 0.0453543, 0.128284h 0.589606" fill="none" stroke="#0000ee" stroke-width="3"/>
<path d="M250.561,157.958h 0.498898l 0.0453543, 0.288639h 1.67811" fill="none" stroke="#0000ee" stroke-width="3"/>
<path d="M252.783,158.246h 0.544252l 0.0453543, 0.0641421h 1.0885l 0.0453543, 0.0801776h 0.498898" fill="none" stroke="#0000ee" stroke-width="3"/>
<path d="M255.006,158.391h 0.589606l 0.0453543, 0.0641421h 1.0885l 0.0453543, 0.160355h 0.453543" fill="none" stroke="#0000ee" stroke-width="3"/>
<path d="M257.228,158.615h 0.634961l 0.0453543, 0.0962131h 1.0885l 0.0453543, 0.0641421h 0.408189" fill="none" stroke="#0000ee" stroke-width="3"/>
<path d="M259.451,158.776h 0.680315l 0.0453543, 0.160355h 1.0885l 0.0453543, 0.0481065h 0.362835" fill="none" stroke="#0000ee" stroke-width="3"/>
<path d="M261.673,158.984h 0.725669l 0.0453543, 0.432959h 1.0885l 0.0453543, 0.978166h 0.31748" fill="none" stroke="#0000ee" stroke-width="3"/>
<path d="M263.895,160.395h 0.771024l 0.0453543, 0.304675h 1.0885l 0.0453543, 1.33095h 0.272126" fill="none" stroke="#0000ee" stroke-width="3"/>
<path d="M266.118,162.031h 0.816378l 0.0453543, 0.240533h 1.0885l 0.0453543, 0.14432h 0.226772" fill="none" stroke="#0000ee" stroke-width="3"/>
<path d="M268.34,162.416h 0.861732l 0.0453543, 0.208462h 1.0885l 0.0453543, 0.224497h 0.181417" fill="none" stroke="#0000ee" stroke-width="3"/>
<path d="M270.562,162.849h 0.907087l 0.0453543, 0.128284h 1.0885l 0.0453543, 0.0801776h 0.136063" fill="none" stroke="#0000ee" stroke-width="3"/>
<path d="M272.785,163.057h 0.952441l 0.0453543, 0.240533h 1.0885l 0.0453543, 0.128284h 0.0907087" fill="none" stroke="#0000ee" stroke-width="3"/>
<path d="M275.007,163.426h 0.997795l 0.0453543, 0.192426h 1.0885l 0.0453543, 0.192426h 0.0453543" fill="none" stroke="#0000ee" stroke-width="3"/>
<path d="M277.229,163.811h 1.04315l 0.0453543, 0.112249h 1.0885l 0.0453543, 0.0641421" fill="none" stroke="#0000ee" stroke-width="3"/>
<path d="M279.452,163.987h 1.0885l 0.0453543, 0.0160355h 1.0885" fill="none" stroke="#0000ee" stroke-width="3"/>
<path d="M281.674,164.003l 0.0453543, 0.0962131h 1.0885l 0.0453543, 0.112249h 1.04315" fill="none" stroke="#0000ee" stroke-width="3"/>
<path d="M283.897,164.212h 0.0453543l 0.0453543, 0.032071h 1.0885l 0.0453543, 0.14432h 0.997795" fill="none" stroke="#0000ee" stroke-width="3"/>
<path d="M286.119,164.388h 0.0907087l 0.0453543, 0.112249h 1.0885l 0.0453543, 0.160355h 0.952441" fill="none" stroke="#0000ee" stroke-width="3"/>
<path d="M288.341,164.661h 1.26992l 0.0453543, 0.0801776h 0.907087" fill="none" stroke="#0000ee" stroke-width="3"/>
<path d="M290.564,164.741h 0.181417l 0.0453543, 0.0801776h 1.0885l 0.0453543, 0.032071h 0.861732" fill="none" stroke="#0000ee" stroke-width="3"/>
<path d="M292.786,164.853h 0.226772l 0.0453543, 0.0160355h 1.0885l 0.0453543, 0.0641421h 0.816378" fill="none" stroke="#0000ee" stroke-width="3"/>
<path d="M295.008,164.933h 0.272126l 0.0453543, 0.0160355h 1.0885l 0.0453543, 0.0641421h 0.771024" fill="none" stroke="#0000ee" stroke-width="3"/>
<path d="M297.231,165.013h 0.31748l 0.0453543, 0.112249h 1.85953" fill="none" stroke="#0000ee" stroke-width="3"/>
<path d="M299.453,165.126h 0.362835l 0.0453543, 0.0481065h 1.0885l 0.0453543, 0.0160355h 0.680315" fill="none" stroke="#0000ee" stroke-width="3"/>
<path d="M301.675,165.19h 0.408189l 0.0453543, 0.032071h 1.0885l 0.0453543, 0.256568h 0.634961" fill="none" stroke="#0000ee" stroke-width="3"/>
<path d="M303.898,165.479h 0.453543l 0.0453543, 0.0801776h 1.0885l 0.0453543, 0.513136h 0.589606" fill="none" stroke="#0000ee" stroke-width="3"/>
<path d="M306.12,166.072h 0.498898l 0.0453543, 0.0962131h 1.0885l 0.0453543, 0.0641421h 0.544252" fill="none" stroke="#0000ee" stroke-width="3"/>
<path d="M308.343,166.232h 0.544252l 0.0453543, 0.529172h 1.0885l 0.0453543, 0.0801776h 0.498898" fill="none" stroke="#0000ee" stroke-width="3"/>
<path d="M310.565,166.842h 0.589606l 0.0453543, 0.032071h 1.0885l 0.0453543, 0.240533h 0.453543" fill="none" stroke="#0000ee" stroke-width="3"/>
<path d="M312.787,167.114h 0.634961l 0.0453543, 0.032071h 1.54205" fill="none" stroke="#0000ee" stroke-width="3"/>
<path d="M315.01,167.146h 1.81417l 0.0453543, 0.032071h 0.362835" fill="none" stroke="#0000ee" stroke-width="3"/>
<path d="M317.232,167.178h 0.725669l 0.0453543, 0.0641421h 1.0885l 0.0453543, 0.032071h 0.31748" fill="none" stroke="#0000ee" stroke-width="3"/>
<path d="M319.454,167.274h 0.771024l 0.0453543, 0.032071h 1.0885l 0.0453543, 0.0801776h 0.272126" fill="none" stroke="#0000ee" stroke-width="3"/>
<path d="M321.677,167.387h 0.816378l 0.0453543, 0.032071h 1.0885l 0.0453543, 0.14432h 0.226772" fill="none" stroke="#0000ee" stroke-width="3"/>
<path d="M323.899,167.563h 0.861732l 0.0453543, 0.0481065h 1.0885l 0.0453543, 0.176391h 0.181417" fill="none" stroke="#0000ee" stroke-width="3"/>
<path d="M326.121,167.788h 0.907087l 0.0453543, 0.128284h 1.0885l 0.0453543, 0.0481065h 0.136063" fill="none" stroke="#0000ee" stroke-width="3"/>
<path d="M328.344,167.964h 0.952441l 0.0453543, 0.288639h 1.0885l 0.0453543, 0.416923h 0.0907087" fill="none" stroke="#0000ee" stroke-width="3"/>
<path d="M330.566,168.67h 0.997795l 0.0453543, 0.0962131h 1.0885l 0.0453543, 0.881953h 0.0453543" fill="none" stroke="#0000ee" stroke-width="3"/>
<path d="M332.789,169.648h 1.04315l 0.0453543, 0.0641421h 1.0885l 0.0453543, 0.288639" fill="none" stroke="#0000ee" stroke-width="3"/>
<path d="M335.011,170.001h 1.0885l 0.0453543, 0.14432h 1.0885" fill="none" stroke="#0000ee" stroke-width="3"/>
<path d="M337.233,170.145l 0.0453543, 0.32071h 1.0885l 0.0453543, 0.897989h 1.04315" fill="none" stroke="#0000ee" stroke-width="3"/>
<path d="M339.456,171.364h 0.0453543l 0.0453543, 0.208462h 1.0885l 0.0453543, 0.0641421h 0.997795" fill="none" stroke="#0000ee" stroke-width="3"/>
<path d="M341.678,171.636h 0.0907087l 0.0453543, 0.0801776h 1.0885l 0.0453543, 0.14432h 0.952441" fill="none" stroke="#0000ee" stroke-width="3"/>
<path d="M343.9,171.861h 0.136063l 0.0453543, 0.192426h 1.0885l 0.0453543, 0.561243h 0.907087" fill="none" stroke="#0000ee" stroke-width="3"/>
<path d="M346.123,172.614h 0.181417l 0.0453543, 0.192426h 1.0885l 0.0453543, 0.0962131h 0.861732" fill="none" stroke="#0000ee" stroke-width="3"/>
<path d="M348.345,172.903h 0.226772l 0.0453543, 0.128284h 1.0885l 0.0453543, 0.384852h 0.816378" fill="none" stroke="#0000ee" stroke-width="3"/>
<path d="M350.567,173.416h 0.272126l 0.0453543, 0.352781h 1.0885l 0.0453543, 0.240533h 0.771024" fill="none" stroke="#0000ee" stroke-width="3"/>
<path d="M352.79,174.009h 0.31748l 0.0453543, 0.416923h 1.0885l 0.0453543, 0.240533h 0.725669" fill="none" stroke="#0000ee" stroke-width="3"/>
<path d="M355.012,174.667h 0.362835l 0.0453543, 1.18663h 1.0885l 0.0453543, 0.384852h 0.680315" fill="none" stroke="#0000ee" stroke-width="3"/>
<path d="M357.234,176.238h 0.408189l 0.0453543, 0.224497h 1.0885l 0.0453543, 0.673492h 0.634961" fill="none" stroke="#0000ee" stroke-width="3"/>
<path d="M359.457,177.136h 0.453543l 0.0453543, 0.032071h 1.0885l 0.0453543, 0.0481065h 0.589606" fill="none" stroke="#0000ee" stroke-width="3"/>
<path d="M361.679,177.216h 0.498898l 0.0453543, 0.256568h 1.0885l 0.0453543, 0.112249h 0.544252" fill="none" stroke="#0000ee" stroke-width="3"/>
<path d="M363.902,177.585h 0.544252l 0.0453543, 0.352781h 1.0885l 0.0453543, 0.224497h 0.498898" fill="none" stroke="#0000ee" stroke-width="3"/>
<path d="M366.124,178.163h 0.589606l 0.0453543, 0.0801776h 1.0885l 0.0453543, 0.240533h 0.453543" fill="none" stroke="#0000ee" stroke-width="3"/>
<path d="M368.346,178.483h 0.634961l 0.0453543, 0.256568h 1.0885l 0.0453543, 0.481065h 0.408189" fill="none" stroke="#0000ee" stroke-width="3"/>
<path d="M370.569,179.221h 0.680315l 0.0453543, 0.673492h 1.0885l 0.0453543, 0.176391h 0.362835" fill="none" stroke="#0000ee" stroke-width="3"/>
<path d="M372.791,180.071h 0.725669l 0.0453543, 0.865918h 1.0885l 0.0453543, 1.66769h 0.31748" fill="none" stroke="#0000ee" stroke-width="3"/>
<path d="M375.013,182.604h 0.771024l 0.0453543, 0.0641421h 1.0885l 0.0453543, 0.0160355h 0.272126" fill="none" stroke="#0000ee" stroke-width="3"/>
<path d="M377.236,182.685h 0.816378l 0.0453543, 0.192426h 1.0885l 0.0453543, 0.0160355h 0.226772" fill="none" stroke="#0000ee" stroke-width="3"/>
<path d="M379.458,182.893h 0.861732l 0.0453543, 0.0641421h 1.0885l 0.0453543, 0.0160355h 0.181417" fill="none" stroke="#0000ee" stroke-width="3"/>
<path d="M381.68,182.973h 0.907087l 0.0453543, 1.25077h 1.0885l 0.0453543, 0.0962131h 0.136063" fill="none" stroke="#0000ee" stroke-width="3"/>
<path d="M383.903,184.32h 2.0863l 0.0453543, 2.26101h 0.0907087" fill="none" stroke="#0000ee" stroke-width="3"/>
<path d="M386.125,186.581h 0.997795l 0.0453543, 0.336746h 1.0885l 0.0453543, 0.0481065h 0.0453543" fill="none" stroke="#0000ee" stroke-width="3"/>
<path d="M388.348,186.966h 1.04315l 0.0453543, 0.32071h 1.0885l 0.0453543, 0.46503" fill="none" stroke="#0000ee" stroke-width="3"/>
<path d="M390.57,187.752h 1.0885l 0.0453543, 0.0641421h 1.0885" fill="none" stroke="#0000ee" stroke-width="3"/>
<path d="M392.792,187.816l 0.0453543, 5.01912h 1.0885l 0.0453543, 0.962131h 1.04315" fill="none" stroke="#0000ee" stroke-width="3"/>
<path d="M395.015,193.797h 0.0453543l 0.0453543, 0.0962131h 1.0885l 0.0453543, 0.256568h 0.997795" fill="none" stroke="#0000ee" stroke-width="3"/>
<path d="M397.237,194.15h 0.0907087l 0.0453543, 0.288639h 1.0885l 0.0453543, 0.336746h 0.952441" fill="none" stroke="#0000ee" stroke-width="3"/>
<path d="M399.459,194.775h 0.136063l 0.0453543, 0.288639h 1.0885l 0.0453543, 0.176391h 0.907087" fill="none" stroke="#0000ee" stroke-width="3"/>
<path d="M401.682,195.24h 0.181417l 0.0453543, 0.336746h 1.0885l 0.0453543, 0.416923h 0.861732" fill="none" stroke="#0000ee" stroke-width="3"/>
<path d="M403.904,195.994h 0.226772l 0.0453543, 0.737634h 1.0885l 0.0453543, 0.400888h 0.816378" fill="none" stroke="#0000ee" stroke-width="3"/>
<path d="M406.126,197.133h 0.272126l 0.0453543, 0.705563h 1.0885l 0.0453543, 0.432959h 0.771024" fill="none" stroke="#0000ee" stroke-width="3"/>
<path d="M408.349,198.271h 0.31748l 0.0453543, 0.561243h 1.0885l 0.0453543, 0.112249h 0.725669" fill="none" stroke="#0000ee" stroke-width="3"/>
<path d="M410.571,198.945h 0.362835l 0.0453543, 0.577278h 1.0885l 0.0453543, 0.416923h 0.680315" fill="none" stroke="#0000ee" stroke-width="3"/>
<path d="M412.794,199.939h 0.408189l 0.0453543, 0.32071h 1.0885l 0.0453543, 0.593314h 0.634961" fill="none" stroke="#0000ee" stroke-width="3"/>
<path d="M415.016,200.853h 0.453543l 0.0453543, 0.224497h 1.0885l 0.0453543, 0.160355h 0.589606" fill="none" stroke="#0000ee" stroke-width="3"/>
<path d="M417.238,201.238h 0.498898l 0.0453543, 0.288639h 1.0885l 0.0453543, 0.224497h 0.544252" fill="none" stroke="#0000ee" stroke-width="3"/>
<path d="M419.461,201.751h 0.544252l 0.0453543, 0.112249h 1.0885l 0.0453543, 0.160355h 0.498898" fill="none" stroke="#0000ee" stroke-width="3"/>
<path d="M421.683,202.023h 0.589606l 0.0453543, 0.0641421h 1.0885l 0.0453543, 0.577278h 0.453543" fill="none" stroke="#0000ee" stroke-width="3"/>
<path d="M423.905,202.665h 0.634961l 0.0453543, 0.14432h 1.0885l 0.0453543, 0.336746h 0.408189" fill="none" stroke="#0000ee" stroke-width="3"/>
<path d="M426.128,203.146h 0.680315l 0.0453543, 0.208462h 1.0885l 0.0453543, 0.160355h 0.362835" fill="none" stroke="#0000ee" stroke-width="3"/>
<path d="M428.35,203.515h 0.725669l 0.0453543, 0.46503h 1.0885l 0.0453543, 0.0481065h 0.31748" fill="none" stroke="#0000ee" stroke-width="3"/>
<path d="M430.572,204.028h 0.771024l 0.0453543, 0.0481065h 1.0885l 0.0453543, 0.0641421h 0.272126" fill="none" stroke="#0000ee" stroke-width="3"/>
<path d="M432.795,204.14h 0.816378l 0.0453543, 0.0962131h 1.0885l 0.0453543, 0.304675h 0.226772" fill="none" stroke="#0000ee" stroke-width="3"/>
<path d="M435.017,204.541h 0.861732l 0.0453543, 0.192426h 1.0885l 0.0453543, 1.29888h 0.181417" fill="none" stroke="#0000ee" stroke-width="3"/>
<path d="M437.24,206.032h 0.907087l 0.0453543, 0.817811h 1.0885l 0.0453543, 0.0962131h 0.136063" fill="none" stroke="#0000ee" stroke-width="3"/>
<path d="M439.462,206.946h 0.952441l 0.0453543, 0.336746h 1.0885l 0.0453543, 0.256568h 0.0907087" fill="none" stroke="#0000ee" stroke-width="3"/>
<path d="M441.684,207.54h 0.997795l 0.0453543, 0.0641421h 1.0885l 0.0453543, 0.176391h 0.0453543" fill="none" stroke="#0000ee" stroke-width="3"/>
<path d="M443.907,207.78h 1.04315l 0.0453543, 0.0801776h 1.0885l 0.0453543, 0.240533" fill="none" stroke="#0000ee" stroke-width="3"/>
<path d="M446.129,208.101h 1.0885l 0.0453543, 0.160355h 1.0885" fill="none" stroke="#0000ee" stroke-width="3"/>
<path d="M448.351,208.261l 0.0453543, 0.0801776h 1.0885l 0.0453543, 0.304675h 1.04315" fill="none" stroke="#0000ee" stroke-width="3"/>
<path d="M450.574,208.646h 0.0453543l 0.0453543, 0.497101h 1.0885l 0.0453543, 0.192426h 0.997795" fill="none" stroke="#0000ee" stroke-width="3"/>
<path d="M452.796,209.336h 0.0907087l 0.0453543, 0.272604h 1.0885l 0.0453543, 0.0641421h 0.952441" fill="none" stroke="#0000ee" stroke-width="3"/>
<path d="M455.018,209.672h 0.136063l 0.0453543, 0.176391h 1.0885l 0.0453543, 0.112249h 0.907087" fill="none" stroke="#0000ee" stroke-width="3"/>
<path d="M457.241,209.961h 0.181417l 0.0453543, 0.657456h 1.0885l 0.0453543, 0.14432h 0.861732" fill="none" stroke="#0000ee" stroke-width="3"/>
<path d="M459.463,210.763h 0.226772l 0.0453543, 0.0641421h 1.0885l 0.0453543, 0.112249h 0.816378" fill="none" stroke="#0000ee" stroke-width="3"/>
<path d="M461.686,210.939h 0.272126l 0.0453543, 0.224497h 1.0885l 0.0453543, 0.160355h 0.771024" fill="none" stroke="#0000ee" stroke-width="3"/>
<path d="M463.908,211.324h 0.31748l 0.0453543, 0.529172h 1.0885l 0.0453543, 0.272604h 0.725669" fill="none" stroke="#0000ee" stroke-width="3"/>
<path d="M466.13,212.126h 0.362835l 0.0453543, 0.0481065h 1.0885l 0.0453543, 0.128284h 0.680315" fill="none" stroke="#0000ee" stroke-width="3"/>
<path d="M468.353,212.302h 1.54205l 0.0453543, 0.0481065h 0.634961" fill="none" stroke="#0000ee" stroke-width="3"/>
<path d="M470.575,212.35h 0.453543l 0.0453543, 0.0641421h 1.0885l 0.0453543, 0.0962131h 0.589606" fill="none" stroke="#0000ee" stroke-width="3"/>
<path d="M472.797,212.511h 0.498898l 0.0453543, 0.0641421h 1.0885l 0.0453543, 0.032071h 0.544252" fill="none" stroke="#0000ee" stroke-width="3"/>
<path d="M475.02,212.607h 0.544252l 0.0453543, 0.0160355h 1.0885l 0.0453543, 0.192426h 0.498898" fill="none" stroke="#0000ee" stroke-width="3"/>
<path d="M477.242,212.815h 0.589606l 0.0453543, 0.240533h 1.0885l 0.0453543, 0.14432h 0.453543" fill="none" stroke="#0000ee" stroke-width="3"/>
<path d="M479.464,213.2h 0.634961l 0.0453543, 1.41113h 1.0885l 0.0453543, 0.272604h 0.408189" fill="none" stroke="#0000ee" stroke-width="3"/>
<path d="M481.687,214.884h 0.680315l 0.0453543, 0.0481065h 1.49669" fill="none" stroke="#0000ee" stroke-width="3"/>
<path d="M483.909,214.932h 0.725669l 0.0453543, 0.0160355h 1.0885l 0.0453543, 0.176391h 0.31748" fill="none" stroke="#0000ee" stroke-width="3"/>
<path d="M486.132,215.124h 1.90488l 0.0453543, 0.0801776h 0.272126" fill="none" stroke="#0000ee" stroke-width="3"/>
<path d="M488.354,215.205h 0.816378l 0.0453543, 0.384852h 1.0885l 0.0453543, 0.032071h 0.226772" fill="none" stroke="#0000ee" stroke-width="3"/>
<path d="M490.576,215.622h 0.861732l 0.0453543, 1.42716h 1.0885l 0.0453543, 0.368817h 0.181417" fill="none" stroke="#0000ee" stroke-width="3"/>
<path d="M492.799,217.418h 0.907087l 0.0453543, 0.0481065h 1.0885l 0.0453543, 2.16479h 0.136063" fill="none" stroke="#0000ee" stroke-width="3"/>
<path d="M495.021,219.63h 0.952441l 0.0453543, 0.192426h 1.0885l 0.0453543, 0.032071h 0.0907087" fill="none" stroke="#0000ee" stroke-width="3"/>
<path d="M497.243,219.855h 0.997795l 0.0453543, 0.593314h 1.0885l 0.0453543, 0.0962131h 0.0453543" fill="none" stroke="#0000ee" stroke-width="3"/>
<path d="M499.466,220.544h 1.04315l 0.0453543, 0.593314h 1.0885l 0.0453543, 0.336746" fill="none" stroke="#0000ee" stroke-width="3"/>
<path d="M501.688,221.475h 1.0885l 0.0453543, 1.37905h 1.0885" fill="none" stroke="#0000ee" stroke-width="3"/>
<path d="M503.91,222.854l 0.0453543, 0.272604h 1.0885l 0.0453543, 1.28284h 1.04315" fill="none" stroke="#0000ee" stroke-width="3"/>
<path d="M506.133,224.409h 0.0453543l 0.0453543, 1.20266h 1.0885l 0.0453543, 1.89219h 0.997795" fill="none" stroke="#0000ee" stroke-width="3"/>
<path d="M508.355,227.504h 0.0907087l 0.0453543, 0.737634h 1.0885l 0.0453543, 1.37905h 0.952441" fill="none" stroke="#0000ee" stroke-width="3"/>
<path d="M510.577,229.621h 0.15874" fill="none" stroke="#0000ee" stroke-width="3"/>
<path d="M57.1929,238.452h 453.543" fill="none" stroke="black"/>
<path d="M57.1929,232.093v 6.35872" fill="none" stroke="black"/>
<path d="M79.87,235.273v 3.17936" fill="none" stroke="black"/>
<path d="M102.547,235.273v 3.17936" fill="none" stroke="black"/>
<path d="M125.224,235.273v 3.17936" fill="none" stroke="black"/>
<path d="M147.901,235.273v 3.17936" fill="none" stroke="black"/>
<path d="M170.578,232.093v 6.35872" fill="none" stroke="black"/>
<path d="M193.255,235.273v 3.17936" fill="none" stroke="black"/>
<path d="M215.932,235.273v 3.17936" fill="none" stroke="black"/>
<path d="M238.609,235.273v 3.17936" fill="none" stroke="black"/>
<path d="M261.286,235.273v 3.17936" fill="none" stroke="black"/>
<path d="M283.963,232.093v 6.35872" fill="none" stroke="black"/>
<path d="M306.64,235.273v 3.17936" fill="none" stroke="black"/>
<path d="M329.318,235.273v 3.17936" fill="none" stroke="black"/>
<path d="M351.995,235.273v 3.17936" fill="none" stroke="black"/>
<path d="M374.672,235.273v 3.17936" fill="none" stroke="black"/>
<path d="M397.349,232.093v 6.35872" fill="none" stroke="black"/>
<path d="M420.026,235.273v 3.17936" fill="none" stroke="black"/>
<path d="M442.703,235.273v 3.17936" fill="none" stroke="black"/>
<path d="M465.38,235.273v 3.17936" fill="none" stroke="black"/>
<path d="M488.057,235.273v 3.17936" fill="none" stroke="black"/>
<path d="M510.734,232.093v 6.35872" fill="none" stroke="black"/>
<path d="M510.734,232.093v 6.35872" fill="none" stroke="black"/>
<text xml:space="preserve" x="56.7656" y="247.141" fill="black" font-size="9.00747" font-family="Helvetica">1</text>
<text xml:space="preserve" x="52.4922" y="247.141" fill="black" font-size="9.00747" font-family="Times">&#8722;</text>
<text xml:space="preserve" x="165.736" y="247.141" fill="black" font-size="9.00747" font-family="Helvetica">0.5</text>
<text xml:space="preserve" x="161.462" y="247.141" fill="black" font-size="9.00747" font-family="Times">&#8722;</text>
<text xml:space="preserve" x="280.403" y="247.141" fill="black" font-size="9.00747" font-family="Helvetica">0</text>
<text xml:space="preserve" x="390.798" y="247.141" fill="black" font-size="9.00747" font-family="Helvetica">0.5</text>
<text xml:space="preserve" x="508.315" y="247.141" fill="black" font-size="9.00747" font-family="Helvetica">1</text>
<path d="M57.1929,238.452v -185.463" fill="none" stroke="black"/>
<path d="M69.0984,213.344h -11.9055" fill="none" stroke="black"/>
<path d="M63.1457,206.93h -5.95276" fill="none" stroke="black"/>
<path d="M63.1457,200.516h -5.95276" fill="none" stroke="black"/>
<path d="M63.1457,194.102h -5.95276" fill="none" stroke="black"/>
<path d="M63.1457,187.688h -5.95276" fill="none" stroke="black"/>
<path d="M69.0984,181.273h -11.9055" fill="none" stroke="black"/>
<path d="M63.1457,174.859h -5.95276" fill="none" stroke="black"/>
<path d="M63.1457,168.445h -5.95276" fill="none" stroke="black"/>
<path d="M63.1457,162.031h -5.95276" fill="none" stroke="black"/>
<path d="M63.1457,155.617h -5.95276" fill="none" stroke="black"/>
<path d="M69.0984,149.202h -11.9055" fill="none" stroke="black"/>
<path d="M63.1457,142.788h -5.95276" fill="none" stroke="black"/>
<path d="M63.1457,136.374h -5.95276" fill="none" stroke="black"/>
<path d="M63.1457,129.96h -5.95276" fill="none" stroke="black"/>
<path d="M63.1457,123.546h -5.95276" fill="none" stroke="black"/>
<path d="M69.0984,117.131h -11.9055" fill="none" stroke="black"/>
<path d="M63.1457,110.717h -5.95276" fill="none" stroke="black"/>
<path d="M63.1457,104.303h -5.95276" fill="none" stroke="black"/>
<path d="M63.1457,97.8888h -5.95276" fill="none" stroke="black"/>
<path d="M63.1457,91.4746h -5.95276" fill="none" stroke="black"/>
<path d="M69.0984,85.0604h -11.9055" fill="none" stroke="black"/>
<path d="M63.1457,78.6462h -5.95276" fill="none" stroke="black"/>
<path d="M63.1457,72.232h -5.95276" fill="none" stroke="black"/>
<path d="M63.1457,65.8178h -5.95276" fill="none" stroke="black"/>
<path d="M63.1457,59.4036h -5.95276" fill="none" stroke="black"/>
<path d="M69.0984,52.9894h -11.9055" fill="none" stroke="black"/>
<path d="M69.0984,213.344h -11.9055" fill="none" stroke="black"/>
<path d="M63.1457,219.759h -5.95276" fill="none" stroke="black"/>
<path d="M63.1457,226.173h -5.95276" fill="none" stroke="black"/>
<path d="M63.1457,232.587h -5.95276" fill="none" stroke="black"/>
<text xml:space="preserve" x="41.8089" y="216.516" fill="black" font-size="9.00747" font-family="Helvetica">0.6</text>
<text xml:space="preserve" x="41.8089" y="184.466" fill="black" font-size="9.00747" font-family="Helvetica">0.7</text>
<text xml:space="preserve" x="41.8089" y="152.416" fill="black" font-size="9.00747" font-family="Helvetica">0.8</text>
<text xml:space="preserve" x="41.8089" y="120.366" fill="black" font-size="9.00747" font-family="Helvetica">0.9</text>
<text xml:space="preserve" x="50.3556" y="88.3156" fill="black" font-size="9.00747" font-family="Helvetica">1</text>
<text xml:space="preserve" x="43.2334" y="56.2656" fill="black" font-size="9.00747" font-family="Helvetica">1.1</text>
<path d="M57.1929,85.0604l 0.0680315, 152.369h 1.04315l 0.00602362, 1.02226" fill="none" stroke="#ff0000" stroke-width="3"/>
<path d="M57.1929,218.637l 0.0680315, -46.6239h 1.04315l 0.0453543, -3.18928h 1.0885" fill="none" stroke="#00aa00" stroke-width="3"/>
<path d="M59.438,168.824l 0.0453543, -2.72068h 1.0885l 0.0453543, -1.01929h 1.04315" fill="none" stroke="#00aa00" stroke-width="3"/>
<path d="M61.6603,165.084h 0.0453543l 0.0453543, -1.13795h 1.0885l 0.0453543, -0.303139h 0.997795" fill="none" stroke="#00aa00" stroke-width="3"/>
<path d="M63.8827,163.643h 0.0907087l 0.0453543, -0.452166h 1.0885l 0.0453543, -2.7107h 0.952441" fill="none" stroke="#00aa00" stroke-width="3"/>
<path d="M66.105,160.48h 0.136063l 0.0453543, -0.818712h 1.0885l 0.0453543, -1.9307h 0.907087" fill="none" stroke="#00aa00" stroke-width="3"/>
<path d="M68.3274,157.731h 0.181417l 0.0453543, -0.515764h 1.0885l 0.0453543, -0.136334h 0.861732" fill="none" stroke="#00aa00" stroke-width="3"/>
<path d="M70.5498,157.079h 0.226772l 0.0453543, -0.0600428h 1.0885l 0.0453543, -0.104009h 0.816378" fill="none" stroke="#00aa00" stroke-width="3"/>
<path d="M72.7721,156.914h 0.272126l 0.0453543, -0.123182h 1.0885l 0.0453543, 0.0505614h 0.771024" fill="none" stroke="#00aa00" stroke-width="3"/>
<path d="M74.9945,156.842h 0.31748l 0.0453543, 0.0824083h 1.0885l 0.0453543, -0.070136h 0.725669" fill="none" stroke="#00aa00" stroke-width="3"/>
<path d="M77.2169,156.854h 0.362835l 0.0453543, -0.0814143h 1.0885l 0.0453543, -0.203698h 0.680315" fill="none" stroke="#00aa00" stroke-width="3"/>
<path d="M79.4392,156.569h 0.408189l 0.0453543, -0.0161338h 1.0885l 0.0453543, 0.0718755h 0.634961" fill="none" stroke="#00aa00" stroke-width="3"/>
<path d="M81.6616,156.625h 0.453543l 0.0453543, -0.0338732h 1.0885l 0.0453543, -0.110795h 0.589606" fill="none" stroke="#00aa00" stroke-width="3"/>
<path d="M83.8839,156.48h 0.498898l 0.0453543, -0.0639807h 1.0885l 0.0453543, -0.0163058h 0.544252" fill="none" stroke="#00aa00" stroke-width="3"/>
<path d="M86.1063,156.4h 0.544252l 0.0453543, -0.0619162h 1.0885l 0.0453543, 0.0427239h 0.498898" fill="none" stroke="#00aa00" stroke-width="3"/>
<path d="M88.3287,156.381h 1.72346l 0.0453543, 0.0140501h 0.453543" fill="none" stroke="#00aa00" stroke-width="3"/>
<path d="M90.551,156.395h 0.634961l 0.0453543, -0.0473499h 1.0885l 0.0453543, -0.0456677h 0.408189" fill="none" stroke="#00aa00" stroke-width="3"/>
<path d="M92.7734,156.302h 0.680315l 0.0453543, -0.016994h 1.49669" fill="none" stroke="#00aa00" stroke-width="3"/>
<path d="M94.9958,156.285h 0.725669l 0.0453543, -0.110967h 1.0885l 0.0453543, -0.000611706h 0.31748" fill="none" stroke="#00aa00" stroke-width="3"/>
<path d="M97.2181,156.173h 0.771024l 0.0453543, -0.233825h 1.0885l 0.0453543, -0.220941h 0.272126" fill="none" stroke="#00aa00" stroke-width="3"/>
<path d="M99.4405,155.718h 0.816378l 0.0453543, -0.128057h 1.0885l 0.0453543, -0.035154h 0.226772" fill="none" stroke="#00aa00" stroke-width="3"/>
<path d="M101.663,155.555h 0.861732l 0.0453543, -0.344811h 1.0885l 0.0453543, 0.0124253h 0.181417" fill="none" stroke="#00aa00" stroke-width="3"/>
<path d="M103.885,155.223h 0.907087l 0.0453543, -0.114198h 1.0885l 0.0453543, -0.103073h 0.136063" fill="none" stroke="#00aa00" stroke-width="3"/>
<path d="M106.108,155.005h 0.952441l 0.0453543, -0.0821407h 1.0885l 0.0453543, -0.132683h 0.0907087" fill="none" stroke="#00aa00" stroke-width="3"/>
<path d="M108.33,154.791h 0.997795l 0.0453543, -0.019976h 1.0885l 0.0453543, -0.0479043h 0.0453543" fill="none" stroke="#00aa00" stroke-width="3"/>
<path d="M110.552,154.723h 1.04315l 0.0453543, -0.0253858h 1.0885l 0.0453543, -0.110891" fill="none" stroke="#00aa00" stroke-width="3"/>
<path d="M112.775,154.586h 1.0885l 0.0453543, -0.0248506h 1.0885" fill="none" stroke="#00aa00" stroke-width="3"/>
<path d="M114.997,154.562l 0.0453543, -0.0648791h 1.0885l 0.0453543, -0.11611h 1.04315" fill="none" stroke="#00aa00" stroke-width="3"/>
<path d="M117.219,154.381h 0.0453543l 0.0453543, -0.0660643h 1.0885l 0.0453543, -0.129586h 0.997795" fill="none" stroke="#00aa00" stroke-width="3"/>
<path d="M119.442,154.185h 0.0907087l 0.0453543, -0.155813h 1.0885l 0.0453543, 0.0236845h 0.952441" fill="none" stroke="#00aa00" stroke-width="3"/>
<path d="M121.664,154.053h 0.136063l 0.0453543, -0.0318278h 2.04094" fill="none" stroke="#00aa00" stroke-width="3"/>
<path d="M123.886,154.021h 0.181417l 0.0453543, -0.0159235h 1.0885l 0.0453543, -0.00103225h 0.861732" fill="none" stroke="#00aa00" stroke-width="3"/>
<path d="M126.109,154.004h 0.226772l 0.0453543, -0.0159235h 1.0885l 0.0453543, -0.0997846h 0.816378" fill="none" stroke="#00aa00" stroke-width="3"/>
<path d="M128.331,153.888h 0.272126l 0.0453543, -0.00103225h 1.0885l 0.0453543, -0.0659496h 0.771024" fill="none" stroke="#00aa00" stroke-width="3"/>
<path d="M130.554,153.821h 0.31748l 0.0453543, -0.0863271h 1.0885l 0.0453543, -0.0555888h 0.725669" fill="none" stroke="#00aa00" stroke-width="3"/>
<path d="M132.776,153.679h 0.362835l 0.0453543, -0.0386331h 1.0885l 0.0453543, -0.0010896h 0.680315" fill="none" stroke="#00aa00" stroke-width="3"/>
<path d="M134.998,153.64h 0.408189l 0.0453543, -0.0481528h 1.0885l 0.0453543, -0.0687023h 0.634961" fill="none" stroke="#00aa00" stroke-width="3"/>
<path d="M137.221,153.523h 0.453543l 0.0453543, -0.0826759h 1.0885l 0.0453543, -0.376888h 0.589606" fill="none" stroke="#00aa00" stroke-width="3"/>
<path d="M139.443,153.063h 0.498898l 0.0453543, -0.199187h 1.0885l 0.0453543, -0.00734048h 0.544252" fill="none" stroke="#00aa00" stroke-width="3"/>
<path d="M141.665,152.857h 0.544252l 0.0453543, -0.207636h 1.0885l 0.0453543, -0.0866138h 0.498898" fill="none" stroke="#00aa00" stroke-width="3"/>
<path d="M143.888,152.563h 0.589606l 0.0453543, -0.0704609h 1.0885l 0.0453543, -0.118403h 0.453543" fill="none" stroke="#00aa00" stroke-width="3"/>
<path d="M146.11,152.374h 0.634961l 0.0453543, -0.0761192h 1.0885l 0.0453543, -0.0996126h 0.408189" fill="none" stroke="#00aa00" stroke-width="3"/>
<path d="M148.332,152.198h 0.680315l 0.0453543, -0.0259975h 1.0885l 0.0453543, -0.12366h 0.362835" fill="none" stroke="#00aa00" stroke-width="3"/>
<path d="M150.555,152.048h 0.725669l 0.0453543, -0.133505h 1.0885l 0.0453543, -0.118633h 0.31748" fill="none" stroke="#00aa00" stroke-width="3"/>
<path d="M152.777,151.796h 0.771024l 0.0453543, -0.236042h 1.0885l 0.0453543, -0.0195937h 0.272126" fill="none" stroke="#00aa00" stroke-width="3"/>
<path d="M155,151.541h 0.816378l 0.0453543, -0.0196128h 1.0885l 0.0453543, -0.00149103h 0.226772" fill="none" stroke="#00aa00" stroke-width="3"/>
<path d="M157.222,151.519h 0.861732l 0.0453543, -0.101448h 1.0885l 0.0453543, -0.033338h 0.181417" fill="none" stroke="#00aa00" stroke-width="3"/>
<path d="M159.444,151.385h 0.907087l 0.0453543, -0.0121194h 1.0885l 0.0453543, -0.0333953h 0.136063" fill="none" stroke="#00aa00" stroke-width="3"/>
<path d="M161.667,151.339h 0.952441l 0.0453543, -0.0333953h 1.0885l 0.0453543, -0.0532185h 0.0907087" fill="none" stroke="#00aa00" stroke-width="3"/>
<path d="M163.889,151.253h 0.997795l 0.0453543, -0.0167263h 1.0885l 0.0453543, 0.030375h 0.0453543" fill="none" stroke="#00aa00" stroke-width="3"/>
<path d="M166.111,151.266h 2.17701l 0.0453543, -0.0167263" fill="none" stroke="#00aa00" stroke-width="3"/>
<path d="M168.334,151.249h 1.0885l 0.0453543, -1.99321h 1.0885" fill="none" stroke="#00aa00" stroke-width="3"/>
<path d="M170.556,149.256l 0.0453543, -0.115383h 1.0885l 0.0453543, 0.00940499h 1.04315" fill="none" stroke="#00aa00" stroke-width="3"/>
<path d="M172.778,149.15h 0.0453543l 0.0453543, -0.184047h 1.0885l 0.0453543, -0.0254049h 0.997795" fill="none" stroke="#00aa00" stroke-width="3"/>
<path d="M175.001,148.941h 0.0907087l 0.0453543, -0.136277h 1.0885l 0.0453543, -0.0408887h 0.952441" fill="none" stroke="#00aa00" stroke-width="3"/>
<path d="M177.223,148.764h 0.136063l 0.0453543, -3.82028h 1.0885l 0.0453543, -0.0327836h 0.907087" fill="none" stroke="#00aa00" stroke-width="3"/>
<path d="M179.446,144.911h 0.181417l 0.0453543, -0.172559h 1.0885l 0.0453543, 0.0356319h 0.861732" fill="none" stroke="#00aa00" stroke-width="3"/>
<path d="M181.668,144.774h 0.226772l 0.0453543, 0.0500452h 1.0885l 0.0453543, -0.0159999h 0.816378" fill="none" stroke="#00aa00" stroke-width="3"/>
<path d="M183.89,144.808h 0.272126l 0.0453543, -0.0256534h 1.0885l 0.0453543, -0.163268h 0.771024" fill="none" stroke="#00aa00" stroke-width="3"/>
<path d="M186.113,144.619h 0.31748l 0.0453543, -0.107049h 1.0885l 0.0453543, 0.0729651h 0.725669" fill="none" stroke="#00aa00" stroke-width="3"/>
<path d="M188.335,144.585h 0.362835l 0.0453543, -0.161433h 1.0885l 0.0453543, -0.671921h 0.680315" fill="none" stroke="#00aa00" stroke-width="3"/>
<path d="M190.557,143.751h 0.408189l 0.0453543, -0.0268004h 1.0885l 0.0453543, -0.296486h 0.634961" fill="none" stroke="#00aa00" stroke-width="3"/>
<path d="M192.78,143.428h 0.453543l 0.0453543, -0.962826h 1.0885l 0.0453543, -0.115937h 0.589606" fill="none" stroke="#00aa00" stroke-width="3"/>
<path d="M195.002,142.349h 0.498898l 0.0453543, 0.055283h 1.0885l 0.0453543, -0.323096h 0.544252" fill="none" stroke="#00aa00" stroke-width="3"/>
<path d="M197.224,142.081h 0.544252l 0.0453543, -0.111331h 1.0885l 0.0453543, 0.161949h 0.498898" fill="none" stroke="#00aa00" stroke-width="3"/>
<path d="M199.447,142.132h 0.589606l 0.0453543, 0.299316h 1.0885l 0.0453543, 0.32474h 0.453543" fill="none" stroke="#00aa00" stroke-width="3"/>
<path d="M201.669,142.756h 0.634961l 0.0453543, 0.024927h 1.0885l 0.0453543, 0.0623558h 0.408189" fill="none" stroke="#00aa00" stroke-width="3"/>
<path d="M203.891,142.843h 0.680315l 0.0453543, -0.0294575h 1.0885l 0.0453543, -0.117352h 0.362835" fill="none" stroke="#00aa00" stroke-width="3"/>
<path d="M206.114,142.697h 0.725669l 0.0453543, 0.024927h 1.0885l 0.0453543, -0.0297633h 0.31748" fill="none" stroke="#00aa00" stroke-width="3"/>
<path d="M208.336,142.692h 0.771024l 0.0453543, -0.00850654h 1.0885l 0.0453543, -0.0209892h 0.272126" fill="none" stroke="#00aa00" stroke-width="3"/>
<path d="M210.559,142.662h 0.816378l 0.0453543, 0.0291707h 1.36063" fill="none" stroke="#00aa00" stroke-width="3"/>
<path d="M212.781,142.691h 0.861732l 0.0453543, 0.0167263h 1.0885l 0.0453543, -0.18961h 0.181417" fill="none" stroke="#00aa00" stroke-width="3"/>
<path d="M215.003,142.519h 0.907087l 0.0453543, 0.019479h 1.0885l 0.0453543, -0.127961h 0.136063" fill="none" stroke="#00aa00" stroke-width="3"/>
<path d="M217.226,142.41h 0.952441l 0.0453543, -0.402235h 1.0885l 0.0453543, -0.165792h 0.0907087" fill="none" stroke="#00aa00" stroke-width="3"/>
<path d="M219.448,141.842h 0.997795l 0.0453543, -0.0534096h 1.0885l 0.0453543, -0.151837h 0.0453543" fill="none" stroke="#00aa00" stroke-width="3"/>
<path d="M221.67,141.637h 1.04315l 0.0453543, -0.243956h 1.0885l 0.0453543, -0.02162" fill="none" stroke="#00aa00" stroke-width="3"/>
<path d="M223.893,141.371h 1.0885l 0.0453543, 0.0254432h 1.0885" fill="none" stroke="#00aa00" stroke-width="3"/>
<path d="M226.115,141.397l 0.0453543, -0.0594884h 1.0885l 0.0453543, 0.0753355h 1.04315" fill="none" stroke="#00aa00" stroke-width="3"/>
<path d="M228.337,141.413h 0.0453543l 0.0453543, -0.0915648h 1.0885l 0.0453543, 0.00537155h 0.997795" fill="none" stroke="#00aa00" stroke-width="3"/>
<path d="M230.56,141.326h 0.0907087l 0.0453543, -0.0374288h 1.0885l 0.0453543, -0.0508099h 0.952441" fill="none" stroke="#00aa00" stroke-width="3"/>
<path d="M232.782,141.238h 0.136063l 0.0453543, -0.109323h 1.0885l 0.0453543, -0.0267239h 0.907087" fill="none" stroke="#00aa00" stroke-width="3"/>
<path d="M235.005,141.102h 0.181417l 0.0453543, 0.00720667h 1.0885l 0.0453543, -0.0951968h 0.861732" fill="none" stroke="#00aa00" stroke-width="3"/>
<path d="M237.227,141.014h 0.226772l 0.0453543, -0.139507h 1.0885l 0.0453543, 0.019307h 0.816378" fill="none" stroke="#00aa00" stroke-width="3"/>
<path d="M239.449,140.894h 0.272126l 0.0453543, -0.108043h 1.0885l 0.0453543, -0.0982744h 0.771024" fill="none" stroke="#00aa00" stroke-width="3"/>
<path d="M241.672,140.688h 0.31748l 0.0453543, -0.108501h 1.0885l 0.0453543, -0.0473499h 0.725669" fill="none" stroke="#00aa00" stroke-width="3"/>
<path d="M243.894,140.532h 0.362835l 0.0453543, -0.478698h 1.0885l 0.0453543, 0.00162484h 0.680315" fill="none" stroke="#00aa00" stroke-width="3"/>
<path d="M246.116,140.055h 0.408189l 0.0453543, -0.0223655h 1.0885l 0.0453543, -0.709522h 0.634961" fill="none" stroke="#00aa00" stroke-width="3"/>
<path d="M248.339,139.323h 0.453543l 0.0453543, 0.0172425h 1.0885l 0.0453543, -0.0428386h 0.589606" fill="none" stroke="#00aa00" stroke-width="3"/>
<path d="M250.561,139.297h 0.498898l 0.0453543, -0.597561h 1.0885l 0.0453543, -0.0913163h 0.544252" fill="none" stroke="#00aa00" stroke-width="3"/>
<path d="M252.783,138.608h 0.544252l 0.0453543, -0.319731h 1.0885l 0.0453543, -0.326957h 0.498898" fill="none" stroke="#00aa00" stroke-width="3"/>
<path d="M255.006,137.962h 0.589606l 0.0453543, -0.0918706h 1.0885l 0.0453543, -0.799825h 0.453543" fill="none" stroke="#00aa00" stroke-width="3"/>
<path d="M257.228,137.07h 0.634961l 0.0453543, -0.268902h 1.0885l 0.0453543, -0.305184h 0.408189" fill="none" stroke="#00aa00" stroke-width="3"/>
<path d="M259.451,136.496h 0.680315l 0.0453543, -0.484777h 1.0885l 0.0453543, -0.0894047h 0.362835" fill="none" stroke="#00aa00" stroke-width="3"/>
<path d="M261.673,135.922h 0.725669l 0.0453543, -1.36525h 1.0885l 0.0453543, -0.91538h 0.31748" fill="none" stroke="#00aa00" stroke-width="3"/>
<path d="M263.895,133.641h 0.771024l 0.0453543, -0.673718h 1.0885l 0.0453543, -1.86138h 0.272126" fill="none" stroke="#00aa00" stroke-width="3"/>
<path d="M266.118,131.106h 0.816378l 0.0453543, -0.216219h 1.0885l 0.0453543, -0.145968h 0.226772" fill="none" stroke="#00aa00" stroke-width="3"/>
<path d="M268.34,130.744h 0.861732l 0.0453543, -0.203469h 1.0885l 0.0453543, 0.0987906h 0.181417" fill="none" stroke="#00aa00" stroke-width="3"/>
<path d="M270.562,130.639h 0.907087l 0.0453543, -0.269954h 1.0885l 0.0453543, -0.352209h 0.136063" fill="none" stroke="#00aa00" stroke-width="3"/>
<path d="M272.785,130.017h 0.952441l 0.0453543, -0.197811h 1.0885l 0.0453543, -0.221877h 0.0907087" fill="none" stroke="#00aa00" stroke-width="3"/>
<path d="M275.007,129.597h 0.997795l 0.0453543, -0.255502h 1.0885l 0.0453543, -0.283774h 0.0453543" fill="none" stroke="#00aa00" stroke-width="3"/>
<path d="M277.229,129.058h 1.04315l 0.0453543, -0.190871h 1.0885l 0.0453543, -0.0865756" fill="none" stroke="#00aa00" stroke-width="3"/>
<path d="M279.452,128.78h 1.0885l 0.0453543, -0.195383h 1.0885" fill="none" stroke="#00aa00" stroke-width="3"/>
<path d="M281.674,128.585l 0.0453543, -0.0502746h 1.0885l 0.0453543, -0.0319999h 1.04315" fill="none" stroke="#00aa00" stroke-width="3"/>
<path d="M283.897,128.503h 0.0453543l 0.0453543, -0.0705183h 1.0885l 0.0453543, -0.076081h 0.997795" fill="none" stroke="#00aa00" stroke-width="3"/>
<path d="M286.119,128.356h 0.0907087l 0.0453543, -0.0324778h 1.0885l 0.0453543, -0.193223h 0.952441" fill="none" stroke="#00aa00" stroke-width="3"/>
<path d="M288.341,128.13h 1.26992l 0.0453543, 0.011221h 0.907087" fill="none" stroke="#00aa00" stroke-width="3"/>
<path d="M290.564,128.142h 0.181417l 0.0453543, 0.0382508h 1.0885l 0.0453543, -0.23392h 0.861732" fill="none" stroke="#00aa00" stroke-width="3"/>
<path d="M292.786,127.946h 0.226772l 0.0453543, -0.0357657h 1.0885l 0.0453543, -0.00743606h 0.816378" fill="none" stroke="#00aa00" stroke-width="3"/>
<path d="M295.008,127.903h 0.272126l 0.0453543, -0.144592h 1.0885l 0.0453543, 0.0468529h 0.771024" fill="none" stroke="#00aa00" stroke-width="3"/>
<path d="M297.231,127.805h 0.31748l 0.0453543, -0.115479h 1.0885l 0.0453543, -0.0545374h 0.725669" fill="none" stroke="#00aa00" stroke-width="3"/>
<path d="M299.453,127.635h 0.362835l 0.0453543, -0.026246h 1.0885l 0.0453543, 0.0185423h 0.680315" fill="none" stroke="#00aa00" stroke-width="3"/>
<path d="M301.675,127.627h 0.408189l 0.0453543, -0.0721813h 1.0885l 0.0453543, -0.27825h 0.634961" fill="none" stroke="#00aa00" stroke-width="3"/>
<path d="M303.898,127.277h 0.453543l 0.0453543, -0.209605h 1.0885l 0.0453543, -0.14983h 0.589606" fill="none" stroke="#00aa00" stroke-width="3"/>
<path d="M306.12,126.917h 0.498898l 0.0453543, -0.165486h 1.0885l 0.0453543, -0.175617h 0.544252" fill="none" stroke="#00aa00" stroke-width="3"/>
<path d="M308.343,126.576h 0.544252l 0.0453543, -0.924403h 1.0885l 0.0453543, -0.0756413h 0.498898" fill="none" stroke="#00aa00" stroke-width="3"/>
<path d="M310.565,125.576h 0.589606l 0.0453543, -0.0472925h 1.0885l 0.0453543, 0.112267h 0.453543" fill="none" stroke="#00aa00" stroke-width="3"/>
<path d="M312.787,125.641h 0.634961l 0.0453543, -0.0474072h 1.0885l 0.0453543, -0.0283679h 0.408189" fill="none" stroke="#00aa00" stroke-width="3"/>
<path d="M315.01,125.566h 0.680315l 0.0453543, -0.028387h 1.0885l 0.0453543, -0.104334h 0.362835" fill="none" stroke="#00aa00" stroke-width="3"/>
<path d="M317.232,125.433h 0.725669l 0.0453543, 0.0753737h 1.0885l 0.0453543, -0.132931h 0.31748" fill="none" stroke="#00aa00" stroke-width="3"/>
<path d="M319.454,125.375h 0.771024l 0.0453543, -0.218761h 1.0885l 0.0453543, -0.0769603h 0.272126" fill="none" stroke="#00aa00" stroke-width="3"/>
<path d="M321.677,125.08h 0.816378l 0.0453543, -0.0194026h 1.0885l 0.0453543, -0.25965h 0.226772" fill="none" stroke="#00aa00" stroke-width="3"/>
<path d="M323.899,124.8h 0.861732l 0.0453543, -0.0581312h 1.0885l 0.0453543, -0.252444h 0.181417" fill="none" stroke="#00aa00" stroke-width="3"/>
<path d="M326.121,124.49h 0.907087l 0.0453543, -0.195096h 1.0885l 0.0453543, -0.145911h 0.136063" fill="none" stroke="#00aa00" stroke-width="3"/>
<path d="M328.344,124.149h 0.952441l 0.0453543, -0.239387h 1.0885l 0.0453543, 0.115689h 0.0907087" fill="none" stroke="#00aa00" stroke-width="3"/>
<path d="M330.566,124.025h 0.997795l 0.0453543, -0.0318087h 1.0885l 0.0453543, -0.183531h 0.0453543" fill="none" stroke="#00aa00" stroke-width="3"/>
<path d="M332.789,123.81h 1.04315l 0.0453543, -0.100702h 1.0885l 0.0453543, -0.575405" fill="none" stroke="#00aa00" stroke-width="3"/>
<path d="M335.011,123.134h 1.0885l 0.0453543, -0.215378h 1.0885" fill="none" stroke="#00aa00" stroke-width="3"/>
<path d="M337.233,122.918l 0.0453543, 0.0855433h 1.0885l 0.0453543, -0.0631587h 1.04315" fill="none" stroke="#00aa00" stroke-width="3"/>
<path d="M339.456,122.941h 0.0453543l 0.0453543, -0.0511539h 1.0885l 0.0453543, -0.165295h 0.997795" fill="none" stroke="#00aa00" stroke-width="3"/>
<path d="M341.678,122.724h 0.0907087l 0.0453543, -0.451401h 1.0885l 0.0453543, -0.100415h 0.952441" fill="none" stroke="#00aa00" stroke-width="3"/>
<path d="M343.9,122.173h 0.136063l 0.0453543, -0.288286h 1.0885l 0.0453543, -0.274599h 0.907087" fill="none" stroke="#00aa00" stroke-width="3"/>
<path d="M346.123,121.61h 0.181417l 0.0453543, 0.141514h 1.0885l 0.0453543, -0.0999375h 0.861732" fill="none" stroke="#00aa00" stroke-width="3"/>
<path d="M348.345,121.651h 0.226772l 0.0453543, 0.0322293h 1.0885l 0.0453543, -0.278231h 0.816378" fill="none" stroke="#00aa00" stroke-width="3"/>
<path d="M350.567,121.405h 0.272126l 0.0453543, -0.100836h 1.0885l 0.0453543, -0.240171h 0.771024" fill="none" stroke="#00aa00" stroke-width="3"/>
<path d="M352.79,121.064h 0.31748l 0.0453543, -0.533331h 1.0885l 0.0453543, 0.00972995h 0.725669" fill="none" stroke="#00aa00" stroke-width="3"/>
<path d="M355.012,120.541h 0.362835l 0.0453543, -1.01295h 1.0885l 0.0453543, -0.337987h 0.680315" fill="none" stroke="#00aa00" stroke-width="3"/>
<path d="M357.234,119.19h 0.408189l 0.0453543, 0.116186h 1.0885l 0.0453543, -0.146351h 0.634961" fill="none" stroke="#00aa00" stroke-width="3"/>
<path d="M359.457,119.159h 0.453543l 0.0453543, -0.224879h 1.0885l 0.0453543, -0.138915h 0.589606" fill="none" stroke="#00aa00" stroke-width="3"/>
<path d="M361.679,118.796h 0.498898l 0.0453543, -0.0438326h 1.0885l 0.0453543, -0.159235h 0.544252" fill="none" stroke="#00aa00" stroke-width="3"/>
<path d="M363.902,118.593h 0.544252l 0.0453543, -0.192229h 1.0885l 0.0453543, -0.0193834h 0.498898" fill="none" stroke="#00aa00" stroke-width="3"/>
<path d="M366.124,118.381h 0.589606l 0.0453543, -0.134652h 1.0885l 0.0453543, -0.236864h 0.453543" fill="none" stroke="#00aa00" stroke-width="3"/>
<path d="M368.346,118.009h 0.634961l 0.0453543, -0.252501h 1.0885l 0.0453543, -0.00353643h 0.408189" fill="none" stroke="#00aa00" stroke-width="3"/>
<path d="M370.569,117.753h 0.680315l 0.0453543, 0.205916h 1.0885l 0.0453543, -0.0501408h 0.362835" fill="none" stroke="#00aa00" stroke-width="3"/>
<path d="M372.791,117.909h 0.725669l 0.0453543, -0.033663h 1.0885l 0.0453543, -0.270795h 0.31748" fill="none" stroke="#00aa00" stroke-width="3"/>
<path d="M375.013,117.605h 0.771024l 0.0453543, 0.0475028h 1.0885l 0.0453543, -0.0499496h 0.272126" fill="none" stroke="#00aa00" stroke-width="3"/>
<path d="M377.236,117.602h 0.816378l 0.0453543, 0.107221h 1.0885l 0.0453543, -0.0146427h 0.226772" fill="none" stroke="#00aa00" stroke-width="3"/>
<path d="M379.458,117.695h 0.861732l 0.0453543, 0.0475219h 1.0885l 0.0453543, -0.0500452h 0.181417" fill="none" stroke="#00aa00" stroke-width="3"/>
<path d="M381.68,117.692h 0.907087l 0.0453543, -1.49558h 1.0885l 0.0453543, -0.165486h 0.136063" fill="none" stroke="#00aa00" stroke-width="3"/>
<path d="M383.903,116.031h 0.952441l 0.0453543, -0.036473h 1.0885l 0.0453543, -0.984503h 0.0907087" fill="none" stroke="#00aa00" stroke-width="3"/>
<path d="M386.125,115.01h 0.997795l 0.0453543, -0.572806h 1.0885l 0.0453543, -0.0878563h 0.0453543" fill="none" stroke="#00aa00" stroke-width="3"/>
<path d="M388.348,114.35h 1.04315l 0.0453543, -0.795084h 1.0885l 0.0453543, -0.302909" fill="none" stroke="#00aa00" stroke-width="3"/>
<path d="M390.57,113.252h 1.0885l 0.0453543, -0.262976h 1.0885" fill="none" stroke="#00aa00" stroke-width="3"/>
<path d="M392.792,112.989l 0.0453543, -7.46152h 1.0885l 0.0453543, -1.25683h 1.04315" fill="none" stroke="#00aa00" stroke-width="3"/>
<path d="M395.015,104.27h 0.0453543l 0.0453543, -0.402923h 1.0885l 0.0453543, -0.675916h 0.997795" fill="none" stroke="#00aa00" stroke-width="3"/>
<path d="M397.237,103.192h 0.0907087l 0.0453543, -0.0428959h 1.0885l 0.0453543, -0.617976h 0.952441" fill="none" stroke="#00aa00" stroke-width="3"/>
<path d="M399.459,102.531h 0.136063l 0.0453543, -0.417107h 1.0885l 0.0453543, -0.0709197h 0.907087" fill="none" stroke="#00aa00" stroke-width="3"/>
<path d="M401.682,102.043h 0.181417l 0.0453543, -0.447444h 1.0885l 0.0453543, -0.148052h 0.861732" fill="none" stroke="#00aa00" stroke-width="3"/>
<path d="M403.904,101.447h 0.226772l 0.0453543, -1.54689h 1.0885l 0.0453543, -1.11134h 0.816378" fill="none" stroke="#00aa00" stroke-width="3"/>
<path d="M406.126,98.7889h 0.272126l 0.0453543, 0.00909913h 1.0885l 0.0453543, -0.447826h 0.771024" fill="none" stroke="#00aa00" stroke-width="3"/>
<path d="M408.349,98.3502h 0.31748l 0.0453543, -0.414584h 1.0885l 0.0453543, -0.0839376h 0.725669" fill="none" stroke="#00aa00" stroke-width="3"/>
<path d="M410.571,97.8516h 0.362835l 0.0453543, -0.807548h 1.0885l 0.0453543, -0.141132h 0.680315" fill="none" stroke="#00aa00" stroke-width="3"/>
<path d="M412.794,96.903h 0.408189l 0.0453543, -0.0313117h 1.0885l 0.0453543, -0.656896h 0.634961" fill="none" stroke="#00aa00" stroke-width="3"/>
<path d="M415.016,96.2148h 0.453543l 0.0453543, -0.0773809h 1.0885l 0.0453543, -0.0183894h 0.589606" fill="none" stroke="#00aa00" stroke-width="3"/>
<path d="M417.238,96.119h 0.498898l 0.0453543, -0.191177h 1.0885l 0.0453543, 0.0780117h 0.544252" fill="none" stroke="#00aa00" stroke-width="3"/>
<path d="M419.461,96.0058h 0.544252l 0.0453543, 0.0126356h 1.0885l 0.0453543, -0.0724872h 0.498898" fill="none" stroke="#00aa00" stroke-width="3"/>
<path d="M421.683,95.946h 0.589606l 0.0453543, 0.0448075h 1.0885l 0.0453543, -0.445934h 0.453543" fill="none" stroke="#00aa00" stroke-width="3"/>
<path d="M423.905,95.5448h 0.634961l 0.0453543, -0.0996317h 1.0885l 0.0453543, 0.19437h 0.408189" fill="none" stroke="#00aa00" stroke-width="3"/>
<path d="M426.128,95.6396h 0.680315l 0.0453543, 0.105041h 1.0885l 0.0453543, 0.138513h 0.362835" fill="none" stroke="#00aa00" stroke-width="3"/>
<path d="M428.35,95.8831h 0.725669l 0.0453543, -0.2002h 1.0885l 0.0453543, -0.0339879h 0.31748" fill="none" stroke="#00aa00" stroke-width="3"/>
<path d="M430.572,95.6489h 0.771024l 0.0453543, -0.250303h 1.0885l 0.0453543, 0.0445972h 0.272126" fill="none" stroke="#00aa00" stroke-width="3"/>
<path d="M432.795,95.4432h 0.816378l 0.0453543, -0.177127h 1.0885l 0.0453543, -0.292224h 0.226772" fill="none" stroke="#00aa00" stroke-width="3"/>
<path d="M435.017,94.9739h 0.861732l 0.0453543, -0.249806h 1.0885l 0.0453543, -0.416209h 0.181417" fill="none" stroke="#00aa00" stroke-width="3"/>
<path d="M437.24,94.3079h 0.907087l 0.0453543, 0.718162h 1.0885l 0.0453543, -0.0173572h 0.136063" fill="none" stroke="#00aa00" stroke-width="3"/>
<path d="M439.462,95.0087h 0.952441l 0.0453543, -0.370809h 1.0885l 0.0453543, -0.0487645h 0.0907087" fill="none" stroke="#00aa00" stroke-width="3"/>
<path d="M441.684,94.5891h 0.997795l 0.0453543, -0.0123106h 1.0885l 0.0453543, 0.276988h 0.0453543" fill="none" stroke="#00aa00" stroke-width="3"/>
<path d="M443.907,94.8538h 1.04315l 0.0453543, 0.0129223h 1.0885l 0.0453543, -0.0180836" fill="none" stroke="#00aa00" stroke-width="3"/>
<path d="M446.129,94.8486h 1.0885l 0.0453543, 0.0822172h 1.0885" fill="none" stroke="#00aa00" stroke-width="3"/>
<path d="M448.351,94.9308l 0.0453543, -0.214537h 1.0885l 0.0453543, 0.138704h 1.04315" fill="none" stroke="#00aa00" stroke-width="3"/>
<path d="M450.574,94.855h 0.0453543l 0.0453543, -0.935414h 1.0885l 0.0453543, 0.0160955h 0.997795" fill="none" stroke="#00aa00" stroke-width="3"/>
<path d="M452.796,93.9357h 0.0907087l 0.0453543, -0.147039h 1.0885l 0.0453543, 0.102021h 0.952441" fill="none" stroke="#00aa00" stroke-width="3"/>
<path d="M455.018,93.8907h 0.136063l 0.0453543, -0.418713h 1.0885l 0.0453543, -0.465833h 0.907087" fill="none" stroke="#00aa00" stroke-width="3"/>
<path d="M457.241,93.0061h 0.181417l 0.0453543, -0.603773h 1.0885l 0.0453543, 0.0531229h 0.861732" fill="none" stroke="#00aa00" stroke-width="3"/>
<path d="M459.463,92.4555h 0.226772l 0.0453543, -0.255062h 1.0885l 0.0453543, 0.00114695h 0.816378" fill="none" stroke="#00aa00" stroke-width="3"/>
<path d="M461.686,92.2016h 0.272126l 0.0453543, 0.00198805h 1.0885l 0.0453543, 0.0183321h 0.771024" fill="none" stroke="#00aa00" stroke-width="3"/>
<path d="M463.908,92.2219h 0.31748l 0.0453543, -0.716327h 1.0885l 0.0453543, -0.10638h 0.725669" fill="none" stroke="#00aa00" stroke-width="3"/>
<path d="M466.13,91.3992h 0.362835l 0.0453543, 0.0781073h 1.0885l 0.0453543, 0.0250991h 0.680315" fill="none" stroke="#00aa00" stroke-width="3"/>
<path d="M468.353,91.5024h 0.408189l 0.0453543, -0.122303h 1.0885l 0.0453543, 0.0781455h 0.634961" fill="none" stroke="#00aa00" stroke-width="3"/>
<path d="M470.575,91.4582h 0.453543l 0.0453543, -0.0793689h 1.0885l 0.0453543, 0.0951968h 0.589606" fill="none" stroke="#00aa00" stroke-width="3"/>
<path d="M472.797,91.4741h 0.498898l 0.0453543, 0.0430488h 1.0885l 0.0453543, -0.0704418h 0.544252" fill="none" stroke="#00aa00" stroke-width="3"/>
<path d="M475.02,91.4467h 0.544252l 0.0453543, -0.158088h 1.0885l 0.0453543, 0.19047h 0.498898" fill="none" stroke="#00aa00" stroke-width="3"/>
<path d="M477.242,91.479h 0.589606l 0.0453543, -0.409212h 1.0885l 0.0453543, -0.0738253h 0.453543" fill="none" stroke="#00aa00" stroke-width="3"/>
<path d="M479.464,90.996h 0.634961l 0.0453543, 1.2552h 1.0885l 0.0453543, 0.0739973h 0.408189" fill="none" stroke="#00aa00" stroke-width="3"/>
<path d="M481.687,92.3252h 0.680315l 0.0453543, 0.0166881h 1.49669" fill="none" stroke="#00aa00" stroke-width="3"/>
<path d="M483.909,92.3419h 0.725669l 0.0453543, -0.0359951h 1.0885l 0.0453543, -0.0846449h 0.31748" fill="none" stroke="#00aa00" stroke-width="3"/>
<path d="M486.132,92.2213h 1.90488l 0.0453543, -0.306503h 0.272126" fill="none" stroke="#00aa00" stroke-width="3"/>
<path d="M488.354,91.9147h 0.816378l 0.0453543, -0.183531h 1.0885l 0.0453543, -0.326384h 0.226772" fill="none" stroke="#00aa00" stroke-width="3"/>
<path d="M490.576,91.4048h 0.861732l 0.0453543, -2.0713h 1.0885l 0.0453543, 0.159158h 0.181417" fill="none" stroke="#00aa00" stroke-width="3"/>
<path d="M492.799,89.4927h 0.907087l 0.0453543, -0.116607h 1.0885l 0.0453543, -1.63689h 0.136063" fill="none" stroke="#00aa00" stroke-width="3"/>
<path d="M495.021,87.7392h 0.952441l 0.0453543, 0.123393h 1.0885l 0.0453543, -0.0137252h 0.0907087" fill="none" stroke="#00aa00" stroke-width="3"/>
<path d="M497.243,87.8489h 0.997795l 0.0453543, 0.397686h 1.0885l 0.0453543, 0.0961144h 0.0453543" fill="none" stroke="#00aa00" stroke-width="3"/>
<path d="M499.466,88.3427h 1.04315l 0.0453543, 0.122035h 1.0885l 0.0453543, -0.252501" fill="none" stroke="#00aa00" stroke-width="3"/>
<path d="M501.688,88.2122h 1.0885l 0.0453543, -0.918993h 1.0885" fill="none" stroke="#00aa00" stroke-width="3"/>
<path d="M503.91,87.2932l 0.0453543, -0.66936h 1.0885l 0.0453543, -1.16788h 1.04315" fill="none" stroke="#00aa00" stroke-width="3"/>
<path d="M506.133,85.456h 0.0453543l 0.0453543, -0.395583h 1.0885l 0.0453543, 0.890664h 0.997795" fill="none" stroke="#00aa00" stroke-width="3"/>
<path d="M508.355,85.951h 0.0907087l 0.0453543, -0.123909h 1.0885l 0.0453543, 0.33273h 0.952441" fill="none" stroke="#00aa00" stroke-width="3"/>
<path d="M510.577,86.1599h 0.15874" fill="none" stroke="#00aa00" stroke-width="3"/>
<path d="M57.1929,238.452h 453.543" fill="none" stroke="black"/>
<path d="M57.1929,232.093v 6.35872" fill="none" stroke="black"/>
<path d="M79.87,235.273v 3.17936" fill="none" stroke="black"/>
<path d="M102.547,235.273v 3.17936" fill="none" stroke="black"/>
<path d="M125.224,235.273v 3.17936" fill="none" stroke="black"/>
<path d="M147.901,235.273v 3.17936" fill="none" stroke="black"/>
<path d="M170.578,232.093v 6.35872" fill="none" stroke="black"/>
<path d="M193.255,235.273v 3.17936" fill="none" stroke="black"/>
<path d="M215.932,235.273v 3.17936" fill="none" stroke="black"/>
<path d="M238.609,235.273v 3.17936" fill="none" stroke="black"/>
<path d="M261.286,235.273v 3.17936" fill="none" stroke="black"/>
<path d="M283.963,232.093v 6.35872" fill="none" stroke="black"/>
<path d="M306.64,235.273v 3.17936" fill="none" stroke="black"/>
<path d="M329.318,235.273v 3.17936" fill="none" stroke="black"/>
<path d="M351.995,235.273v 3.17936" fill="none" stroke="black"/>
<path d="M374.672,235.273v 3.17936" fill="none" stroke="black"/>
<path d="M397.349,232.093v 6.35872" fill="none" stroke="black"/>
<path d="M420.026,235.273v 3.17936" fill="none" stroke="black"/>
<path d="M442.703,235.273v 3.17936" fill="none" stroke="black"/>
<path d="M465.38,235.273v 3.17936" fill="none" stroke="black"/>
<path d="M488.057,235.273v 3.17936" fill="none" stroke="black"/>
<path d="M510.734,232.093v 6.35872" fill="none" stroke="black"/>
<path d="M510.734,232.093v 6.35872" fill="none" stroke="black"/>
<path d="M57.1929,238.452v -185.463" fill="none" stroke="black"/>
<path d="M69.0984,213.344h -11.9055" fill="none" stroke="black"/>
<path d="M63.1457,206.93h -5.95276" fill="none" stroke="black"/>
<path d="M63.1457,200.516h -5.95276" fill="none" stroke="black"/>
<path d="M63.1457,194.102h -5.95276" fill="none" stroke="black"/>
<path d="M63.1457,187.688h -5.95276" fill="none" stroke="black"/>
<path d="M69.0984,181.273h -11.9055" fill="none" stroke="black"/>
<path d="M63.1457,174.859h -5.95276" fill="none" stroke="black"/>
<path d="M63.1457,168.445h -5.95276" fill="none" stroke="black"/>
<path d="M63.1457,162.031h -5.95276" fill="none" stroke="black"/>
<path d="M63.1457,155.617h -5.95276" fill="none" stroke="black"/>
<path d="M69.0984,149.202h -11.9055" fill="none" stroke="black"/>
<path d="M63.1457,142.788h -5.95276" fill="none" stroke="black"/>
<path d="M63.1457,136.374h -5.95276" fill="none" stroke="black"/>
<path d="M63.1457,129.96h -5.95276" fill="none" stroke="black"/>
<path d="M63.1457,123.546h -5.95276" fill="none" stroke="black"/>
<path d="M69.0984,117.131h -11.9055" fill="none" stroke="black"/>
<path d="M63.1457,110.717h -5.95276" fill="none" stroke="black"/>
<path d="M63.1457,104.303h -5.95276" fill="none" stroke="black"/>
<path d="M63.1457,97.8888h -5.95276" fill="none" stroke="black"/>
<path d="M63.1457,91.4746h -5.95276" fill="none" stroke="black"/>
<path d="M69.0984,85.0604h -11.9055" fill="none" stroke="black"/>
<path d="M63.1457,78.6462h -5.95276" fill="none" stroke="black"/>
<path d="M63.1457,72.232h -5.95276" fill="none" stroke="black"/>
<path d="M63.1457,65.8178h -5.95276" fill="none" stroke="black"/>
<path d="M63.1457,59.4036h -5.95276" fill="none" stroke="black"/>
<path d="M69.0984,52.9894h -11.9055" fill="none" stroke="black"/>
<path d="M69.0984,213.344h -11.9055" fill="none" stroke="black"/>
<path d="M63.1457,219.759h -5.95276" fill="none" stroke="black"/>
<path d="M63.1457,226.173h -5.95276" fill="none" stroke="black"/>
<path d="M63.1457,232.587h -5.95276" fill="none" stroke="black"/>
<rect x="57.1929" y="21.1957" width="226.772" height="31.7936" fill="none" stroke="black"/>
<path d="M57.1929,52.9894h 226.772" fill="none" stroke="black"/>
<path d="M283.965,52.9894v -31.7936" fill="none" stroke="black"/>
<path d="M283.965,21.1957h -226.772" fill="none" stroke="black"/>
<path d="M57.1929,21.1957v 31.7936" fill="none" stroke="black"/>
<text xml:space="preserve" x="125.139" y="32.05" fill="black" font-size="13.5683" font-family="Helvetica">Signal efficiency</text>
<path d="M67.3976,29.1441h 47.622" fill="none" stroke="#0000ee" stroke-width="3"/>
<text xml:space="preserve" x="125.139" y="48.4311" fill="black" font-size="13.5683" font-family="Helvetica">Background efficiency</text>
<path d="M67.3976,45.041h 47.622" fill="none" stroke="#ff0000" stroke-width="3"/>
<rect x="283.965" y="21.1957" width="226.772" height="31.7936" fill="none" stroke="black"/>
<path d="M283.965,52.9894h 226.772" fill="none" stroke="black"/>
<path d="M510.736,52.9894v -31.7936" fill="none" stroke="black"/>
<path d="M510.736,21.1957h -226.772" fill="none" stroke="black"/>
<path d="M283.965,21.1957v 31.7936" fill="none" stroke="black"/>
<text xml:space="preserve" x="502.617" y="44.1578" fill="black" font-size="20.7455" font-family="Helvetica">}</text>
<text xml:space="preserve" x="489.085" y="44.1578" fill="black" font-size="20.7455" font-family="Helvetica">B</text>
<path d="M481.25,28.4889l 2.84889, 15.6689" fill="none" stroke="black" stroke-width="2"/>
<path d="M484.099,44.1578l 2.84889, -21.3667" fill="none" stroke="black"/>
<path d="M486.948,22.7911h 15.6689" fill="none" stroke="black"/>
<text xml:space="preserve" x="454.186" y="44.1578" fill="black" font-size="20.7455" font-family="Helvetica"> + </text>
<text xml:space="preserve" x="351.626" y="44.1578" fill="black" font-size="20.7455" font-family="Helvetica">eS / {{5./3.}</text>
<path d="M294.169,37.0925h 47.622" fill="none" stroke="#00aa00" stroke-width="3"/>
<text xml:space="preserve" x="181.405" y="13.5322" fill="black" font-size="13.8297" font-family="Helvetica">Signal Efficiency BDTB - MassID2</text>
<path d="M57.1929,85.0604h 453.543" fill="none" stroke="black"/>
<text xml:space="preserve" x="85.2545" y="203.696" fill="black" font-size="8.52133" font-family="Helvetica" font-weight="bold">For 128461 background</text>
<text xml:space="preserve" x="228.411" y="214.379" fill="black" font-size="8.52133" font-family="Helvetica" font-weight="bold"> is</text>
<text xml:space="preserve" x="225.562" y="214.379" fill="black" font-size="8.52133" font-family="Helvetica" font-weight="bold">}</text>
<text xml:space="preserve" x="219.865" y="214.379" fill="black" font-size="8.52133" font-family="Helvetica" font-weight="bold">B</text>
<path d="M216.303,207.969l 1.42445, 6.41" fill="none" stroke="black"/>
<path d="M217.728,214.379l 0.712223, -9.25889" fill="none" stroke="black"/>
<path d="M218.44,205.12h 7.12223" fill="none" stroke="black"/>
<text xml:space="preserve" x="205.62" y="214.379" fill="black" font-size="8.52133" font-family="Helvetica" font-weight="bold"> + </text>
<text xml:space="preserve" x="85.2545" y="214.379" fill="black" font-size="8.52133" font-family="Helvetica" font-weight="bold">events the maximum eS / {{5./3.}</text>
<text xml:space="preserve" x="85.2545" y="225.062" fill="black" font-size="8.52133" font-family="Helvetica" font-weight="bold">4.76e-03 when cutting at  0.98</text>
<path d="M510.736,238.452v -185.463" fill="none" stroke="#00aa00"/>
<path d="M498.831,238.452h 11.9055" fill="none" stroke="#00aa00"/>
<path d="M504.783,231.367h 5.95276" fill="none" stroke="#00aa00"/>
<path d="M504.783,224.282h 5.95276" fill="none" stroke="#00aa00"/>
<path d="M504.783,217.197h 5.95276" fill="none" stroke="#00aa00"/>
<path d="M504.783,210.113h 5.95276" fill="none" stroke="#00aa00"/>
<path d="M498.831,203.028h 11.9055" fill="none" stroke="#00aa00"/>
<path d="M504.783,195.943h 5.95276" fill="none" stroke="#00aa00"/>
<path d="M504.783,188.858h 5.95276" fill="none" stroke="#00aa00"/>
<path d="M504.783,181.773h 5.95276" fill="none" stroke="#00aa00"/>
<path d="M504.783,174.688h 5.95276" fill="none" stroke="#00aa00"/>
<path d="M498.831,167.603h 11.9055" fill="none" stroke="#00aa00"/>
<path d="M504.783,160.518h 5.95276" fill="none" stroke="#00aa00"/>
<path d="M504.783,153.433h 5.95276" fill="none" stroke="#00aa00"/>
<path d="M504.783,146.349h 5.95276" fill="none" stroke="#00aa00"/>
<path d="M504.783,139.264h 5.95276" fill="none" stroke="#00aa00"/>
<path d="M498.831,132.179h 11.9055" fill="none" stroke="#00aa00"/>
<path d="M504.783,125.094h 5.95276" fill="none" stroke="#00aa00"/>
<path d="M504.783,118.009h 5.95276" fill="none" stroke="#00aa00"/>
<path d="M504.783,110.924h 5.95276" fill="none" stroke="#00aa00"/>
<path d="M504.783,103.839h 5.95276" fill="none" stroke="#00aa00"/>
<path d="M498.831,96.7543h 11.9055" fill="none" stroke="#00aa00"/>
<path d="M504.783,89.6694h 5.95276" fill="none" stroke="#00aa00"/>
<path d="M504.783,82.5845h 5.95276" fill="none" stroke="#00aa00"/>
<path d="M504.783,75.4996h 5.95276" fill="none" stroke="#00aa00"/>
<path d="M504.783,68.4147h 5.95276" fill="none" stroke="#00aa00"/>
<path d="M498.831,61.3298h 11.9055" fill="none" stroke="#00aa00"/>
<path d="M498.831,61.3298h 11.9055" fill="none" stroke="#00aa00"/>
<path d="M504.783,54.2449h 5.95276" fill="none" stroke="#00aa00"/>
<text xml:space="preserve" x="513.3" y="242.156" fill="#00aa00" font-size="10.2228" font-family="Helvetica" font-weight="bold">0</text>
<text xml:space="preserve" x="513.3" y="207.257" fill="#00aa00" font-size="10.2228" font-family="Helvetica" font-weight="bold">0.001</text>
<text xml:space="preserve" x="513.3" y="171.646" fill="#00aa00" font-size="10.2228" font-family="Helvetica" font-weight="bold">0.002</text>
<text xml:space="preserve" x="513.3" y="136.035" fill="#00aa00" font-size="10.2228" font-family="Helvetica" font-weight="bold">0.003</text>
<text xml:space="preserve" x="513.3" y="100.423" fill="#00aa00" font-size="10.2228" font-family="Helvetica" font-weight="bold">0.004</text>
<text xml:space="preserve" x="513.3" y="65.5245" fill="#00aa00" font-size="10.2228" font-family="Helvetica" font-weight="bold">0.005</text>
<g transform="rotate(-90,544.638,137.459)">
<text xml:space="preserve" x="544.638" y="137.459" fill="#00aa00" font-size="9.00747" font-family="Helvetica" font-weight="bold">Punzi Figure of Merit</text>
</g></svg>
