<?xml version="1.0" standalone="no"?>
<svg width="567.429" height="265.447" viewBox="0 0 567.429 265.447" xmlns="http://www.w3.org/2000/svg" shape-rendering="crispEdges">
<title>
punzi/BDTBm1.svg
</title>
<desc>
Creator: ROOT Version 6.26/02
CreationDate: Wed May  4 16:53:06 2022</desc>
<defs>
</defs>
<rect x="0.5" y="0" width="566.929" height="264.947" fill="white"/>
<rect x="57.1929" y="52.9894" width="453.543" height="185.463" fill="white"/>
<rect x="57.1929" y="52.9894" width="453.543" height="185.463" fill="none" stroke="black"/>
<rect x="57.1929" y="52.9894" width="453.543" height="185.463" fill="white"/>
<rect x="57.1929" y="52.9894" width="453.543" height="185.463" fill="none" stroke="black"/>
<path d="M57.1929,238.452h 453.543" fill="none" stroke="black"/>
<path d="M57.1929,52.9894v 185.463" fill="none" stroke="black" stroke-dasharray=" 1, 2"/>
<path d="M170.578,52.9894v 185.463" fill="none" stroke="black" stroke-dasharray=" 1, 2"/>
<path d="M283.963,52.9894v 185.463" fill="none" stroke="black" stroke-dasharray=" 1, 2"/>
<path d="M397.349,52.9894v 185.463" fill="none" stroke="black" stroke-dasharray=" 1, 2"/>
<path d="M510.734,52.9894v 185.463" fill="none" stroke="black" stroke-dasharray=" 1, 2"/>
<path d="M510.734,52.9894v 185.463" fill="none" stroke="black" stroke-dasharray=" 1, 2"/>
<path d="M57.1929,238.452v -185.463" fill="none" stroke="black"/>
<path d="M510.736,213.344h -453.543" fill="none" stroke="black" stroke-dasharray=" 1, 2"/>
<path d="M510.736,181.273h -453.543" fill="none" stroke="black" stroke-dasharray=" 1, 2"/>
<path d="M510.736,149.202h -453.543" fill="none" stroke="black" stroke-dasharray=" 1, 2"/>
<path d="M510.736,117.131h -453.543" fill="none" stroke="black" stroke-dasharray=" 1, 2"/>
<path d="M510.736,85.0604h -453.543" fill="none" stroke="black" stroke-dasharray=" 1, 2"/>
<path d="M510.736,52.9894h -453.543" fill="none" stroke="black" stroke-dasharray=" 1, 2"/>
<path d="M510.736,213.344h -453.543" fill="none" stroke="black" stroke-dasharray=" 1, 2"/>
<path d="M57.1929,85.0604l 0.0680315, 29.9543h 1.04315l 0.0453543, 2.80622h 1.0885" fill="none" stroke="#0000ee" stroke-width="3"/>
<path d="M59.438,117.821l 0.0453543, 2.6619h 1.0885l 0.0453543, 0.46503h 1.04315" fill="none" stroke="#0000ee" stroke-width="3"/>
<path d="M61.6603,120.948h 0.0453543l 0.0453543, 0.801776h 1.0885l 0.0453543, 0.657456h 0.997795" fill="none" stroke="#0000ee" stroke-width="3"/>
<path d="M63.8827,122.407h 0.0907087l 0.0453543, 0.352781h 1.0885l 0.0453543, 2.40533h 0.952441" fill="none" stroke="#0000ee" stroke-width="3"/>
<path d="M66.105,125.165h 0.136063l 0.0453543, 0.865918h 1.0885l 0.0453543, 1.53941h 0.907087" fill="none" stroke="#0000ee" stroke-width="3"/>
<path d="M68.3274,127.571h 0.181417l 0.0453543, 0.60935h 1.0885l 0.0453543, 0.288639h 0.861732" fill="none" stroke="#0000ee" stroke-width="3"/>
<path d="M70.5498,128.469h 0.226772l 0.0453543, 0.0801776h 1.0885l 0.0453543, 0.0641421h 0.816378" fill="none" stroke="#0000ee" stroke-width="3"/>
<path d="M72.7721,128.613h 0.272126l 0.0453543, 0.272604h 1.0885l 0.0453543, 0.400888h 0.771024" fill="none" stroke="#0000ee" stroke-width="3"/>
<path d="M74.9945,129.286h 0.31748l 0.0453543, 0.93006h 1.0885l 0.0453543, 0.416923h 0.725669" fill="none" stroke="#0000ee" stroke-width="3"/>
<path d="M77.2169,130.633h 0.362835l 0.0453543, 0.769705h 1.0885l 0.0453543, 0.256568h 0.680315" fill="none" stroke="#0000ee" stroke-width="3"/>
<path d="M79.4392,131.66h 0.408189l 0.0453543, 0.032071h 1.0885l 0.0453543, 0.112249h 0.634961" fill="none" stroke="#0000ee" stroke-width="3"/>
<path d="M81.6616,131.804h 0.453543l 0.0453543, 0.112249h 1.0885l 0.0453543, 0.14432h 0.589606" fill="none" stroke="#0000ee" stroke-width="3"/>
<path d="M83.8839,132.06h 0.498898l 0.0453543, 0.0962131h 1.0885l 0.0453543, 0.032071h 0.544252" fill="none" stroke="#0000ee" stroke-width="3"/>
<path d="M86.1063,132.189h 0.544252l 0.0453543, 0.032071h 1.0885l 0.0453543, 0.0801776h 0.498898" fill="none" stroke="#0000ee" stroke-width="3"/>
<path d="M88.3287,132.301h 1.72346l 0.0453543, 0.032071h 0.453543" fill="none" stroke="#0000ee" stroke-width="3"/>
<path d="M90.551,132.333h 0.634961l 0.0453543, 0.0481065h 1.54205" fill="none" stroke="#0000ee" stroke-width="3"/>
<path d="M92.7734,132.381h 0.680315l 0.0453543, 0.0481065h 1.49669" fill="none" stroke="#0000ee" stroke-width="3"/>
<path d="M94.9958,132.429h 0.725669l 0.0453543, 0.112249h 1.0885l 0.0453543, 0.0160355h 0.31748" fill="none" stroke="#0000ee" stroke-width="3"/>
<path d="M97.2181,132.558h 0.771024l 0.0453543, 0.112249h 1.0885l 0.0453543, 0.14432h 0.272126" fill="none" stroke="#0000ee" stroke-width="3"/>
<path d="M99.4405,132.814h 0.816378l 0.0453543, 0.112249h 1.0885l 0.0453543, 0.0962131h 0.226772" fill="none" stroke="#0000ee" stroke-width="3"/>
<path d="M101.663,133.023h 0.861732l 0.0453543, 0.0962131h 1.0885l 0.0453543, 0.0641421h 0.181417" fill="none" stroke="#0000ee" stroke-width="3"/>
<path d="M103.885,133.183h 0.907087l 0.0453543, 0.112249h 1.0885l 0.0453543, 0.192426h 0.136063" fill="none" stroke="#0000ee" stroke-width="3"/>
<path d="M106.108,133.488h 0.952441l 0.0453543, 0.0801776h 1.0885l 0.0453543, 0.14432h 0.0907087" fill="none" stroke="#0000ee" stroke-width="3"/>
<path d="M108.33,133.712h 0.997795l 0.0453543, 0.0801776h 1.0885l 0.0453543, 0.0160355h 0.0453543" fill="none" stroke="#0000ee" stroke-width="3"/>
<path d="M110.552,133.808h 1.04315l 0.0453543, 0.176391h 1.0885l 0.0453543, 0.0160355" fill="none" stroke="#0000ee" stroke-width="3"/>
<path d="M112.775,134.001h 1.0885l 0.0453543, 0.160355h 1.0885" fill="none" stroke="#0000ee" stroke-width="3"/>
<path d="M114.997,134.161l 0.0453543, 0.032071h 1.0885l 0.0453543, 0.0962131h 1.04315" fill="none" stroke="#0000ee" stroke-width="3"/>
<path d="M117.219,134.289h 0.0453543l 0.0453543, 0.0481065h 1.0885l 0.0453543, 0.0481065h 0.997795" fill="none" stroke="#0000ee" stroke-width="3"/>
<path d="M119.442,134.386h 0.0907087l 0.0453543, 0.208462h 1.0885l 0.0453543, 0.128284h 0.952441" fill="none" stroke="#0000ee" stroke-width="3"/>
<path d="M121.664,134.722h 2.22236" fill="none" stroke="#0000ee" stroke-width="3"/>
<path d="M123.886,134.722h 1.31528l 0.0453543, 0.0160355h 0.861732" fill="none" stroke="#0000ee" stroke-width="3"/>
<path d="M126.109,134.738h 1.36063l 0.0453543, 0.0641421h 0.816378" fill="none" stroke="#0000ee" stroke-width="3"/>
<path d="M128.331,134.803h 0.272126l 0.0453543, 0.0160355h 1.0885l 0.0453543, 0.032071h 0.771024" fill="none" stroke="#0000ee" stroke-width="3"/>
<path d="M130.554,134.851h 0.31748l 0.0453543, 0.0962131h 1.0885l 0.0453543, 0.112249h 0.725669" fill="none" stroke="#0000ee" stroke-width="3"/>
<path d="M132.776,135.059h 0.362835l 0.0453543, 0.0962131h 1.0885l 0.0453543, 0.0160355h 0.680315" fill="none" stroke="#0000ee" stroke-width="3"/>
<path d="M134.998,135.171h 1.54205l 0.0453543, 0.0641421h 0.634961" fill="none" stroke="#0000ee" stroke-width="3"/>
<path d="M137.221,135.236h 0.453543l 0.0453543, 0.032071h 1.0885l 0.0453543, 0.0801776h 0.589606" fill="none" stroke="#0000ee" stroke-width="3"/>
<path d="M139.443,135.348h 0.498898l 0.0453543, 0.0641421h 1.0885l 0.0453543, 0.0962131h 0.544252" fill="none" stroke="#0000ee" stroke-width="3"/>
<path d="M141.665,135.508h 0.544252l 0.0453543, 0.160355h 1.0885l 0.0453543, 0.0641421h 0.498898" fill="none" stroke="#0000ee" stroke-width="3"/>
<path d="M143.888,135.733h 0.589606l 0.0453543, 0.0641421h 1.0885l 0.0453543, 0.0481065h 0.453543" fill="none" stroke="#0000ee" stroke-width="3"/>
<path d="M146.11,135.845h 0.634961l 0.0453543, 0.128284h 1.0885l 0.0453543, 0.208462h 0.408189" fill="none" stroke="#0000ee" stroke-width="3"/>
<path d="M148.332,136.182h 0.680315l 0.0453543, 0.112249h 1.0885l 0.0453543, 0.0962131h 0.362835" fill="none" stroke="#0000ee" stroke-width="3"/>
<path d="M150.555,136.39h 0.725669l 0.0453543, 0.0160355h 1.0885l 0.0453543, 0.032071h 0.31748" fill="none" stroke="#0000ee" stroke-width="3"/>
<path d="M152.777,136.438h 0.771024l 0.0453543, 0.224497h 1.0885l 0.0453543, 0.032071h 0.272126" fill="none" stroke="#0000ee" stroke-width="3"/>
<path d="M155,136.695h 0.816378l 0.0453543, 0.032071h 1.0885l 0.0453543, 0.0160355h 0.226772" fill="none" stroke="#0000ee" stroke-width="3"/>
<path d="M157.222,136.743h 0.861732l 0.0453543, 0.0160355h 1.31528" fill="none" stroke="#0000ee" stroke-width="3"/>
<path d="M159.444,136.759h 0.907087l 0.0453543, 0.128284h 1.26992" fill="none" stroke="#0000ee" stroke-width="3"/>
<path d="M161.667,136.887h 2.0863l 0.0453543, 0.032071h 0.0907087" fill="none" stroke="#0000ee" stroke-width="3"/>
<path d="M163.889,136.919h 2.13165l 0.0453543, 0.032071h 0.0453543" fill="none" stroke="#0000ee" stroke-width="3"/>
<path d="M166.111,136.951h 2.22236" fill="none" stroke="#0000ee" stroke-width="3"/>
<path d="M168.334,136.951h 1.0885l 0.0453543, 1.29888h 1.0885" fill="none" stroke="#0000ee" stroke-width="3"/>
<path d="M170.556,138.25l 0.0453543, 0.0962131h 1.0885l 0.0453543, 0.208462h 1.04315" fill="none" stroke="#0000ee" stroke-width="3"/>
<path d="M172.778,138.555h 0.0453543l 0.0453543, 0.224497h 1.0885l 0.0453543, 0.0641421h 0.997795" fill="none" stroke="#0000ee" stroke-width="3"/>
<path d="M175.001,138.844h 0.0907087l 0.0453543, 0.112249h 1.0885l 0.0453543, 0.32071h 0.952441" fill="none" stroke="#0000ee" stroke-width="3"/>
<path d="M177.223,139.276h 0.136063l 0.0453543, 5.00308h 1.0885l 0.0453543, 0.272604h 0.907087" fill="none" stroke="#0000ee" stroke-width="3"/>
<path d="M179.446,144.552h 0.181417l 0.0453543, 0.497101h 1.0885l 0.0453543, 0.112249h 0.861732" fill="none" stroke="#0000ee" stroke-width="3"/>
<path d="M181.668,145.161h 0.226772l 0.0453543, 0.721598h 1.0885l 0.0453543, 0.0801776h 0.816378" fill="none" stroke="#0000ee" stroke-width="3"/>
<path d="M183.89,145.963h 0.272126l 0.0453543, 0.128284h 1.0885l 0.0453543, 0.801776h 0.771024" fill="none" stroke="#0000ee" stroke-width="3"/>
<path d="M186.113,146.893h 0.31748l 0.0453543, 0.513136h 1.0885l 0.0453543, 0.304675h 0.725669" fill="none" stroke="#0000ee" stroke-width="3"/>
<path d="M188.335,147.711h 0.362835l 0.0453543, 0.112249h 1.0885l 0.0453543, 0.448994h 0.680315" fill="none" stroke="#0000ee" stroke-width="3"/>
<path d="M190.557,148.272h 0.408189l 0.0453543, 0.208462h 1.0885l 0.0453543, 0.336746h 0.634961" fill="none" stroke="#0000ee" stroke-width="3"/>
<path d="M192.78,148.818h 0.453543l 0.0453543, 0.817811h 1.0885l 0.0453543, 0.304675h 0.589606" fill="none" stroke="#0000ee" stroke-width="3"/>
<path d="M195.002,149.94h 0.498898l 0.0453543, 0.272604h 1.0885l 0.0453543, 0.46503h 0.544252" fill="none" stroke="#0000ee" stroke-width="3"/>
<path d="M197.224,150.678h 0.544252l 0.0453543, 0.352781h 1.0885l 0.0453543, 0.577278h 0.498898" fill="none" stroke="#0000ee" stroke-width="3"/>
<path d="M199.447,151.608h 0.589606l 0.0453543, 0.60935h 1.0885l 0.0453543, 0.513136h 0.453543" fill="none" stroke="#0000ee" stroke-width="3"/>
<path d="M201.669,152.73h 0.634961l 0.0453543, 0.14432h 1.0885l 0.0453543, 0.240533h 0.408189" fill="none" stroke="#0000ee" stroke-width="3"/>
<path d="M203.891,153.115h 0.680315l 0.0453543, 0.112249h 1.0885l 0.0453543, 0.0481065h 0.362835" fill="none" stroke="#0000ee" stroke-width="3"/>
<path d="M206.114,153.275h 0.725669l 0.0453543, 0.0641421h 1.0885l 0.0453543, 0.112249h 0.31748" fill="none" stroke="#0000ee" stroke-width="3"/>
<path d="M208.336,153.452h 0.771024l 0.0453543, 0.032071h 1.40598" fill="none" stroke="#0000ee" stroke-width="3"/>
<path d="M210.559,153.484h 0.816378l 0.0453543, 0.0481065h 1.36063" fill="none" stroke="#0000ee" stroke-width="3"/>
<path d="M212.781,153.532h 0.861732l 0.0453543, 0.0160355h 1.0885l 0.0453543, 0.0801776h 0.181417" fill="none" stroke="#0000ee" stroke-width="3"/>
<path d="M215.003,153.628h 0.907087l 0.0453543, 0.240533h 1.0885l 0.0453543, 0.160355h 0.136063" fill="none" stroke="#0000ee" stroke-width="3"/>
<path d="M217.226,154.029h 0.952441l 0.0453543, 0.60935h 1.0885l 0.0453543, 0.208462h 0.0907087" fill="none" stroke="#0000ee" stroke-width="3"/>
<path d="M219.448,154.847h 0.997795l 0.0453543, 0.112249h 1.0885l 0.0453543, 0.0801776h 0.0453543" fill="none" stroke="#0000ee" stroke-width="3"/>
<path d="M221.67,155.039h 1.04315l 0.0453543, 0.32071h 1.13386" fill="none" stroke="#0000ee" stroke-width="3"/>
<path d="M223.893,155.36h 1.0885l 0.0453543, 0.208462h 1.0885" fill="none" stroke="#0000ee" stroke-width="3"/>
<path d="M226.115,155.569l 0.0453543, 0.128284h 1.0885l 0.0453543, 0.112249h 1.04315" fill="none" stroke="#0000ee" stroke-width="3"/>
<path d="M228.337,155.809h 0.0453543l 0.0453543, 0.0160355h 1.0885l 0.0453543, 0.128284h 0.997795" fill="none" stroke="#0000ee" stroke-width="3"/>
<path d="M230.56,155.953h 0.0907087l 0.0453543, 0.416923h 1.0885l 0.0453543, 0.0962131h 0.952441" fill="none" stroke="#0000ee" stroke-width="3"/>
<path d="M232.782,156.467h 1.26992l 0.0453543, 0.0160355h 0.907087" fill="none" stroke="#0000ee" stroke-width="3"/>
<path d="M235.005,156.483h 0.181417l 0.0453543, 0.192426h 1.0885l 0.0453543, 0.0962131h 0.861732" fill="none" stroke="#0000ee" stroke-width="3"/>
<path d="M237.227,156.771h 0.226772l 0.0453543, 0.0962131h 1.0885l 0.0453543, 0.0801776h 0.816378" fill="none" stroke="#0000ee" stroke-width="3"/>
<path d="M239.449,156.948h 0.272126l 0.0453543, 0.0641421h 1.0885l 0.0453543, 0.032071h 0.771024" fill="none" stroke="#0000ee" stroke-width="3"/>
<path d="M241.672,157.044h 0.31748l 0.0453543, 0.0641421h 1.0885l 0.0453543, 0.0801776h 0.725669" fill="none" stroke="#0000ee" stroke-width="3"/>
<path d="M243.894,157.188h 0.362835l 0.0453543, 0.384852h 1.0885l 0.0453543, 0.0641421h 0.680315" fill="none" stroke="#0000ee" stroke-width="3"/>
<path d="M246.116,157.637h 1.54205l 0.0453543, 0.176391h 0.634961" fill="none" stroke="#0000ee" stroke-width="3"/>
<path d="M248.339,157.814h 0.453543l 0.0453543, 0.0160355h 1.0885l 0.0453543, 0.128284h 0.589606" fill="none" stroke="#0000ee" stroke-width="3"/>
<path d="M250.561,157.958h 0.498898l 0.0453543, 0.288639h 1.67811" fill="none" stroke="#0000ee" stroke-width="3"/>
<path d="M252.783,158.246h 0.544252l 0.0453543, 0.0641421h 1.0885l 0.0453543, 0.0801776h 0.498898" fill="none" stroke="#0000ee" stroke-width="3"/>
<path d="M255.006,158.391h 0.589606l 0.0453543, 0.0641421h 1.0885l 0.0453543, 0.160355h 0.453543" fill="none" stroke="#0000ee" stroke-width="3"/>
<path d="M257.228,158.615h 0.634961l 0.0453543, 0.0962131h 1.0885l 0.0453543, 0.0641421h 0.408189" fill="none" stroke="#0000ee" stroke-width="3"/>
<path d="M259.451,158.776h 0.680315l 0.0453543, 0.160355h 1.0885l 0.0453543, 0.0481065h 0.362835" fill="none" stroke="#0000ee" stroke-width="3"/>
<path d="M261.673,158.984h 0.725669l 0.0453543, 0.432959h 1.0885l 0.0453543, 0.978166h 0.31748" fill="none" stroke="#0000ee" stroke-width="3"/>
<path d="M263.895,160.395h 0.771024l 0.0453543, 0.304675h 1.0885l 0.0453543, 1.33095h 0.272126" fill="none" stroke="#0000ee" stroke-width="3"/>
<path d="M266.118,162.031h 0.816378l 0.0453543, 0.240533h 1.0885l 0.0453543, 0.14432h 0.226772" fill="none" stroke="#0000ee" stroke-width="3"/>
<path d="M268.34,162.416h 0.861732l 0.0453543, 0.208462h 1.0885l 0.0453543, 0.224497h 0.181417" fill="none" stroke="#0000ee" stroke-width="3"/>
<path d="M270.562,162.849h 0.907087l 0.0453543, 0.128284h 1.0885l 0.0453543, 0.0801776h 0.136063" fill="none" stroke="#0000ee" stroke-width="3"/>
<path d="M272.785,163.057h 0.952441l 0.0453543, 0.240533h 1.0885l 0.0453543, 0.128284h 0.0907087" fill="none" stroke="#0000ee" stroke-width="3"/>
<path d="M275.007,163.426h 0.997795l 0.0453543, 0.192426h 1.0885l 0.0453543, 0.192426h 0.0453543" fill="none" stroke="#0000ee" stroke-width="3"/>
<path d="M277.229,163.811h 1.04315l 0.0453543, 0.112249h 1.0885l 0.0453543, 0.0641421" fill="none" stroke="#0000ee" stroke-width="3"/>
<path d="M279.452,163.987h 1.0885l 0.0453543, 0.0160355h 1.0885" fill="none" stroke="#0000ee" stroke-width="3"/>
<path d="M281.674,164.003l 0.0453543, 0.0962131h 1.0885l 0.0453543, 0.112249h 1.04315" fill="none" stroke="#0000ee" stroke-width="3"/>
<path d="M283.897,164.212h 0.0453543l 0.0453543, 0.032071h 1.0885l 0.0453543, 0.14432h 0.997795" fill="none" stroke="#0000ee" stroke-width="3"/>
<path d="M286.119,164.388h 0.0907087l 0.0453543, 0.112249h 1.0885l 0.0453543, 0.160355h 0.952441" fill="none" stroke="#0000ee" stroke-width="3"/>
<path d="M288.341,164.661h 1.26992l 0.0453543, 0.0801776h 0.907087" fill="none" stroke="#0000ee" stroke-width="3"/>
<path d="M290.564,164.741h 0.181417l 0.0453543, 0.0801776h 1.0885l 0.0453543, 0.032071h 0.861732" fill="none" stroke="#0000ee" stroke-width="3"/>
<path d="M292.786,164.853h 0.226772l 0.0453543, 0.0160355h 1.0885l 0.0453543, 0.0641421h 0.816378" fill="none" stroke="#0000ee" stroke-width="3"/>
<path d="M295.008,164.933h 0.272126l 0.0453543, 0.0160355h 1.0885l 0.0453543, 0.0641421h 0.771024" fill="none" stroke="#0000ee" stroke-width="3"/>
<path d="M297.231,165.013h 0.31748l 0.0453543, 0.112249h 1.85953" fill="none" stroke="#0000ee" stroke-width="3"/>
<path d="M299.453,165.126h 0.362835l 0.0453543, 0.0481065h 1.0885l 0.0453543, 0.0160355h 0.680315" fill="none" stroke="#0000ee" stroke-width="3"/>
<path d="M301.675,165.19h 0.408189l 0.0453543, 0.032071h 1.0885l 0.0453543, 0.256568h 0.634961" fill="none" stroke="#0000ee" stroke-width="3"/>
<path d="M303.898,165.479h 0.453543l 0.0453543, 0.0801776h 1.0885l 0.0453543, 0.513136h 0.589606" fill="none" stroke="#0000ee" stroke-width="3"/>
<path d="M306.12,166.072h 0.498898l 0.0453543, 0.0962131h 1.0885l 0.0453543, 0.0641421h 0.544252" fill="none" stroke="#0000ee" stroke-width="3"/>
<path d="M308.343,166.232h 0.544252l 0.0453543, 0.529172h 1.0885l 0.0453543, 0.0801776h 0.498898" fill="none" stroke="#0000ee" stroke-width="3"/>
<path d="M310.565,166.842h 0.589606l 0.0453543, 0.032071h 1.0885l 0.0453543, 0.240533h 0.453543" fill="none" stroke="#0000ee" stroke-width="3"/>
<path d="M312.787,167.114h 0.634961l 0.0453543, 0.032071h 1.54205" fill="none" stroke="#0000ee" stroke-width="3"/>
<path d="M315.01,167.146h 1.81417l 0.0453543, 0.032071h 0.362835" fill="none" stroke="#0000ee" stroke-width="3"/>
<path d="M317.232,167.178h 0.725669l 0.0453543, 0.0641421h 1.0885l 0.0453543, 0.032071h 0.31748" fill="none" stroke="#0000ee" stroke-width="3"/>
<path d="M319.454,167.274h 0.771024l 0.0453543, 0.032071h 1.0885l 0.0453543, 0.0801776h 0.272126" fill="none" stroke="#0000ee" stroke-width="3"/>
<path d="M321.677,167.387h 0.816378l 0.0453543, 0.032071h 1.0885l 0.0453543, 0.14432h 0.226772" fill="none" stroke="#0000ee" stroke-width="3"/>
<path d="M323.899,167.563h 0.861732l 0.0453543, 0.0481065h 1.0885l 0.0453543, 0.176391h 0.181417" fill="none" stroke="#0000ee" stroke-width="3"/>
<path d="M326.121,167.788h 0.907087l 0.0453543, 0.128284h 1.0885l 0.0453543, 0.0481065h 0.136063" fill="none" stroke="#0000ee" stroke-width="3"/>
<path d="M328.344,167.964h 0.952441l 0.0453543, 0.288639h 1.0885l 0.0453543, 0.416923h 0.0907087" fill="none" stroke="#0000ee" stroke-width="3"/>
<path d="M330.566,168.67h 0.997795l 0.0453543, 0.0962131h 1.0885l 0.0453543, 0.881953h 0.0453543" fill="none" stroke="#0000ee" stroke-width="3"/>
<path d="M332.789,169.648h 1.04315l 0.0453543, 0.0641421h 1.0885l 0.0453543, 0.288639" fill="none" stroke="#0000ee" stroke-width="3"/>
<path d="M335.011,170.001h 1.0885l 0.0453543, 0.14432h 1.0885" fill="none" stroke="#0000ee" stroke-width="3"/>
<path d="M337.233,170.145l 0.0453543, 0.32071h 1.0885l 0.0453543, 0.897989h 1.04315" fill="none" stroke="#0000ee" stroke-width="3"/>
<path d="M339.456,171.364h 0.0453543l 0.0453543, 0.208462h 1.0885l 0.0453543, 0.0641421h 0.997795" fill="none" stroke="#0000ee" stroke-width="3"/>
<path d="M341.678,171.636h 0.0907087l 0.0453543, 0.0801776h 1.0885l 0.0453543, 0.14432h 0.952441" fill="none" stroke="#0000ee" stroke-width="3"/>
<path d="M343.9,171.861h 0.136063l 0.0453543, 0.192426h 1.0885l 0.0453543, 0.561243h 0.907087" fill="none" stroke="#0000ee" stroke-width="3"/>
<path d="M346.123,172.614h 0.181417l 0.0453543, 0.192426h 1.0885l 0.0453543, 0.0962131h 0.861732" fill="none" stroke="#0000ee" stroke-width="3"/>
<path d="M348.345,172.903h 0.226772l 0.0453543, 0.128284h 1.0885l 0.0453543, 0.384852h 0.816378" fill="none" stroke="#0000ee" stroke-width="3"/>
<path d="M350.567,173.416h 0.272126l 0.0453543, 0.352781h 1.0885l 0.0453543, 0.240533h 0.771024" fill="none" stroke="#0000ee" stroke-width="3"/>
<path d="M352.79,174.009h 0.31748l 0.0453543, 0.416923h 1.0885l 0.0453543, 0.240533h 0.725669" fill="none" stroke="#0000ee" stroke-width="3"/>
<path d="M355.012,174.667h 0.362835l 0.0453543, 1.18663h 1.0885l 0.0453543, 0.384852h 0.680315" fill="none" stroke="#0000ee" stroke-width="3"/>
<path d="M357.234,176.238h 0.408189l 0.0453543, 0.224497h 1.0885l 0.0453543, 0.673492h 0.634961" fill="none" stroke="#0000ee" stroke-width="3"/>
<path d="M359.457,177.136h 0.453543l 0.0453543, 0.032071h 1.0885l 0.0453543, 0.0481065h 0.589606" fill="none" stroke="#0000ee" stroke-width="3"/>
<path d="M361.679,177.216h 0.498898l 0.0453543, 0.256568h 1.0885l 0.0453543, 0.112249h 0.544252" fill="none" stroke="#0000ee" stroke-width="3"/>
<path d="M363.902,177.585h 0.544252l 0.0453543, 0.352781h 1.0885l 0.0453543, 0.224497h 0.498898" fill="none" stroke="#0000ee" stroke-width="3"/>
<path d="M366.124,178.163h 0.589606l 0.0453543, 0.0801776h 1.0885l 0.0453543, 0.240533h 0.453543" fill="none" stroke="#0000ee" stroke-width="3"/>
<path d="M368.346,178.483h 0.634961l 0.0453543, 0.256568h 1.0885l 0.0453543, 0.481065h 0.408189" fill="none" stroke="#0000ee" stroke-width="3"/>
<path d="M370.569,179.221h 0.680315l 0.0453543, 0.673492h 1.0885l 0.0453543, 0.176391h 0.362835" fill="none" stroke="#0000ee" stroke-width="3"/>
<path d="M372.791,180.071h 0.725669l 0.0453543, 0.865918h 1.0885l 0.0453543, 1.66769h 0.31748" fill="none" stroke="#0000ee" stroke-width="3"/>
<path d="M375.013,182.604h 0.771024l 0.0453543, 0.0641421h 1.0885l 0.0453543, 0.0160355h 0.272126" fill="none" stroke="#0000ee" stroke-width="3"/>
<path d="M377.236,182.685h 0.816378l 0.0453543, 0.192426h 1.0885l 0.0453543, 0.0160355h 0.226772" fill="none" stroke="#0000ee" stroke-width="3"/>
<path d="M379.458,182.893h 0.861732l 0.0453543, 0.0641421h 1.0885l 0.0453543, 0.0160355h 0.181417" fill="none" stroke="#0000ee" stroke-width="3"/>
<path d="M381.68,182.973h 0.907087l 0.0453543, 1.25077h 1.0885l 0.0453543, 0.0962131h 0.136063" fill="none" stroke="#0000ee" stroke-width="3"/>
<path d="M383.903,184.32h 2.0863l 0.0453543, 2.26101h 0.0907087" fill="none" stroke="#0000ee" stroke-width="3"/>
<path d="M386.125,186.581h 0.997795l 0.0453543, 0.336746h 1.0885l 0.0453543, 0.0481065h 0.0453543" fill="none" stroke="#0000ee" stroke-width="3"/>
<path d="M388.348,186.966h 1.04315l 0.0453543, 0.32071h 1.0885l 0.0453543, 0.46503" fill="none" stroke="#0000ee" stroke-width="3"/>
<path d="M390.57,187.752h 1.0885l 0.0453543, 0.0641421h 1.0885" fill="none" stroke="#0000ee" stroke-width="3"/>
<path d="M392.792,187.816l 0.0453543, 5.01912h 1.0885l 0.0453543, 0.962131h 1.04315" fill="none" stroke="#0000ee" stroke-width="3"/>
<path d="M395.015,193.797h 0.0453543l 0.0453543, 0.0962131h 1.0885l 0.0453543, 0.256568h 0.997795" fill="none" stroke="#0000ee" stroke-width="3"/>
<path d="M397.237,194.15h 0.0907087l 0.0453543, 0.288639h 1.0885l 0.0453543, 0.336746h 0.952441" fill="none" stroke="#0000ee" stroke-width="3"/>
<path d="M399.459,194.775h 0.136063l 0.0453543, 0.288639h 1.0885l 0.0453543, 0.176391h 0.907087" fill="none" stroke="#0000ee" stroke-width="3"/>
<path d="M401.682,195.24h 0.181417l 0.0453543, 0.336746h 1.0885l 0.0453543, 0.416923h 0.861732" fill="none" stroke="#0000ee" stroke-width="3"/>
<path d="M403.904,195.994h 0.226772l 0.0453543, 0.737634h 1.0885l 0.0453543, 0.400888h 0.816378" fill="none" stroke="#0000ee" stroke-width="3"/>
<path d="M406.126,197.133h 0.272126l 0.0453543, 0.705563h 1.0885l 0.0453543, 0.432959h 0.771024" fill="none" stroke="#0000ee" stroke-width="3"/>
<path d="M408.349,198.271h 0.31748l 0.0453543, 0.561243h 1.0885l 0.0453543, 0.112249h 0.725669" fill="none" stroke="#0000ee" stroke-width="3"/>
<path d="M410.571,198.945h 0.362835l 0.0453543, 0.577278h 1.0885l 0.0453543, 0.416923h 0.680315" fill="none" stroke="#0000ee" stroke-width="3"/>
<path d="M412.794,199.939h 0.408189l 0.0453543, 0.32071h 1.0885l 0.0453543, 0.593314h 0.634961" fill="none" stroke="#0000ee" stroke-width="3"/>
<path d="M415.016,200.853h 0.453543l 0.0453543, 0.224497h 1.0885l 0.0453543, 0.160355h 0.589606" fill="none" stroke="#0000ee" stroke-width="3"/>
<path d="M417.238,201.238h 0.498898l 0.0453543, 0.288639h 1.0885l 0.0453543, 0.224497h 0.544252" fill="none" stroke="#0000ee" stroke-width="3"/>
<path d="M419.461,201.751h 0.544252l 0.0453543, 0.112249h 1.0885l 0.0453543, 0.160355h 0.498898" fill="none" stroke="#0000ee" stroke-width="3"/>
<path d="M421.683,202.023h 0.589606l 0.0453543, 0.0641421h 1.0885l 0.0453543, 0.577278h 0.453543" fill="none" stroke="#0000ee" stroke-width="3"/>
<path d="M423.905,202.665h 0.634961l 0.0453543, 0.14432h 1.0885l 0.0453543, 0.336746h 0.408189" fill="none" stroke="#0000ee" stroke-width="3"/>
<path d="M426.128,203.146h 0.680315l 0.0453543, 0.208462h 1.0885l 0.0453543, 0.160355h 0.362835" fill="none" stroke="#0000ee" stroke-width="3"/>
<path d="M428.35,203.515h 0.725669l 0.0453543, 0.46503h 1.0885l 0.0453543, 0.0481065h 0.31748" fill="none" stroke="#0000ee" stroke-width="3"/>
<path d="M430.572,204.028h 0.771024l 0.0453543, 0.0481065h 1.0885l 0.0453543, 0.0641421h 0.272126" fill="none" stroke="#0000ee" stroke-width="3"/>
<path d="M432.795,204.14h 0.816378l 0.0453543, 0.0962131h 1.0885l 0.0453543, 0.304675h 0.226772" fill="none" stroke="#0000ee" stroke-width="3"/>
<path d="M435.017,204.541h 0.861732l 0.0453543, 0.192426h 1.0885l 0.0453543, 1.29888h 0.181417" fill="none" stroke="#0000ee" stroke-width="3"/>
<path d="M437.24,206.032h 0.907087l 0.0453543, 0.817811h 1.0885l 0.0453543, 0.0962131h 0.136063" fill="none" stroke="#0000ee" stroke-width="3"/>
<path d="M439.462,206.946h 0.952441l 0.0453543, 0.336746h 1.0885l 0.0453543, 0.256568h 0.0907087" fill="none" stroke="#0000ee" stroke-width="3"/>
<path d="M441.684,207.54h 0.997795l 0.0453543, 0.0641421h 1.0885l 0.0453543, 0.176391h 0.0453543" fill="none" stroke="#0000ee" stroke-width="3"/>
<path d="M443.907,207.78h 1.04315l 0.0453543, 0.0801776h 1.0885l 0.0453543, 0.240533" fill="none" stroke="#0000ee" stroke-width="3"/>
<path d="M446.129,208.101h 1.0885l 0.0453543, 0.160355h 1.0885" fill="none" stroke="#0000ee" stroke-width="3"/>
<path d="M448.351,208.261l 0.0453543, 0.0801776h 1.0885l 0.0453543, 0.304675h 1.04315" fill="none" stroke="#0000ee" stroke-width="3"/>
<path d="M450.574,208.646h 0.0453543l 0.0453543, 0.497101h 1.0885l 0.0453543, 0.192426h 0.997795" fill="none" stroke="#0000ee" stroke-width="3"/>
<path d="M452.796,209.336h 0.0907087l 0.0453543, 0.272604h 1.0885l 0.0453543, 0.0641421h 0.952441" fill="none" stroke="#0000ee" stroke-width="3"/>
<path d="M455.018,209.672h 0.136063l 0.0453543, 0.176391h 1.0885l 0.0453543, 0.112249h 0.907087" fill="none" stroke="#0000ee" stroke-width="3"/>
<path d="M457.241,209.961h 0.181417l 0.0453543, 0.657456h 1.0885l 0.0453543, 0.14432h 0.861732" fill="none" stroke="#0000ee" stroke-width="3"/>
<path d="M459.463,210.763h 0.226772l 0.0453543, 0.0641421h 1.0885l 0.0453543, 0.112249h 0.816378" fill="none" stroke="#0000ee" stroke-width="3"/>
<path d="M461.686,210.939h 0.272126l 0.0453543, 0.224497h 1.0885l 0.0453543, 0.160355h 0.771024" fill="none" stroke="#0000ee" stroke-width="3"/>
<path d="M463.908,211.324h 0.31748l 0.0453543, 0.529172h 1.0885l 0.0453543, 0.272604h 0.725669" fill="none" stroke="#0000ee" stroke-width="3"/>
<path d="M466.13,212.126h 0.362835l 0.0453543, 0.0481065h 1.0885l 0.0453543, 0.128284h 0.680315" fill="none" stroke="#0000ee" stroke-width="3"/>
<path d="M468.353,212.302h 1.54205l 0.0453543, 0.0481065h 0.634961" fill="none" stroke="#0000ee" stroke-width="3"/>
<path d="M470.575,212.35h 0.453543l 0.0453543, 0.0641421h 1.0885l 0.0453543, 0.0962131h 0.589606" fill="none" stroke="#0000ee" stroke-width="3"/>
<path d="M472.797,212.511h 0.498898l 0.0453543, 0.0641421h 1.0885l 0.0453543, 0.032071h 0.544252" fill="none" stroke="#0000ee" stroke-width="3"/>
<path d="M475.02,212.607h 0.544252l 0.0453543, 0.0160355h 1.0885l 0.0453543, 0.192426h 0.498898" fill="none" stroke="#0000ee" stroke-width="3"/>
<path d="M477.242,212.815h 0.589606l 0.0453543, 0.240533h 1.0885l 0.0453543, 0.14432h 0.453543" fill="none" stroke="#0000ee" stroke-width="3"/>
<path d="M479.464,213.2h 0.634961l 0.0453543, 1.41113h 1.0885l 0.0453543, 0.272604h 0.408189" fill="none" stroke="#0000ee" stroke-width="3"/>
<path d="M481.687,214.884h 0.680315l 0.0453543, 0.0481065h 1.49669" fill="none" stroke="#0000ee" stroke-width="3"/>
<path d="M483.909,214.932h 0.725669l 0.0453543, 0.0160355h 1.0885l 0.0453543, 0.176391h 0.31748" fill="none" stroke="#0000ee" stroke-width="3"/>
<path d="M486.132,215.124h 1.90488l 0.0453543, 0.0801776h 0.272126" fill="none" stroke="#0000ee" stroke-width="3"/>
<path d="M488.354,215.205h 0.816378l 0.0453543, 0.384852h 1.0885l 0.0453543, 0.032071h 0.226772" fill="none" stroke="#0000ee" stroke-width="3"/>
<path d="M490.576,215.622h 0.861732l 0.0453543, 1.42716h 1.0885l 0.0453543, 0.368817h 0.181417" fill="none" stroke="#0000ee" stroke-width="3"/>
<path d="M492.799,217.418h 0.907087l 0.0453543, 0.0481065h 1.0885l 0.0453543, 2.16479h 0.136063" fill="none" stroke="#0000ee" stroke-width="3"/>
<path d="M495.021,219.63h 0.952441l 0.0453543, 0.192426h 1.0885l 0.0453543, 0.032071h 0.0907087" fill="none" stroke="#0000ee" stroke-width="3"/>
<path d="M497.243,219.855h 0.997795l 0.0453543, 0.593314h 1.0885l 0.0453543, 0.0962131h 0.0453543" fill="none" stroke="#0000ee" stroke-width="3"/>
<path d="M499.466,220.544h 1.04315l 0.0453543, 0.593314h 1.0885l 0.0453543, 0.336746" fill="none" stroke="#0000ee" stroke-width="3"/>
<path d="M501.688,221.475h 1.0885l 0.0453543, 1.37905h 1.0885" fill="none" stroke="#0000ee" stroke-width="3"/>
<path d="M503.91,222.854l 0.0453543, 0.272604h 1.0885l 0.0453543, 1.28284h 1.04315" fill="none" stroke="#0000ee" stroke-width="3"/>
<path d="M506.133,224.409h 0.0453543l 0.0453543, 1.20266h 1.0885l 0.0453543, 1.89219h 0.997795" fill="none" stroke="#0000ee" stroke-width="3"/>
<path d="M508.355,227.504h 0.0907087l 0.0453543, 0.737634h 1.0885l 0.0453543, 1.37905h 0.952441" fill="none" stroke="#0000ee" stroke-width="3"/>
<path d="M510.577,229.621h 0.15874" fill="none" stroke="#0000ee" stroke-width="3"/>
<path d="M57.1929,238.452h 453.543" fill="none" stroke="black"/>
<path d="M57.1929,232.093v 6.35872" fill="none" stroke="black"/>
<path d="M79.87,235.273v 3.17936" fill="none" stroke="black"/>
<path d="M102.547,235.273v 3.17936" fill="none" stroke="black"/>
<path d="M125.224,235.273v 3.17936" fill="none" stroke="black"/>
<path d="M147.901,235.273v 3.17936" fill="none" stroke="black"/>
<path d="M170.578,232.093v 6.35872" fill="none" stroke="black"/>
<path d="M193.255,235.273v 3.17936" fill="none" stroke="black"/>
<path d="M215.932,235.273v 3.17936" fill="none" stroke="black"/>
<path d="M238.609,235.273v 3.17936" fill="none" stroke="black"/>
<path d="M261.286,235.273v 3.17936" fill="none" stroke="black"/>
<path d="M283.963,232.093v 6.35872" fill="none" stroke="black"/>
<path d="M306.64,235.273v 3.17936" fill="none" stroke="black"/>
<path d="M329.318,235.273v 3.17936" fill="none" stroke="black"/>
<path d="M351.995,235.273v 3.17936" fill="none" stroke="black"/>
<path d="M374.672,235.273v 3.17936" fill="none" stroke="black"/>
<path d="M397.349,232.093v 6.35872" fill="none" stroke="black"/>
<path d="M420.026,235.273v 3.17936" fill="none" stroke="black"/>
<path d="M442.703,235.273v 3.17936" fill="none" stroke="black"/>
<path d="M465.38,235.273v 3.17936" fill="none" stroke="black"/>
<path d="M488.057,235.273v 3.17936" fill="none" stroke="black"/>
<path d="M510.734,232.093v 6.35872" fill="none" stroke="black"/>
<path d="M510.734,232.093v 6.35872" fill="none" stroke="black"/>
<text xml:space="preserve" x="56.7656" y="247.141" fill="black" font-size="9.00747" font-family="Helvetica">1</text>
<text xml:space="preserve" x="52.4922" y="247.141" fill="black" font-size="9.00747" font-family="Times">&#8722;</text>
<text xml:space="preserve" x="165.736" y="247.141" fill="black" font-size="9.00747" font-family="Helvetica">0.5</text>
<text xml:space="preserve" x="161.462" y="247.141" fill="black" font-size="9.00747" font-family="Times">&#8722;</text>
<text xml:space="preserve" x="280.403" y="247.141" fill="black" font-size="9.00747" font-family="Helvetica">0</text>
<text xml:space="preserve" x="390.798" y="247.141" fill="black" font-size="9.00747" font-family="Helvetica">0.5</text>
<text xml:space="preserve" x="508.315" y="247.141" fill="black" font-size="9.00747" font-family="Helvetica">1</text>
<path d="M57.1929,238.452v -185.463" fill="none" stroke="black"/>
<path d="M69.0984,213.344h -11.9055" fill="none" stroke="black"/>
<path d="M63.1457,206.93h -5.95276" fill="none" stroke="black"/>
<path d="M63.1457,200.516h -5.95276" fill="none" stroke="black"/>
<path d="M63.1457,194.102h -5.95276" fill="none" stroke="black"/>
<path d="M63.1457,187.688h -5.95276" fill="none" stroke="black"/>
<path d="M69.0984,181.273h -11.9055" fill="none" stroke="black"/>
<path d="M63.1457,174.859h -5.95276" fill="none" stroke="black"/>
<path d="M63.1457,168.445h -5.95276" fill="none" stroke="black"/>
<path d="M63.1457,162.031h -5.95276" fill="none" stroke="black"/>
<path d="M63.1457,155.617h -5.95276" fill="none" stroke="black"/>
<path d="M69.0984,149.202h -11.9055" fill="none" stroke="black"/>
<path d="M63.1457,142.788h -5.95276" fill="none" stroke="black"/>
<path d="M63.1457,136.374h -5.95276" fill="none" stroke="black"/>
<path d="M63.1457,129.96h -5.95276" fill="none" stroke="black"/>
<path d="M63.1457,123.546h -5.95276" fill="none" stroke="black"/>
<path d="M69.0984,117.131h -11.9055" fill="none" stroke="black"/>
<path d="M63.1457,110.717h -5.95276" fill="none" stroke="black"/>
<path d="M63.1457,104.303h -5.95276" fill="none" stroke="black"/>
<path d="M63.1457,97.8888h -5.95276" fill="none" stroke="black"/>
<path d="M63.1457,91.4746h -5.95276" fill="none" stroke="black"/>
<path d="M69.0984,85.0604h -11.9055" fill="none" stroke="black"/>
<path d="M63.1457,78.6462h -5.95276" fill="none" stroke="black"/>
<path d="M63.1457,72.232h -5.95276" fill="none" stroke="black"/>
<path d="M63.1457,65.8178h -5.95276" fill="none" stroke="black"/>
<path d="M63.1457,59.4036h -5.95276" fill="none" stroke="black"/>
<path d="M69.0984,52.9894h -11.9055" fill="none" stroke="black"/>
<path d="M69.0984,213.344h -11.9055" fill="none" stroke="black"/>
<path d="M63.1457,219.759h -5.95276" fill="none" stroke="black"/>
<path d="M63.1457,226.173h -5.95276" fill="none" stroke="black"/>
<path d="M63.1457,232.587h -5.95276" fill="none" stroke="black"/>
<text xml:space="preserve" x="41.8089" y="216.516" fill="black" font-size="9.00747" font-family="Helvetica">0.6</text>
<text xml:space="preserve" x="41.8089" y="184.466" fill="black" font-size="9.00747" font-family="Helvetica">0.7</text>
<text xml:space="preserve" x="41.8089" y="152.416" fill="black" font-size="9.00747" font-family="Helvetica">0.8</text>
<text xml:space="preserve" x="41.8089" y="120.366" fill="black" font-size="9.00747" font-family="Helvetica">0.9</text>
<text xml:space="preserve" x="50.3556" y="88.3156" fill="black" font-size="9.00747" font-family="Helvetica">1</text>
<text xml:space="preserve" x="43.2334" y="56.2656" fill="black" font-size="9.00747" font-family="Helvetica">1.1</text>
<path d="M57.1929,85.0604l 0.0680315, 152.369h 1.04315l 0.00602362, 1.02226" fill="none" stroke="#ff0000" stroke-width="3"/>
<path d="M57.1929,217.531l 0.0680315, -46.6437h 1.04315l 0.0453543, -3.18244h 1.0885" fill="none" stroke="#00aa00" stroke-width="3"/>
<path d="M59.438,167.705l 0.0453543, -2.71311h 1.0885l 0.0453543, -1.01807h 1.04315" fill="none" stroke="#00aa00" stroke-width="3"/>
<path d="M61.6603,163.974h 0.0453543l 0.0453543, -1.13554h 1.0885l 0.0453543, -0.300883h 0.997795" fill="none" stroke="#00aa00" stroke-width="3"/>
<path d="M63.8827,162.538h 0.0907087l 0.0453543, -0.451038h 1.0885l 0.0453543, -2.70238h 0.952441" fill="none" stroke="#00aa00" stroke-width="3"/>
<path d="M66.105,159.384h 0.136063l 0.0453543, -0.815519h 1.0885l 0.0453543, -1.92473h 0.907087" fill="none" stroke="#00aa00" stroke-width="3"/>
<path d="M68.3274,156.644h 0.181417l 0.0453543, -0.513336h 1.0885l 0.0453543, -0.135149h 0.861732" fill="none" stroke="#00aa00" stroke-width="3"/>
<path d="M70.5498,155.995h 0.226772l 0.0453543, -0.0597561h 1.0885l 0.0453543, -0.103722h 0.816378" fill="none" stroke="#00aa00" stroke-width="3"/>
<path d="M72.7721,155.832h 0.272126l 0.0453543, -0.122112h 1.0885l 0.0453543, 0.0521862h 0.771024" fill="none" stroke="#00aa00" stroke-width="3"/>
<path d="M74.9945,155.762h 0.31748l 0.0453543, 0.086155h 1.0885l 0.0453543, -0.0684538h 0.725669" fill="none" stroke="#00aa00" stroke-width="3"/>
<path d="M77.2169,155.78h 0.362835l 0.0453543, -0.0782793h 1.0885l 0.0453543, -0.202589h 0.680315" fill="none" stroke="#00aa00" stroke-width="3"/>
<path d="M79.4392,155.499h 0.408189l 0.0453543, -0.0159999h 1.0885l 0.0453543, 0.0723152h 0.634961" fill="none" stroke="#00aa00" stroke-width="3"/>
<path d="M81.6616,155.555h 0.453543l 0.0453543, -0.0333953h 1.0885l 0.0453543, -0.110164h 0.589606" fill="none" stroke="#00aa00" stroke-width="3"/>
<path d="M83.8839,155.412h 0.498898l 0.0453543, -0.0635983h 1.0885l 0.0453543, -0.016172h 0.544252" fill="none" stroke="#00aa00" stroke-width="3"/>
<path d="M86.1063,155.332h 0.544252l 0.0453543, -0.0617632h 1.0885l 0.0453543, 0.0430488h 0.498898" fill="none" stroke="#00aa00" stroke-width="3"/>
<path d="M88.3287,155.313h 1.72346l 0.0453543, 0.0141648h 0.453543" fill="none" stroke="#00aa00" stroke-width="3"/>
<path d="M90.551,155.327h 0.634961l 0.0453543, -0.0471396h 1.0885l 0.0453543, -0.0456295h 0.408189" fill="none" stroke="#00aa00" stroke-width="3"/>
<path d="M92.7734,155.235h 0.680315l 0.0453543, -0.0168028h 1.49669" fill="none" stroke="#00aa00" stroke-width="3"/>
<path d="M94.9958,155.218h 0.725669l 0.0453543, -0.11047h 1.0885l 0.0453543, -0.000554359h 0.31748" fill="none" stroke="#00aa00" stroke-width="3"/>
<path d="M97.2181,155.107h 0.771024l 0.0453543, -0.233328h 1.0885l 0.0453543, -0.220253h 0.272126" fill="none" stroke="#00aa00" stroke-width="3"/>
<path d="M99.4405,154.653h 0.816378l 0.0453543, -0.12756h 1.0885l 0.0453543, -0.0347526h 0.226772" fill="none" stroke="#00aa00" stroke-width="3"/>
<path d="M101.663,154.491h 0.861732l 0.0453543, -0.344295h 1.0885l 0.0453543, 0.0126929h 0.181417" fill="none" stroke="#00aa00" stroke-width="3"/>
<path d="M103.885,154.159h 0.907087l 0.0453543, -0.113701h 1.0885l 0.0453543, -0.102231h 0.136063" fill="none" stroke="#00aa00" stroke-width="3"/>
<path d="M106.108,153.943h 0.952441l 0.0453543, -0.0817775h 1.0885l 0.0453543, -0.132033h 0.0907087" fill="none" stroke="#00aa00" stroke-width="3"/>
<path d="M108.33,153.729h 0.997795l 0.0453543, -0.019632h 1.0885l 0.0453543, -0.0478087h 0.0453543" fill="none" stroke="#00aa00" stroke-width="3"/>
<path d="M110.552,153.662h 1.04315l 0.0453543, -0.0246403h 1.0885l 0.0453543, -0.110795" fill="none" stroke="#00aa00" stroke-width="3"/>
<path d="M112.775,153.527h 1.0885l 0.0453543, -0.0241624h 1.0885" fill="none" stroke="#00aa00" stroke-width="3"/>
<path d="M114.997,153.502l 0.0453543, -0.0647071h 1.0885l 0.0453543, -0.115651h 1.04315" fill="none" stroke="#00aa00" stroke-width="3"/>
<path d="M117.219,153.322h 0.0453543l 0.0453543, -0.065854h 1.0885l 0.0453543, -0.129319h 0.997795" fill="none" stroke="#00aa00" stroke-width="3"/>
<path d="M119.442,153.127h 0.0907087l 0.0453543, -0.154876h 1.0885l 0.0453543, 0.0242197h 0.952441" fill="none" stroke="#00aa00" stroke-width="3"/>
<path d="M121.664,152.996h 0.136063l 0.0453543, -0.0318087h 2.04094" fill="none" stroke="#00aa00" stroke-width="3"/>
<path d="M123.886,152.964h 0.181417l 0.0453543, -0.0159044h 1.0885l 0.0453543, -0.000955791h 0.861732" fill="none" stroke="#00aa00" stroke-width="3"/>
<path d="M126.109,152.948h 0.226772l 0.0453543, -0.0159235h 1.0885l 0.0453543, -0.0994596h 0.816378" fill="none" stroke="#00aa00" stroke-width="3"/>
<path d="M128.331,152.832h 0.272126l 0.0453543, -0.000974907h 1.0885l 0.0453543, -0.0657967h 0.771024" fill="none" stroke="#00aa00" stroke-width="3"/>
<path d="M130.554,152.765h 0.31748l 0.0453543, -0.0858683h 1.0885l 0.0453543, -0.0550918h 0.725669" fill="none" stroke="#00aa00" stroke-width="3"/>
<path d="M132.776,152.624h 0.362835l 0.0453543, -0.0382125h 1.0885l 0.0453543, -0.00103225h 0.680315" fill="none" stroke="#00aa00" stroke-width="3"/>
<path d="M134.998,152.585h 0.408189l 0.0453543, -0.0481145h 1.0885l 0.0453543, -0.0683964h 0.634961" fill="none" stroke="#00aa00" stroke-width="3"/>
<path d="M137.221,152.469h 0.453543l 0.0453543, -0.0825039h 1.0885l 0.0453543, -0.376371h 0.589606" fill="none" stroke="#00aa00" stroke-width="3"/>
<path d="M139.443,152.01h 0.498898l 0.0453543, -0.198805h 1.0885l 0.0453543, -0.00691993h 0.544252" fill="none" stroke="#00aa00" stroke-width="3"/>
<path d="M141.665,151.804h 0.544252l 0.0453543, -0.206852h 1.0885l 0.0453543, -0.0862888h 0.498898" fill="none" stroke="#00aa00" stroke-width="3"/>
<path d="M143.888,151.511h 0.589606l 0.0453543, -0.0701551h 1.0885l 0.0453543, -0.118117h 0.453543" fill="none" stroke="#00aa00" stroke-width="3"/>
<path d="M146.11,151.323h 0.634961l 0.0453543, -0.0755266h 1.0885l 0.0453543, -0.0986568h 0.408189" fill="none" stroke="#00aa00" stroke-width="3"/>
<path d="M148.332,151.149h 0.680315l 0.0453543, -0.0255005h 1.0885l 0.0453543, -0.123163h 0.362835" fill="none" stroke="#00aa00" stroke-width="3"/>
<path d="M150.555,151h 0.725669l 0.0453543, -0.133371h 1.0885l 0.0453543, -0.118423h 0.31748" fill="none" stroke="#00aa00" stroke-width="3"/>
<path d="M152.777,150.748h 0.771024l 0.0453543, -0.234914h 1.0885l 0.0453543, -0.0194599h 0.272126" fill="none" stroke="#00aa00" stroke-width="3"/>
<path d="M155,150.494h 0.816378l 0.0453543, -0.0194599h 1.0885l 0.0453543, -0.00143369h 0.226772" fill="none" stroke="#00aa00" stroke-width="3"/>
<path d="M157.222,150.473h 0.861732l 0.0453543, -0.101295h 1.0885l 0.0453543, -0.0333189h 0.181417" fill="none" stroke="#00aa00" stroke-width="3"/>
<path d="M159.444,150.338h 0.907087l 0.0453543, -0.0115651h 1.0885l 0.0453543, -0.0333571h 0.136063" fill="none" stroke="#00aa00" stroke-width="3"/>
<path d="M161.667,150.293h 0.952441l 0.0453543, -0.0333762h 1.0885l 0.0453543, -0.0530464h 0.0907087" fill="none" stroke="#00aa00" stroke-width="3"/>
<path d="M163.889,150.207h 0.997795l 0.0453543, -0.0167072h 1.0885l 0.0453543, 0.0304706h 0.0453543" fill="none" stroke="#00aa00" stroke-width="3"/>
<path d="M166.111,150.221h 2.17701l 0.0453543, -0.0166881" fill="none" stroke="#00aa00" stroke-width="3"/>
<path d="M168.334,150.204h 1.0885l 0.0453543, -1.9861h 1.0885" fill="none" stroke="#00aa00" stroke-width="3"/>
<path d="M170.556,148.218l 0.0453543, -0.114867h 1.0885l 0.0453543, 0.0103608h 1.04315" fill="none" stroke="#00aa00" stroke-width="3"/>
<path d="M172.778,148.113h 0.0453543l 0.0453543, -0.182919h 1.0885l 0.0453543, -0.0250991h 0.997795" fill="none" stroke="#00aa00" stroke-width="3"/>
<path d="M175.001,147.905h 0.0907087l 0.0453543, -0.135646h 1.0885l 0.0453543, -0.0393977h 0.952441" fill="none" stroke="#00aa00" stroke-width="3"/>
<path d="M177.223,147.73h 0.136063l 0.0453543, -3.79296h 1.0885l 0.0453543, -0.0314073h 0.907087" fill="none" stroke="#00aa00" stroke-width="3"/>
<path d="M179.446,143.906h 0.181417l 0.0453543, -0.169921h 1.0885l 0.0453543, 0.036148h 0.861732" fill="none" stroke="#00aa00" stroke-width="3"/>
<path d="M181.668,143.772h 0.226772l 0.0453543, 0.0535817h 1.0885l 0.0453543, -0.0155603h 0.816378" fill="none" stroke="#00aa00" stroke-width="3"/>
<path d="M183.89,143.81h 0.272126l 0.0453543, -0.0250035h 1.0885l 0.0453543, -0.159025h 0.771024" fill="none" stroke="#00aa00" stroke-width="3"/>
<path d="M186.113,143.626h 0.31748l 0.0453543, -0.104353h 1.0885l 0.0453543, 0.0744179h 0.725669" fill="none" stroke="#00aa00" stroke-width="3"/>
<path d="M188.335,143.596h 0.362835l 0.0453543, -0.160649h 1.0885l 0.0453543, -0.668805h 0.680315" fill="none" stroke="#00aa00" stroke-width="3"/>
<path d="M190.557,142.767h 0.408189l 0.0453543, -0.0256725h 1.0885l 0.0453543, -0.294384h 0.634961" fill="none" stroke="#00aa00" stroke-width="3"/>
<path d="M192.78,142.447h 0.453543l 0.0453543, -0.957301h 1.0885l 0.0453543, -0.114179h 0.589606" fill="none" stroke="#00aa00" stroke-width="3"/>
<path d="M195.002,141.375h 0.498898l 0.0453543, 0.0566593h 1.0885l 0.0453543, -0.32019h 0.544252" fill="none" stroke="#00aa00" stroke-width="3"/>
<path d="M197.224,141.112h 0.544252l 0.0453543, -0.109304h 1.0885l 0.0453543, 0.164778h 0.498898" fill="none" stroke="#00aa00" stroke-width="3"/>
<path d="M199.447,141.167h 0.589606l 0.0453543, 0.302106h 1.0885l 0.0453543, 0.326995h 0.453543" fill="none" stroke="#00aa00" stroke-width="3"/>
<path d="M201.669,141.796h 0.634961l 0.0453543, 0.0256725h 1.0885l 0.0453543, 0.0635219h 0.408189" fill="none" stroke="#00aa00" stroke-width="3"/>
<path d="M203.891,141.885h 0.680315l 0.0453543, -0.0287884h 1.0885l 0.0453543, -0.116912h 0.362835" fill="none" stroke="#00aa00" stroke-width="3"/>
<path d="M206.114,141.74h 0.725669l 0.0453543, 0.0252329h 1.0885l 0.0453543, -0.0291134h 0.31748" fill="none" stroke="#00aa00" stroke-width="3"/>
<path d="M208.336,141.736h 0.771024l 0.0453543, -0.0083345h 1.0885l 0.0453543, -0.0209509h 0.272126" fill="none" stroke="#00aa00" stroke-width="3"/>
<path d="M210.559,141.707h 0.816378l 0.0453543, 0.029381h 1.36063" fill="none" stroke="#00aa00" stroke-width="3"/>
<path d="M212.781,141.736h 0.861732l 0.0453543, 0.0167837h 1.0885l 0.0453543, -0.188883h 0.181417" fill="none" stroke="#00aa00" stroke-width="3"/>
<path d="M215.003,141.564h 0.907087l 0.0453543, 0.0207598h 1.0885l 0.0453543, -0.126891h 0.136063" fill="none" stroke="#00aa00" stroke-width="3"/>
<path d="M217.226,141.458h 0.952441l 0.0453543, -0.398316h 1.0885l 0.0453543, -0.164377h 0.0907087" fill="none" stroke="#00aa00" stroke-width="3"/>
<path d="M219.448,140.895h 0.997795l 0.0453543, -0.0526832h 1.0885l 0.0453543, -0.151168h 0.0453543" fill="none" stroke="#00aa00" stroke-width="3"/>
<path d="M221.67,140.691h 1.04315l 0.0453543, -0.241796h 1.0885l 0.0453543, -0.0215818" fill="none" stroke="#00aa00" stroke-width="3"/>
<path d="M223.893,140.428h 1.0885l 0.0453543, 0.0265328h 1.0885" fill="none" stroke="#00aa00" stroke-width="3"/>
<path d="M226.115,140.454l 0.0453543, -0.0586473h 1.0885l 0.0453543, 0.0757942h 1.04315" fill="none" stroke="#00aa00" stroke-width="3"/>
<path d="M228.337,140.471h 0.0453543l 0.0453543, -0.0913163h 1.0885l 0.0453543, 0.00607883h 0.997795" fill="none" stroke="#00aa00" stroke-width="3"/>
<path d="M230.56,140.386h 0.0907087l 0.0453543, -0.0350584h 1.0885l 0.0453543, -0.050179h 0.952441" fill="none" stroke="#00aa00" stroke-width="3"/>
<path d="M232.782,140.301h 0.136063l 0.0453543, -0.109132h 1.0885l 0.0453543, -0.0266092h 0.907087" fill="none" stroke="#00aa00" stroke-width="3"/>
<path d="M235.005,140.165h 0.181417l 0.0453543, 0.00829627h 1.0885l 0.0453543, -0.0945086h 0.861732" fill="none" stroke="#00aa00" stroke-width="3"/>
<path d="M237.227,140.079h 0.226772l 0.0453543, -0.138724h 1.0885l 0.0453543, 0.0196893h 0.816378" fill="none" stroke="#00aa00" stroke-width="3"/>
<path d="M239.449,139.96h 0.272126l 0.0453543, -0.107469h 1.0885l 0.0453543, -0.0979495h 0.771024" fill="none" stroke="#00aa00" stroke-width="3"/>
<path d="M241.672,139.755h 0.31748l 0.0453543, -0.107947h 1.0885l 0.0453543, -0.0467764h 0.725669" fill="none" stroke="#00aa00" stroke-width="3"/>
<path d="M243.894,139.6h 0.362835l 0.0453543, -0.475678h 1.0885l 0.0453543, 0.00196893h 0.680315" fill="none" stroke="#00aa00" stroke-width="3"/>
<path d="M246.116,139.126h 0.408189l 0.0453543, -0.0223273h 1.0885l 0.0453543, -0.707228h 0.634961" fill="none" stroke="#00aa00" stroke-width="3"/>
<path d="M248.339,138.397h 0.453543l 0.0453543, 0.0172807h 1.0885l 0.0453543, -0.0420166h 0.589606" fill="none" stroke="#00aa00" stroke-width="3"/>
<path d="M250.561,138.372h 0.498898l 0.0453543, -0.59477h 1.0885l 0.0453543, -0.0911442h 0.544252" fill="none" stroke="#00aa00" stroke-width="3"/>
<path d="M252.783,137.686h 0.544252l 0.0453543, -0.318775h 1.0885l 0.0453543, -0.325848h 0.498898" fill="none" stroke="#00aa00" stroke-width="3"/>
<path d="M255.006,137.041h 0.589606l 0.0453543, -0.0913545h 1.0885l 0.0453543, -0.797321h 0.453543" fill="none" stroke="#00aa00" stroke-width="3"/>
<path d="M257.228,136.153h 0.634961l 0.0453543, -0.267813h 1.0885l 0.0453543, -0.30419h 0.408189" fill="none" stroke="#00aa00" stroke-width="3"/>
<path d="M259.451,135.581h 0.680315l 0.0453543, -0.482885h 1.0885l 0.0453543, -0.0889077h 0.362835" fill="none" stroke="#00aa00" stroke-width="3"/>
<path d="M261.673,135.009h 0.725669l 0.0453543, -1.35988h 1.0885l 0.0453543, -0.907543h 0.31748" fill="none" stroke="#00aa00" stroke-width="3"/>
<path d="M263.895,132.741h 0.771024l 0.0453543, -0.670354h 1.0885l 0.0453543, -1.84888h 0.272126" fill="none" stroke="#00aa00" stroke-width="3"/>
<path d="M266.118,130.222h 0.816378l 0.0453543, -0.214193h 1.0885l 0.0453543, -0.144745h 0.226772" fill="none" stroke="#00aa00" stroke-width="3"/>
<path d="M268.34,129.863h 0.861732l 0.0453543, -0.201653h 1.0885l 0.0453543, 0.0999949h 0.181417" fill="none" stroke="#00aa00" stroke-width="3"/>
<path d="M270.562,129.762h 0.907087l 0.0453543, -0.26852h 1.0885l 0.0453543, -0.350814h 0.136063" fill="none" stroke="#00aa00" stroke-width="3"/>
<path d="M272.785,129.142h 0.952441l 0.0453543, -0.195784h 1.0885l 0.0453543, -0.22052h 0.0907087" fill="none" stroke="#00aa00" stroke-width="3"/>
<path d="M275.007,128.726h 0.997795l 0.0453543, -0.253648h 1.0885l 0.0453543, -0.281825h 0.0453543" fill="none" stroke="#00aa00" stroke-width="3"/>
<path d="M277.229,128.19h 1.04315l 0.0453543, -0.189667h 1.0885l 0.0453543, -0.0859256" fill="none" stroke="#00aa00" stroke-width="3"/>
<path d="M279.452,127.915h 1.0885l 0.0453543, -0.194771h 1.0885" fill="none" stroke="#00aa00" stroke-width="3"/>
<path d="M281.674,127.72l 0.0453543, -0.0495291h 1.0885l 0.0453543, -0.031197h 1.04315" fill="none" stroke="#00aa00" stroke-width="3"/>
<path d="M283.897,127.639h 0.0453543l 0.0453543, -0.0701168h 1.0885l 0.0453543, -0.0749531h 0.997795" fill="none" stroke="#00aa00" stroke-width="3"/>
<path d="M286.119,127.494h 0.0907087l 0.0453543, -0.0316558h 1.0885l 0.0453543, -0.191693h 0.952441" fill="none" stroke="#00aa00" stroke-width="3"/>
<path d="M288.341,127.271h 1.26992l 0.0453543, 0.0117371h 0.907087" fill="none" stroke="#00aa00" stroke-width="3"/>
<path d="M290.564,127.283h 0.181417l 0.0453543, 0.0386904h 1.0885l 0.0453543, -0.233098h 0.861732" fill="none" stroke="#00aa00" stroke-width="3"/>
<path d="M292.786,127.088h 0.226772l 0.0453543, -0.0355937h 1.0885l 0.0453543, -0.00701551h 0.816378" fill="none" stroke="#00aa00" stroke-width="3"/>
<path d="M295.008,127.046h 0.272126l 0.0453543, -0.144095h 1.0885l 0.0453543, 0.0471587h 0.771024" fill="none" stroke="#00aa00" stroke-width="3"/>
<path d="M297.231,126.949h 0.31748l 0.0453543, -0.114408h 1.0885l 0.0453543, -0.0544036h 0.725669" fill="none" stroke="#00aa00" stroke-width="3"/>
<path d="M299.453,126.78h 0.362835l 0.0453543, -0.0258828h 1.0885l 0.0453543, 0.0186188h 0.680315" fill="none" stroke="#00aa00" stroke-width="3"/>
<path d="M301.675,126.773h 0.408189l 0.0453543, -0.0717608h 1.0885l 0.0453543, -0.27586h 0.634961" fill="none" stroke="#00aa00" stroke-width="3"/>
<path d="M303.898,126.425h 0.453543l 0.0453543, -0.208496h 1.0885l 0.0453543, -0.146026h 0.589606" fill="none" stroke="#00aa00" stroke-width="3"/>
<path d="M306.12,126.071h 0.498898l 0.0453543, -0.164377h 1.0885l 0.0453543, -0.174719h 0.544252" fill="none" stroke="#00aa00" stroke-width="3"/>
<path d="M308.343,125.731h 0.544252l 0.0453543, -0.918229h 1.0885l 0.0453543, -0.0748958h 0.498898" fill="none" stroke="#00aa00" stroke-width="3"/>
<path d="M310.565,124.738h 0.589606l 0.0453543, -0.0469676h 1.0885l 0.0453543, 0.113586h 0.453543" fill="none" stroke="#00aa00" stroke-width="3"/>
<path d="M312.787,124.805h 0.634961l 0.0453543, -0.0470632h 1.0885l 0.0453543, -0.0282914h 0.408189" fill="none" stroke="#00aa00" stroke-width="3"/>
<path d="M315.01,124.73h 0.680315l 0.0453543, -0.0282914h 1.0885l 0.0453543, -0.103818h 0.362835" fill="none" stroke="#00aa00" stroke-width="3"/>
<path d="M317.232,124.597h 0.725669l 0.0453543, 0.0756031h 1.0885l 0.0453543, -0.132339h 0.31748" fill="none" stroke="#00aa00" stroke-width="3"/>
<path d="M319.454,124.541h 0.771024l 0.0453543, -0.21792h 1.0885l 0.0453543, -0.0761957h 0.272126" fill="none" stroke="#00aa00" stroke-width="3"/>
<path d="M321.677,124.247h 0.816378l 0.0453543, -0.0191349h 1.0885l 0.0453543, -0.257911h 0.226772" fill="none" stroke="#00aa00" stroke-width="3"/>
<path d="M323.899,123.97h 0.861732l 0.0453543, -0.0576342h 1.0885l 0.0453543, -0.250494h 0.181417" fill="none" stroke="#00aa00" stroke-width="3"/>
<path d="M326.121,123.661h 0.907087l 0.0453543, -0.193662h 1.0885l 0.0453543, -0.145146h 0.136063" fill="none" stroke="#00aa00" stroke-width="3"/>
<path d="M328.344,123.323h 0.952441l 0.0453543, -0.236673h 1.0885l 0.0453543, 0.11825h 0.0907087" fill="none" stroke="#00aa00" stroke-width="3"/>
<path d="M330.566,123.204h 0.997795l 0.0453543, -0.0310441h 1.0885l 0.0453543, -0.176802h 0.0453543" fill="none" stroke="#00aa00" stroke-width="3"/>
<path d="M332.789,122.996h 1.04315l 0.0453543, -0.0999375h 1.0885l 0.0453543, -0.571601" fill="none" stroke="#00aa00" stroke-width="3"/>
<path d="M335.011,122.325h 1.0885l 0.0453543, -0.213715h 1.0885" fill="none" stroke="#00aa00" stroke-width="3"/>
<path d="M337.233,122.111l 0.0453543, 0.0875696h 1.0885l 0.0453543, -0.0565637h 1.04315" fill="none" stroke="#00aa00" stroke-width="3"/>
<path d="M339.456,122.142h 0.0453543l 0.0453543, -0.0494718h 1.0885l 0.0453543, -0.164301h 0.997795" fill="none" stroke="#00aa00" stroke-width="3"/>
<path d="M341.678,121.928h 0.0907087l 0.0453543, -0.449413h 1.0885l 0.0453543, -0.09902h 0.952441" fill="none" stroke="#00aa00" stroke-width="3"/>
<path d="M343.9,121.38h 0.136063l 0.0453543, -0.285992h 1.0885l 0.0453543, -0.26961h 0.907087" fill="none" stroke="#00aa00" stroke-width="3"/>
<path d="M346.123,120.824h 0.181417l 0.0453543, 0.14247h 1.0885l 0.0453543, -0.0988862h 0.861732" fill="none" stroke="#00aa00" stroke-width="3"/>
<path d="M348.345,120.868h 0.226772l 0.0453543, 0.0330513h 1.0885l 0.0453543, -0.274465h 0.816378" fill="none" stroke="#00aa00" stroke-width="3"/>
<path d="M350.567,120.626h 0.272126l 0.0453543, -0.0979112h 1.0885l 0.0453543, -0.237552h 0.771024" fill="none" stroke="#00aa00" stroke-width="3"/>
<path d="M352.79,120.291h 0.31748l 0.0453543, -0.528438h 1.0885l 0.0453543, 0.0114886h 0.725669" fill="none" stroke="#00aa00" stroke-width="3"/>
<path d="M355.012,119.774h 0.362835l 0.0453543, -1.00045h 1.0885l 0.0453543, -0.33382h 0.680315" fill="none" stroke="#00aa00" stroke-width="3"/>
<path d="M357.234,118.44h 0.408189l 0.0453543, 0.117486h 1.0885l 0.0453543, -0.140616h 0.634961" fill="none" stroke="#00aa00" stroke-width="3"/>
<path d="M359.457,118.417h 0.453543l 0.0453543, -0.223846h 1.0885l 0.0453543, -0.138016h 0.589606" fill="none" stroke="#00aa00" stroke-width="3"/>
<path d="M361.679,118.055h 0.498898l 0.0453543, -0.0416725h 1.0885l 0.0453543, -0.157782h 0.544252" fill="none" stroke="#00aa00" stroke-width="3"/>
<path d="M363.902,117.855h 0.544252l 0.0453543, -0.18875h 1.0885l 0.0453543, -0.0175674h 0.498898" fill="none" stroke="#00aa00" stroke-width="3"/>
<path d="M366.124,117.649h 0.589606l 0.0453543, -0.133524h 1.0885l 0.0453543, -0.234092h 0.453543" fill="none" stroke="#00aa00" stroke-width="3"/>
<path d="M368.346,117.281h 0.634961l 0.0453543, -0.249519h 1.0885l 0.0453543, 0.000286737h 0.408189" fill="none" stroke="#00aa00" stroke-width="3"/>
<path d="M370.569,117.032h 0.680315l 0.0453543, 0.210542h 1.0885l 0.0453543, -0.0485351h 0.362835" fill="none" stroke="#00aa00" stroke-width="3"/>
<path d="M372.791,117.194h 0.725669l 0.0453543, -0.026571h 1.0885l 0.0453543, -0.256114h 0.31748" fill="none" stroke="#00aa00" stroke-width="3"/>
<path d="M375.013,116.912h 0.771024l 0.0453543, 0.0478278h 1.0885l 0.0453543, -0.0496056h 0.272126" fill="none" stroke="#00aa00" stroke-width="3"/>
<path d="M377.236,116.91h 0.816378l 0.0453543, 0.108368h 1.0885l 0.0453543, -0.0144516h 0.226772" fill="none" stroke="#00aa00" stroke-width="3"/>
<path d="M379.458,117.004h 0.861732l 0.0453543, 0.047866h 1.0885l 0.0453543, -0.0497203h 0.181417" fill="none" stroke="#00aa00" stroke-width="3"/>
<path d="M381.68,117.002h 0.907087l 0.0453543, -1.47909h 1.0885l 0.0453543, -0.163995h 0.136063" fill="none" stroke="#00aa00" stroke-width="3"/>
<path d="M383.903,115.359h 0.952441l 0.0453543, -0.0363201h 1.0885l 0.0453543, -0.96101h 0.0907087" fill="none" stroke="#00aa00" stroke-width="3"/>
<path d="M386.125,114.361h 0.997795l 0.0453543, -0.567377h 1.0885l 0.0453543, -0.0870726h 0.0453543" fill="none" stroke="#00aa00" stroke-width="3"/>
<path d="M388.348,113.707h 1.04315l 0.0453543, -0.788738h 1.0885l 0.0453543, -0.2975" fill="none" stroke="#00aa00" stroke-width="3"/>
<path d="M390.57,112.621h 1.0885l 0.0453543, -0.261199h 1.0885" fill="none" stroke="#00aa00" stroke-width="3"/>
<path d="M392.792,112.36l 0.0453543, -7.37884h 1.0885l 0.0453543, -1.24083h 1.04315" fill="none" stroke="#00aa00" stroke-width="3"/>
<path d="M395.015,103.74h 0.0453543l 0.0453543, -0.399846h 1.0885l 0.0453543, -0.669761h 0.997795" fill="none" stroke="#00aa00" stroke-width="3"/>
<path d="M397.237,102.67h 0.0907087l 0.0453543, -0.0397609h 1.0885l 0.0453543, -0.611228h 0.952441" fill="none" stroke="#00aa00" stroke-width="3"/>
<path d="M399.459,102.019h 0.136063l 0.0453543, -0.411908h 1.0885l 0.0453543, -0.0687405h 0.907087" fill="none" stroke="#00aa00" stroke-width="3"/>
<path d="M401.682,101.539h 0.181417l 0.0453543, -0.441537h 1.0885l 0.0453543, -0.14291h 0.861732" fill="none" stroke="#00aa00" stroke-width="3"/>
<path d="M403.904,100.954h 0.226772l 0.0453543, -1.53053h 1.0885l 0.0453543, -1.10077h 0.816378" fill="none" stroke="#00aa00" stroke-width="3"/>
<path d="M406.126,98.3229h 0.272126l 0.0453543, 0.0165925h 1.0885l 0.0453543, -0.440582h 0.771024" fill="none" stroke="#00aa00" stroke-width="3"/>
<path d="M408.349,97.8989h 0.31748l 0.0453543, -0.406039h 1.0885l 0.0453543, -0.0822172h 0.725669" fill="none" stroke="#00aa00" stroke-width="3"/>
<path d="M410.571,97.4106h 0.362835l 0.0453543, -0.796423h 1.0885l 0.0453543, -0.135703h 0.680315" fill="none" stroke="#00aa00" stroke-width="3"/>
<path d="M412.794,96.4785h 0.408189l 0.0453543, -0.0275459h 1.0885l 0.0453543, -0.646268h 0.634961" fill="none" stroke="#00aa00" stroke-width="3"/>
<path d="M415.016,95.8047h 0.453543l 0.0453543, -0.0743988h 1.0885l 0.0453543, -0.0164778h 0.589606" fill="none" stroke="#00aa00" stroke-width="3"/>
<path d="M417.238,95.7138h 0.498898l 0.0453543, -0.186723h 1.0885l 0.0453543, 0.080038h 0.544252" fill="none" stroke="#00aa00" stroke-width="3"/>
<path d="M419.461,95.6071h 0.544252l 0.0453543, 0.0138399h 1.0885l 0.0453543, -0.0701742h 0.498898" fill="none" stroke="#00aa00" stroke-width="3"/>
<path d="M421.683,95.5508h 0.589606l 0.0453543, 0.045228h 1.0885l 0.0453543, -0.436548h 0.453543" fill="none" stroke="#00aa00" stroke-width="3"/>
<path d="M423.905,95.1594h 0.634961l 0.0453543, -0.0973378h 1.0885l 0.0453543, 0.197008h 0.408189" fill="none" stroke="#00aa00" stroke-width="3"/>
<path d="M426.128,95.2591h 0.680315l 0.0453543, 0.1068h 1.0885l 0.0453543, 0.139488h 0.362835" fill="none" stroke="#00aa00" stroke-width="3"/>
<path d="M428.35,95.5054h 0.725669l 0.0453543, -0.193548h 1.0885l 0.0453543, -0.0332042h 0.31748" fill="none" stroke="#00aa00" stroke-width="3"/>
<path d="M430.572,95.2787h 0.771024l 0.0453543, -0.248142h 1.0885l 0.0453543, 0.045056h 0.272126" fill="none" stroke="#00aa00" stroke-width="3"/>
<path d="M432.795,95.0756h 0.816378l 0.0453543, -0.174872h 1.0885l 0.0453543, -0.286776h 0.226772" fill="none" stroke="#00aa00" stroke-width="3"/>
<path d="M435.017,94.6139h 0.861732l 0.0453543, -0.245925h 1.0885l 0.0453543, -0.398106h 0.181417" fill="none" stroke="#00aa00" stroke-width="3"/>
<path d="M437.24,93.9699h 0.907087l 0.0453543, 0.723247h 1.0885l 0.0453543, -0.0160764h 0.136063" fill="none" stroke="#00aa00" stroke-width="3"/>
<path d="M439.462,94.6771h 0.952441l 0.0453543, -0.36429h 1.0885l 0.0453543, -0.0453236h 0.0907087" fill="none" stroke="#00aa00" stroke-width="3"/>
<path d="M441.684,94.2674h 0.997795l 0.0453543, -0.0114695h 1.0885l 0.0453543, 0.277275h 0.0453543" fill="none" stroke="#00aa00" stroke-width="3"/>
<path d="M443.907,94.5333h 1.04315l 0.0453543, 0.0138207h 1.0885l 0.0453543, -0.015025" fill="none" stroke="#00aa00" stroke-width="3"/>
<path d="M446.129,94.5321h 1.0885l 0.0453543, 0.0835935h 1.0885" fill="none" stroke="#00aa00" stroke-width="3"/>
<path d="M448.351,94.6156l 0.0453543, -0.212128h 1.0885l 0.0453543, 0.141495h 1.04315" fill="none" stroke="#00aa00" stroke-width="3"/>
<path d="M450.574,94.545h 0.0453543l 0.0453543, -0.922912h 1.0885l 0.0453543, 0.0183703h 0.997795" fill="none" stroke="#00aa00" stroke-width="3"/>
<path d="M452.796,93.6405h 0.0907087l 0.0453543, -0.142661h 1.0885l 0.0453543, 0.102098h 0.952441" fill="none" stroke="#00aa00" stroke-width="3"/>
<path d="M455.018,93.5999h 0.136063l 0.0453543, -0.41359h 1.0885l 0.0453543, -0.461207h 0.907087" fill="none" stroke="#00aa00" stroke-width="3"/>
<path d="M457.241,92.7251h 0.181417l 0.0453543, -0.591233h 1.0885l 0.0453543, 0.0545374h 0.861732" fill="none" stroke="#00aa00" stroke-width="3"/>
<path d="M459.463,92.1884h 0.226772l 0.0453543, -0.252424h 1.0885l 0.0453543, 0.00258064h 0.816378" fill="none" stroke="#00aa00" stroke-width="3"/>
<path d="M461.686,91.9386h 0.272126l 0.0453543, 0.0048363h 1.0885l 0.0453543, 0.0202437h 0.771024" fill="none" stroke="#00aa00" stroke-width="3"/>
<path d="M463.908,91.9636h 0.31748l 0.0453543, -0.704437h 1.0885l 0.0453543, -0.102059h 0.725669" fill="none" stroke="#00aa00" stroke-width="3"/>
<path d="M466.13,91.1572h 0.362835l 0.0453543, 0.0781646h 1.0885l 0.0453543, 0.026571h 0.680315" fill="none" stroke="#00aa00" stroke-width="3"/>
<path d="M468.353,91.2619h 0.408189l 0.0453543, -0.121424h 1.0885l 0.0453543, 0.0782411h 0.634961" fill="none" stroke="#00aa00" stroke-width="3"/>
<path d="M470.575,91.2187h 0.453543l 0.0453543, -0.0779734h 1.0885l 0.0453543, 0.0957512h 0.589606" fill="none" stroke="#00aa00" stroke-width="3"/>
<path d="M472.797,91.2365h 0.498898l 0.0453543, 0.043565h 1.0885l 0.0453543, -0.0695051h 0.544252" fill="none" stroke="#00aa00" stroke-width="3"/>
<path d="M475.02,91.2105h 0.544252l 0.0453543, -0.156731h 1.0885l 0.0453543, 0.191598h 0.498898" fill="none" stroke="#00aa00" stroke-width="3"/>
<path d="M477.242,91.2454h 0.589606l 0.0453543, -0.403095h 1.0885l 0.0453543, -0.0713785h 0.453543" fill="none" stroke="#00aa00" stroke-width="3"/>
<path d="M479.464,90.7709h 0.634961l 0.0453543, 1.26459h 1.0885l 0.0453543, 0.0770559h 0.408189" fill="none" stroke="#00aa00" stroke-width="3"/>
<path d="M481.687,92.1126h 0.680315l 0.0453543, 0.0172042h 1.49669" fill="none" stroke="#00aa00" stroke-width="3"/>
<path d="M483.909,92.1298h 0.725669l 0.0453543, -0.0355363h 1.0885l 0.0453543, -0.0816819h 0.31748" fill="none" stroke="#00aa00" stroke-width="3"/>
<path d="M486.132,92.0126h 1.90488l 0.0453543, -0.303158h 0.272126" fill="none" stroke="#00aa00" stroke-width="3"/>
<path d="M488.354,91.7094h 0.816378l 0.0453543, -0.177013h 1.0885l 0.0453543, -0.323516h 0.226772" fill="none" stroke="#00aa00" stroke-width="3"/>
<path d="M490.576,91.2089h 0.861732l 0.0453543, -2.03605h 1.0885l 0.0453543, 0.16302h 0.181417" fill="none" stroke="#00aa00" stroke-width="3"/>
<path d="M492.799,89.3359h 0.907087l 0.0453543, -0.115039h 1.0885l 0.0453543, -1.59342h 0.136063" fill="none" stroke="#00aa00" stroke-width="3"/>
<path d="M495.021,87.6274h 0.952441l 0.0453543, 0.125151h 1.0885l 0.0453543, -0.0131326h 0.0907087" fill="none" stroke="#00aa00" stroke-width="3"/>
<path d="M497.243,87.7394h 0.997795l 0.0453543, 0.403019h 1.0885l 0.0453543, 0.0967069h 0.0453543" fill="none" stroke="#00aa00" stroke-width="3"/>
<path d="M499.466,88.2391h 1.04315l 0.0453543, 0.129624h 1.0885l 0.0453543, -0.245524" fill="none" stroke="#00aa00" stroke-width="3"/>
<path d="M501.688,88.1232h 1.0885l 0.0453543, -0.891065h 1.0885" fill="none" stroke="#00aa00" stroke-width="3"/>
<path d="M503.91,87.2322l 0.0453543, -0.659687h 1.0885l 0.0453543, -1.1385h 1.04315" fill="none" stroke="#00aa00" stroke-width="3"/>
<path d="M506.133,85.434h 0.0453543l 0.0453543, -0.3736h 1.0885l 0.0453543, 0.912494h 0.997795" fill="none" stroke="#00aa00" stroke-width="3"/>
<path d="M508.355,85.9729h 0.0907087l 0.0453543, -0.11112h 1.0885l 0.0453543, 0.351884h 0.952441" fill="none" stroke="#00aa00" stroke-width="3"/>
<path d="M510.577,86.2136h 0.15874" fill="none" stroke="#00aa00" stroke-width="3"/>
<path d="M57.1929,238.452h 453.543" fill="none" stroke="black"/>
<path d="M57.1929,232.093v 6.35872" fill="none" stroke="black"/>
<path d="M79.87,235.273v 3.17936" fill="none" stroke="black"/>
<path d="M102.547,235.273v 3.17936" fill="none" stroke="black"/>
<path d="M125.224,235.273v 3.17936" fill="none" stroke="black"/>
<path d="M147.901,235.273v 3.17936" fill="none" stroke="black"/>
<path d="M170.578,232.093v 6.35872" fill="none" stroke="black"/>
<path d="M193.255,235.273v 3.17936" fill="none" stroke="black"/>
<path d="M215.932,235.273v 3.17936" fill="none" stroke="black"/>
<path d="M238.609,235.273v 3.17936" fill="none" stroke="black"/>
<path d="M261.286,235.273v 3.17936" fill="none" stroke="black"/>
<path d="M283.963,232.093v 6.35872" fill="none" stroke="black"/>
<path d="M306.64,235.273v 3.17936" fill="none" stroke="black"/>
<path d="M329.318,235.273v 3.17936" fill="none" stroke="black"/>
<path d="M351.995,235.273v 3.17936" fill="none" stroke="black"/>
<path d="M374.672,235.273v 3.17936" fill="none" stroke="black"/>
<path d="M397.349,232.093v 6.35872" fill="none" stroke="black"/>
<path d="M420.026,235.273v 3.17936" fill="none" stroke="black"/>
<path d="M442.703,235.273v 3.17936" fill="none" stroke="black"/>
<path d="M465.38,235.273v 3.17936" fill="none" stroke="black"/>
<path d="M488.057,235.273v 3.17936" fill="none" stroke="black"/>
<path d="M510.734,232.093v 6.35872" fill="none" stroke="black"/>
<path d="M510.734,232.093v 6.35872" fill="none" stroke="black"/>
<path d="M57.1929,238.452v -185.463" fill="none" stroke="black"/>
<path d="M69.0984,213.344h -11.9055" fill="none" stroke="black"/>
<path d="M63.1457,206.93h -5.95276" fill="none" stroke="black"/>
<path d="M63.1457,200.516h -5.95276" fill="none" stroke="black"/>
<path d="M63.1457,194.102h -5.95276" fill="none" stroke="black"/>
<path d="M63.1457,187.688h -5.95276" fill="none" stroke="black"/>
<path d="M69.0984,181.273h -11.9055" fill="none" stroke="black"/>
<path d="M63.1457,174.859h -5.95276" fill="none" stroke="black"/>
<path d="M63.1457,168.445h -5.95276" fill="none" stroke="black"/>
<path d="M63.1457,162.031h -5.95276" fill="none" stroke="black"/>
<path d="M63.1457,155.617h -5.95276" fill="none" stroke="black"/>
<path d="M69.0984,149.202h -11.9055" fill="none" stroke="black"/>
<path d="M63.1457,142.788h -5.95276" fill="none" stroke="black"/>
<path d="M63.1457,136.374h -5.95276" fill="none" stroke="black"/>
<path d="M63.1457,129.96h -5.95276" fill="none" stroke="black"/>
<path d="M63.1457,123.546h -5.95276" fill="none" stroke="black"/>
<path d="M69.0984,117.131h -11.9055" fill="none" stroke="black"/>
<path d="M63.1457,110.717h -5.95276" fill="none" stroke="black"/>
<path d="M63.1457,104.303h -5.95276" fill="none" stroke="black"/>
<path d="M63.1457,97.8888h -5.95276" fill="none" stroke="black"/>
<path d="M63.1457,91.4746h -5.95276" fill="none" stroke="black"/>
<path d="M69.0984,85.0604h -11.9055" fill="none" stroke="black"/>
<path d="M63.1457,78.6462h -5.95276" fill="none" stroke="black"/>
<path d="M63.1457,72.232h -5.95276" fill="none" stroke="black"/>
<path d="M63.1457,65.8178h -5.95276" fill="none" stroke="black"/>
<path d="M63.1457,59.4036h -5.95276" fill="none" stroke="black"/>
<path d="M69.0984,52.9894h -11.9055" fill="none" stroke="black"/>
<path d="M69.0984,213.344h -11.9055" fill="none" stroke="black"/>
<path d="M63.1457,219.759h -5.95276" fill="none" stroke="black"/>
<path d="M63.1457,226.173h -5.95276" fill="none" stroke="black"/>
<path d="M63.1457,232.587h -5.95276" fill="none" stroke="black"/>
<rect x="57.1929" y="21.1957" width="226.772" height="31.7936" fill="none" stroke="black"/>
<path d="M57.1929,52.9894h 226.772" fill="none" stroke="black"/>
<path d="M283.965,52.9894v -31.7936" fill="none" stroke="black"/>
<path d="M283.965,21.1957h -226.772" fill="none" stroke="black"/>
<path d="M57.1929,21.1957v 31.7936" fill="none" stroke="black"/>
<text xml:space="preserve" x="125.139" y="32.05" fill="black" font-size="13.5683" font-family="Helvetica">Signal efficiency</text>
<path d="M67.3976,29.1441h 47.622" fill="none" stroke="#0000ee" stroke-width="3"/>
<text xml:space="preserve" x="125.139" y="48.4311" fill="black" font-size="13.5683" font-family="Helvetica">Background efficiency</text>
<path d="M67.3976,45.041h 47.622" fill="none" stroke="#ff0000" stroke-width="3"/>
<rect x="283.965" y="21.1957" width="226.772" height="31.7936" fill="none" stroke="black"/>
<path d="M283.965,52.9894h 226.772" fill="none" stroke="black"/>
<path d="M510.736,52.9894v -31.7936" fill="none" stroke="black"/>
<path d="M510.736,21.1957h -226.772" fill="none" stroke="black"/>
<path d="M283.965,21.1957v 31.7936" fill="none" stroke="black"/>
<text xml:space="preserve" x="502.617" y="44.1578" fill="black" font-size="20.7455" font-family="Helvetica">}</text>
<text xml:space="preserve" x="489.085" y="44.1578" fill="black" font-size="20.7455" font-family="Helvetica">B</text>
<path d="M481.25,28.4889l 2.84889, 15.6689" fill="none" stroke="black" stroke-width="2"/>
<path d="M484.099,44.1578l 2.84889, -21.3667" fill="none" stroke="black"/>
<path d="M486.948,22.7911h 15.6689" fill="none" stroke="black"/>
<text xml:space="preserve" x="454.186" y="44.1578" fill="black" font-size="20.7455" font-family="Helvetica"> + </text>
<text xml:space="preserve" x="351.626" y="44.1578" fill="black" font-size="20.7455" font-family="Helvetica">eS / {{5./3.}</text>
<path d="M294.169,37.0925h 47.622" fill="none" stroke="#00aa00" stroke-width="3"/>
<text xml:space="preserve" x="182.829" y="13.5322" fill="black" font-size="13.8297" font-family="Helvetica">Signal Efficiency BDTB - MassID1</text>
<path d="M57.1929,85.0604h 453.543" fill="none" stroke="black"/>
<text xml:space="preserve" x="85.2545" y="203.696" fill="black" font-size="8.52133" font-family="Helvetica" font-weight="bold">For 48689 background</text>
<text xml:space="preserve" x="228.411" y="214.379" fill="black" font-size="8.52133" font-family="Helvetica" font-weight="bold"> is</text>
<text xml:space="preserve" x="225.562" y="214.379" fill="black" font-size="8.52133" font-family="Helvetica" font-weight="bold">}</text>
<text xml:space="preserve" x="219.865" y="214.379" fill="black" font-size="8.52133" font-family="Helvetica" font-weight="bold">B</text>
<path d="M216.303,207.969l 1.42445, 6.41" fill="none" stroke="black"/>
<path d="M217.728,214.379l 0.712223, -9.25889" fill="none" stroke="black"/>
<path d="M218.44,205.12h 7.12223" fill="none" stroke="black"/>
<text xml:space="preserve" x="205.62" y="214.379" fill="black" font-size="8.52133" font-family="Helvetica" font-weight="bold"> + </text>
<text xml:space="preserve" x="85.2545" y="214.379" fill="black" font-size="8.52133" font-family="Helvetica" font-weight="bold">events the maximum eS / {{5./3.}</text>
<text xml:space="preserve" x="85.2545" y="225.062" fill="black" font-size="8.52133" font-family="Helvetica" font-weight="bold">7.66e-03 when cutting at  0.98</text>
<path d="M510.736,238.452v -185.463" fill="none" stroke="#00aa00"/>
<path d="M498.831,238.452h 11.9055" fill="none" stroke="#00aa00"/>
<path d="M504.783,234.052h 5.95276" fill="none" stroke="#00aa00"/>
<path d="M504.783,229.652h 5.95276" fill="none" stroke="#00aa00"/>
<path d="M504.783,225.251h 5.95276" fill="none" stroke="#00aa00"/>
<path d="M504.783,220.851h 5.95276" fill="none" stroke="#00aa00"/>
<path d="M498.831,216.451h 11.9055" fill="none" stroke="#00aa00"/>
<path d="M504.783,212.051h 5.95276" fill="none" stroke="#00aa00"/>
<path d="M504.783,207.651h 5.95276" fill="none" stroke="#00aa00"/>
<path d="M504.783,203.25h 5.95276" fill="none" stroke="#00aa00"/>
<path d="M504.783,198.85h 5.95276" fill="none" stroke="#00aa00"/>
<path d="M498.831,194.45h 11.9055" fill="none" stroke="#00aa00"/>
<path d="M504.783,190.05h 5.95276" fill="none" stroke="#00aa00"/>
<path d="M504.783,185.649h 5.95276" fill="none" stroke="#00aa00"/>
<path d="M504.783,181.249h 5.95276" fill="none" stroke="#00aa00"/>
<path d="M504.783,176.849h 5.95276" fill="none" stroke="#00aa00"/>
<path d="M498.831,172.449h 11.9055" fill="none" stroke="#00aa00"/>
<path d="M504.783,168.048h 5.95276" fill="none" stroke="#00aa00"/>
<path d="M504.783,163.648h 5.95276" fill="none" stroke="#00aa00"/>
<path d="M504.783,159.248h 5.95276" fill="none" stroke="#00aa00"/>
<path d="M504.783,154.848h 5.95276" fill="none" stroke="#00aa00"/>
<path d="M498.831,150.448h 11.9055" fill="none" stroke="#00aa00"/>
<path d="M504.783,146.047h 5.95276" fill="none" stroke="#00aa00"/>
<path d="M504.783,141.647h 5.95276" fill="none" stroke="#00aa00"/>
<path d="M504.783,137.247h 5.95276" fill="none" stroke="#00aa00"/>
<path d="M504.783,132.847h 5.95276" fill="none" stroke="#00aa00"/>
<path d="M498.831,128.446h 11.9055" fill="none" stroke="#00aa00"/>
<path d="M504.783,124.046h 5.95276" fill="none" stroke="#00aa00"/>
<path d="M504.783,119.646h 5.95276" fill="none" stroke="#00aa00"/>
<path d="M504.783,115.246h 5.95276" fill="none" stroke="#00aa00"/>
<path d="M504.783,110.846h 5.95276" fill="none" stroke="#00aa00"/>
<path d="M498.831,106.445h 11.9055" fill="none" stroke="#00aa00"/>
<path d="M504.783,102.045h 5.95276" fill="none" stroke="#00aa00"/>
<path d="M504.783,97.6449h 5.95276" fill="none" stroke="#00aa00"/>
<path d="M504.783,93.2446h 5.95276" fill="none" stroke="#00aa00"/>
<path d="M504.783,88.8444h 5.95276" fill="none" stroke="#00aa00"/>
<path d="M498.831,84.4442h 11.9055" fill="none" stroke="#00aa00"/>
<path d="M504.783,80.044h 5.95276" fill="none" stroke="#00aa00"/>
<path d="M504.783,75.6437h 5.95276" fill="none" stroke="#00aa00"/>
<path d="M504.783,71.2435h 5.95276" fill="none" stroke="#00aa00"/>
<path d="M504.783,66.8433h 5.95276" fill="none" stroke="#00aa00"/>
<path d="M498.831,62.4431h 11.9055" fill="none" stroke="#00aa00"/>
<path d="M498.831,62.4431h 11.9055" fill="none" stroke="#00aa00"/>
<path d="M504.783,58.0428h 5.95276" fill="none" stroke="#00aa00"/>
<path d="M504.783,53.6426h 5.95276" fill="none" stroke="#00aa00"/>
<text xml:space="preserve" x="513.3" y="242.156" fill="#00aa00" font-size="10.2228" font-family="Helvetica" font-weight="bold">0</text>
<text xml:space="preserve" x="513.3" y="220.077" fill="#00aa00" font-size="10.2228" font-family="Helvetica" font-weight="bold">0.001</text>
<text xml:space="preserve" x="513.3" y="198.71" fill="#00aa00" font-size="10.2228" font-family="Helvetica" font-weight="bold">0.002</text>
<text xml:space="preserve" x="513.3" y="176.631" fill="#00aa00" font-size="10.2228" font-family="Helvetica" font-weight="bold">0.003</text>
<text xml:space="preserve" x="513.3" y="154.552" fill="#00aa00" font-size="10.2228" font-family="Helvetica" font-weight="bold">0.004</text>
<text xml:space="preserve" x="513.3" y="132.473" fill="#00aa00" font-size="10.2228" font-family="Helvetica" font-weight="bold">0.005</text>
<text xml:space="preserve" x="513.3" y="110.394" fill="#00aa00" font-size="10.2228" font-family="Helvetica" font-weight="bold">0.006</text>
<text xml:space="preserve" x="513.3" y="88.3156" fill="#00aa00" font-size="10.2228" font-family="Helvetica" font-weight="bold">0.007</text>
<text xml:space="preserve" x="513.3" y="66.2367" fill="#00aa00" font-size="10.2228" font-family="Helvetica" font-weight="bold">0.008</text>
<g transform="rotate(-90,544.638,137.459)">
<text xml:space="preserve" x="544.638" y="137.459" fill="#00aa00" font-size="9.00747" font-family="Helvetica" font-weight="bold">Punzi Figure of Merit</text>
</g></svg>
