<?xml version="1.0" standalone="no"?>
<svg width="567.429" height="265.447" viewBox="0 0 567.429 265.447" xmlns="http://www.w3.org/2000/svg" shape-rendering="crispEdges">
<title>
punzi/BDTBm3.svg
</title>
<desc>
Creator: ROOT Version 6.26/02
CreationDate: Wed May  4 16:53:11 2022</desc>
<defs>
</defs>
<rect x="0.5" y="0" width="566.929" height="264.947" fill="white"/>
<rect x="57.1929" y="52.9894" width="453.543" height="185.463" fill="white"/>
<rect x="57.1929" y="52.9894" width="453.543" height="185.463" fill="none" stroke="black"/>
<rect x="57.1929" y="52.9894" width="453.543" height="185.463" fill="white"/>
<rect x="57.1929" y="52.9894" width="453.543" height="185.463" fill="none" stroke="black"/>
<path d="M57.1929,238.452h 453.543" fill="none" stroke="black"/>
<path d="M57.1929,52.9894v 185.463" fill="none" stroke="black" stroke-dasharray=" 1, 2"/>
<path d="M170.578,52.9894v 185.463" fill="none" stroke="black" stroke-dasharray=" 1, 2"/>
<path d="M283.963,52.9894v 185.463" fill="none" stroke="black" stroke-dasharray=" 1, 2"/>
<path d="M397.349,52.9894v 185.463" fill="none" stroke="black" stroke-dasharray=" 1, 2"/>
<path d="M510.734,52.9894v 185.463" fill="none" stroke="black" stroke-dasharray=" 1, 2"/>
<path d="M510.734,52.9894v 185.463" fill="none" stroke="black" stroke-dasharray=" 1, 2"/>
<path d="M57.1929,238.452v -185.463" fill="none" stroke="black"/>
<path d="M510.736,213.344h -453.543" fill="none" stroke="black" stroke-dasharray=" 1, 2"/>
<path d="M510.736,181.273h -453.543" fill="none" stroke="black" stroke-dasharray=" 1, 2"/>
<path d="M510.736,149.202h -453.543" fill="none" stroke="black" stroke-dasharray=" 1, 2"/>
<path d="M510.736,117.131h -453.543" fill="none" stroke="black" stroke-dasharray=" 1, 2"/>
<path d="M510.736,85.0604h -453.543" fill="none" stroke="black" stroke-dasharray=" 1, 2"/>
<path d="M510.736,52.9894h -453.543" fill="none" stroke="black" stroke-dasharray=" 1, 2"/>
<path d="M510.736,213.344h -453.543" fill="none" stroke="black" stroke-dasharray=" 1, 2"/>
<path d="M57.1929,85.0604l 0.0680315, 29.9543h 1.04315l 0.0453543, 2.80622h 1.0885" fill="none" stroke="#0000ee" stroke-width="3"/>
<path d="M59.438,117.821l 0.0453543, 2.6619h 1.0885l 0.0453543, 0.46503h 1.04315" fill="none" stroke="#0000ee" stroke-width="3"/>
<path d="M61.6603,120.948h 0.0453543l 0.0453543, 0.801776h 1.0885l 0.0453543, 0.657456h 0.997795" fill="none" stroke="#0000ee" stroke-width="3"/>
<path d="M63.8827,122.407h 0.0907087l 0.0453543, 0.352781h 1.0885l 0.0453543, 2.40533h 0.952441" fill="none" stroke="#0000ee" stroke-width="3"/>
<path d="M66.105,125.165h 0.136063l 0.0453543, 0.865918h 1.0885l 0.0453543, 1.53941h 0.907087" fill="none" stroke="#0000ee" stroke-width="3"/>
<path d="M68.3274,127.571h 0.181417l 0.0453543, 0.60935h 1.0885l 0.0453543, 0.288639h 0.861732" fill="none" stroke="#0000ee" stroke-width="3"/>
<path d="M70.5498,128.469h 0.226772l 0.0453543, 0.0801776h 1.0885l 0.0453543, 0.0641421h 0.816378" fill="none" stroke="#0000ee" stroke-width="3"/>
<path d="M72.7721,128.613h 0.272126l 0.0453543, 0.272604h 1.0885l 0.0453543, 0.400888h 0.771024" fill="none" stroke="#0000ee" stroke-width="3"/>
<path d="M74.9945,129.286h 0.31748l 0.0453543, 0.93006h 1.0885l 0.0453543, 0.416923h 0.725669" fill="none" stroke="#0000ee" stroke-width="3"/>
<path d="M77.2169,130.633h 0.362835l 0.0453543, 0.769705h 1.0885l 0.0453543, 0.256568h 0.680315" fill="none" stroke="#0000ee" stroke-width="3"/>
<path d="M79.4392,131.66h 0.408189l 0.0453543, 0.032071h 1.0885l 0.0453543, 0.112249h 0.634961" fill="none" stroke="#0000ee" stroke-width="3"/>
<path d="M81.6616,131.804h 0.453543l 0.0453543, 0.112249h 1.0885l 0.0453543, 0.14432h 0.589606" fill="none" stroke="#0000ee" stroke-width="3"/>
<path d="M83.8839,132.06h 0.498898l 0.0453543, 0.0962131h 1.0885l 0.0453543, 0.032071h 0.544252" fill="none" stroke="#0000ee" stroke-width="3"/>
<path d="M86.1063,132.189h 0.544252l 0.0453543, 0.032071h 1.0885l 0.0453543, 0.0801776h 0.498898" fill="none" stroke="#0000ee" stroke-width="3"/>
<path d="M88.3287,132.301h 1.72346l 0.0453543, 0.032071h 0.453543" fill="none" stroke="#0000ee" stroke-width="3"/>
<path d="M90.551,132.333h 0.634961l 0.0453543, 0.0481065h 1.54205" fill="none" stroke="#0000ee" stroke-width="3"/>
<path d="M92.7734,132.381h 0.680315l 0.0453543, 0.0481065h 1.49669" fill="none" stroke="#0000ee" stroke-width="3"/>
<path d="M94.9958,132.429h 0.725669l 0.0453543, 0.112249h 1.0885l 0.0453543, 0.0160355h 0.31748" fill="none" stroke="#0000ee" stroke-width="3"/>
<path d="M97.2181,132.558h 0.771024l 0.0453543, 0.112249h 1.0885l 0.0453543, 0.14432h 0.272126" fill="none" stroke="#0000ee" stroke-width="3"/>
<path d="M99.4405,132.814h 0.816378l 0.0453543, 0.112249h 1.0885l 0.0453543, 0.0962131h 0.226772" fill="none" stroke="#0000ee" stroke-width="3"/>
<path d="M101.663,133.023h 0.861732l 0.0453543, 0.0962131h 1.0885l 0.0453543, 0.0641421h 0.181417" fill="none" stroke="#0000ee" stroke-width="3"/>
<path d="M103.885,133.183h 0.907087l 0.0453543, 0.112249h 1.0885l 0.0453543, 0.192426h 0.136063" fill="none" stroke="#0000ee" stroke-width="3"/>
<path d="M106.108,133.488h 0.952441l 0.0453543, 0.0801776h 1.0885l 0.0453543, 0.14432h 0.0907087" fill="none" stroke="#0000ee" stroke-width="3"/>
<path d="M108.33,133.712h 0.997795l 0.0453543, 0.0801776h 1.0885l 0.0453543, 0.0160355h 0.0453543" fill="none" stroke="#0000ee" stroke-width="3"/>
<path d="M110.552,133.808h 1.04315l 0.0453543, 0.176391h 1.0885l 0.0453543, 0.0160355" fill="none" stroke="#0000ee" stroke-width="3"/>
<path d="M112.775,134.001h 1.0885l 0.0453543, 0.160355h 1.0885" fill="none" stroke="#0000ee" stroke-width="3"/>
<path d="M114.997,134.161l 0.0453543, 0.032071h 1.0885l 0.0453543, 0.0962131h 1.04315" fill="none" stroke="#0000ee" stroke-width="3"/>
<path d="M117.219,134.289h 0.0453543l 0.0453543, 0.0481065h 1.0885l 0.0453543, 0.0481065h 0.997795" fill="none" stroke="#0000ee" stroke-width="3"/>
<path d="M119.442,134.386h 0.0907087l 0.0453543, 0.208462h 1.0885l 0.0453543, 0.128284h 0.952441" fill="none" stroke="#0000ee" stroke-width="3"/>
<path d="M121.664,134.722h 2.22236" fill="none" stroke="#0000ee" stroke-width="3"/>
<path d="M123.886,134.722h 1.31528l 0.0453543, 0.0160355h 0.861732" fill="none" stroke="#0000ee" stroke-width="3"/>
<path d="M126.109,134.738h 1.36063l 0.0453543, 0.0641421h 0.816378" fill="none" stroke="#0000ee" stroke-width="3"/>
<path d="M128.331,134.803h 0.272126l 0.0453543, 0.0160355h 1.0885l 0.0453543, 0.032071h 0.771024" fill="none" stroke="#0000ee" stroke-width="3"/>
<path d="M130.554,134.851h 0.31748l 0.0453543, 0.0962131h 1.0885l 0.0453543, 0.112249h 0.725669" fill="none" stroke="#0000ee" stroke-width="3"/>
<path d="M132.776,135.059h 0.362835l 0.0453543, 0.0962131h 1.0885l 0.0453543, 0.0160355h 0.680315" fill="none" stroke="#0000ee" stroke-width="3"/>
<path d="M134.998,135.171h 1.54205l 0.0453543, 0.0641421h 0.634961" fill="none" stroke="#0000ee" stroke-width="3"/>
<path d="M137.221,135.236h 0.453543l 0.0453543, 0.032071h 1.0885l 0.0453543, 0.0801776h 0.589606" fill="none" stroke="#0000ee" stroke-width="3"/>
<path d="M139.443,135.348h 0.498898l 0.0453543, 0.0641421h 1.0885l 0.0453543, 0.0962131h 0.544252" fill="none" stroke="#0000ee" stroke-width="3"/>
<path d="M141.665,135.508h 0.544252l 0.0453543, 0.160355h 1.0885l 0.0453543, 0.0641421h 0.498898" fill="none" stroke="#0000ee" stroke-width="3"/>
<path d="M143.888,135.733h 0.589606l 0.0453543, 0.0641421h 1.0885l 0.0453543, 0.0481065h 0.453543" fill="none" stroke="#0000ee" stroke-width="3"/>
<path d="M146.11,135.845h 0.634961l 0.0453543, 0.128284h 1.0885l 0.0453543, 0.208462h 0.408189" fill="none" stroke="#0000ee" stroke-width="3"/>
<path d="M148.332,136.182h 0.680315l 0.0453543, 0.112249h 1.0885l 0.0453543, 0.0962131h 0.362835" fill="none" stroke="#0000ee" stroke-width="3"/>
<path d="M150.555,136.39h 0.725669l 0.0453543, 0.0160355h 1.0885l 0.0453543, 0.032071h 0.31748" fill="none" stroke="#0000ee" stroke-width="3"/>
<path d="M152.777,136.438h 0.771024l 0.0453543, 0.224497h 1.0885l 0.0453543, 0.032071h 0.272126" fill="none" stroke="#0000ee" stroke-width="3"/>
<path d="M155,136.695h 0.816378l 0.0453543, 0.032071h 1.0885l 0.0453543, 0.0160355h 0.226772" fill="none" stroke="#0000ee" stroke-width="3"/>
<path d="M157.222,136.743h 0.861732l 0.0453543, 0.0160355h 1.31528" fill="none" stroke="#0000ee" stroke-width="3"/>
<path d="M159.444,136.759h 0.907087l 0.0453543, 0.128284h 1.26992" fill="none" stroke="#0000ee" stroke-width="3"/>
<path d="M161.667,136.887h 2.0863l 0.0453543, 0.032071h 0.0907087" fill="none" stroke="#0000ee" stroke-width="3"/>
<path d="M163.889,136.919h 2.13165l 0.0453543, 0.032071h 0.0453543" fill="none" stroke="#0000ee" stroke-width="3"/>
<path d="M166.111,136.951h 2.22236" fill="none" stroke="#0000ee" stroke-width="3"/>
<path d="M168.334,136.951h 1.0885l 0.0453543, 1.29888h 1.0885" fill="none" stroke="#0000ee" stroke-width="3"/>
<path d="M170.556,138.25l 0.0453543, 0.0962131h 1.0885l 0.0453543, 0.208462h 1.04315" fill="none" stroke="#0000ee" stroke-width="3"/>
<path d="M172.778,138.555h 0.0453543l 0.0453543, 0.224497h 1.0885l 0.0453543, 0.0641421h 0.997795" fill="none" stroke="#0000ee" stroke-width="3"/>
<path d="M175.001,138.844h 0.0907087l 0.0453543, 0.112249h 1.0885l 0.0453543, 0.32071h 0.952441" fill="none" stroke="#0000ee" stroke-width="3"/>
<path d="M177.223,139.276h 0.136063l 0.0453543, 5.00308h 1.0885l 0.0453543, 0.272604h 0.907087" fill="none" stroke="#0000ee" stroke-width="3"/>
<path d="M179.446,144.552h 0.181417l 0.0453543, 0.497101h 1.0885l 0.0453543, 0.112249h 0.861732" fill="none" stroke="#0000ee" stroke-width="3"/>
<path d="M181.668,145.161h 0.226772l 0.0453543, 0.721598h 1.0885l 0.0453543, 0.0801776h 0.816378" fill="none" stroke="#0000ee" stroke-width="3"/>
<path d="M183.89,145.963h 0.272126l 0.0453543, 0.128284h 1.0885l 0.0453543, 0.801776h 0.771024" fill="none" stroke="#0000ee" stroke-width="3"/>
<path d="M186.113,146.893h 0.31748l 0.0453543, 0.513136h 1.0885l 0.0453543, 0.304675h 0.725669" fill="none" stroke="#0000ee" stroke-width="3"/>
<path d="M188.335,147.711h 0.362835l 0.0453543, 0.112249h 1.0885l 0.0453543, 0.448994h 0.680315" fill="none" stroke="#0000ee" stroke-width="3"/>
<path d="M190.557,148.272h 0.408189l 0.0453543, 0.208462h 1.0885l 0.0453543, 0.336746h 0.634961" fill="none" stroke="#0000ee" stroke-width="3"/>
<path d="M192.78,148.818h 0.453543l 0.0453543, 0.817811h 1.0885l 0.0453543, 0.304675h 0.589606" fill="none" stroke="#0000ee" stroke-width="3"/>
<path d="M195.002,149.94h 0.498898l 0.0453543, 0.272604h 1.0885l 0.0453543, 0.46503h 0.544252" fill="none" stroke="#0000ee" stroke-width="3"/>
<path d="M197.224,150.678h 0.544252l 0.0453543, 0.352781h 1.0885l 0.0453543, 0.577278h 0.498898" fill="none" stroke="#0000ee" stroke-width="3"/>
<path d="M199.447,151.608h 0.589606l 0.0453543, 0.60935h 1.0885l 0.0453543, 0.513136h 0.453543" fill="none" stroke="#0000ee" stroke-width="3"/>
<path d="M201.669,152.73h 0.634961l 0.0453543, 0.14432h 1.0885l 0.0453543, 0.240533h 0.408189" fill="none" stroke="#0000ee" stroke-width="3"/>
<path d="M203.891,153.115h 0.680315l 0.0453543, 0.112249h 1.0885l 0.0453543, 0.0481065h 0.362835" fill="none" stroke="#0000ee" stroke-width="3"/>
<path d="M206.114,153.275h 0.725669l 0.0453543, 0.0641421h 1.0885l 0.0453543, 0.112249h 0.31748" fill="none" stroke="#0000ee" stroke-width="3"/>
<path d="M208.336,153.452h 0.771024l 0.0453543, 0.032071h 1.40598" fill="none" stroke="#0000ee" stroke-width="3"/>
<path d="M210.559,153.484h 0.816378l 0.0453543, 0.0481065h 1.36063" fill="none" stroke="#0000ee" stroke-width="3"/>
<path d="M212.781,153.532h 0.861732l 0.0453543, 0.0160355h 1.0885l 0.0453543, 0.0801776h 0.181417" fill="none" stroke="#0000ee" stroke-width="3"/>
<path d="M215.003,153.628h 0.907087l 0.0453543, 0.240533h 1.0885l 0.0453543, 0.160355h 0.136063" fill="none" stroke="#0000ee" stroke-width="3"/>
<path d="M217.226,154.029h 0.952441l 0.0453543, 0.60935h 1.0885l 0.0453543, 0.208462h 0.0907087" fill="none" stroke="#0000ee" stroke-width="3"/>
<path d="M219.448,154.847h 0.997795l 0.0453543, 0.112249h 1.0885l 0.0453543, 0.0801776h 0.0453543" fill="none" stroke="#0000ee" stroke-width="3"/>
<path d="M221.67,155.039h 1.04315l 0.0453543, 0.32071h 1.13386" fill="none" stroke="#0000ee" stroke-width="3"/>
<path d="M223.893,155.36h 1.0885l 0.0453543, 0.208462h 1.0885" fill="none" stroke="#0000ee" stroke-width="3"/>
<path d="M226.115,155.569l 0.0453543, 0.128284h 1.0885l 0.0453543, 0.112249h 1.04315" fill="none" stroke="#0000ee" stroke-width="3"/>
<path d="M228.337,155.809h 0.0453543l 0.0453543, 0.0160355h 1.0885l 0.0453543, 0.128284h 0.997795" fill="none" stroke="#0000ee" stroke-width="3"/>
<path d="M230.56,155.953h 0.0907087l 0.0453543, 0.416923h 1.0885l 0.0453543, 0.0962131h 0.952441" fill="none" stroke="#0000ee" stroke-width="3"/>
<path d="M232.782,156.467h 1.26992l 0.0453543, 0.0160355h 0.907087" fill="none" stroke="#0000ee" stroke-width="3"/>
<path d="M235.005,156.483h 0.181417l 0.0453543, 0.192426h 1.0885l 0.0453543, 0.0962131h 0.861732" fill="none" stroke="#0000ee" stroke-width="3"/>
<path d="M237.227,156.771h 0.226772l 0.0453543, 0.0962131h 1.0885l 0.0453543, 0.0801776h 0.816378" fill="none" stroke="#0000ee" stroke-width="3"/>
<path d="M239.449,156.948h 0.272126l 0.0453543, 0.0641421h 1.0885l 0.0453543, 0.032071h 0.771024" fill="none" stroke="#0000ee" stroke-width="3"/>
<path d="M241.672,157.044h 0.31748l 0.0453543, 0.0641421h 1.0885l 0.0453543, 0.0801776h 0.725669" fill="none" stroke="#0000ee" stroke-width="3"/>
<path d="M243.894,157.188h 0.362835l 0.0453543, 0.384852h 1.0885l 0.0453543, 0.0641421h 0.680315" fill="none" stroke="#0000ee" stroke-width="3"/>
<path d="M246.116,157.637h 1.54205l 0.0453543, 0.176391h 0.634961" fill="none" stroke="#0000ee" stroke-width="3"/>
<path d="M248.339,157.814h 0.453543l 0.0453543, 0.0160355h 1.0885l 0.0453543, 0.128284h 0.589606" fill="none" stroke="#0000ee" stroke-width="3"/>
<path d="M250.561,157.958h 0.498898l 0.0453543, 0.288639h 1.67811" fill="none" stroke="#0000ee" stroke-width="3"/>
<path d="M252.783,158.246h 0.544252l 0.0453543, 0.0641421h 1.0885l 0.0453543, 0.0801776h 0.498898" fill="none" stroke="#0000ee" stroke-width="3"/>
<path d="M255.006,158.391h 0.589606l 0.0453543, 0.0641421h 1.0885l 0.0453543, 0.160355h 0.453543" fill="none" stroke="#0000ee" stroke-width="3"/>
<path d="M257.228,158.615h 0.634961l 0.0453543, 0.0962131h 1.0885l 0.0453543, 0.0641421h 0.408189" fill="none" stroke="#0000ee" stroke-width="3"/>
<path d="M259.451,158.776h 0.680315l 0.0453543, 0.160355h 1.0885l 0.0453543, 0.0481065h 0.362835" fill="none" stroke="#0000ee" stroke-width="3"/>
<path d="M261.673,158.984h 0.725669l 0.0453543, 0.432959h 1.0885l 0.0453543, 0.978166h 0.31748" fill="none" stroke="#0000ee" stroke-width="3"/>
<path d="M263.895,160.395h 0.771024l 0.0453543, 0.304675h 1.0885l 0.0453543, 1.33095h 0.272126" fill="none" stroke="#0000ee" stroke-width="3"/>
<path d="M266.118,162.031h 0.816378l 0.0453543, 0.240533h 1.0885l 0.0453543, 0.14432h 0.226772" fill="none" stroke="#0000ee" stroke-width="3"/>
<path d="M268.34,162.416h 0.861732l 0.0453543, 0.208462h 1.0885l 0.0453543, 0.224497h 0.181417" fill="none" stroke="#0000ee" stroke-width="3"/>
<path d="M270.562,162.849h 0.907087l 0.0453543, 0.128284h 1.0885l 0.0453543, 0.0801776h 0.136063" fill="none" stroke="#0000ee" stroke-width="3"/>
<path d="M272.785,163.057h 0.952441l 0.0453543, 0.240533h 1.0885l 0.0453543, 0.128284h 0.0907087" fill="none" stroke="#0000ee" stroke-width="3"/>
<path d="M275.007,163.426h 0.997795l 0.0453543, 0.192426h 1.0885l 0.0453543, 0.192426h 0.0453543" fill="none" stroke="#0000ee" stroke-width="3"/>
<path d="M277.229,163.811h 1.04315l 0.0453543, 0.112249h 1.0885l 0.0453543, 0.0641421" fill="none" stroke="#0000ee" stroke-width="3"/>
<path d="M279.452,163.987h 1.0885l 0.0453543, 0.0160355h 1.0885" fill="none" stroke="#0000ee" stroke-width="3"/>
<path d="M281.674,164.003l 0.0453543, 0.0962131h 1.0885l 0.0453543, 0.112249h 1.04315" fill="none" stroke="#0000ee" stroke-width="3"/>
<path d="M283.897,164.212h 0.0453543l 0.0453543, 0.032071h 1.0885l 0.0453543, 0.14432h 0.997795" fill="none" stroke="#0000ee" stroke-width="3"/>
<path d="M286.119,164.388h 0.0907087l 0.0453543, 0.112249h 1.0885l 0.0453543, 0.160355h 0.952441" fill="none" stroke="#0000ee" stroke-width="3"/>
<path d="M288.341,164.661h 1.26992l 0.0453543, 0.0801776h 0.907087" fill="none" stroke="#0000ee" stroke-width="3"/>
<path d="M290.564,164.741h 0.181417l 0.0453543, 0.0801776h 1.0885l 0.0453543, 0.032071h 0.861732" fill="none" stroke="#0000ee" stroke-width="3"/>
<path d="M292.786,164.853h 0.226772l 0.0453543, 0.0160355h 1.0885l 0.0453543, 0.0641421h 0.816378" fill="none" stroke="#0000ee" stroke-width="3"/>
<path d="M295.008,164.933h 0.272126l 0.0453543, 0.0160355h 1.0885l 0.0453543, 0.0641421h 0.771024" fill="none" stroke="#0000ee" stroke-width="3"/>
<path d="M297.231,165.013h 0.31748l 0.0453543, 0.112249h 1.85953" fill="none" stroke="#0000ee" stroke-width="3"/>
<path d="M299.453,165.126h 0.362835l 0.0453543, 0.0481065h 1.0885l 0.0453543, 0.0160355h 0.680315" fill="none" stroke="#0000ee" stroke-width="3"/>
<path d="M301.675,165.19h 0.408189l 0.0453543, 0.032071h 1.0885l 0.0453543, 0.256568h 0.634961" fill="none" stroke="#0000ee" stroke-width="3"/>
<path d="M303.898,165.479h 0.453543l 0.0453543, 0.0801776h 1.0885l 0.0453543, 0.513136h 0.589606" fill="none" stroke="#0000ee" stroke-width="3"/>
<path d="M306.12,166.072h 0.498898l 0.0453543, 0.0962131h 1.0885l 0.0453543, 0.0641421h 0.544252" fill="none" stroke="#0000ee" stroke-width="3"/>
<path d="M308.343,166.232h 0.544252l 0.0453543, 0.529172h 1.0885l 0.0453543, 0.0801776h 0.498898" fill="none" stroke="#0000ee" stroke-width="3"/>
<path d="M310.565,166.842h 0.589606l 0.0453543, 0.032071h 1.0885l 0.0453543, 0.240533h 0.453543" fill="none" stroke="#0000ee" stroke-width="3"/>
<path d="M312.787,167.114h 0.634961l 0.0453543, 0.032071h 1.54205" fill="none" stroke="#0000ee" stroke-width="3"/>
<path d="M315.01,167.146h 1.81417l 0.0453543, 0.032071h 0.362835" fill="none" stroke="#0000ee" stroke-width="3"/>
<path d="M317.232,167.178h 0.725669l 0.0453543, 0.0641421h 1.0885l 0.0453543, 0.032071h 0.31748" fill="none" stroke="#0000ee" stroke-width="3"/>
<path d="M319.454,167.274h 0.771024l 0.0453543, 0.032071h 1.0885l 0.0453543, 0.0801776h 0.272126" fill="none" stroke="#0000ee" stroke-width="3"/>
<path d="M321.677,167.387h 0.816378l 0.0453543, 0.032071h 1.0885l 0.0453543, 0.14432h 0.226772" fill="none" stroke="#0000ee" stroke-width="3"/>
<path d="M323.899,167.563h 0.861732l 0.0453543, 0.0481065h 1.0885l 0.0453543, 0.176391h 0.181417" fill="none" stroke="#0000ee" stroke-width="3"/>
<path d="M326.121,167.788h 0.907087l 0.0453543, 0.128284h 1.0885l 0.0453543, 0.0481065h 0.136063" fill="none" stroke="#0000ee" stroke-width="3"/>
<path d="M328.344,167.964h 0.952441l 0.0453543, 0.288639h 1.0885l 0.0453543, 0.416923h 0.0907087" fill="none" stroke="#0000ee" stroke-width="3"/>
<path d="M330.566,168.67h 0.997795l 0.0453543, 0.0962131h 1.0885l 0.0453543, 0.881953h 0.0453543" fill="none" stroke="#0000ee" stroke-width="3"/>
<path d="M332.789,169.648h 1.04315l 0.0453543, 0.0641421h 1.0885l 0.0453543, 0.288639" fill="none" stroke="#0000ee" stroke-width="3"/>
<path d="M335.011,170.001h 1.0885l 0.0453543, 0.14432h 1.0885" fill="none" stroke="#0000ee" stroke-width="3"/>
<path d="M337.233,170.145l 0.0453543, 0.32071h 1.0885l 0.0453543, 0.897989h 1.04315" fill="none" stroke="#0000ee" stroke-width="3"/>
<path d="M339.456,171.364h 0.0453543l 0.0453543, 0.208462h 1.0885l 0.0453543, 0.0641421h 0.997795" fill="none" stroke="#0000ee" stroke-width="3"/>
<path d="M341.678,171.636h 0.0907087l 0.0453543, 0.0801776h 1.0885l 0.0453543, 0.14432h 0.952441" fill="none" stroke="#0000ee" stroke-width="3"/>
<path d="M343.9,171.861h 0.136063l 0.0453543, 0.192426h 1.0885l 0.0453543, 0.561243h 0.907087" fill="none" stroke="#0000ee" stroke-width="3"/>
<path d="M346.123,172.614h 0.181417l 0.0453543, 0.192426h 1.0885l 0.0453543, 0.0962131h 0.861732" fill="none" stroke="#0000ee" stroke-width="3"/>
<path d="M348.345,172.903h 0.226772l 0.0453543, 0.128284h 1.0885l 0.0453543, 0.384852h 0.816378" fill="none" stroke="#0000ee" stroke-width="3"/>
<path d="M350.567,173.416h 0.272126l 0.0453543, 0.352781h 1.0885l 0.0453543, 0.240533h 0.771024" fill="none" stroke="#0000ee" stroke-width="3"/>
<path d="M352.79,174.009h 0.31748l 0.0453543, 0.416923h 1.0885l 0.0453543, 0.240533h 0.725669" fill="none" stroke="#0000ee" stroke-width="3"/>
<path d="M355.012,174.667h 0.362835l 0.0453543, 1.18663h 1.0885l 0.0453543, 0.384852h 0.680315" fill="none" stroke="#0000ee" stroke-width="3"/>
<path d="M357.234,176.238h 0.408189l 0.0453543, 0.224497h 1.0885l 0.0453543, 0.673492h 0.634961" fill="none" stroke="#0000ee" stroke-width="3"/>
<path d="M359.457,177.136h 0.453543l 0.0453543, 0.032071h 1.0885l 0.0453543, 0.0481065h 0.589606" fill="none" stroke="#0000ee" stroke-width="3"/>
<path d="M361.679,177.216h 0.498898l 0.0453543, 0.256568h 1.0885l 0.0453543, 0.112249h 0.544252" fill="none" stroke="#0000ee" stroke-width="3"/>
<path d="M363.902,177.585h 0.544252l 0.0453543, 0.352781h 1.0885l 0.0453543, 0.224497h 0.498898" fill="none" stroke="#0000ee" stroke-width="3"/>
<path d="M366.124,178.163h 0.589606l 0.0453543, 0.0801776h 1.0885l 0.0453543, 0.240533h 0.453543" fill="none" stroke="#0000ee" stroke-width="3"/>
<path d="M368.346,178.483h 0.634961l 0.0453543, 0.256568h 1.0885l 0.0453543, 0.481065h 0.408189" fill="none" stroke="#0000ee" stroke-width="3"/>
<path d="M370.569,179.221h 0.680315l 0.0453543, 0.673492h 1.0885l 0.0453543, 0.176391h 0.362835" fill="none" stroke="#0000ee" stroke-width="3"/>
<path d="M372.791,180.071h 0.725669l 0.0453543, 0.865918h 1.0885l 0.0453543, 1.66769h 0.31748" fill="none" stroke="#0000ee" stroke-width="3"/>
<path d="M375.013,182.604h 0.771024l 0.0453543, 0.0641421h 1.0885l 0.0453543, 0.0160355h 0.272126" fill="none" stroke="#0000ee" stroke-width="3"/>
<path d="M377.236,182.685h 0.816378l 0.0453543, 0.192426h 1.0885l 0.0453543, 0.0160355h 0.226772" fill="none" stroke="#0000ee" stroke-width="3"/>
<path d="M379.458,182.893h 0.861732l 0.0453543, 0.0641421h 1.0885l 0.0453543, 0.0160355h 0.181417" fill="none" stroke="#0000ee" stroke-width="3"/>
<path d="M381.68,182.973h 0.907087l 0.0453543, 1.25077h 1.0885l 0.0453543, 0.0962131h 0.136063" fill="none" stroke="#0000ee" stroke-width="3"/>
<path d="M383.903,184.32h 2.0863l 0.0453543, 2.26101h 0.0907087" fill="none" stroke="#0000ee" stroke-width="3"/>
<path d="M386.125,186.581h 0.997795l 0.0453543, 0.336746h 1.0885l 0.0453543, 0.0481065h 0.0453543" fill="none" stroke="#0000ee" stroke-width="3"/>
<path d="M388.348,186.966h 1.04315l 0.0453543, 0.32071h 1.0885l 0.0453543, 0.46503" fill="none" stroke="#0000ee" stroke-width="3"/>
<path d="M390.57,187.752h 1.0885l 0.0453543, 0.0641421h 1.0885" fill="none" stroke="#0000ee" stroke-width="3"/>
<path d="M392.792,187.816l 0.0453543, 5.01912h 1.0885l 0.0453543, 0.962131h 1.04315" fill="none" stroke="#0000ee" stroke-width="3"/>
<path d="M395.015,193.797h 0.0453543l 0.0453543, 0.0962131h 1.0885l 0.0453543, 0.256568h 0.997795" fill="none" stroke="#0000ee" stroke-width="3"/>
<path d="M397.237,194.15h 0.0907087l 0.0453543, 0.288639h 1.0885l 0.0453543, 0.336746h 0.952441" fill="none" stroke="#0000ee" stroke-width="3"/>
<path d="M399.459,194.775h 0.136063l 0.0453543, 0.288639h 1.0885l 0.0453543, 0.176391h 0.907087" fill="none" stroke="#0000ee" stroke-width="3"/>
<path d="M401.682,195.24h 0.181417l 0.0453543, 0.336746h 1.0885l 0.0453543, 0.416923h 0.861732" fill="none" stroke="#0000ee" stroke-width="3"/>
<path d="M403.904,195.994h 0.226772l 0.0453543, 0.737634h 1.0885l 0.0453543, 0.400888h 0.816378" fill="none" stroke="#0000ee" stroke-width="3"/>
<path d="M406.126,197.133h 0.272126l 0.0453543, 0.705563h 1.0885l 0.0453543, 0.432959h 0.771024" fill="none" stroke="#0000ee" stroke-width="3"/>
<path d="M408.349,198.271h 0.31748l 0.0453543, 0.561243h 1.0885l 0.0453543, 0.112249h 0.725669" fill="none" stroke="#0000ee" stroke-width="3"/>
<path d="M410.571,198.945h 0.362835l 0.0453543, 0.577278h 1.0885l 0.0453543, 0.416923h 0.680315" fill="none" stroke="#0000ee" stroke-width="3"/>
<path d="M412.794,199.939h 0.408189l 0.0453543, 0.32071h 1.0885l 0.0453543, 0.593314h 0.634961" fill="none" stroke="#0000ee" stroke-width="3"/>
<path d="M415.016,200.853h 0.453543l 0.0453543, 0.224497h 1.0885l 0.0453543, 0.160355h 0.589606" fill="none" stroke="#0000ee" stroke-width="3"/>
<path d="M417.238,201.238h 0.498898l 0.0453543, 0.288639h 1.0885l 0.0453543, 0.224497h 0.544252" fill="none" stroke="#0000ee" stroke-width="3"/>
<path d="M419.461,201.751h 0.544252l 0.0453543, 0.112249h 1.0885l 0.0453543, 0.160355h 0.498898" fill="none" stroke="#0000ee" stroke-width="3"/>
<path d="M421.683,202.023h 0.589606l 0.0453543, 0.0641421h 1.0885l 0.0453543, 0.577278h 0.453543" fill="none" stroke="#0000ee" stroke-width="3"/>
<path d="M423.905,202.665h 0.634961l 0.0453543, 0.14432h 1.0885l 0.0453543, 0.336746h 0.408189" fill="none" stroke="#0000ee" stroke-width="3"/>
<path d="M426.128,203.146h 0.680315l 0.0453543, 0.208462h 1.0885l 0.0453543, 0.160355h 0.362835" fill="none" stroke="#0000ee" stroke-width="3"/>
<path d="M428.35,203.515h 0.725669l 0.0453543, 0.46503h 1.0885l 0.0453543, 0.0481065h 0.31748" fill="none" stroke="#0000ee" stroke-width="3"/>
<path d="M430.572,204.028h 0.771024l 0.0453543, 0.0481065h 1.0885l 0.0453543, 0.0641421h 0.272126" fill="none" stroke="#0000ee" stroke-width="3"/>
<path d="M432.795,204.14h 0.816378l 0.0453543, 0.0962131h 1.0885l 0.0453543, 0.304675h 0.226772" fill="none" stroke="#0000ee" stroke-width="3"/>
<path d="M435.017,204.541h 0.861732l 0.0453543, 0.192426h 1.0885l 0.0453543, 1.29888h 0.181417" fill="none" stroke="#0000ee" stroke-width="3"/>
<path d="M437.24,206.032h 0.907087l 0.0453543, 0.817811h 1.0885l 0.0453543, 0.0962131h 0.136063" fill="none" stroke="#0000ee" stroke-width="3"/>
<path d="M439.462,206.946h 0.952441l 0.0453543, 0.336746h 1.0885l 0.0453543, 0.256568h 0.0907087" fill="none" stroke="#0000ee" stroke-width="3"/>
<path d="M441.684,207.54h 0.997795l 0.0453543, 0.0641421h 1.0885l 0.0453543, 0.176391h 0.0453543" fill="none" stroke="#0000ee" stroke-width="3"/>
<path d="M443.907,207.78h 1.04315l 0.0453543, 0.0801776h 1.0885l 0.0453543, 0.240533" fill="none" stroke="#0000ee" stroke-width="3"/>
<path d="M446.129,208.101h 1.0885l 0.0453543, 0.160355h 1.0885" fill="none" stroke="#0000ee" stroke-width="3"/>
<path d="M448.351,208.261l 0.0453543, 0.0801776h 1.0885l 0.0453543, 0.304675h 1.04315" fill="none" stroke="#0000ee" stroke-width="3"/>
<path d="M450.574,208.646h 0.0453543l 0.0453543, 0.497101h 1.0885l 0.0453543, 0.192426h 0.997795" fill="none" stroke="#0000ee" stroke-width="3"/>
<path d="M452.796,209.336h 0.0907087l 0.0453543, 0.272604h 1.0885l 0.0453543, 0.0641421h 0.952441" fill="none" stroke="#0000ee" stroke-width="3"/>
<path d="M455.018,209.672h 0.136063l 0.0453543, 0.176391h 1.0885l 0.0453543, 0.112249h 0.907087" fill="none" stroke="#0000ee" stroke-width="3"/>
<path d="M457.241,209.961h 0.181417l 0.0453543, 0.657456h 1.0885l 0.0453543, 0.14432h 0.861732" fill="none" stroke="#0000ee" stroke-width="3"/>
<path d="M459.463,210.763h 0.226772l 0.0453543, 0.0641421h 1.0885l 0.0453543, 0.112249h 0.816378" fill="none" stroke="#0000ee" stroke-width="3"/>
<path d="M461.686,210.939h 0.272126l 0.0453543, 0.224497h 1.0885l 0.0453543, 0.160355h 0.771024" fill="none" stroke="#0000ee" stroke-width="3"/>
<path d="M463.908,211.324h 0.31748l 0.0453543, 0.529172h 1.0885l 0.0453543, 0.272604h 0.725669" fill="none" stroke="#0000ee" stroke-width="3"/>
<path d="M466.13,212.126h 0.362835l 0.0453543, 0.0481065h 1.0885l 0.0453543, 0.128284h 0.680315" fill="none" stroke="#0000ee" stroke-width="3"/>
<path d="M468.353,212.302h 1.54205l 0.0453543, 0.0481065h 0.634961" fill="none" stroke="#0000ee" stroke-width="3"/>
<path d="M470.575,212.35h 0.453543l 0.0453543, 0.0641421h 1.0885l 0.0453543, 0.0962131h 0.589606" fill="none" stroke="#0000ee" stroke-width="3"/>
<path d="M472.797,212.511h 0.498898l 0.0453543, 0.0641421h 1.0885l 0.0453543, 0.032071h 0.544252" fill="none" stroke="#0000ee" stroke-width="3"/>
<path d="M475.02,212.607h 0.544252l 0.0453543, 0.0160355h 1.0885l 0.0453543, 0.192426h 0.498898" fill="none" stroke="#0000ee" stroke-width="3"/>
<path d="M477.242,212.815h 0.589606l 0.0453543, 0.240533h 1.0885l 0.0453543, 0.14432h 0.453543" fill="none" stroke="#0000ee" stroke-width="3"/>
<path d="M479.464,213.2h 0.634961l 0.0453543, 1.41113h 1.0885l 0.0453543, 0.272604h 0.408189" fill="none" stroke="#0000ee" stroke-width="3"/>
<path d="M481.687,214.884h 0.680315l 0.0453543, 0.0481065h 1.49669" fill="none" stroke="#0000ee" stroke-width="3"/>
<path d="M483.909,214.932h 0.725669l 0.0453543, 0.0160355h 1.0885l 0.0453543, 0.176391h 0.31748" fill="none" stroke="#0000ee" stroke-width="3"/>
<path d="M486.132,215.124h 1.90488l 0.0453543, 0.0801776h 0.272126" fill="none" stroke="#0000ee" stroke-width="3"/>
<path d="M488.354,215.205h 0.816378l 0.0453543, 0.384852h 1.0885l 0.0453543, 0.032071h 0.226772" fill="none" stroke="#0000ee" stroke-width="3"/>
<path d="M490.576,215.622h 0.861732l 0.0453543, 1.42716h 1.0885l 0.0453543, 0.368817h 0.181417" fill="none" stroke="#0000ee" stroke-width="3"/>
<path d="M492.799,217.418h 0.907087l 0.0453543, 0.0481065h 1.0885l 0.0453543, 2.16479h 0.136063" fill="none" stroke="#0000ee" stroke-width="3"/>
<path d="M495.021,219.63h 0.952441l 0.0453543, 0.192426h 1.0885l 0.0453543, 0.032071h 0.0907087" fill="none" stroke="#0000ee" stroke-width="3"/>
<path d="M497.243,219.855h 0.997795l 0.0453543, 0.593314h 1.0885l 0.0453543, 0.0962131h 0.0453543" fill="none" stroke="#0000ee" stroke-width="3"/>
<path d="M499.466,220.544h 1.04315l 0.0453543, 0.593314h 1.0885l 0.0453543, 0.336746" fill="none" stroke="#0000ee" stroke-width="3"/>
<path d="M501.688,221.475h 1.0885l 0.0453543, 1.37905h 1.0885" fill="none" stroke="#0000ee" stroke-width="3"/>
<path d="M503.91,222.854l 0.0453543, 0.272604h 1.0885l 0.0453543, 1.28284h 1.04315" fill="none" stroke="#0000ee" stroke-width="3"/>
<path d="M506.133,224.409h 0.0453543l 0.0453543, 1.20266h 1.0885l 0.0453543, 1.89219h 0.997795" fill="none" stroke="#0000ee" stroke-width="3"/>
<path d="M508.355,227.504h 0.0907087l 0.0453543, 0.737634h 1.0885l 0.0453543, 1.37905h 0.952441" fill="none" stroke="#0000ee" stroke-width="3"/>
<path d="M510.577,229.621h 0.15874" fill="none" stroke="#0000ee" stroke-width="3"/>
<path d="M57.1929,238.452h 453.543" fill="none" stroke="black"/>
<path d="M57.1929,232.093v 6.35872" fill="none" stroke="black"/>
<path d="M79.87,235.273v 3.17936" fill="none" stroke="black"/>
<path d="M102.547,235.273v 3.17936" fill="none" stroke="black"/>
<path d="M125.224,235.273v 3.17936" fill="none" stroke="black"/>
<path d="M147.901,235.273v 3.17936" fill="none" stroke="black"/>
<path d="M170.578,232.093v 6.35872" fill="none" stroke="black"/>
<path d="M193.255,235.273v 3.17936" fill="none" stroke="black"/>
<path d="M215.932,235.273v 3.17936" fill="none" stroke="black"/>
<path d="M238.609,235.273v 3.17936" fill="none" stroke="black"/>
<path d="M261.286,235.273v 3.17936" fill="none" stroke="black"/>
<path d="M283.963,232.093v 6.35872" fill="none" stroke="black"/>
<path d="M306.64,235.273v 3.17936" fill="none" stroke="black"/>
<path d="M329.318,235.273v 3.17936" fill="none" stroke="black"/>
<path d="M351.995,235.273v 3.17936" fill="none" stroke="black"/>
<path d="M374.672,235.273v 3.17936" fill="none" stroke="black"/>
<path d="M397.349,232.093v 6.35872" fill="none" stroke="black"/>
<path d="M420.026,235.273v 3.17936" fill="none" stroke="black"/>
<path d="M442.703,235.273v 3.17936" fill="none" stroke="black"/>
<path d="M465.38,235.273v 3.17936" fill="none" stroke="black"/>
<path d="M488.057,235.273v 3.17936" fill="none" stroke="black"/>
<path d="M510.734,232.093v 6.35872" fill="none" stroke="black"/>
<path d="M510.734,232.093v 6.35872" fill="none" stroke="black"/>
<text xml:space="preserve" x="56.7656" y="247.141" fill="black" font-size="9.00747" font-family="Helvetica">1</text>
<text xml:space="preserve" x="52.4922" y="247.141" fill="black" font-size="9.00747" font-family="Times">&#8722;</text>
<text xml:space="preserve" x="165.736" y="247.141" fill="black" font-size="9.00747" font-family="Helvetica">0.5</text>
<text xml:space="preserve" x="161.462" y="247.141" fill="black" font-size="9.00747" font-family="Times">&#8722;</text>
<text xml:space="preserve" x="280.403" y="247.141" fill="black" font-size="9.00747" font-family="Helvetica">0</text>
<text xml:space="preserve" x="390.798" y="247.141" fill="black" font-size="9.00747" font-family="Helvetica">0.5</text>
<text xml:space="preserve" x="508.315" y="247.141" fill="black" font-size="9.00747" font-family="Helvetica">1</text>
<path d="M57.1929,238.452v -185.463" fill="none" stroke="black"/>
<path d="M69.0984,213.344h -11.9055" fill="none" stroke="black"/>
<path d="M63.1457,206.93h -5.95276" fill="none" stroke="black"/>
<path d="M63.1457,200.516h -5.95276" fill="none" stroke="black"/>
<path d="M63.1457,194.102h -5.95276" fill="none" stroke="black"/>
<path d="M63.1457,187.688h -5.95276" fill="none" stroke="black"/>
<path d="M69.0984,181.273h -11.9055" fill="none" stroke="black"/>
<path d="M63.1457,174.859h -5.95276" fill="none" stroke="black"/>
<path d="M63.1457,168.445h -5.95276" fill="none" stroke="black"/>
<path d="M63.1457,162.031h -5.95276" fill="none" stroke="black"/>
<path d="M63.1457,155.617h -5.95276" fill="none" stroke="black"/>
<path d="M69.0984,149.202h -11.9055" fill="none" stroke="black"/>
<path d="M63.1457,142.788h -5.95276" fill="none" stroke="black"/>
<path d="M63.1457,136.374h -5.95276" fill="none" stroke="black"/>
<path d="M63.1457,129.96h -5.95276" fill="none" stroke="black"/>
<path d="M63.1457,123.546h -5.95276" fill="none" stroke="black"/>
<path d="M69.0984,117.131h -11.9055" fill="none" stroke="black"/>
<path d="M63.1457,110.717h -5.95276" fill="none" stroke="black"/>
<path d="M63.1457,104.303h -5.95276" fill="none" stroke="black"/>
<path d="M63.1457,97.8888h -5.95276" fill="none" stroke="black"/>
<path d="M63.1457,91.4746h -5.95276" fill="none" stroke="black"/>
<path d="M69.0984,85.0604h -11.9055" fill="none" stroke="black"/>
<path d="M63.1457,78.6462h -5.95276" fill="none" stroke="black"/>
<path d="M63.1457,72.232h -5.95276" fill="none" stroke="black"/>
<path d="M63.1457,65.8178h -5.95276" fill="none" stroke="black"/>
<path d="M63.1457,59.4036h -5.95276" fill="none" stroke="black"/>
<path d="M69.0984,52.9894h -11.9055" fill="none" stroke="black"/>
<path d="M69.0984,213.344h -11.9055" fill="none" stroke="black"/>
<path d="M63.1457,219.759h -5.95276" fill="none" stroke="black"/>
<path d="M63.1457,226.173h -5.95276" fill="none" stroke="black"/>
<path d="M63.1457,232.587h -5.95276" fill="none" stroke="black"/>
<text xml:space="preserve" x="41.8089" y="216.516" fill="black" font-size="9.00747" font-family="Helvetica">0.6</text>
<text xml:space="preserve" x="41.8089" y="184.466" fill="black" font-size="9.00747" font-family="Helvetica">0.7</text>
<text xml:space="preserve" x="41.8089" y="152.416" fill="black" font-size="9.00747" font-family="Helvetica">0.8</text>
<text xml:space="preserve" x="41.8089" y="120.366" fill="black" font-size="9.00747" font-family="Helvetica">0.9</text>
<text xml:space="preserve" x="50.3556" y="88.3156" fill="black" font-size="9.00747" font-family="Helvetica">1</text>
<text xml:space="preserve" x="43.2334" y="56.2656" fill="black" font-size="9.00747" font-family="Helvetica">1.1</text>
<path d="M57.1929,85.0604l 0.0680315, 152.369h 1.04315l 0.00602362, 1.02226" fill="none" stroke="#ff0000" stroke-width="3"/>
<path d="M57.1929,218.514l 0.0680315, -46.6262h 1.04315l 0.0453543, -3.18854h 1.0885" fill="none" stroke="#00aa00" stroke-width="3"/>
<path d="M59.438,168.699l 0.0453543, -2.71986h 1.0885l 0.0453543, -1.01914h 1.04315" fill="none" stroke="#00aa00" stroke-width="3"/>
<path d="M61.6603,164.96h 0.0453543l 0.0453543, -1.13768h 1.0885l 0.0453543, -0.30289h 0.997795" fill="none" stroke="#00aa00" stroke-width="3"/>
<path d="M63.8827,163.519h 0.0907087l 0.0453543, -0.452051h 1.0885l 0.0453543, -2.70978h 0.952441" fill="none" stroke="#00aa00" stroke-width="3"/>
<path d="M66.105,160.357h 0.136063l 0.0453543, -0.818367h 1.0885l 0.0453543, -1.93001h 0.907087" fill="none" stroke="#00aa00" stroke-width="3"/>
<path d="M68.3274,157.609h 0.181417l 0.0453543, -0.515496h 1.0885l 0.0453543, -0.1362h 0.861732" fill="none" stroke="#00aa00" stroke-width="3"/>
<path d="M70.5498,156.957h 0.226772l 0.0453543, -0.0600237h 1.0885l 0.0453543, -0.103971h 0.816378" fill="none" stroke="#00aa00" stroke-width="3"/>
<path d="M72.7721,156.793h 0.272126l 0.0453543, -0.123068h 1.0885l 0.0453543, 0.0507334h 0.771024" fill="none" stroke="#00aa00" stroke-width="3"/>
<path d="M74.9945,156.721h 0.31748l 0.0453543, 0.082848h 1.0885l 0.0453543, -0.0699639h 0.725669" fill="none" stroke="#00aa00" stroke-width="3"/>
<path d="M77.2169,156.734h 0.362835l 0.0453543, -0.0810702h 1.0885l 0.0453543, -0.203564h 0.680315" fill="none" stroke="#00aa00" stroke-width="3"/>
<path d="M79.4392,156.449h 0.408189l 0.0453543, -0.0161146h 1.0885l 0.0453543, 0.0719137h 0.634961" fill="none" stroke="#00aa00" stroke-width="3"/>
<path d="M81.6616,156.505h 0.453543l 0.0453543, -0.0337968h 1.0885l 0.0453543, -0.110738h 0.589606" fill="none" stroke="#00aa00" stroke-width="3"/>
<path d="M83.8839,156.361h 0.498898l 0.0453543, -0.0639615h 1.0885l 0.0453543, -0.0162676h 0.544252" fill="none" stroke="#00aa00" stroke-width="3"/>
<path d="M86.1063,156.28h 0.544252l 0.0453543, -0.061897h 1.0885l 0.0453543, 0.0427621h 0.498898" fill="none" stroke="#00aa00" stroke-width="3"/>
<path d="M88.3287,156.261h 1.72346l 0.0453543, 0.0140501h 0.453543" fill="none" stroke="#00aa00" stroke-width="3"/>
<path d="M90.551,156.275h 0.634961l 0.0453543, -0.0473308h 1.0885l 0.0453543, -0.0456677h 0.408189" fill="none" stroke="#00aa00" stroke-width="3"/>
<path d="M92.7734,156.182h 0.680315l 0.0453543, -0.0169557h 1.49669" fill="none" stroke="#00aa00" stroke-width="3"/>
<path d="M94.9958,156.165h 0.725669l 0.0453543, -0.110929h 1.0885l 0.0453543, -0.000573475h 0.31748" fill="none" stroke="#00aa00" stroke-width="3"/>
<path d="M97.2181,156.054h 0.771024l 0.0453543, -0.233806h 1.0885l 0.0453543, -0.220826h 0.272126" fill="none" stroke="#00aa00" stroke-width="3"/>
<path d="M99.4405,155.599h 0.816378l 0.0453543, -0.128038h 1.0885l 0.0453543, -0.0350967h 0.226772" fill="none" stroke="#00aa00" stroke-width="3"/>
<path d="M101.663,155.436h 0.861732l 0.0453543, -0.344735h 1.0885l 0.0453543, 0.0124444h 0.181417" fill="none" stroke="#00aa00" stroke-width="3"/>
<path d="M103.885,155.104h 0.907087l 0.0453543, -0.114141h 1.0885l 0.0453543, -0.102977h 0.136063" fill="none" stroke="#00aa00" stroke-width="3"/>
<path d="M106.108,154.887h 0.952441l 0.0453543, -0.0821216h 1.0885l 0.0453543, -0.132606h 0.0907087" fill="none" stroke="#00aa00" stroke-width="3"/>
<path d="M108.33,154.672h 0.997795l 0.0453543, -0.0199378h 1.0885l 0.0453543, -0.0478851h 0.0453543" fill="none" stroke="#00aa00" stroke-width="3"/>
<path d="M110.552,154.604h 1.04315l 0.0453543, -0.0252902h 1.0885l 0.0453543, -0.110891" fill="none" stroke="#00aa00" stroke-width="3"/>
<path d="M112.775,154.468h 1.0885l 0.0453543, -0.0247741h 1.0885" fill="none" stroke="#00aa00" stroke-width="3"/>
<path d="M114.997,154.443l 0.0453543, -0.0648791h 1.0885l 0.0453543, -0.116033h 1.04315" fill="none" stroke="#00aa00" stroke-width="3"/>
<path d="M117.219,154.262h 0.0453543l 0.0453543, -0.0660452h 1.0885l 0.0453543, -0.129567h 0.997795" fill="none" stroke="#00aa00" stroke-width="3"/>
<path d="M119.442,154.067h 0.0907087l 0.0453543, -0.155698h 1.0885l 0.0453543, 0.0237419h 0.952441" fill="none" stroke="#00aa00" stroke-width="3"/>
<path d="M121.664,153.935h 0.136063l 0.0453543, -0.031847h 2.04094" fill="none" stroke="#00aa00" stroke-width="3"/>
<path d="M123.886,153.903h 0.181417l 0.0453543, -0.0159044h 1.0885l 0.0453543, -0.000994023h 0.861732" fill="none" stroke="#00aa00" stroke-width="3"/>
<path d="M126.109,153.886h 0.226772l 0.0453543, -0.0159617h 1.0885l 0.0453543, -0.0997081h 0.816378" fill="none" stroke="#00aa00" stroke-width="3"/>
<path d="M128.331,153.77h 0.272126l 0.0453543, -0.00107049h 1.0885l 0.0453543, -0.0659114h 0.771024" fill="none" stroke="#00aa00" stroke-width="3"/>
<path d="M130.554,153.703h 0.31748l 0.0453543, -0.0862888h 1.0885l 0.0453543, -0.0555315h 0.725669" fill="none" stroke="#00aa00" stroke-width="3"/>
<path d="M132.776,153.561h 0.362835l 0.0453543, -0.0385757h 1.0885l 0.0453543, -0.00110872h 0.680315" fill="none" stroke="#00aa00" stroke-width="3"/>
<path d="M134.998,153.522h 0.408189l 0.0453543, -0.0481336h 1.0885l 0.0453543, -0.0686832h 0.634961" fill="none" stroke="#00aa00" stroke-width="3"/>
<path d="M137.221,153.405h 0.453543l 0.0453543, -0.0826377h 1.0885l 0.0453543, -0.376811h 0.589606" fill="none" stroke="#00aa00" stroke-width="3"/>
<path d="M139.443,152.945h 0.498898l 0.0453543, -0.199168h 1.0885l 0.0453543, -0.00730224h 0.544252" fill="none" stroke="#00aa00" stroke-width="3"/>
<path d="M141.665,152.739h 0.544252l 0.0453543, -0.207521h 1.0885l 0.0453543, -0.0865947h 0.498898" fill="none" stroke="#00aa00" stroke-width="3"/>
<path d="M143.888,152.445h 0.589606l 0.0453543, -0.0704227h 1.0885l 0.0453543, -0.118365h 0.453543" fill="none" stroke="#00aa00" stroke-width="3"/>
<path d="M146.11,152.256h 0.634961l 0.0453543, -0.0760619h 1.0885l 0.0453543, -0.0994979h 0.408189" fill="none" stroke="#00aa00" stroke-width="3"/>
<path d="M148.332,152.081h 0.680315l 0.0453543, -0.0259593h 1.0885l 0.0453543, -0.123622h 0.362835" fill="none" stroke="#00aa00" stroke-width="3"/>
<path d="M150.555,151.931h 0.725669l 0.0453543, -0.133467h 1.0885l 0.0453543, -0.118595h 0.31748" fill="none" stroke="#00aa00" stroke-width="3"/>
<path d="M152.777,151.679h 0.771024l 0.0453543, -0.235947h 1.0885l 0.0453543, -0.0195555h 0.272126" fill="none" stroke="#00aa00" stroke-width="3"/>
<path d="M155,151.423h 0.816378l 0.0453543, -0.019632h 1.0885l 0.0453543, -0.0014528h 0.226772" fill="none" stroke="#00aa00" stroke-width="3"/>
<path d="M157.222,151.402h 0.861732l 0.0453543, -0.101429h 1.0885l 0.0453543, -0.033338h 0.181417" fill="none" stroke="#00aa00" stroke-width="3"/>
<path d="M159.444,151.268h 0.907087l 0.0453543, -0.0120621h 1.0885l 0.0453543, -0.0333953h 0.136063" fill="none" stroke="#00aa00" stroke-width="3"/>
<path d="M161.667,151.222h 0.952441l 0.0453543, -0.0334145h 1.0885l 0.0453543, -0.0531802h 0.0907087" fill="none" stroke="#00aa00" stroke-width="3"/>
<path d="M163.889,151.135h 0.997795l 0.0453543, -0.0167072h 1.0885l 0.0453543, 0.0303559h 0.0453543" fill="none" stroke="#00aa00" stroke-width="3"/>
<path d="M166.111,151.149h 2.17701l 0.0453543, -0.0167072" fill="none" stroke="#00aa00" stroke-width="3"/>
<path d="M168.334,151.132h 1.0885l 0.0453543, -1.99238h 1.0885" fill="none" stroke="#00aa00" stroke-width="3"/>
<path d="M170.556,149.14l 0.0453543, -0.115345h 1.0885l 0.0453543, 0.00950056h 1.04315" fill="none" stroke="#00aa00" stroke-width="3"/>
<path d="M172.778,149.034h 0.0453543l 0.0453543, -0.183913h 1.0885l 0.0453543, -0.0253858h 0.997795" fill="none" stroke="#00aa00" stroke-width="3"/>
<path d="M175.001,148.825h 0.0907087l 0.0453543, -0.1362h 1.0885l 0.0453543, -0.0406976h 0.952441" fill="none" stroke="#00aa00" stroke-width="3"/>
<path d="M177.223,148.648h 0.136063l 0.0453543, -3.81726h 1.0885l 0.0453543, -0.0326307h 0.907087" fill="none" stroke="#00aa00" stroke-width="3"/>
<path d="M179.446,144.798h 0.181417l 0.0453543, -0.172253h 1.0885l 0.0453543, 0.0356701h 0.861732" fill="none" stroke="#00aa00" stroke-width="3"/>
<path d="M181.668,144.661h 0.226772l 0.0453543, 0.0504467h 1.0885l 0.0453543, -0.0159426h 0.816378" fill="none" stroke="#00aa00" stroke-width="3"/>
<path d="M183.89,144.696h 0.272126l 0.0453543, -0.0255961h 1.0885l 0.0453543, -0.162771h 0.771024" fill="none" stroke="#00aa00" stroke-width="3"/>
<path d="M186.113,144.508h 0.31748l 0.0453543, -0.106743h 1.0885l 0.0453543, 0.0730798h 0.725669" fill="none" stroke="#00aa00" stroke-width="3"/>
<path d="M188.335,144.474h 0.362835l 0.0453543, -0.161299h 1.0885l 0.0453543, -0.671577h 0.680315" fill="none" stroke="#00aa00" stroke-width="3"/>
<path d="M190.557,143.641h 0.408189l 0.0453543, -0.0266666h 1.0885l 0.0453543, -0.296257h 0.634961" fill="none" stroke="#00aa00" stroke-width="3"/>
<path d="M192.78,143.318h 0.453543l 0.0453543, -0.962252h 1.0885l 0.0453543, -0.115727h 0.589606" fill="none" stroke="#00aa00" stroke-width="3"/>
<path d="M195.002,142.24h 0.498898l 0.0453543, 0.055455h 1.0885l 0.0453543, -0.32279h 0.544252" fill="none" stroke="#00aa00" stroke-width="3"/>
<path d="M197.224,141.973h 0.544252l 0.0453543, -0.111082h 1.0885l 0.0453543, 0.162236h 0.498898" fill="none" stroke="#00aa00" stroke-width="3"/>
<path d="M199.447,142.024h 0.589606l 0.0453543, 0.299641h 1.0885l 0.0453543, 0.324988h 0.453543" fill="none" stroke="#00aa00" stroke-width="3"/>
<path d="M201.669,142.649h 0.634961l 0.0453543, 0.0250226h 1.0885l 0.0453543, 0.0624896h 0.408189" fill="none" stroke="#00aa00" stroke-width="3"/>
<path d="M203.891,142.736h 0.680315l 0.0453543, -0.0294001h 1.0885l 0.0453543, -0.117276h 0.362835" fill="none" stroke="#00aa00" stroke-width="3"/>
<path d="M206.114,142.589h 0.725669l 0.0453543, 0.0249461h 1.0885l 0.0453543, -0.0296869h 0.31748" fill="none" stroke="#00aa00" stroke-width="3"/>
<path d="M208.336,142.585h 0.771024l 0.0453543, -0.00850654h 1.0885l 0.0453543, -0.0209701h 0.272126" fill="none" stroke="#00aa00" stroke-width="3"/>
<path d="M210.559,142.555h 0.816378l 0.0453543, 0.0291899h 1.36063" fill="none" stroke="#00aa00" stroke-width="3"/>
<path d="M212.781,142.584h 0.861732l 0.0453543, 0.0167263h 1.0885l 0.0453543, -0.189514h 0.181417" fill="none" stroke="#00aa00" stroke-width="3"/>
<path d="M215.003,142.412h 0.907087l 0.0453543, 0.0196128h 1.0885l 0.0453543, -0.127828h 0.136063" fill="none" stroke="#00aa00" stroke-width="3"/>
<path d="M217.226,142.303h 0.952441l 0.0453543, -0.401795h 1.0885l 0.0453543, -0.165658h 0.0907087" fill="none" stroke="#00aa00" stroke-width="3"/>
<path d="M219.448,141.736h 0.997795l 0.0453543, -0.053314h 1.0885l 0.0453543, -0.151761h 0.0453543" fill="none" stroke="#00aa00" stroke-width="3"/>
<path d="M221.67,141.531h 1.04315l 0.0453543, -0.243708h 1.0885l 0.0453543, -0.0216391" fill="none" stroke="#00aa00" stroke-width="3"/>
<path d="M223.893,141.266h 1.0885l 0.0453543, 0.0255387h 1.0885" fill="none" stroke="#00aa00" stroke-width="3"/>
<path d="M226.115,141.291l 0.0453543, -0.0593737h 1.0885l 0.0453543, 0.0753928h 1.04315" fill="none" stroke="#00aa00" stroke-width="3"/>
<path d="M228.337,141.307h 0.0453543l 0.0453543, -0.0915457h 1.0885l 0.0453543, 0.00546713h 0.997795" fill="none" stroke="#00aa00" stroke-width="3"/>
<path d="M230.56,141.221h 0.0907087l 0.0453543, -0.0371803h 1.0885l 0.0453543, -0.0507143h 0.952441" fill="none" stroke="#00aa00" stroke-width="3"/>
<path d="M232.782,141.133h 0.136063l 0.0453543, -0.109323h 1.0885l 0.0453543, -0.0267239h 0.907087" fill="none" stroke="#00aa00" stroke-width="3"/>
<path d="M235.005,140.997h 0.181417l 0.0453543, 0.00737871h 1.0885l 0.0453543, -0.0951395h 0.861732" fill="none" stroke="#00aa00" stroke-width="3"/>
<path d="M237.227,140.909h 0.226772l 0.0453543, -0.139431h 1.0885l 0.0453543, 0.0193452h 0.816378" fill="none" stroke="#00aa00" stroke-width="3"/>
<path d="M239.449,140.789h 0.272126l 0.0453543, -0.107966h 1.0885l 0.0453543, -0.0982553h 0.771024" fill="none" stroke="#00aa00" stroke-width="3"/>
<path d="M241.672,140.583h 0.31748l 0.0453543, -0.108444h 1.0885l 0.0453543, -0.0472543h 0.725669" fill="none" stroke="#00aa00" stroke-width="3"/>
<path d="M243.894,140.427h 0.362835l 0.0453543, -0.478393h 1.0885l 0.0453543, 0.00168219h 0.680315" fill="none" stroke="#00aa00" stroke-width="3"/>
<path d="M246.116,139.951h 0.408189l 0.0453543, -0.0223846h 1.0885l 0.0453543, -0.709254h 0.634961" fill="none" stroke="#00aa00" stroke-width="3"/>
<path d="M248.339,139.219h 0.453543l 0.0453543, 0.0172425h 1.0885l 0.0453543, -0.0427621h 0.589606" fill="none" stroke="#00aa00" stroke-width="3"/>
<path d="M250.561,139.193h 0.498898l 0.0453543, -0.597217h 1.0885l 0.0453543, -0.0912972h 0.544252" fill="none" stroke="#00aa00" stroke-width="3"/>
<path d="M252.783,138.505h 0.544252l 0.0453543, -0.319636h 1.0885l 0.0453543, -0.326842h 0.498898" fill="none" stroke="#00aa00" stroke-width="3"/>
<path d="M255.006,137.858h 0.589606l 0.0453543, -0.0918324h 1.0885l 0.0453543, -0.799519h 0.453543" fill="none" stroke="#00aa00" stroke-width="3"/>
<path d="M257.228,136.967h 0.634961l 0.0453543, -0.268807h 1.0885l 0.0453543, -0.30505h 0.408189" fill="none" stroke="#00aa00" stroke-width="3"/>
<path d="M259.451,136.393h 0.680315l 0.0453543, -0.484586h 1.0885l 0.0453543, -0.0893282h 0.362835" fill="none" stroke="#00aa00" stroke-width="3"/>
<path d="M261.673,135.819h 0.725669l 0.0453543, -1.36464h 1.0885l 0.0453543, -0.91452h 0.31748" fill="none" stroke="#00aa00" stroke-width="3"/>
<path d="M263.895,133.54h 0.771024l 0.0453543, -0.673317h 1.0885l 0.0453543, -1.86003h 0.272126" fill="none" stroke="#00aa00" stroke-width="3"/>
<path d="M266.118,131.007h 0.816378l 0.0453543, -0.215971h 1.0885l 0.0453543, -0.145854h 0.226772" fill="none" stroke="#00aa00" stroke-width="3"/>
<path d="M268.34,130.645h 0.861732l 0.0453543, -0.203278h 1.0885l 0.0453543, 0.0989435h 0.181417" fill="none" stroke="#00aa00" stroke-width="3"/>
<path d="M270.562,130.541h 0.907087l 0.0453543, -0.269782h 1.0885l 0.0453543, -0.352056h 0.136063" fill="none" stroke="#00aa00" stroke-width="3"/>
<path d="M272.785,129.919h 0.952441l 0.0453543, -0.197562h 1.0885l 0.0453543, -0.221744h 0.0907087" fill="none" stroke="#00aa00" stroke-width="3"/>
<path d="M275.007,129.5h 0.997795l 0.0453543, -0.255292h 1.0885l 0.0453543, -0.283583h 0.0453543" fill="none" stroke="#00aa00" stroke-width="3"/>
<path d="M277.229,128.961h 1.04315l 0.0453543, -0.190738h 1.0885l 0.0453543, -0.08648" fill="none" stroke="#00aa00" stroke-width="3"/>
<path d="M279.452,128.683h 1.0885l 0.0453543, -0.195325h 1.0885" fill="none" stroke="#00aa00" stroke-width="3"/>
<path d="M281.674,128.488l 0.0453543, -0.0501599h 1.0885l 0.0453543, -0.0319234h 1.04315" fill="none" stroke="#00aa00" stroke-width="3"/>
<path d="M283.897,128.406h 0.0453543l 0.0453543, -0.07048h 1.0885l 0.0453543, -0.0759663h 0.997795" fill="none" stroke="#00aa00" stroke-width="3"/>
<path d="M286.119,128.26h 0.0907087l 0.0453543, -0.0323822h 1.0885l 0.0453543, -0.193051h 0.952441" fill="none" stroke="#00aa00" stroke-width="3"/>
<path d="M288.341,128.034h 1.26992l 0.0453543, 0.0112783h 0.907087" fill="none" stroke="#00aa00" stroke-width="3"/>
<path d="M290.564,128.045h 0.181417l 0.0453543, 0.0383272h 1.0885l 0.0453543, -0.233844h 0.861732" fill="none" stroke="#00aa00" stroke-width="3"/>
<path d="M292.786,127.85h 0.226772l 0.0453543, -0.0357657h 1.0885l 0.0453543, -0.00739782h 0.816378" fill="none" stroke="#00aa00" stroke-width="3"/>
<path d="M295.008,127.807h 0.272126l 0.0453543, -0.144535h 1.0885l 0.0453543, 0.0468911h 0.771024" fill="none" stroke="#00aa00" stroke-width="3"/>
<path d="M297.231,127.709h 0.31748l 0.0453543, -0.115345h 1.0885l 0.0453543, -0.0545183h 0.725669" fill="none" stroke="#00aa00" stroke-width="3"/>
<path d="M299.453,127.539h 0.362835l 0.0453543, -0.0262269h 1.0885l 0.0453543, 0.0185615h 0.680315" fill="none" stroke="#00aa00" stroke-width="3"/>
<path d="M301.675,127.532h 0.408189l 0.0453543, -0.072124h 1.0885l 0.0453543, -0.278001h 0.634961" fill="none" stroke="#00aa00" stroke-width="3"/>
<path d="M303.898,127.181h 0.453543l 0.0453543, -0.20949h 1.0885l 0.0453543, -0.14939h 0.589606" fill="none" stroke="#00aa00" stroke-width="3"/>
<path d="M306.12,126.823h 0.498898l 0.0453543, -0.165371h 1.0885l 0.0453543, -0.175521h 0.544252" fill="none" stroke="#00aa00" stroke-width="3"/>
<path d="M308.343,126.482h 0.544252l 0.0453543, -0.923677h 1.0885l 0.0453543, -0.0755648h 0.498898" fill="none" stroke="#00aa00" stroke-width="3"/>
<path d="M310.565,125.482h 0.589606l 0.0453543, -0.0472734h 1.0885l 0.0453543, 0.112401h 0.453543" fill="none" stroke="#00aa00" stroke-width="3"/>
<path d="M312.787,125.548h 0.634961l 0.0453543, -0.0473499h 1.0885l 0.0453543, -0.0283679h 0.408189" fill="none" stroke="#00aa00" stroke-width="3"/>
<path d="M315.01,125.472h 0.680315l 0.0453543, -0.0283679h 1.0885l 0.0453543, -0.104277h 0.362835" fill="none" stroke="#00aa00" stroke-width="3"/>
<path d="M317.232,125.339h 0.725669l 0.0453543, 0.0754119h 1.0885l 0.0453543, -0.132893h 0.31748" fill="none" stroke="#00aa00" stroke-width="3"/>
<path d="M319.454,125.282h 0.771024l 0.0453543, -0.218647h 1.0885l 0.0453543, -0.0768838h 0.272126" fill="none" stroke="#00aa00" stroke-width="3"/>
<path d="M321.677,124.986h 0.816378l 0.0453543, -0.0193643h 1.0885l 0.0453543, -0.259478h 0.226772" fill="none" stroke="#00aa00" stroke-width="3"/>
<path d="M323.899,124.707h 0.861732l 0.0453543, -0.0580548h 1.0885l 0.0453543, -0.252214h 0.181417" fill="none" stroke="#00aa00" stroke-width="3"/>
<path d="M326.121,124.397h 0.907087l 0.0453543, -0.194962h 1.0885l 0.0453543, -0.145815h 0.136063" fill="none" stroke="#00aa00" stroke-width="3"/>
<path d="M328.344,124.056h 0.952441l 0.0453543, -0.239101h 1.0885l 0.0453543, 0.115995h 0.0907087" fill="none" stroke="#00aa00" stroke-width="3"/>
<path d="M330.566,123.933h 0.997795l 0.0453543, -0.0317132h 1.0885l 0.0453543, -0.182805h 0.0453543" fill="none" stroke="#00aa00" stroke-width="3"/>
<path d="M332.789,123.719h 1.04315l 0.0453543, -0.100607h 1.0885l 0.0453543, -0.574966" fill="none" stroke="#00aa00" stroke-width="3"/>
<path d="M335.011,123.043h 1.0885l 0.0453543, -0.215187h 1.0885" fill="none" stroke="#00aa00" stroke-width="3"/>
<path d="M337.233,122.828l 0.0453543, 0.0857536h 1.0885l 0.0453543, -0.0624323h 1.04315" fill="none" stroke="#00aa00" stroke-width="3"/>
<path d="M339.456,122.851h 0.0453543l 0.0453543, -0.0509437h 1.0885l 0.0453543, -0.16518h 0.997795" fill="none" stroke="#00aa00" stroke-width="3"/>
<path d="M341.678,122.635h 0.0907087l 0.0453543, -0.45121h 1.0885l 0.0453543, -0.100243h 0.952441" fill="none" stroke="#00aa00" stroke-width="3"/>
<path d="M343.9,122.084h 0.136063l 0.0453543, -0.288018h 1.0885l 0.0453543, -0.274064h 0.907087" fill="none" stroke="#00aa00" stroke-width="3"/>
<path d="M346.123,121.522h 0.181417l 0.0453543, 0.141629h 1.0885l 0.0453543, -0.0998037h 0.861732" fill="none" stroke="#00aa00" stroke-width="3"/>
<path d="M348.345,121.563h 0.226772l 0.0453543, 0.0322866h 1.0885l 0.0453543, -0.277791h 0.816378" fill="none" stroke="#00aa00" stroke-width="3"/>
<path d="M350.567,121.318h 0.272126l 0.0453543, -0.100511h 1.0885l 0.0453543, -0.239884h 0.771024" fill="none" stroke="#00aa00" stroke-width="3"/>
<path d="M352.79,120.978h 0.31748l 0.0453543, -0.532777h 1.0885l 0.0453543, 0.009902h 0.725669" fill="none" stroke="#00aa00" stroke-width="3"/>
<path d="M355.012,120.455h 0.362835l 0.0453543, -1.01153h 1.0885l 0.0453543, -0.337509h 0.680315" fill="none" stroke="#00aa00" stroke-width="3"/>
<path d="M357.234,119.106h 0.408189l 0.0453543, 0.11632h 1.0885l 0.0453543, -0.145701h 0.634961" fill="none" stroke="#00aa00" stroke-width="3"/>
<path d="M359.457,119.076h 0.453543l 0.0453543, -0.224764h 1.0885l 0.0453543, -0.138819h 0.589606" fill="none" stroke="#00aa00" stroke-width="3"/>
<path d="M361.679,118.713h 0.498898l 0.0453543, -0.0436032h 1.0885l 0.0453543, -0.159063h 0.544252" fill="none" stroke="#00aa00" stroke-width="3"/>
<path d="M363.902,118.51h 0.544252l 0.0453543, -0.191846h 1.0885l 0.0453543, -0.0191732h 0.498898" fill="none" stroke="#00aa00" stroke-width="3"/>
<path d="M366.124,118.299h 0.589606l 0.0453543, -0.134518h 1.0885l 0.0453543, -0.236577h 0.453543" fill="none" stroke="#00aa00" stroke-width="3"/>
<path d="M368.346,117.928h 0.634961l 0.0453543, -0.252157h 1.0885l 0.0453543, -0.00311588h 0.408189" fill="none" stroke="#00aa00" stroke-width="3"/>
<path d="M370.569,117.673h 0.680315l 0.0453543, 0.20647h 1.0885l 0.0453543, -0.0499688h 0.362835" fill="none" stroke="#00aa00" stroke-width="3"/>
<path d="M372.791,117.829h 0.725669l 0.0453543, -0.0328983h 1.0885l 0.0453543, -0.269151h 0.31748" fill="none" stroke="#00aa00" stroke-width="3"/>
<path d="M375.013,117.527h 0.771024l 0.0453543, 0.0475602h 1.0885l 0.0453543, -0.0499114h 0.272126" fill="none" stroke="#00aa00" stroke-width="3"/>
<path d="M377.236,117.525h 0.816378l 0.0453543, 0.107316h 1.0885l 0.0453543, -0.0146236h 0.226772" fill="none" stroke="#00aa00" stroke-width="3"/>
<path d="M379.458,117.617h 0.861732l 0.0453543, 0.0475793h 1.0885l 0.0453543, -0.050007h 0.181417" fill="none" stroke="#00aa00" stroke-width="3"/>
<path d="M381.68,117.615h 0.907087l 0.0453543, -1.49371h 1.0885l 0.0453543, -0.165333h 0.136063" fill="none" stroke="#00aa00" stroke-width="3"/>
<path d="M383.903,115.956h 0.952441l 0.0453543, -0.036473h 1.0885l 0.0453543, -0.981884h 0.0907087" fill="none" stroke="#00aa00" stroke-width="3"/>
<path d="M386.125,114.938h 0.997795l 0.0453543, -0.572175h 1.0885l 0.0453543, -0.0877799h 0.0453543" fill="none" stroke="#00aa00" stroke-width="3"/>
<path d="M388.348,114.278h 1.04315l 0.0453543, -0.794339h 1.0885l 0.0453543, -0.302355" fill="none" stroke="#00aa00" stroke-width="3"/>
<path d="M390.57,113.181h 1.0885l 0.0453543, -0.262747h 1.0885" fill="none" stroke="#00aa00" stroke-width="3"/>
<path d="M392.792,112.918l 0.0453543, -7.45227h 1.0885l 0.0453543, -1.25507h 1.04315" fill="none" stroke="#00aa00" stroke-width="3"/>
<path d="M395.015,104.211h 0.0453543l 0.0453543, -0.40256h 1.0885l 0.0453543, -0.675228h 0.997795" fill="none" stroke="#00aa00" stroke-width="3"/>
<path d="M397.237,103.133h 0.0907087l 0.0453543, -0.0425327h 1.0885l 0.0453543, -0.617231h 0.952441" fill="none" stroke="#00aa00" stroke-width="3"/>
<path d="M399.459,102.473h 0.136063l 0.0453543, -0.416515h 1.0885l 0.0453543, -0.0706903h 0.907087" fill="none" stroke="#00aa00" stroke-width="3"/>
<path d="M401.682,101.986h 0.181417l 0.0453543, -0.446794h 1.0885l 0.0453543, -0.147459h 0.861732" fill="none" stroke="#00aa00" stroke-width="3"/>
<path d="M403.904,101.392h 0.226772l 0.0453543, -1.54506h 1.0885l 0.0453543, -1.11017h 0.816378" fill="none" stroke="#00aa00" stroke-width="3"/>
<path d="M406.126,98.7366h 0.272126l 0.0453543, 0.00995934h 1.0885l 0.0453543, -0.447024h 0.771024" fill="none" stroke="#00aa00" stroke-width="3"/>
<path d="M408.349,98.2995h 0.31748l 0.0453543, -0.413609h 1.0885l 0.0453543, -0.0837655h 0.725669" fill="none" stroke="#00aa00" stroke-width="3"/>
<path d="M410.571,97.8022h 0.362835l 0.0453543, -0.806267h 1.0885l 0.0453543, -0.14054h 0.680315" fill="none" stroke="#00aa00" stroke-width="3"/>
<path d="M412.794,96.8553h 0.408189l 0.0453543, -0.0308912h 1.0885l 0.0453543, -0.655692h 0.634961" fill="none" stroke="#00aa00" stroke-width="3"/>
<path d="M415.016,96.1688h 0.453543l 0.0453543, -0.0770559h 1.0885l 0.0453543, -0.0181791h 0.589606" fill="none" stroke="#00aa00" stroke-width="3"/>
<path d="M417.238,96.0735h 0.498898l 0.0453543, -0.190661h 1.0885l 0.0453543, 0.0781837h 0.544252" fill="none" stroke="#00aa00" stroke-width="3"/>
<path d="M419.461,95.9611h 0.544252l 0.0453543, 0.0127885h 1.0885l 0.0453543, -0.0721813h 0.498898" fill="none" stroke="#00aa00" stroke-width="3"/>
<path d="M421.683,95.9017h 0.589606l 0.0453543, 0.0448075h 1.0885l 0.0453543, -0.444863h 0.453543" fill="none" stroke="#00aa00" stroke-width="3"/>
<path d="M423.905,95.5016h 0.634961l 0.0453543, -0.099364h 1.0885l 0.0453543, 0.194637h 0.408189" fill="none" stroke="#00aa00" stroke-width="3"/>
<path d="M426.128,95.5969h 0.680315l 0.0453543, 0.105233h 1.0885l 0.0453543, 0.138647h 0.362835" fill="none" stroke="#00aa00" stroke-width="3"/>
<path d="M428.35,95.8408h 0.725669l 0.0453543, -0.199493h 1.0885l 0.0453543, -0.0338541h 0.31748" fill="none" stroke="#00aa00" stroke-width="3"/>
<path d="M430.572,95.6074h 0.771024l 0.0453543, -0.250073h 1.0885l 0.0453543, 0.0446354h 0.272126" fill="none" stroke="#00aa00" stroke-width="3"/>
<path d="M432.795,95.402h 0.816378l 0.0453543, -0.17686h 1.0885l 0.0453543, -0.291631h 0.226772" fill="none" stroke="#00aa00" stroke-width="3"/>
<path d="M435.017,94.9335h 0.861732l 0.0453543, -0.249328h 1.0885l 0.0453543, -0.41424h 0.181417" fill="none" stroke="#00aa00" stroke-width="3"/>
<path d="M437.24,94.2699h 0.907087l 0.0453543, 0.718755h 1.0885l 0.0453543, -0.0171851h 0.136063" fill="none" stroke="#00aa00" stroke-width="3"/>
<path d="M439.462,94.9715h 0.952441l 0.0453543, -0.370082h 1.0885l 0.0453543, -0.0484013h 0.0907087" fill="none" stroke="#00aa00" stroke-width="3"/>
<path d="M441.684,94.553h 0.997795l 0.0453543, -0.012215h 1.0885l 0.0453543, 0.277027h 0.0453543" fill="none" stroke="#00aa00" stroke-width="3"/>
<path d="M443.907,94.8178h 1.04315l 0.0453543, 0.013037h 1.0885l 0.0453543, -0.0177395" fill="none" stroke="#00aa00" stroke-width="3"/>
<path d="M446.129,94.8131h 1.0885l 0.0453543, 0.0823701h 1.0885" fill="none" stroke="#00aa00" stroke-width="3"/>
<path d="M448.351,94.8955l 0.0453543, -0.214269h 1.0885l 0.0453543, 0.138991h 1.04315" fill="none" stroke="#00aa00" stroke-width="3"/>
<path d="M450.574,94.8202h 0.0453543l 0.0453543, -0.933999h 1.0885l 0.0453543, 0.0163631h 0.997795" fill="none" stroke="#00aa00" stroke-width="3"/>
<path d="M452.796,93.9026h 0.0907087l 0.0453543, -0.146561h 1.0885l 0.0453543, 0.102021h 0.952441" fill="none" stroke="#00aa00" stroke-width="3"/>
<path d="M455.018,93.858h 0.136063l 0.0453543, -0.418101h 1.0885l 0.0453543, -0.465336h 0.907087" fill="none" stroke="#00aa00" stroke-width="3"/>
<path d="M457.241,92.9746h 0.181417l 0.0453543, -0.602359h 1.0885l 0.0453543, 0.0532758h 0.861732" fill="none" stroke="#00aa00" stroke-width="3"/>
<path d="M459.463,92.4255h 0.226772l 0.0453543, -0.254757h 1.0885l 0.0453543, 0.00129988h 0.816378" fill="none" stroke="#00aa00" stroke-width="3"/>
<path d="M461.686,92.1721h 0.272126l 0.0453543, 0.0022939h 1.0885l 0.0453543, 0.0185615h 0.771024" fill="none" stroke="#00aa00" stroke-width="3"/>
<path d="M463.908,92.1929h 0.31748l 0.0453543, -0.715008h 1.0885l 0.0453543, -0.105863h 0.725669" fill="none" stroke="#00aa00" stroke-width="3"/>
<path d="M466.13,91.372h 0.362835l 0.0453543, 0.0781073h 1.0885l 0.0453543, 0.0252138h 0.680315" fill="none" stroke="#00aa00" stroke-width="3"/>
<path d="M468.353,91.4753h 0.408189l 0.0453543, -0.122188h 1.0885l 0.0453543, 0.0781837h 0.634961" fill="none" stroke="#00aa00" stroke-width="3"/>
<path d="M470.575,91.4314h 0.453543l 0.0453543, -0.0792351h 1.0885l 0.0453543, 0.0952541h 0.589606" fill="none" stroke="#00aa00" stroke-width="3"/>
<path d="M472.797,91.4474h 0.498898l 0.0453543, 0.0431253h 1.0885l 0.0453543, -0.0703462h 0.544252" fill="none" stroke="#00aa00" stroke-width="3"/>
<path d="M475.02,91.4201h 0.544252l 0.0453543, -0.157916h 1.0885l 0.0453543, 0.190585h 0.498898" fill="none" stroke="#00aa00" stroke-width="3"/>
<path d="M477.242,91.4528h 0.589606l 0.0453543, -0.408543h 1.0885l 0.0453543, -0.0735195h 0.453543" fill="none" stroke="#00aa00" stroke-width="3"/>
<path d="M479.464,90.9707h 0.634961l 0.0453543, 1.25627h 1.0885l 0.0453543, 0.0743223h 0.408189" fill="none" stroke="#00aa00" stroke-width="3"/>
<path d="M481.687,92.3013h 0.680315l 0.0453543, 0.0167263h 1.49669" fill="none" stroke="#00aa00" stroke-width="3"/>
<path d="M483.909,92.3181h 0.725669l 0.0453543, -0.0359377h 1.0885l 0.0453543, -0.084339h 0.31748" fill="none" stroke="#00aa00" stroke-width="3"/>
<path d="M486.132,92.1978h 1.90488l 0.0453543, -0.306102h 0.272126" fill="none" stroke="#00aa00" stroke-width="3"/>
<path d="M488.354,91.8917h 0.816378l 0.0453543, -0.182785h 1.0885l 0.0453543, -0.326078h 0.226772" fill="none" stroke="#00aa00" stroke-width="3"/>
<path d="M490.576,91.3828h 0.861732l 0.0453543, -2.06734h 1.0885l 0.0453543, 0.159598h 0.181417" fill="none" stroke="#00aa00" stroke-width="3"/>
<path d="M492.799,89.4751h 0.907087l 0.0453543, -0.116454h 1.0885l 0.0453543, -1.63198h 0.136063" fill="none" stroke="#00aa00" stroke-width="3"/>
<path d="M495.021,87.7267h 0.952441l 0.0453543, 0.123565h 1.0885l 0.0453543, -0.0136105h 0.0907087" fill="none" stroke="#00aa00" stroke-width="3"/>
<path d="M497.243,87.8366h 0.997795l 0.0453543, 0.39824h 1.0885l 0.0453543, 0.0962099h 0.0453543" fill="none" stroke="#00aa00" stroke-width="3"/>
<path d="M499.466,88.3311h 1.04315l 0.0453543, 0.122857h 1.0885l 0.0453543, -0.251698" fill="none" stroke="#00aa00" stroke-width="3"/>
<path d="M501.688,88.2022h 1.0885l 0.0453543, -0.915858h 1.0885" fill="none" stroke="#00aa00" stroke-width="3"/>
<path d="M503.91,87.2864l 0.0453543, -0.66827h 1.0885l 0.0453543, -1.16459h 1.04315" fill="none" stroke="#00aa00" stroke-width="3"/>
<path d="M506.133,85.4535h 0.0453543l 0.0453543, -0.393098h 1.0885l 0.0453543, 0.89311h 0.997795" fill="none" stroke="#00aa00" stroke-width="3"/>
<path d="M508.355,85.9535h 0.0907087l 0.0453543, -0.122494h 1.0885l 0.0453543, 0.334909h 0.952441" fill="none" stroke="#00aa00" stroke-width="3"/>
<path d="M510.577,86.1659h 0.15874" fill="none" stroke="#00aa00" stroke-width="3"/>
<path d="M57.1929,238.452h 453.543" fill="none" stroke="black"/>
<path d="M57.1929,232.093v 6.35872" fill="none" stroke="black"/>
<path d="M79.87,235.273v 3.17936" fill="none" stroke="black"/>
<path d="M102.547,235.273v 3.17936" fill="none" stroke="black"/>
<path d="M125.224,235.273v 3.17936" fill="none" stroke="black"/>
<path d="M147.901,235.273v 3.17936" fill="none" stroke="black"/>
<path d="M170.578,232.093v 6.35872" fill="none" stroke="black"/>
<path d="M193.255,235.273v 3.17936" fill="none" stroke="black"/>
<path d="M215.932,235.273v 3.17936" fill="none" stroke="black"/>
<path d="M238.609,235.273v 3.17936" fill="none" stroke="black"/>
<path d="M261.286,235.273v 3.17936" fill="none" stroke="black"/>
<path d="M283.963,232.093v 6.35872" fill="none" stroke="black"/>
<path d="M306.64,235.273v 3.17936" fill="none" stroke="black"/>
<path d="M329.318,235.273v 3.17936" fill="none" stroke="black"/>
<path d="M351.995,235.273v 3.17936" fill="none" stroke="black"/>
<path d="M374.672,235.273v 3.17936" fill="none" stroke="black"/>
<path d="M397.349,232.093v 6.35872" fill="none" stroke="black"/>
<path d="M420.026,235.273v 3.17936" fill="none" stroke="black"/>
<path d="M442.703,235.273v 3.17936" fill="none" stroke="black"/>
<path d="M465.38,235.273v 3.17936" fill="none" stroke="black"/>
<path d="M488.057,235.273v 3.17936" fill="none" stroke="black"/>
<path d="M510.734,232.093v 6.35872" fill="none" stroke="black"/>
<path d="M510.734,232.093v 6.35872" fill="none" stroke="black"/>
<path d="M57.1929,238.452v -185.463" fill="none" stroke="black"/>
<path d="M69.0984,213.344h -11.9055" fill="none" stroke="black"/>
<path d="M63.1457,206.93h -5.95276" fill="none" stroke="black"/>
<path d="M63.1457,200.516h -5.95276" fill="none" stroke="black"/>
<path d="M63.1457,194.102h -5.95276" fill="none" stroke="black"/>
<path d="M63.1457,187.688h -5.95276" fill="none" stroke="black"/>
<path d="M69.0984,181.273h -11.9055" fill="none" stroke="black"/>
<path d="M63.1457,174.859h -5.95276" fill="none" stroke="black"/>
<path d="M63.1457,168.445h -5.95276" fill="none" stroke="black"/>
<path d="M63.1457,162.031h -5.95276" fill="none" stroke="black"/>
<path d="M63.1457,155.617h -5.95276" fill="none" stroke="black"/>
<path d="M69.0984,149.202h -11.9055" fill="none" stroke="black"/>
<path d="M63.1457,142.788h -5.95276" fill="none" stroke="black"/>
<path d="M63.1457,136.374h -5.95276" fill="none" stroke="black"/>
<path d="M63.1457,129.96h -5.95276" fill="none" stroke="black"/>
<path d="M63.1457,123.546h -5.95276" fill="none" stroke="black"/>
<path d="M69.0984,117.131h -11.9055" fill="none" stroke="black"/>
<path d="M63.1457,110.717h -5.95276" fill="none" stroke="black"/>
<path d="M63.1457,104.303h -5.95276" fill="none" stroke="black"/>
<path d="M63.1457,97.8888h -5.95276" fill="none" stroke="black"/>
<path d="M63.1457,91.4746h -5.95276" fill="none" stroke="black"/>
<path d="M69.0984,85.0604h -11.9055" fill="none" stroke="black"/>
<path d="M63.1457,78.6462h -5.95276" fill="none" stroke="black"/>
<path d="M63.1457,72.232h -5.95276" fill="none" stroke="black"/>
<path d="M63.1457,65.8178h -5.95276" fill="none" stroke="black"/>
<path d="M63.1457,59.4036h -5.95276" fill="none" stroke="black"/>
<path d="M69.0984,52.9894h -11.9055" fill="none" stroke="black"/>
<path d="M69.0984,213.344h -11.9055" fill="none" stroke="black"/>
<path d="M63.1457,219.759h -5.95276" fill="none" stroke="black"/>
<path d="M63.1457,226.173h -5.95276" fill="none" stroke="black"/>
<path d="M63.1457,232.587h -5.95276" fill="none" stroke="black"/>
<rect x="57.1929" y="21.1957" width="226.772" height="31.7936" fill="none" stroke="black"/>
<path d="M57.1929,52.9894h 226.772" fill="none" stroke="black"/>
<path d="M283.965,52.9894v -31.7936" fill="none" stroke="black"/>
<path d="M283.965,21.1957h -226.772" fill="none" stroke="black"/>
<path d="M57.1929,21.1957v 31.7936" fill="none" stroke="black"/>
<text xml:space="preserve" x="125.139" y="32.05" fill="black" font-size="13.5683" font-family="Helvetica">Signal efficiency</text>
<path d="M67.3976,29.1441h 47.622" fill="none" stroke="#0000ee" stroke-width="3"/>
<text xml:space="preserve" x="125.139" y="48.4311" fill="black" font-size="13.5683" font-family="Helvetica">Background efficiency</text>
<path d="M67.3976,45.041h 47.622" fill="none" stroke="#ff0000" stroke-width="3"/>
<rect x="283.965" y="21.1957" width="226.772" height="31.7936" fill="none" stroke="black"/>
<path d="M283.965,52.9894h 226.772" fill="none" stroke="black"/>
<path d="M510.736,52.9894v -31.7936" fill="none" stroke="black"/>
<path d="M510.736,21.1957h -226.772" fill="none" stroke="black"/>
<path d="M283.965,21.1957v 31.7936" fill="none" stroke="black"/>
<text xml:space="preserve" x="502.617" y="44.1578" fill="black" font-size="20.7455" font-family="Helvetica">}</text>
<text xml:space="preserve" x="489.085" y="44.1578" fill="black" font-size="20.7455" font-family="Helvetica">B</text>
<path d="M481.25,28.4889l 2.84889, 15.6689" fill="none" stroke="black" stroke-width="2"/>
<path d="M484.099,44.1578l 2.84889, -21.3667" fill="none" stroke="black"/>
<path d="M486.948,22.7911h 15.6689" fill="none" stroke="black"/>
<text xml:space="preserve" x="454.186" y="44.1578" fill="black" font-size="20.7455" font-family="Helvetica"> + </text>
<text xml:space="preserve" x="351.626" y="44.1578" fill="black" font-size="20.7455" font-family="Helvetica">eS / {{5./3.}</text>
<path d="M294.169,37.0925h 47.622" fill="none" stroke="#00aa00" stroke-width="3"/>
<text xml:space="preserve" x="181.405" y="13.5322" fill="black" font-size="13.8297" font-family="Helvetica">Signal Efficiency BDTB - MassID3</text>
<path d="M57.1929,85.0604h 453.543" fill="none" stroke="black"/>
<text xml:space="preserve" x="85.2545" y="203.696" fill="black" font-size="8.52133" font-family="Helvetica" font-weight="bold">For 112289 background</text>
<text xml:space="preserve" x="228.411" y="214.379" fill="black" font-size="8.52133" font-family="Helvetica" font-weight="bold"> is</text>
<text xml:space="preserve" x="225.562" y="214.379" fill="black" font-size="8.52133" font-family="Helvetica" font-weight="bold">}</text>
<text xml:space="preserve" x="219.865" y="214.379" fill="black" font-size="8.52133" font-family="Helvetica" font-weight="bold">B</text>
<path d="M216.303,207.969l 1.42445, 6.41" fill="none" stroke="black"/>
<path d="M217.728,214.379l 0.712223, -9.25889" fill="none" stroke="black"/>
<path d="M218.44,205.12h 7.12223" fill="none" stroke="black"/>
<text xml:space="preserve" x="205.62" y="214.379" fill="black" font-size="8.52133" font-family="Helvetica" font-weight="bold"> + </text>
<text xml:space="preserve" x="85.2545" y="214.379" fill="black" font-size="8.52133" font-family="Helvetica" font-weight="bold">events the maximum eS / {{5./3.}</text>
<text xml:space="preserve" x="85.2545" y="225.062" fill="black" font-size="8.52133" font-family="Helvetica" font-weight="bold">5.09e-03 when cutting at  0.98</text>
<path d="M510.736,238.452v -185.463" fill="none" stroke="#00aa00"/>
<path d="M498.831,238.452h 11.9055" fill="none" stroke="#00aa00"/>
<path d="M504.783,231.822h 5.95276" fill="none" stroke="#00aa00"/>
<path d="M504.783,225.191h 5.95276" fill="none" stroke="#00aa00"/>
<path d="M504.783,218.561h 5.95276" fill="none" stroke="#00aa00"/>
<path d="M504.783,211.93h 5.95276" fill="none" stroke="#00aa00"/>
<path d="M498.831,205.3h 11.9055" fill="none" stroke="#00aa00"/>
<path d="M504.783,198.669h 5.95276" fill="none" stroke="#00aa00"/>
<path d="M504.783,192.039h 5.95276" fill="none" stroke="#00aa00"/>
<path d="M504.783,185.409h 5.95276" fill="none" stroke="#00aa00"/>
<path d="M504.783,178.778h 5.95276" fill="none" stroke="#00aa00"/>
<path d="M498.831,172.148h 11.9055" fill="none" stroke="#00aa00"/>
<path d="M504.783,165.517h 5.95276" fill="none" stroke="#00aa00"/>
<path d="M504.783,158.887h 5.95276" fill="none" stroke="#00aa00"/>
<path d="M504.783,152.256h 5.95276" fill="none" stroke="#00aa00"/>
<path d="M504.783,145.626h 5.95276" fill="none" stroke="#00aa00"/>
<path d="M498.831,138.995h 11.9055" fill="none" stroke="#00aa00"/>
<path d="M504.783,132.365h 5.95276" fill="none" stroke="#00aa00"/>
<path d="M504.783,125.735h 5.95276" fill="none" stroke="#00aa00"/>
<path d="M504.783,119.104h 5.95276" fill="none" stroke="#00aa00"/>
<path d="M504.783,112.474h 5.95276" fill="none" stroke="#00aa00"/>
<path d="M498.831,105.843h 11.9055" fill="none" stroke="#00aa00"/>
<path d="M504.783,99.2127h 5.95276" fill="none" stroke="#00aa00"/>
<path d="M504.783,92.5823h 5.95276" fill="none" stroke="#00aa00"/>
<path d="M504.783,85.9518h 5.95276" fill="none" stroke="#00aa00"/>
<path d="M504.783,79.3214h 5.95276" fill="none" stroke="#00aa00"/>
<path d="M498.831,72.6909h 11.9055" fill="none" stroke="#00aa00"/>
<path d="M498.831,72.6909h 11.9055" fill="none" stroke="#00aa00"/>
<path d="M504.783,66.0605h 5.95276" fill="none" stroke="#00aa00"/>
<path d="M504.783,59.43h 5.95276" fill="none" stroke="#00aa00"/>
<text xml:space="preserve" x="513.3" y="242.156" fill="#00aa00" font-size="10.2228" font-family="Helvetica" font-weight="bold">0</text>
<text xml:space="preserve" x="513.3" y="209.393" fill="#00aa00" font-size="10.2228" font-family="Helvetica" font-weight="bold">0.001</text>
<text xml:space="preserve" x="513.3" y="175.919" fill="#00aa00" font-size="10.2228" font-family="Helvetica" font-weight="bold">0.002</text>
<text xml:space="preserve" x="513.3" y="143.157" fill="#00aa00" font-size="10.2228" font-family="Helvetica" font-weight="bold">0.003</text>
<text xml:space="preserve" x="513.3" y="109.682" fill="#00aa00" font-size="10.2228" font-family="Helvetica" font-weight="bold">0.004</text>
<text xml:space="preserve" x="513.3" y="76.92" fill="#00aa00" font-size="10.2228" font-family="Helvetica" font-weight="bold">0.005</text>
<g transform="rotate(-90,544.638,137.459)">
<text xml:space="preserve" x="544.638" y="137.459" fill="#00aa00" font-size="9.00747" font-family="Helvetica" font-weight="bold">Punzi Figure of Merit</text>
</g></svg>
