<?xml version="1.0" standalone="no"?>
<svg width="567.429" height="265.447" viewBox="0 0 567.429 265.447" xmlns="http://www.w3.org/2000/svg" shape-rendering="crispEdges">
<title>
punzi/BDTBm1.svg
</title>
<desc>
Creator: ROOT Version 6.26/02
CreationDate: Wed May  4 16:52:48 2022</desc>
<defs>
</defs>
<rect x="0.5" y="0" width="566.929" height="264.947" fill="white"/>
<rect x="57.1929" y="52.9894" width="453.543" height="185.463" fill="white"/>
<rect x="57.1929" y="52.9894" width="453.543" height="185.463" fill="none" stroke="black"/>
<rect x="57.1929" y="52.9894" width="453.543" height="185.463" fill="white"/>
<rect x="57.1929" y="52.9894" width="453.543" height="185.463" fill="none" stroke="black"/>
<path d="M57.1929,238.452h 453.543" fill="none" stroke="black"/>
<path d="M57.1929,52.9894v 185.463" fill="none" stroke="black" stroke-dasharray=" 1, 2"/>
<path d="M170.578,52.9894v 185.463" fill="none" stroke="black" stroke-dasharray=" 1, 2"/>
<path d="M283.963,52.9894v 185.463" fill="none" stroke="black" stroke-dasharray=" 1, 2"/>
<path d="M397.349,52.9894v 185.463" fill="none" stroke="black" stroke-dasharray=" 1, 2"/>
<path d="M510.734,52.9894v 185.463" fill="none" stroke="black" stroke-dasharray=" 1, 2"/>
<path d="M510.734,52.9894v 185.463" fill="none" stroke="black" stroke-dasharray=" 1, 2"/>
<path d="M57.1929,238.452v -185.463" fill="none" stroke="black"/>
<path d="M510.736,235.441h -453.543" fill="none" stroke="black" stroke-dasharray=" 1, 2"/>
<path d="M510.736,198.95h -453.543" fill="none" stroke="black" stroke-dasharray=" 1, 2"/>
<path d="M510.736,162.46h -453.543" fill="none" stroke="black" stroke-dasharray=" 1, 2"/>
<path d="M510.736,125.97h -453.543" fill="none" stroke="black" stroke-dasharray=" 1, 2"/>
<path d="M510.736,89.4796h -453.543" fill="none" stroke="black" stroke-dasharray=" 1, 2"/>
<path d="M510.736,52.9894h -453.543" fill="none" stroke="black" stroke-dasharray=" 1, 2"/>
<path d="M510.736,235.441h -453.543" fill="none" stroke="black" stroke-dasharray=" 1, 2"/>
<path d="M57.1929,89.4796l 0.0680315, 29.247h 1.04315l 0.0453543, 3.01045h 1.0885" fill="none" stroke="#0000ee" stroke-width="3"/>
<path d="M59.438,121.737l 0.0453543, 2.6273h 1.0885l 0.0453543, 1.67855h 1.04315" fill="none" stroke="#0000ee" stroke-width="3"/>
<path d="M61.6603,126.043h 0.0453543l 0.0453543, 0.0729806h 1.0885l 0.0453543, 0.930502h 0.997795" fill="none" stroke="#0000ee" stroke-width="3"/>
<path d="M63.8827,127.046h 0.0907087l 0.0453543, 0.930502h 1.0885l 0.0453543, 0.0182451h 0.952441" fill="none" stroke="#0000ee" stroke-width="3"/>
<path d="M66.105,127.995h 0.136063l 0.0453543, 0.474374h 1.0885l 0.0453543, 0.0182451h 0.907087" fill="none" stroke="#0000ee" stroke-width="3"/>
<path d="M68.3274,128.488h 0.181417l 0.0453543, 0.0364903h 1.99559" fill="none" stroke="#0000ee" stroke-width="3"/>
<path d="M70.5498,128.524h 0.226772l 0.0453543, 0.401393h 1.0885l 0.0453543, 0.0912257h 0.816378" fill="none" stroke="#0000ee" stroke-width="3"/>
<path d="M72.7721,129.017h 0.272126l 0.0453543, 0.0547354h 1.0885l 0.0453543, 1.44137h 0.771024" fill="none" stroke="#0000ee" stroke-width="3"/>
<path d="M74.9945,130.513h 0.31748l 0.0453543, 1.3319h 1.0885l 0.0453543, 0.948747h 0.725669" fill="none" stroke="#0000ee" stroke-width="3"/>
<path d="M77.2169,132.794h 0.362835l 0.0453543, 0.218942h 1.81417" fill="none" stroke="#0000ee" stroke-width="3"/>
<path d="M79.4392,133.013h 0.408189l 0.0453543, 0.0182451h 1.76882" fill="none" stroke="#0000ee" stroke-width="3"/>
<path d="M81.6616,133.031h 0.453543l 0.0453543, 0.0547354h 1.0885l 0.0453543, 0.0547354h 0.589606" fill="none" stroke="#0000ee" stroke-width="3"/>
<path d="M83.8839,133.14h 0.498898l 0.0453543, 0.200697h 1.0885l 0.0453543, 0.145961h 0.544252" fill="none" stroke="#0000ee" stroke-width="3"/>
<path d="M86.1063,133.487h 0.544252l 0.0453543, 0.0364903h 1.0885l 0.0453543, 0.127716h 0.498898" fill="none" stroke="#0000ee" stroke-width="3"/>
<path d="M88.3287,133.651h 1.72346l 0.0453543, 0.109471h 0.453543" fill="none" stroke="#0000ee" stroke-width="3"/>
<path d="M90.551,133.761h 0.634961l 0.0453543, 0.200697h 1.0885l 0.0453543, 0.145961h 0.408189" fill="none" stroke="#0000ee" stroke-width="3"/>
<path d="M92.7734,134.107h 0.680315l 0.0453543, 0.0912257h 1.0885l 0.0453543, 0.182451h 0.362835" fill="none" stroke="#0000ee" stroke-width="3"/>
<path d="M94.9958,134.381h 0.725669l 0.0453543, 0.218942h 1.0885l 0.0453543, 0.109471h 0.31748" fill="none" stroke="#0000ee" stroke-width="3"/>
<path d="M97.2181,134.709h 0.771024l 0.0453543, 0.0729806h 1.40598" fill="none" stroke="#0000ee" stroke-width="3"/>
<path d="M99.4405,134.782h 1.95024l 0.0453543, 0.0182451h 0.226772" fill="none" stroke="#0000ee" stroke-width="3"/>
<path d="M101.663,134.801h 0.861732l 0.0453543, 0.0364903h 1.0885l 0.0453543, 0.0912257h 0.181417" fill="none" stroke="#0000ee" stroke-width="3"/>
<path d="M103.885,134.928h 2.22236" fill="none" stroke="#0000ee" stroke-width="3"/>
<path d="M106.108,134.928h 0.952441l 0.0453543, 0.0364903h 1.22457" fill="none" stroke="#0000ee" stroke-width="3"/>
<path d="M108.33,134.965h 2.22236" fill="none" stroke="#0000ee" stroke-width="3"/>
<path d="M110.552,134.965h 1.04315l 0.0453543, 0.0182451h 1.0885l 0.0453543, 0.0547354" fill="none" stroke="#0000ee" stroke-width="3"/>
<path d="M112.775,135.038h 1.0885l 0.0453543, 0.0729806h 1.0885" fill="none" stroke="#0000ee" stroke-width="3"/>
<path d="M114.997,135.111l 0.0453543, 0.237187h 1.0885l 0.0453543, 0.383148h 1.04315" fill="none" stroke="#0000ee" stroke-width="3"/>
<path d="M117.219,135.731h 0.0453543l 0.0453543, 0.145961h 1.0885l 0.0453543, 0.164206h 0.997795" fill="none" stroke="#0000ee" stroke-width="3"/>
<path d="M119.442,136.041h 0.0907087l 0.0453543, 0.0364903h 1.0885l 0.0453543, 0.0364903h 0.952441" fill="none" stroke="#0000ee" stroke-width="3"/>
<path d="M121.664,136.114h 0.136063l 0.0453543, 0.0182451h 1.0885l 0.0453543, 0.0364903h 0.907087" fill="none" stroke="#0000ee" stroke-width="3"/>
<path d="M123.886,136.169h 1.31528l 0.0453543, 0.401393h 0.861732" fill="none" stroke="#0000ee" stroke-width="3"/>
<path d="M126.109,136.57h 0.226772l 0.0453543, 0.474374h 1.95024" fill="none" stroke="#0000ee" stroke-width="3"/>
<path d="M128.331,137.045h 0.272126l 0.0453543, 0.784541h 1.0885l 0.0453543, 0.894012h 0.771024" fill="none" stroke="#0000ee" stroke-width="3"/>
<path d="M130.554,138.723h 0.31748l 0.0453543, 0.109471h 1.85953" fill="none" stroke="#0000ee" stroke-width="3"/>
<path d="M132.776,138.833h 0.362835l 0.0453543, 0.0364903h 1.0885l 0.0453543, 0.291922h 0.680315" fill="none" stroke="#0000ee" stroke-width="3"/>
<path d="M134.998,139.161h 0.408189l 0.0453543, 0.474374h 1.0885l 0.0453543, 0.0547354h 0.634961" fill="none" stroke="#0000ee" stroke-width="3"/>
<path d="M137.221,139.69h 0.453543l 0.0453543, 0.164206h 1.0885l 0.0453543, 0.127716h 0.589606" fill="none" stroke="#0000ee" stroke-width="3"/>
<path d="M139.443,139.982h 0.498898l 0.0453543, 0.127716h 1.0885l 0.0453543, 0.419638h 0.544252" fill="none" stroke="#0000ee" stroke-width="3"/>
<path d="M141.665,140.53h 0.544252l 0.0453543, 0.693315h 1.0885l 0.0453543, 0.200697h 0.498898" fill="none" stroke="#0000ee" stroke-width="3"/>
<path d="M143.888,141.424h 0.589606l 0.0453543, 0.0364903h 1.0885l 0.0453543, 0.0547354h 0.453543" fill="none" stroke="#0000ee" stroke-width="3"/>
<path d="M146.11,141.515h 0.634961l 0.0453543, 0.875767h 1.0885l 0.0453543, 1.00348h 0.408189" fill="none" stroke="#0000ee" stroke-width="3"/>
<path d="M148.332,143.394h 0.680315l 0.0453543, 0.164206h 1.0885l 0.0453543, 0.0912257h 0.362835" fill="none" stroke="#0000ee" stroke-width="3"/>
<path d="M150.555,143.649h 0.725669l 0.0453543, 0.0912257h 1.0885l 0.0453543, 0.0547354h 0.31748" fill="none" stroke="#0000ee" stroke-width="3"/>
<path d="M152.777,143.795h 0.771024l 0.0453543, 0.0182451h 1.0885l 0.0453543, 0.0364903h 0.272126" fill="none" stroke="#0000ee" stroke-width="3"/>
<path d="M155,143.85h 1.95024l 0.0453543, 0.164206h 0.226772" fill="none" stroke="#0000ee" stroke-width="3"/>
<path d="M157.222,144.014h 0.861732l 0.0453543, 0.164206h 1.0885l 0.0453543, 0.0364903h 0.181417" fill="none" stroke="#0000ee" stroke-width="3"/>
<path d="M159.444,144.215h 0.907087l 0.0453543, 0.200697h 1.0885l 0.0453543, 0.237187h 0.136063" fill="none" stroke="#0000ee" stroke-width="3"/>
<path d="M161.667,144.653h 0.952441l 0.0453543, 0.0729806h 1.0885l 0.0453543, 0.127716h 0.0907087" fill="none" stroke="#0000ee" stroke-width="3"/>
<path d="M163.889,144.854h 0.997795l 0.0453543, 0.0547354h 1.0885l 0.0453543, 0.200697h 0.0453543" fill="none" stroke="#0000ee" stroke-width="3"/>
<path d="M166.111,145.109h 1.04315l 0.0453543, 0.127716h 1.0885l 0.0453543, 0.109471" fill="none" stroke="#0000ee" stroke-width="3"/>
<path d="M168.334,145.346h 1.0885l 0.0453543, 0.127716h 1.0885" fill="none" stroke="#0000ee" stroke-width="3"/>
<path d="M170.556,145.474l 0.0453543, 0.0547354h 1.0885l 0.0453543, 0.0912257h 1.04315" fill="none" stroke="#0000ee" stroke-width="3"/>
<path d="M172.778,145.62h 0.0453543l 0.0453543, 0.0912257h 1.0885l 0.0453543, 0.0182451h 0.997795" fill="none" stroke="#0000ee" stroke-width="3"/>
<path d="M175.001,145.729h 0.0907087l 0.0453543, 0.0912257h 1.0885l 0.0453543, 0.510864h 0.952441" fill="none" stroke="#0000ee" stroke-width="3"/>
<path d="M177.223,146.331h 0.136063l 0.0453543, 0.875767h 1.0885l 0.0453543, 0.419638h 0.907087" fill="none" stroke="#0000ee" stroke-width="3"/>
<path d="M179.446,147.627h 0.181417l 0.0453543, 0.437883h 1.0885l 0.0453543, 0.364903h 0.861732" fill="none" stroke="#0000ee" stroke-width="3"/>
<path d="M181.668,148.43h 0.226772l 0.0453543, 0.218942h 1.0885l 0.0453543, 0.529109h 0.816378" fill="none" stroke="#0000ee" stroke-width="3"/>
<path d="M183.89,149.178h 0.272126l 0.0453543, 0.948747h 1.0885l 0.0453543, 0.0912257h 0.771024" fill="none" stroke="#0000ee" stroke-width="3"/>
<path d="M186.113,150.218h 0.31748l 0.0453543, 0.109471h 1.0885l 0.0453543, 0.164206h 0.725669" fill="none" stroke="#0000ee" stroke-width="3"/>
<path d="M188.335,150.491h 0.362835l 0.0453543, 0.0729806h 1.0885l 0.0453543, 0.0364903h 0.680315" fill="none" stroke="#0000ee" stroke-width="3"/>
<path d="M190.557,150.601h 0.408189l 0.0453543, 0.0182451h 1.0885l 0.0453543, 0.0182451h 0.634961" fill="none" stroke="#0000ee" stroke-width="3"/>
<path d="M192.78,150.637h 1.5874l 0.0453543, 0.474374h 0.589606" fill="none" stroke="#0000ee" stroke-width="3"/>
<path d="M195.002,151.112h 0.498898l 0.0453543, 0.182451h 1.0885l 0.0453543, 0.0547354h 0.544252" fill="none" stroke="#0000ee" stroke-width="3"/>
<path d="M197.224,151.349h 0.544252l 0.0453543, 0.0912257h 1.63276" fill="none" stroke="#0000ee" stroke-width="3"/>
<path d="M199.447,151.44h 2.22236" fill="none" stroke="#0000ee" stroke-width="3"/>
<path d="M201.669,151.44h 2.22236" fill="none" stroke="#0000ee" stroke-width="3"/>
<path d="M203.891,151.44h 0.680315l 0.0453543, 0.0182451h 1.0885l 0.0453543, 0.0912257h 0.362835" fill="none" stroke="#0000ee" stroke-width="3"/>
<path d="M206.114,151.55h 0.725669l 0.0453543, 0.109471h 1.0885l 0.0453543, 0.0364903h 0.31748" fill="none" stroke="#0000ee" stroke-width="3"/>
<path d="M208.336,151.696h 1.90488l 0.0453543, 0.0547354h 0.272126" fill="none" stroke="#0000ee" stroke-width="3"/>
<path d="M210.559,151.75h 0.816378l 0.0453543, 0.0729806h 1.0885l 0.0453543, 0.930502h 0.226772" fill="none" stroke="#0000ee" stroke-width="3"/>
<path d="M212.781,152.754h 0.861732l 0.0453543, 0.474374h 1.0885l 0.0453543, 0.0182451h 0.181417" fill="none" stroke="#0000ee" stroke-width="3"/>
<path d="M215.003,153.246h 0.907087l 0.0453543, 0.0729806h 1.0885l 0.0453543, 0.0364903h 0.136063" fill="none" stroke="#0000ee" stroke-width="3"/>
<path d="M217.226,153.356h 0.952441l 0.0453543, 0.0182451h 1.0885l 0.0453543, 0.0912257h 0.0907087" fill="none" stroke="#0000ee" stroke-width="3"/>
<path d="M219.448,153.465h 0.997795l 0.0453543, 0.0364903h 1.0885l 0.0453543, 0.0912257h 0.0453543" fill="none" stroke="#0000ee" stroke-width="3"/>
<path d="M221.67,153.593h 1.04315l 0.0453543, 0.182451h 1.0885l 0.0453543, 0.0912257" fill="none" stroke="#0000ee" stroke-width="3"/>
<path d="M223.893,153.867h 1.0885l 0.0453543, 0.0364903h 1.0885" fill="none" stroke="#0000ee" stroke-width="3"/>
<path d="M226.115,153.903h 2.22236" fill="none" stroke="#0000ee" stroke-width="3"/>
<path d="M228.337,153.903h 0.0453543l 0.0453543, 0.0364903h 1.0885l 0.0453543, 0.0182451h 0.997795" fill="none" stroke="#0000ee" stroke-width="3"/>
<path d="M230.56,153.958h 2.22236" fill="none" stroke="#0000ee" stroke-width="3"/>
<path d="M232.782,153.958h 2.22236" fill="none" stroke="#0000ee" stroke-width="3"/>
<path d="M235.005,153.958h 0.181417l 0.0453543, 0.0182451h 1.0885l 0.0453543, 0.0364903h 0.861732" fill="none" stroke="#0000ee" stroke-width="3"/>
<path d="M237.227,154.013h 0.226772l 0.0453543, 0.0547354h 1.0885l 0.0453543, 0.0182451h 0.816378" fill="none" stroke="#0000ee" stroke-width="3"/>
<path d="M239.449,154.086h 1.40598l 0.0453543, 0.0182451h 0.771024" fill="none" stroke="#0000ee" stroke-width="3"/>
<path d="M241.672,154.104h 0.31748l 0.0453543, 0.0364903h 1.0885l 0.0453543, 0.0547354h 0.725669" fill="none" stroke="#0000ee" stroke-width="3"/>
<path d="M243.894,154.195h 0.362835l 0.0453543, 0.255432h 1.0885l 0.0453543, 0.0364903h 0.680315" fill="none" stroke="#0000ee" stroke-width="3"/>
<path d="M246.116,154.487h 0.408189l 0.0453543, 0.109471h 1.0885l 0.0453543, 0.164206h 0.634961" fill="none" stroke="#0000ee" stroke-width="3"/>
<path d="M248.339,154.761h 1.5874l 0.0453543, 0.218942h 0.589606" fill="none" stroke="#0000ee" stroke-width="3"/>
<path d="M250.561,154.98h 0.498898l 0.0453543, 0.145961h 1.0885l 0.0453543, 0.0364903h 0.544252" fill="none" stroke="#0000ee" stroke-width="3"/>
<path d="M252.783,155.162h 2.22236" fill="none" stroke="#0000ee" stroke-width="3"/>
<path d="M255.006,155.162h 0.589606l 0.0453543, 0.0182451h 1.0885l 0.0453543, 0.0547354h 0.453543" fill="none" stroke="#0000ee" stroke-width="3"/>
<path d="M257.228,155.235h 0.634961l 0.0453543, 0.109471h 1.0885l 0.0453543, 0.273677h 0.408189" fill="none" stroke="#0000ee" stroke-width="3"/>
<path d="M259.451,155.618h 0.680315l 0.0453543, 0.0182451h 1.0885l 0.0453543, 0.0364903h 0.362835" fill="none" stroke="#0000ee" stroke-width="3"/>
<path d="M261.673,155.673h 0.725669l 0.0453543, 0.0547354h 1.0885l 0.0453543, 0.0912257h 0.31748" fill="none" stroke="#0000ee" stroke-width="3"/>
<path d="M263.895,155.819h 0.771024l 0.0453543, 0.200697h 1.0885l 0.0453543, 0.693315h 0.272126" fill="none" stroke="#0000ee" stroke-width="3"/>
<path d="M266.118,156.713h 0.816378l 0.0453543, 1.75153h 1.0885l 0.0453543, 0.948747h 0.226772" fill="none" stroke="#0000ee" stroke-width="3"/>
<path d="M268.34,159.413h 0.861732l 0.0453543, 0.310167h 1.0885l 0.0453543, 0.401393h 0.181417" fill="none" stroke="#0000ee" stroke-width="3"/>
<path d="M270.562,160.125h 0.907087l 0.0453543, 0.255432h 1.0885l 0.0453543, 0.182451h 0.136063" fill="none" stroke="#0000ee" stroke-width="3"/>
<path d="M272.785,160.563h 2.0863l 0.0453543, 0.0364903h 0.0907087" fill="none" stroke="#0000ee" stroke-width="3"/>
<path d="M275.007,160.599h 2.22236" fill="none" stroke="#0000ee" stroke-width="3"/>
<path d="M277.229,160.599h 1.04315l 0.0453543, 0.0729806h 1.0885l 0.0453543, 0.255432" fill="none" stroke="#0000ee" stroke-width="3"/>
<path d="M279.452,160.928h 1.0885l 0.0453543, 0.200697h 1.0885" fill="none" stroke="#0000ee" stroke-width="3"/>
<path d="M281.674,161.128l 0.0453543, 0.0912257h 1.0885l 0.0453543, 0.0182451h 1.04315" fill="none" stroke="#0000ee" stroke-width="3"/>
<path d="M283.897,161.238h 0.0453543l 0.0453543, 0.109471h 1.0885l 0.0453543, 0.310167h 0.997795" fill="none" stroke="#0000ee" stroke-width="3"/>
<path d="M286.119,161.657h 0.0907087l 0.0453543, 0.529109h 1.0885l 0.0453543, 1.16769h 0.952441" fill="none" stroke="#0000ee" stroke-width="3"/>
<path d="M288.341,163.354h 0.136063l 0.0453543, 0.748051h 1.0885l 0.0453543, 0.273677h 0.907087" fill="none" stroke="#0000ee" stroke-width="3"/>
<path d="M290.564,164.376h 0.181417l 0.0453543, 0.328413h 1.0885l 0.0453543, 0.145961h 0.861732" fill="none" stroke="#0000ee" stroke-width="3"/>
<path d="M292.786,164.85h 0.226772l 0.0453543, 0.237187h 1.0885l 0.0453543, 0.419638h 0.816378" fill="none" stroke="#0000ee" stroke-width="3"/>
<path d="M295.008,165.507h 0.272126l 0.0453543, 0.255432h 1.0885l 0.0453543, 0.383148h 0.771024" fill="none" stroke="#0000ee" stroke-width="3"/>
<path d="M297.231,166.146h 0.31748l 0.0453543, 0.748051h 1.0885l 0.0453543, 0.401393h 0.725669" fill="none" stroke="#0000ee" stroke-width="3"/>
<path d="M299.453,167.295h 0.362835l 0.0453543, 0.63858h 1.0885l 0.0453543, 0.620335h 0.680315" fill="none" stroke="#0000ee" stroke-width="3"/>
<path d="M301.675,168.554h 0.408189l 0.0453543, 0.419638h 1.0885l 0.0453543, 0.127716h 0.634961" fill="none" stroke="#0000ee" stroke-width="3"/>
<path d="M303.898,169.101h 0.453543l 0.0453543, 0.0729806h 1.0885l 0.0453543, 0.0912257h 0.589606" fill="none" stroke="#0000ee" stroke-width="3"/>
<path d="M306.12,169.266h 0.498898l 0.0453543, 0.109471h 1.0885l 0.0453543, 1.84276h 0.544252" fill="none" stroke="#0000ee" stroke-width="3"/>
<path d="M308.343,171.218h 0.544252l 0.0453543, 0.912257h 1.0885l 0.0453543, 0.109471h 0.498898" fill="none" stroke="#0000ee" stroke-width="3"/>
<path d="M310.565,172.24h 0.589606l 0.0453543, 0.0912257h 1.0885l 0.0453543, 0.0364903h 0.453543" fill="none" stroke="#0000ee" stroke-width="3"/>
<path d="M312.787,172.367h 1.76882l 0.0453543, 0.0547354h 0.408189" fill="none" stroke="#0000ee" stroke-width="3"/>
<path d="M315.01,172.422h 0.680315l 0.0453543, 0.218942h 1.49669" fill="none" stroke="#0000ee" stroke-width="3"/>
<path d="M317.232,172.641h 0.725669l 0.0453543, 0.0182451h 1.0885l 0.0453543, 0.0182451h 0.31748" fill="none" stroke="#0000ee" stroke-width="3"/>
<path d="M319.454,172.677h 1.90488l 0.0453543, 0.109471h 0.272126" fill="none" stroke="#0000ee" stroke-width="3"/>
<path d="M321.677,172.787h 1.95024l 0.0453543, 0.0729806h 0.226772" fill="none" stroke="#0000ee" stroke-width="3"/>
<path d="M323.899,172.86h 0.861732l 0.0453543, 0.0729806h 1.0885l 0.0453543, 4.03218h 0.181417" fill="none" stroke="#0000ee" stroke-width="3"/>
<path d="M326.121,176.965h 0.907087l 0.0453543, 1.47786h 1.0885l 0.0453543, 0.0547354h 0.136063" fill="none" stroke="#0000ee" stroke-width="3"/>
<path d="M328.344,178.498h 0.952441l 0.0453543, 0.0364903h 1.22457" fill="none" stroke="#0000ee" stroke-width="3"/>
<path d="M330.566,178.534h 2.22236" fill="none" stroke="#0000ee" stroke-width="3"/>
<path d="M332.789,178.534h 1.04315l 0.0453543, 0.0182451h 1.0885l 0.0453543, 0.0547354" fill="none" stroke="#0000ee" stroke-width="3"/>
<path d="M335.011,178.607h 1.0885l 0.0453543, 0.0182451h 1.0885" fill="none" stroke="#0000ee" stroke-width="3"/>
<path d="M337.233,178.625h 1.13386l 0.0453543, 0.0729806h 1.04315" fill="none" stroke="#0000ee" stroke-width="3"/>
<path d="M339.456,178.698h 0.0453543l 0.0453543, 0.0364903h 1.0885l 0.0453543, 0.0729806h 0.997795" fill="none" stroke="#0000ee" stroke-width="3"/>
<path d="M341.678,178.808h 0.0907087l 0.0453543, 0.273677h 1.0885l 0.0453543, 0.474374h 0.952441" fill="none" stroke="#0000ee" stroke-width="3"/>
<path d="M343.9,179.556h 0.136063l 0.0453543, 0.0182451h 2.04094" fill="none" stroke="#0000ee" stroke-width="3"/>
<path d="M346.123,179.574h 0.181417l 0.0453543, 0.0364903h 1.0885l 0.0453543, 0.0912257h 0.861732" fill="none" stroke="#0000ee" stroke-width="3"/>
<path d="M348.345,179.702h 0.226772l 0.0453543, 0.0729806h 1.95024" fill="none" stroke="#0000ee" stroke-width="3"/>
<path d="M350.567,179.775h 0.272126l 0.0453543, 0.0912257h 1.0885l 0.0453543, 0.255432h 0.771024" fill="none" stroke="#0000ee" stroke-width="3"/>
<path d="M352.79,180.121h 0.31748l 0.0453543, 0.200697h 1.0885l 0.0453543, 0.200697h 0.725669" fill="none" stroke="#0000ee" stroke-width="3"/>
<path d="M355.012,180.523h 0.362835l 0.0453543, 0.0729806h 1.0885l 0.0453543, 0.0364903h 0.680315" fill="none" stroke="#0000ee" stroke-width="3"/>
<path d="M357.234,180.632h 0.408189l 0.0453543, 0.255432h 1.0885l 0.0453543, 0.583844h 0.634961" fill="none" stroke="#0000ee" stroke-width="3"/>
<path d="M359.457,181.472h 0.453543l 0.0453543, 0.0547354h 1.0885l 0.0453543, 0.0182451h 0.589606" fill="none" stroke="#0000ee" stroke-width="3"/>
<path d="M361.679,181.545h 0.498898l 0.0453543, 0.145961h 1.0885l 0.0453543, 0.346658h 0.544252" fill="none" stroke="#0000ee" stroke-width="3"/>
<path d="M363.902,182.037h 0.544252l 0.0453543, 0.310167h 1.0885l 0.0453543, 0.164206h 0.498898" fill="none" stroke="#0000ee" stroke-width="3"/>
<path d="M366.124,182.512h 0.589606l 0.0453543, 0.127716h 1.0885l 0.0453543, 0.419638h 0.453543" fill="none" stroke="#0000ee" stroke-width="3"/>
<path d="M368.346,183.059h 0.634961l 0.0453543, 1.4961h 1.0885l 0.0453543, 0.693315h 0.408189" fill="none" stroke="#0000ee" stroke-width="3"/>
<path d="M370.569,185.248h 0.680315l 0.0453543, 0.63858h 1.0885l 0.0453543, 0.912257h 0.362835" fill="none" stroke="#0000ee" stroke-width="3"/>
<path d="M372.791,186.799h 0.725669l 0.0453543, 0.127716h 1.0885l 0.0453543, 0.0182451h 0.31748" fill="none" stroke="#0000ee" stroke-width="3"/>
<path d="M375.013,186.945h 0.771024l 0.0453543, 0.182451h 1.0885l 0.0453543, 0.127716h 0.272126" fill="none" stroke="#0000ee" stroke-width="3"/>
<path d="M377.236,187.255h 0.816378l 0.0453543, 0.127716h 1.0885l 0.0453543, 0.0364903h 0.226772" fill="none" stroke="#0000ee" stroke-width="3"/>
<path d="M379.458,187.42h 0.861732l 0.0453543, 0.109471h 1.0885l 0.0453543, 0.310167h 0.181417" fill="none" stroke="#0000ee" stroke-width="3"/>
<path d="M381.68,187.839h 2.04094l 0.0453543, 0.0364903h 0.136063" fill="none" stroke="#0000ee" stroke-width="3"/>
<path d="M383.903,187.876h 0.952441l 0.0453543, 0.0364903h 1.0885l 0.0453543, 0.0729806h 0.0907087" fill="none" stroke="#0000ee" stroke-width="3"/>
<path d="M386.125,187.985h 0.997795l 0.0453543, 0.0729806h 1.0885l 0.0453543, 0.0547354h 0.0453543" fill="none" stroke="#0000ee" stroke-width="3"/>
<path d="M388.348,188.113h 1.04315l 0.0453543, 0.0547354h 1.13386" fill="none" stroke="#0000ee" stroke-width="3"/>
<path d="M390.57,188.168h 2.22236" fill="none" stroke="#0000ee" stroke-width="3"/>
<path d="M392.792,188.168h 2.22236" fill="none" stroke="#0000ee" stroke-width="3"/>
<path d="M395.015,188.168h 0.0453543l 0.0453543, 0.0364903h 1.0885l 0.0453543, 0.0364903h 0.997795" fill="none" stroke="#0000ee" stroke-width="3"/>
<path d="M397.237,188.241h 0.0907087l 0.0453543, 0.109471h 2.0863" fill="none" stroke="#0000ee" stroke-width="3"/>
<path d="M399.459,188.35h 1.26992l 0.0453543, 0.0182451h 0.907087" fill="none" stroke="#0000ee" stroke-width="3"/>
<path d="M401.682,188.368h 0.181417l 0.0453543, 0.0182451h 1.99559" fill="none" stroke="#0000ee" stroke-width="3"/>
<path d="M403.904,188.387h 0.226772l 0.0453543, 0.0364903h 1.0885l 0.0453543, 0.0364903h 0.816378" fill="none" stroke="#0000ee" stroke-width="3"/>
<path d="M406.126,188.46h 0.272126l 0.0453543, 0.0182451h 1.0885l 0.0453543, 0.0182451h 0.771024" fill="none" stroke="#0000ee" stroke-width="3"/>
<path d="M408.349,188.496h 0.31748l 0.0453543, 0.0364903h 1.85953" fill="none" stroke="#0000ee" stroke-width="3"/>
<path d="M410.571,188.533h 0.362835l 0.0453543, 0.0364903h 1.0885l 0.0453543, 0.0364903h 0.680315" fill="none" stroke="#0000ee" stroke-width="3"/>
<path d="M412.794,188.605h 0.408189l 0.0453543, 0.0729806h 1.0885l 0.0453543, 0.109471h 0.634961" fill="none" stroke="#0000ee" stroke-width="3"/>
<path d="M415.016,188.788h 0.453543l 0.0453543, 0.109471h 1.0885l 0.0453543, 0.0729806h 0.589606" fill="none" stroke="#0000ee" stroke-width="3"/>
<path d="M417.238,188.97h 0.498898l 0.0453543, 0.0547354h 1.0885l 0.0453543, 0.218942h 0.544252" fill="none" stroke="#0000ee" stroke-width="3"/>
<path d="M419.461,189.244h 0.544252l 0.0453543, 0.0729806h 1.0885l 0.0453543, 0.127716h 0.498898" fill="none" stroke="#0000ee" stroke-width="3"/>
<path d="M421.683,189.445h 0.589606l 0.0453543, 0.164206h 1.0885l 0.0453543, 0.273677h 0.453543" fill="none" stroke="#0000ee" stroke-width="3"/>
<path d="M423.905,189.883h 0.634961l 0.0453543, 0.109471h 1.0885l 0.0453543, 0.145961h 0.408189" fill="none" stroke="#0000ee" stroke-width="3"/>
<path d="M426.128,190.138h 2.22236" fill="none" stroke="#0000ee" stroke-width="3"/>
<path d="M428.35,190.138h 1.85953l 0.0453543, 0.0182451h 0.31748" fill="none" stroke="#0000ee" stroke-width="3"/>
<path d="M430.572,190.156h 0.771024l 0.0453543, 0.0729806h 1.40598" fill="none" stroke="#0000ee" stroke-width="3"/>
<path d="M432.795,190.229h 0.816378l 0.0453543, 0.0182451h 1.0885l 0.0453543, 0.109471h 0.226772" fill="none" stroke="#0000ee" stroke-width="3"/>
<path d="M435.017,190.357h 2.22236" fill="none" stroke="#0000ee" stroke-width="3"/>
<path d="M437.24,190.357h 2.22236" fill="none" stroke="#0000ee" stroke-width="3"/>
<path d="M439.462,190.357h 2.22236" fill="none" stroke="#0000ee" stroke-width="3"/>
<path d="M441.684,190.357h 0.997795l 0.0453543, 0.0364903h 1.0885l 0.0453543, 0.0364903h 0.0453543" fill="none" stroke="#0000ee" stroke-width="3"/>
<path d="M443.907,190.43h 1.04315l 0.0453543, 0.0182451h 1.0885l 0.0453543, 0.0182451" fill="none" stroke="#0000ee" stroke-width="3"/>
<path d="M446.129,190.466h 1.0885l 0.0453543, 0.0182451h 1.0885" fill="none" stroke="#0000ee" stroke-width="3"/>
<path d="M448.351,190.485l 0.0453543, 0.0547354h 1.0885l 0.0453543, 0.0182451h 1.04315" fill="none" stroke="#0000ee" stroke-width="3"/>
<path d="M450.574,190.558h 0.0453543l 0.0453543, 0.164206h 1.0885l 0.0453543, 0.0729806h 0.997795" fill="none" stroke="#0000ee" stroke-width="3"/>
<path d="M452.796,190.795h 0.0907087l 0.0453543, 0.0547354h 1.0885l 0.0453543, 0.401393h 0.952441" fill="none" stroke="#0000ee" stroke-width="3"/>
<path d="M455.018,191.251h 0.136063l 0.0453543, 0.200697h 1.0885l 0.0453543, 0.164206h 0.907087" fill="none" stroke="#0000ee" stroke-width="3"/>
<path d="M457.241,191.616h 0.181417l 0.0453543, 0.401393h 1.0885l 0.0453543, 0.200697h 0.861732" fill="none" stroke="#0000ee" stroke-width="3"/>
<path d="M459.463,192.218h 0.226772l 0.0453543, 0.328413h 1.0885l 0.0453543, 0.0364903h 0.816378" fill="none" stroke="#0000ee" stroke-width="3"/>
<path d="M461.686,192.583h 0.272126l 0.0453543, 0.182451h 1.90488" fill="none" stroke="#0000ee" stroke-width="3"/>
<path d="M463.908,192.765h 0.31748l 0.0453543, 0.0182451h 1.85953" fill="none" stroke="#0000ee" stroke-width="3"/>
<path d="M466.13,192.784h 0.362835l 0.0453543, 0.0182451h 1.0885l 0.0453543, 0.0729806h 0.680315" fill="none" stroke="#0000ee" stroke-width="3"/>
<path d="M468.353,192.875h 2.22236" fill="none" stroke="#0000ee" stroke-width="3"/>
<path d="M470.575,192.875h 2.22236" fill="none" stroke="#0000ee" stroke-width="3"/>
<path d="M472.797,192.875h 1.63276l 0.0453543, 0.0182451h 0.544252" fill="none" stroke="#0000ee" stroke-width="3"/>
<path d="M475.02,192.893h 0.544252l 0.0453543, 0.0182451h 1.63276" fill="none" stroke="#0000ee" stroke-width="3"/>
<path d="M477.242,192.911h 2.22236" fill="none" stroke="#0000ee" stroke-width="3"/>
<path d="M479.464,192.911h 1.76882l 0.0453543, 0.127716h 0.408189" fill="none" stroke="#0000ee" stroke-width="3"/>
<path d="M481.687,193.039h 0.680315l 0.0453543, 0.474374h 1.0885l 0.0453543, 0.164206h 0.362835" fill="none" stroke="#0000ee" stroke-width="3"/>
<path d="M483.909,193.678h 0.725669l 0.0453543, 0.255432h 1.0885l 0.0453543, 0.0912257h 0.31748" fill="none" stroke="#0000ee" stroke-width="3"/>
<path d="M486.132,194.024h 0.771024l 0.0453543, 0.109471h 1.0885l 0.0453543, 0.0547354h 0.272126" fill="none" stroke="#0000ee" stroke-width="3"/>
<path d="M488.354,194.188h 0.816378l 0.0453543, 0.60209h 1.0885l 0.0453543, 1.25891h 0.226772" fill="none" stroke="#0000ee" stroke-width="3"/>
<path d="M490.576,196.049h 0.861732l 0.0453543, 0.419638h 1.0885l 0.0453543, 0.328413h 0.181417" fill="none" stroke="#0000ee" stroke-width="3"/>
<path d="M492.799,196.798h 0.907087l 0.0453543, 0.419638h 1.0885l 0.0453543, 0.0729806h 0.136063" fill="none" stroke="#0000ee" stroke-width="3"/>
<path d="M495.021,197.29h 0.952441l 0.0453543, 0.583844h 1.0885l 0.0453543, 3.06518h 0.0907087" fill="none" stroke="#0000ee" stroke-width="3"/>
<path d="M497.243,200.939h 0.997795l 0.0453543, 1.4961h 1.0885l 0.0453543, 0.383148h 0.0453543" fill="none" stroke="#0000ee" stroke-width="3"/>
<path d="M499.466,202.818h 1.04315l 0.0453543, 0.912257h 1.0885l 0.0453543, 1.87925" fill="none" stroke="#0000ee" stroke-width="3"/>
<path d="M501.688,205.61h 1.0885l 0.0453543, 3.64903h 1.0885" fill="none" stroke="#0000ee" stroke-width="3"/>
<path d="M503.91,209.259l 0.0453543, 1.89749h 1.0885l 0.0453543, 1.51435h 1.04315" fill="none" stroke="#0000ee" stroke-width="3"/>
<path d="M506.133,212.671h 0.0453543l 0.0453543, 0.656825h 1.0885l 0.0453543, 0.109471h 0.997795" fill="none" stroke="#0000ee" stroke-width="3"/>
<path d="M508.355,213.437h 0.0907087l 0.0453543, 0.145961h 1.0885l 0.0453543, 16.0375h 0.952441" fill="none" stroke="#0000ee" stroke-width="3"/>
<path d="M510.577,229.621h 0.15874" fill="none" stroke="#0000ee" stroke-width="3"/>
<path d="M57.1929,238.452h 453.543" fill="none" stroke="black"/>
<path d="M57.1929,232.093v 6.35872" fill="none" stroke="black"/>
<path d="M79.87,235.273v 3.17936" fill="none" stroke="black"/>
<path d="M102.547,235.273v 3.17936" fill="none" stroke="black"/>
<path d="M125.224,235.273v 3.17936" fill="none" stroke="black"/>
<path d="M147.901,235.273v 3.17936" fill="none" stroke="black"/>
<path d="M170.578,232.093v 6.35872" fill="none" stroke="black"/>
<path d="M193.255,235.273v 3.17936" fill="none" stroke="black"/>
<path d="M215.932,235.273v 3.17936" fill="none" stroke="black"/>
<path d="M238.609,235.273v 3.17936" fill="none" stroke="black"/>
<path d="M261.286,235.273v 3.17936" fill="none" stroke="black"/>
<path d="M283.963,232.093v 6.35872" fill="none" stroke="black"/>
<path d="M306.64,235.273v 3.17936" fill="none" stroke="black"/>
<path d="M329.318,235.273v 3.17936" fill="none" stroke="black"/>
<path d="M351.995,235.273v 3.17936" fill="none" stroke="black"/>
<path d="M374.672,235.273v 3.17936" fill="none" stroke="black"/>
<path d="M397.349,232.093v 6.35872" fill="none" stroke="black"/>
<path d="M420.026,235.273v 3.17936" fill="none" stroke="black"/>
<path d="M442.703,235.273v 3.17936" fill="none" stroke="black"/>
<path d="M465.38,235.273v 3.17936" fill="none" stroke="black"/>
<path d="M488.057,235.273v 3.17936" fill="none" stroke="black"/>
<path d="M510.734,232.093v 6.35872" fill="none" stroke="black"/>
<path d="M510.734,232.093v 6.35872" fill="none" stroke="black"/>
<text xml:space="preserve" x="56.7656" y="247.141" fill="black" font-size="9.00747" font-family="Helvetica">1</text>
<text xml:space="preserve" x="52.4922" y="247.141" fill="black" font-size="9.00747" font-family="Times">&#8722;</text>
<text xml:space="preserve" x="165.736" y="247.141" fill="black" font-size="9.00747" font-family="Helvetica">0.5</text>
<text xml:space="preserve" x="161.462" y="247.141" fill="black" font-size="9.00747" font-family="Times">&#8722;</text>
<text xml:space="preserve" x="280.403" y="247.141" fill="black" font-size="9.00747" font-family="Helvetica">0</text>
<text xml:space="preserve" x="390.798" y="247.141" fill="black" font-size="9.00747" font-family="Helvetica">0.5</text>
<text xml:space="preserve" x="508.315" y="247.141" fill="black" font-size="9.00747" font-family="Helvetica">1</text>
<path d="M57.1929,238.452v -185.463" fill="none" stroke="black"/>
<path d="M69.0984,235.441h -11.9055" fill="none" stroke="black"/>
<path d="M63.1457,228.143h -5.95276" fill="none" stroke="black"/>
<path d="M63.1457,220.845h -5.95276" fill="none" stroke="black"/>
<path d="M63.1457,213.547h -5.95276" fill="none" stroke="black"/>
<path d="M63.1457,206.249h -5.95276" fill="none" stroke="black"/>
<path d="M69.0984,198.95h -11.9055" fill="none" stroke="black"/>
<path d="M63.1457,191.652h -5.95276" fill="none" stroke="black"/>
<path d="M63.1457,184.354h -5.95276" fill="none" stroke="black"/>
<path d="M63.1457,177.056h -5.95276" fill="none" stroke="black"/>
<path d="M63.1457,169.758h -5.95276" fill="none" stroke="black"/>
<path d="M69.0984,162.46h -11.9055" fill="none" stroke="black"/>
<path d="M63.1457,155.162h -5.95276" fill="none" stroke="black"/>
<path d="M63.1457,147.864h -5.95276" fill="none" stroke="black"/>
<path d="M63.1457,140.566h -5.95276" fill="none" stroke="black"/>
<path d="M63.1457,133.268h -5.95276" fill="none" stroke="black"/>
<path d="M69.0984,125.97h -11.9055" fill="none" stroke="black"/>
<path d="M63.1457,118.672h -5.95276" fill="none" stroke="black"/>
<path d="M63.1457,111.374h -5.95276" fill="none" stroke="black"/>
<path d="M63.1457,104.076h -5.95276" fill="none" stroke="black"/>
<path d="M63.1457,96.7777h -5.95276" fill="none" stroke="black"/>
<path d="M69.0984,89.4796h -11.9055" fill="none" stroke="black"/>
<path d="M63.1457,82.1816h -5.95276" fill="none" stroke="black"/>
<path d="M63.1457,74.8835h -5.95276" fill="none" stroke="black"/>
<path d="M63.1457,67.5855h -5.95276" fill="none" stroke="black"/>
<path d="M63.1457,60.2874h -5.95276" fill="none" stroke="black"/>
<path d="M69.0984,52.9894h -11.9055" fill="none" stroke="black"/>
<path d="M69.0984,235.441h -11.9055" fill="none" stroke="black"/>
<text xml:space="preserve" x="41.8089" y="238.595" fill="black" font-size="9.00747" font-family="Helvetica">0.6</text>
<text xml:space="preserve" x="41.8089" y="202.271" fill="black" font-size="9.00747" font-family="Helvetica">0.7</text>
<text xml:space="preserve" x="41.8089" y="165.948" fill="black" font-size="9.00747" font-family="Helvetica">0.8</text>
<text xml:space="preserve" x="41.8089" y="128.912" fill="black" font-size="9.00747" font-family="Helvetica">0.9</text>
<text xml:space="preserve" x="50.3556" y="92.5889" fill="black" font-size="9.00747" font-family="Helvetica">1</text>
<text xml:space="preserve" x="43.2334" y="56.2656" fill="black" font-size="9.00747" font-family="Helvetica">1.1</text>
<path d="M57.2258,238.452l 0.0351006, -33.4787" fill="none" stroke="#00aa00" stroke-width="3"/>
<path d="M57.2609,204.973h 1.04315l 0.0453543, -5.8676h 1.0885" fill="none" stroke="#00aa00" stroke-width="3"/>
<path d="M59.438,199.106l 0.0453543, -3.72434h 1.0885l 0.0453543, -1.64053h 1.04315" fill="none" stroke="#00aa00" stroke-width="3"/>
<path d="M61.6603,193.741h 0.0453543l 0.0453543, -0.0381276h 1.0885l 0.0453543, -0.564867h 0.997795" fill="none" stroke="#00aa00" stroke-width="3"/>
<path d="M63.8827,193.138h 0.0907087l 0.0453543, -0.560865h 1.0885l 0.0453543, -0.0839111h 0.952441" fill="none" stroke="#00aa00" stroke-width="3"/>
<path d="M66.105,192.493h 0.136063l 0.0453543, -0.162602h 1.0885l 0.0453543, -0.0183569h 0.907087" fill="none" stroke="#00aa00" stroke-width="3"/>
<path d="M68.3274,192.312h 0.181417l 0.0453543, -0.00369748h 1.0885l 0.0453543, -0.0495898h 0.861732" fill="none" stroke="#00aa00" stroke-width="3"/>
<path d="M70.5498,192.259h 0.226772l 0.0453543, -0.439979h 1.0885l 0.0453543, -0.0930896h 0.816378" fill="none" stroke="#00aa00" stroke-width="3"/>
<path d="M72.7721,191.726h 0.272126l 0.0453543, -0.323617h 1.0885l 0.0453543, -0.774188h 0.771024" fill="none" stroke="#00aa00" stroke-width="3"/>
<path d="M74.9945,190.628h 0.31748l 0.0453543, -0.388214h 1.0885l 0.0453543, -0.419382h 0.725669" fill="none" stroke="#00aa00" stroke-width="3"/>
<path d="M77.2169,189.82h 0.362835l 0.0453543, -0.0294711h 1.0885l 0.0453543, -0.0174869h 0.680315" fill="none" stroke="#00aa00" stroke-width="3"/>
<path d="M79.4392,189.773h 0.408189l 0.0453543, -0.0374751h 1.0885l 0.0453543, -0.0174869h 0.634961" fill="none" stroke="#00aa00" stroke-width="3"/>
<path d="M81.6616,189.719h 0.453543l 0.0453543, -0.0950471h 1.0885l 0.0453543, -0.0601167h 0.589606" fill="none" stroke="#00aa00" stroke-width="3"/>
<path d="M83.8839,189.563h 0.498898l 0.0453543, -0.150749h 1.0885l 0.0453543, -0.0379753h 0.544252" fill="none" stroke="#00aa00" stroke-width="3"/>
<path d="M86.1063,189.375h 0.544252l 0.0453543, -0.0227504h 1.0885l 0.0453543, -0.194618h 0.498898" fill="none" stroke="#00aa00" stroke-width="3"/>
<path d="M88.3287,189.157h 0.589606l 0.0453543, -0.159318h 1.0885l 0.0453543, -0.0689472h 0.453543" fill="none" stroke="#00aa00" stroke-width="3"/>
<path d="M90.551,188.929h 0.634961l 0.0453543, -0.33173h 1.0885l 0.0453543, -0.0573327h 0.408189" fill="none" stroke="#00aa00" stroke-width="3"/>
<path d="M92.7734,188.54h 0.680315l 0.0453543, -0.443589h 1.0885l 0.0453543, -0.659696h 0.362835" fill="none" stroke="#00aa00" stroke-width="3"/>
<path d="M94.9958,187.437h 0.725669l 0.0453543, -0.125627h 1.0885l 0.0453543, -0.199621h 0.31748" fill="none" stroke="#00aa00" stroke-width="3"/>
<path d="M97.2181,187.111h 0.771024l 0.0453543, -0.0118537h 1.0885l 0.0453543, -0.0182482h 0.272126" fill="none" stroke="#00aa00" stroke-width="3"/>
<path d="M99.4405,187.081h 1.95024l 0.0453543, -0.0212062h 0.226772" fill="none" stroke="#00aa00" stroke-width="3"/>
<path d="M101.663,187.06h 0.861732l 0.0453543, -0.0424558h 1.0885l 0.0453543, 0.0763204h 0.181417" fill="none" stroke="#00aa00" stroke-width="3"/>
<path d="M103.885,187.094h 0.907087l 0.0453543, -0.0364963h 1.0885l 0.0453543, -0.0365181h 0.136063" fill="none" stroke="#00aa00" stroke-width="3"/>
<path d="M106.108,187.021h 0.952441l 0.0453543, 0.0305369h 1.0885l 0.0453543, -0.054788h 0.0907087" fill="none" stroke="#00aa00" stroke-width="3"/>
<path d="M108.33,186.997h 2.13165l 0.0453543, -0.0182699h 0.0453543" fill="none" stroke="#00aa00" stroke-width="3"/>
<path d="M110.552,186.978h 1.04315l 0.0453543, -0.00300149h 1.0885l 0.0453543, -0.155447" fill="none" stroke="#00aa00" stroke-width="3"/>
<path d="M112.775,186.82h 1.0885l 0.0453543, -0.103834h 1.0885" fill="none" stroke="#00aa00" stroke-width="3"/>
<path d="M114.997,186.716l 0.0453543, -0.685492h 1.0885l 0.0453543, -0.0483935h 1.04315" fill="none" stroke="#00aa00" stroke-width="3"/>
<path d="M117.219,185.982h 0.0453543l 0.0453543, -0.118689h 1.0885l 0.0453543, -0.0477845h 0.997795" fill="none" stroke="#00aa00" stroke-width="3"/>
<path d="M119.442,185.816h 0.0907087l 0.0453543, -0.00652497h 1.0885l 0.0453543, -0.211931h 0.952441" fill="none" stroke="#00aa00" stroke-width="3"/>
<path d="M121.664,185.597h 0.136063l 0.0453543, -0.0406941h 1.0885l 0.0453543, 0.0121147h 0.907087" fill="none" stroke="#00aa00" stroke-width="3"/>
<path d="M123.886,185.569h 0.181417l 0.0453543, -0.0187049h 1.0885l 0.0453543, -0.242185h 0.861732" fill="none" stroke="#00aa00" stroke-width="3"/>
<path d="M126.109,185.308h 0.226772l 0.0453543, 0.213606h 1.0885l 0.0453543, -0.0564845h 0.816378" fill="none" stroke="#00aa00" stroke-width="3"/>
<path d="M128.331,185.465h 0.272126l 0.0453543, -1.85035h 1.0885l 0.0453543, -0.692299h 0.771024" fill="none" stroke="#00aa00" stroke-width="3"/>
<path d="M130.554,182.922h 0.31748l 0.0453543, -0.101855h 1.85953" fill="none" stroke="#00aa00" stroke-width="3"/>
<path d="M132.776,182.82h 0.362835l 0.0453543, -0.164995h 1.0885l 0.0453543, -0.676552h 0.680315" fill="none" stroke="#00aa00" stroke-width="3"/>
<path d="M134.998,181.979h 0.408189l 0.0453543, -0.146638h 1.0885l 0.0453543, -0.0523303h 0.634961" fill="none" stroke="#00aa00" stroke-width="3"/>
<path d="M137.221,181.78h 0.453543l 0.0453543, -0.197489h 1.0885l 0.0453543, -0.431214h 0.589606" fill="none" stroke="#00aa00" stroke-width="3"/>
<path d="M139.443,181.151h 0.498898l 0.0453543, -0.130847h 1.0885l 0.0453543, -1.13865h 0.544252" fill="none" stroke="#00aa00" stroke-width="3"/>
<path d="M141.665,179.882h 0.544252l 0.0453543, -0.297582h 1.0885l 0.0453543, 0.0728839h 0.498898" fill="none" stroke="#00aa00" stroke-width="3"/>
<path d="M143.888,179.657h 0.589606l 0.0453543, -0.0299496h 1.0885l 0.0453543, -0.0139634h 0.453543" fill="none" stroke="#00aa00" stroke-width="3"/>
<path d="M146.11,179.613h 0.634961l 0.0453543, -1.0008h 1.0885l 0.0453543, -0.358003h 0.408189" fill="none" stroke="#00aa00" stroke-width="3"/>
<path d="M148.332,178.254h 0.680315l 0.0453543, -0.00295799h 1.0885l 0.0453543, 0.0597905h 0.362835" fill="none" stroke="#00aa00" stroke-width="3"/>
<path d="M150.555,178.311h 0.725669l 0.0453543, -0.00402373h 1.0885l 0.0453543, -0.0578112h 0.31748" fill="none" stroke="#00aa00" stroke-width="3"/>
<path d="M152.777,178.249h 0.771024l 0.0453543, -0.0476975h 1.0885l 0.0453543, -0.0315156h 0.272126" fill="none" stroke="#00aa00" stroke-width="3"/>
<path d="M155,178.17h 0.816378l 0.0453543, -0.0426516h 1.0885l 0.0453543, -0.174391h 0.226772" fill="none" stroke="#00aa00" stroke-width="3"/>
<path d="M157.222,177.953h 0.861732l 0.0453543, 0.0392368h 1.0885l 0.0453543, 0.0110924h 0.181417" fill="none" stroke="#00aa00" stroke-width="3"/>
<path d="M159.444,178.003h 0.907087l 0.0453543, -0.164277h 1.0885l 0.0453543, 0.0397153h 0.136063" fill="none" stroke="#00aa00" stroke-width="3"/>
<path d="M161.667,177.879h 0.952441l 0.0453543, 0.0221414h 1.0885l 0.0453543, 0.0495028h 0.0907087" fill="none" stroke="#00aa00" stroke-width="3"/>
<path d="M163.889,177.95h 0.997795l 0.0453543, -0.0156817h 1.0885l 0.0453543, -0.12243h 0.0453543" fill="none" stroke="#00aa00" stroke-width="3"/>
<path d="M166.111,177.812h 1.04315l 0.0453543, -0.0585942h 1.0885l 0.0453543, -0.0967436" fill="none" stroke="#00aa00" stroke-width="3"/>
<path d="M168.334,177.657h 1.0885l 0.0453543, -0.0373011h 1.0885" fill="none" stroke="#00aa00" stroke-width="3"/>
<path d="M170.556,177.62l 0.0453543, 0.00567672h 1.0885l 0.0453543, -0.0701652h 1.04315" fill="none" stroke="#00aa00" stroke-width="3"/>
<path d="M172.778,177.555h 0.0453543l 0.0453543, -0.135611h 1.0885l 0.0453543, -0.0707089h 0.997795" fill="none" stroke="#00aa00" stroke-width="3"/>
<path d="M175.001,177.349h 0.0907087l 0.0453543, -0.0270786h 1.0885l 0.0453543, -0.680228h 0.952441" fill="none" stroke="#00aa00" stroke-width="3"/>
<path d="M177.223,176.642h 0.136063l 0.0453543, -0.271352h 1.0885l 0.0453543, -0.647103h 0.907087" fill="none" stroke="#00aa00" stroke-width="3"/>
<path d="M179.446,175.723h 0.181417l 0.0453543, -0.254604h 1.0885l 0.0453543, 0.151706h 0.861732" fill="none" stroke="#00aa00" stroke-width="3"/>
<path d="M181.668,175.62h 0.226772l 0.0453543, -0.117123h 1.0885l 0.0453543, -0.0162472h 0.816378" fill="none" stroke="#00aa00" stroke-width="3"/>
<path d="M183.89,175.487h 0.272126l 0.0453543, 0.138786h 1.0885l 0.0453543, 0.0607257h 0.771024" fill="none" stroke="#00aa00" stroke-width="3"/>
<path d="M186.113,175.686h 0.31748l 0.0453543, -0.449396h 1.0885l 0.0453543, -0.517474h 0.725669" fill="none" stroke="#00aa00" stroke-width="3"/>
<path d="M188.335,174.72h 0.362835l 0.0453543, -0.0948296h 1.0885l 0.0453543, 0.0336036h 0.680315" fill="none" stroke="#00aa00" stroke-width="3"/>
<path d="M190.557,174.658h 0.408189l 0.0453543, -0.00637272h 1.0885l 0.0453543, -0.0295146h 0.634961" fill="none" stroke="#00aa00" stroke-width="3"/>
<path d="M192.78,174.622h 0.453543l 0.0453543, -0.0695344h 1.0885l 0.0453543, -2.19306h 0.589606" fill="none" stroke="#00aa00" stroke-width="3"/>
<path d="M195.002,172.36h 0.498898l 0.0453543, -0.379405h 1.0885l 0.0453543, -0.044783h 0.544252" fill="none" stroke="#00aa00" stroke-width="3"/>
<path d="M197.224,171.936h 0.544252l 0.0453543, -0.0108532h 1.0885l 0.0453543, -0.0479803h 0.498898" fill="none" stroke="#00aa00" stroke-width="3"/>
<path d="M199.447,171.877h 0.589606l 0.0453543, -0.048002h 1.5874" fill="none" stroke="#00aa00" stroke-width="3"/>
<path d="M201.669,171.829h 1.76882l 0.0453543, -0.0480238h 0.408189" fill="none" stroke="#00aa00" stroke-width="3"/>
<path d="M203.891,171.781h 0.680315l 0.0453543, -0.055049h 1.0885l 0.0453543, 0.0370618h 0.362835" fill="none" stroke="#00aa00" stroke-width="3"/>
<path d="M206.114,171.763h 0.725669l 0.0453543, -0.234877h 1.0885l 0.0453543, -0.159014h 0.31748" fill="none" stroke="#00aa00" stroke-width="3"/>
<path d="M208.336,171.369h 0.771024l 0.0453543, -0.0725142h 1.0885l 0.0453543, 0.0511993h 0.272126" fill="none" stroke="#00aa00" stroke-width="3"/>
<path d="M210.559,171.348h 0.816378l 0.0453543, -0.222262h 1.0885l 0.0453543, -1.67705h 0.226772" fill="none" stroke="#00aa00" stroke-width="3"/>
<path d="M212.781,169.448h 0.861732l 0.0453543, -0.0491113h 1.0885l 0.0453543, -0.00765597h 0.181417" fill="none" stroke="#00aa00" stroke-width="3"/>
<path d="M215.003,169.392h 0.907087l 0.0453543, -0.0806269h 1.0885l 0.0453543, -0.0153772h 0.136063" fill="none" stroke="#00aa00" stroke-width="3"/>
<path d="M217.226,169.296h 0.952441l 0.0453543, -0.0576807h 1.0885l 0.0453543, -0.0886526h 0.0907087" fill="none" stroke="#00aa00" stroke-width="3"/>
<path d="M219.448,169.149h 0.997795l 0.0453543, -0.0655759h 1.0885l 0.0453543, -0.365464h 0.0453543" fill="none" stroke="#00aa00" stroke-width="3"/>
<path d="M221.67,168.718h 1.04315l 0.0453543, -0.230049h 1.0885l 0.0453543, 0.0109837" fill="none" stroke="#00aa00" stroke-width="3"/>
<path d="M223.893,168.499h 1.0885l 0.0453543, -0.0158557h 1.0885" fill="none" stroke="#00aa00" stroke-width="3"/>
<path d="M226.115,168.483h 1.13386l 0.0453543, -0.0252734h 1.04315" fill="none" stroke="#00aa00" stroke-width="3"/>
<path d="M228.337,168.458h 0.0453543l 0.0453543, 0.00941771h 1.0885l 0.0453543, -0.00793871h 0.997795" fill="none" stroke="#00aa00" stroke-width="3"/>
<path d="M230.56,168.459h 2.22236" fill="none" stroke="#00aa00" stroke-width="3"/>
<path d="M232.782,168.459h 1.26992l 0.0453543, -0.050612h 0.907087" fill="none" stroke="#00aa00" stroke-width="3"/>
<path d="M235.005,168.409h 0.181417l 0.0453543, 0.0173782h 1.0885l 0.0453543, -0.0158992h 0.861732" fill="none" stroke="#00aa00" stroke-width="3"/>
<path d="M237.227,168.41h 0.226772l 0.0453543, 0.00145724h 1.0885l 0.0453543, -0.0586595h 0.816378" fill="none" stroke="#00aa00" stroke-width="3"/>
<path d="M239.449,168.353h 1.40598l 0.0453543, -0.00796046h 0.771024" fill="none" stroke="#00aa00" stroke-width="3"/>
<path d="M241.672,168.345h 0.31748l 0.0453543, 0.00939596h 1.0885l 0.0453543, -0.481782h 0.725669" fill="none" stroke="#00aa00" stroke-width="3"/>
<path d="M243.894,167.873h 0.362835l 0.0453543, -0.113534h 1.0885l 0.0453543, -0.118646h 0.680315" fill="none" stroke="#00aa00" stroke-width="3"/>
<path d="M246.116,167.641h 0.408189l 0.0453543, -0.151684h 1.0885l 0.0453543, 0.00308849h 0.634961" fill="none" stroke="#00aa00" stroke-width="3"/>
<path d="M248.339,167.492h 0.453543l 0.0453543, -0.0257084h 1.0885l 0.0453543, 0.158274h 0.589606" fill="none" stroke="#00aa00" stroke-width="3"/>
<path d="M250.561,167.625h 0.498898l 0.0453543, -0.0916541h 1.0885l 0.0453543, 0.0349738h 0.544252" fill="none" stroke="#00aa00" stroke-width="3"/>
<path d="M252.783,167.568h 2.22236" fill="none" stroke="#00aa00" stroke-width="3"/>
<path d="M255.006,167.568h 0.589606l 0.0453543, 0.0175087h 1.0885l 0.0453543, -0.153685h 0.453543" fill="none" stroke="#00aa00" stroke-width="3"/>
<path d="M257.228,167.432h 0.634961l 0.0453543, -0.101507h 1.0885l 0.0453543, 0.0818014h 0.408189" fill="none" stroke="#00aa00" stroke-width="3"/>
<path d="M259.451,167.412h 0.680315l 0.0453543, 0.0175522h 1.0885l 0.0453543, 0.00915671h 0.362835" fill="none" stroke="#00aa00" stroke-width="3"/>
<path d="M261.673,167.439h 0.725669l 0.0453543, -0.128629h 1.0885l 0.0453543, -0.145768h 0.31748" fill="none" stroke="#00aa00" stroke-width="3"/>
<path d="M263.895,167.164h 0.771024l 0.0453543, 0.063227h 1.0885l 0.0453543, -0.244556h 0.272126" fill="none" stroke="#00aa00" stroke-width="3"/>
<path d="M266.118,166.983h 0.816378l 0.0453543, 0.433737h 1.0885l 0.0453543, 0.445742h 0.226772" fill="none" stroke="#00aa00" stroke-width="3"/>
<path d="M268.34,167.862h 0.861732l 0.0453543, -0.201448h 1.0885l 0.0453543, -1.07779h 0.181417" fill="none" stroke="#00aa00" stroke-width="3"/>
<path d="M270.562,166.583h 0.907087l 0.0453543, -0.668548h 1.0885l 0.0453543, -0.0381928h 0.136063" fill="none" stroke="#00aa00" stroke-width="3"/>
<path d="M272.785,165.876h 0.952441l 0.0453543, -0.0815839h 1.0885l 0.0453543, 0.00861296h 0.0907087" fill="none" stroke="#00aa00" stroke-width="3"/>
<path d="M275.007,165.803h 0.997795l 0.0453543, -0.05444h 1.17921" fill="none" stroke="#00aa00" stroke-width="3"/>
<path d="M277.229,165.749h 1.04315l 0.0453543, -0.0917628h 1.0885l 0.0453543, -0.267959" fill="none" stroke="#00aa00" stroke-width="3"/>
<path d="M279.452,165.389h 1.0885l 0.0453543, -0.268851h 1.0885" fill="none" stroke="#00aa00" stroke-width="3"/>
<path d="M281.674,165.12l 0.0453543, -0.0200752h 1.0885l 0.0453543, -0.23007h 1.04315" fill="none" stroke="#00aa00" stroke-width="3"/>
<path d="M283.897,164.87h 0.0453543l 0.0453543, -0.0851944h 1.0885l 0.0453543, -0.469863h 0.997795" fill="none" stroke="#00aa00" stroke-width="3"/>
<path d="M286.119,164.315h 0.0907087l 0.0453543, -1.24257h 1.0885l 0.0453543, -0.772165h 0.952441" fill="none" stroke="#00aa00" stroke-width="3"/>
<path d="M288.341,162.301h 0.136063l 0.0453543, -0.374577h 1.0885l 0.0453543, -0.335122h 0.907087" fill="none" stroke="#00aa00" stroke-width="3"/>
<path d="M290.564,161.591h 0.181417l 0.0453543, 0.0104182h 1.0885l 0.0453543, -0.233181h 0.861732" fill="none" stroke="#00aa00" stroke-width="3"/>
<path d="M292.786,161.368h 0.226772l 0.0453543, -0.20073h 1.0885l 0.0453543, -0.37201h 0.816378" fill="none" stroke="#00aa00" stroke-width="3"/>
<path d="M295.008,160.795h 0.272126l 0.0453543, -0.275115h 1.0885l 0.0453543, -1.41139h 0.771024" fill="none" stroke="#00aa00" stroke-width="3"/>
<path d="M297.231,159.109h 0.31748l 0.0453543, -0.78739h 1.0885l 0.0453543, -0.387213h 0.725669" fill="none" stroke="#00aa00" stroke-width="3"/>
<path d="M299.453,157.934h 0.362835l 0.0453543, -1.4609h 1.0885l 0.0453543, -0.972003h 0.680315" fill="none" stroke="#00aa00" stroke-width="3"/>
<path d="M301.675,155.501h 0.408189l 0.0453543, -0.00913496h 1.0885l 0.0453543, -0.0587465h 0.634961" fill="none" stroke="#00aa00" stroke-width="3"/>
<path d="M303.898,155.433h 0.453543l 0.0453543, 0.0122452h 1.0885l 0.0453543, -0.0651192h 0.589606" fill="none" stroke="#00aa00" stroke-width="3"/>
<path d="M306.12,155.381h 0.498898l 0.0453543, -0.110533h 1.0885l 0.0453543, -7.63804h 0.544252" fill="none" stroke="#00aa00" stroke-width="3"/>
<path d="M308.343,147.632h 0.544252l 0.0453543, -2.87736h 1.0885l 0.0453543, -0.172042h 0.498898" fill="none" stroke="#00aa00" stroke-width="3"/>
<path d="M310.565,144.583h 0.589606l 0.0453543, -0.0827801h 1.0885l 0.0453543, 0.00347998h 0.453543" fill="none" stroke="#00aa00" stroke-width="3"/>
<path d="M312.787,144.503h 0.634961l 0.0453543, -0.0366486h 1.0885l 0.0453543, -0.159905h 0.408189" fill="none" stroke="#00aa00" stroke-width="3"/>
<path d="M315.01,144.307h 0.680315l 0.0453543, -0.31098h 1.0885l 0.0453543, -0.0368878h 0.362835" fill="none" stroke="#00aa00" stroke-width="3"/>
<path d="M317.232,143.959h 0.725669l 0.0453543, -0.0537223h 1.0885l 0.0453543, -0.0167909h 0.31748" fill="none" stroke="#00aa00" stroke-width="3"/>
<path d="M319.454,143.888h 1.90488l 0.0453543, 0.120647h 0.272126" fill="none" stroke="#00aa00" stroke-width="3"/>
<path d="M321.677,144.009h 0.816378l 0.0453543, -0.147791h 1.0885l 0.0453543, 0.00654672h 0.226772" fill="none" stroke="#00aa00" stroke-width="3"/>
<path d="M323.899,143.868h 0.861732l 0.0453543, -0.141614h 1.0885l 0.0453543, -4.75331h 0.181417" fill="none" stroke="#00aa00" stroke-width="3"/>
<path d="M326.121,138.973h 0.907087l 0.0453543, -0.244338h 1.0885l 0.0453543, -0.180415h 0.136063" fill="none" stroke="#00aa00" stroke-width="3"/>
<path d="M328.344,138.548h 0.952441l 0.0453543, -0.0393673h 1.22457" fill="none" stroke="#00aa00" stroke-width="3"/>
<path d="M330.566,138.509h 0.997795l 0.0453543, -0.0405636h 1.17921" fill="none" stroke="#00aa00" stroke-width="3"/>
<path d="M332.789,138.468h 1.04315l 0.0453543, -0.0603342h 1.0885l 0.0453543, -0.0998973" fill="none" stroke="#00aa00" stroke-width="3"/>
<path d="M335.011,138.308h 1.0885l 0.0453543, -0.0197707h 1.0885" fill="none" stroke="#00aa00" stroke-width="3"/>
<path d="M337.233,138.288l 0.0453543, -0.0814099h 1.0885l 0.0453543, -0.0385191h 1.04315" fill="none" stroke="#00aa00" stroke-width="3"/>
<path d="M339.456,138.168h 0.0453543l 0.0453543, -0.121299h 1.0885l 0.0453543, -0.0387366h 0.997795" fill="none" stroke="#00aa00" stroke-width="3"/>
<path d="M341.678,138.008h 0.0907087l 0.0453543, 0.0690124h 1.0885l 0.0453543, 0.176827h 0.952441" fill="none" stroke="#00aa00" stroke-width="3"/>
<path d="M343.9,138.254h 0.136063l 0.0453543, -0.0200099h 2.04094" fill="none" stroke="#00aa00" stroke-width="3"/>
<path d="M346.123,138.234h 0.181417l 0.0453543, -0.0810619h 1.0885l 0.0453543, 0.0229244h 0.861732" fill="none" stroke="#00aa00" stroke-width="3"/>
<path d="M348.345,138.176h 0.226772l 0.0453543, -0.0392151h 1.95024" fill="none" stroke="#00aa00" stroke-width="3"/>
<path d="M350.567,138.137h 0.272126l 0.0453543, -0.182917h 1.0885l 0.0453543, -0.159253h 0.771024" fill="none" stroke="#00aa00" stroke-width="3"/>
<path d="M352.79,137.794h 0.31748l 0.0453543, 0.0249471h 1.0885l 0.0453543, -0.0580722h 0.725669" fill="none" stroke="#00aa00" stroke-width="3"/>
<path d="M355.012,137.761h 0.362835l 0.0453543, 0.0843679h 1.0885l 0.0453543, 0.000717747h 0.680315" fill="none" stroke="#00aa00" stroke-width="3"/>
<path d="M357.234,137.846h 0.408189l 0.0453543, -0.411356h 1.0885l 0.0453543, -0.453268h 0.634961" fill="none" stroke="#00aa00" stroke-width="3"/>
<path d="M359.457,136.982h 0.453543l 0.0453543, 0.0215759h 1.0885l 0.0453543, 0.0212279h 0.589606" fill="none" stroke="#00aa00" stroke-width="3"/>
<path d="M361.679,137.025h 0.498898l 0.0453543, -0.0407158h 1.0885l 0.0453543, -0.102747h 0.544252" fill="none" stroke="#00aa00" stroke-width="3"/>
<path d="M363.902,136.881h 0.544252l 0.0453543, 0.107836h 1.0885l 0.0453543, 0.0221849h 0.498898" fill="none" stroke="#00aa00" stroke-width="3"/>
<path d="M366.124,137.011h 0.589606l 0.0453543, 0.0643145h 1.0885l 0.0453543, -0.70213h 0.453543" fill="none" stroke="#00aa00" stroke-width="3"/>
<path d="M368.346,136.373h 0.634961l 0.0453543, 0.0363223h 1.0885l 0.0453543, -0.0935246h 0.408189" fill="none" stroke="#00aa00" stroke-width="3"/>
<path d="M370.569,136.316h 0.680315l 0.0453543, -0.0302324h 1.0885l 0.0453543, -0.0595077h 0.362835" fill="none" stroke="#00aa00" stroke-width="3"/>
<path d="M372.791,136.226h 0.725669l 0.0453543, -0.0687514h 1.0885l 0.0453543, -0.0666417h 0.31748" fill="none" stroke="#00aa00" stroke-width="3"/>
<path d="M375.013,136.091h 0.771024l 0.0453543, -0.0925023h 1.0885l 0.0453543, 0.0192269h 0.272126" fill="none" stroke="#00aa00" stroke-width="3"/>
<path d="M377.236,136.018h 0.816378l 0.0453543, -0.114013h 1.0885l 0.0453543, -0.000891746h 0.226772" fill="none" stroke="#00aa00" stroke-width="3"/>
<path d="M379.458,135.903h 0.861732l 0.0453543, -0.00276224h 1.0885l 0.0453543, 0.192334h 0.181417" fill="none" stroke="#00aa00" stroke-width="3"/>
<path d="M381.68,136.092h 2.04094l 0.0453543, 0.043565h 0.136063" fill="none" stroke="#00aa00" stroke-width="3"/>
<path d="M383.903,136.136h 0.952441l 0.0453543, 0.0435868h 1.0885l 0.0453543, -0.0463708h 0.0907087" fill="none" stroke="#00aa00" stroke-width="3"/>
<path d="M386.125,136.133h 0.997795l 0.0453543, -0.00189224h 1.0885l 0.0453543, 0.0208582h 0.0453543" fill="none" stroke="#00aa00" stroke-width="3"/>
<path d="M388.348,136.152h 1.04315l 0.0453543, 0.0208582h 1.13386" fill="none" stroke="#00aa00" stroke-width="3"/>
<path d="M390.57,136.173h 2.22236" fill="none" stroke="#00aa00" stroke-width="3"/>
<path d="M392.792,136.173h 2.22236" fill="none" stroke="#00aa00" stroke-width="3"/>
<path d="M395.015,136.173h 0.0453543l 0.0453543, -0.000956996h 1.0885l 0.0453543, -0.134871h 0.997795" fill="none" stroke="#00aa00" stroke-width="3"/>
<path d="M397.237,136.037h 0.0907087l 0.0453543, -0.00306674h 1.0885l 0.0453543, -0.044696h 0.952441" fill="none" stroke="#00aa00" stroke-width="3"/>
<path d="M399.459,135.989h 0.136063l 0.0453543, -0.179023h 1.0885l 0.0453543, -0.112599h 0.907087" fill="none" stroke="#00aa00" stroke-width="3"/>
<path d="M401.682,135.698h 0.181417l 0.0453543, 0.0218587h 1.99559" fill="none" stroke="#00aa00" stroke-width="3"/>
<path d="M403.904,135.72h 0.226772l 0.0453543, -0.00113099h 1.0885l 0.0453543, -0.0460228h 0.816378" fill="none" stroke="#00aa00" stroke-width="3"/>
<path d="M406.126,135.673h 0.272126l 0.0453543, -0.0679467h 1.0885l 0.0453543, -0.112947h 0.771024" fill="none" stroke="#00aa00" stroke-width="3"/>
<path d="M408.349,135.492h 0.31748l 0.0453543, -0.0462403h 1.0885l 0.0453543, -0.0450005h 0.725669" fill="none" stroke="#00aa00" stroke-width="3"/>
<path d="M410.571,135.4h 0.362835l 0.0453543, -0.0913713h 1.0885l 0.0453543, -0.181829h 0.680315" fill="none" stroke="#00aa00" stroke-width="3"/>
<path d="M412.794,135.127h 0.408189l 0.0453543, -0.274201h 1.0885l 0.0453543, 0.0863471h 0.634961" fill="none" stroke="#00aa00" stroke-width="3"/>
<path d="M415.016,134.939h 0.453543l 0.0453543, -0.185875h 1.0885l 0.0453543, -0.321681h 0.589606" fill="none" stroke="#00aa00" stroke-width="3"/>
<path d="M417.238,134.432h 0.498898l 0.0453543, -0.207886h 1.0885l 0.0453543, 0.0813446h 0.544252" fill="none" stroke="#00aa00" stroke-width="3"/>
<path d="M419.461,134.305h 0.544252l 0.0453543, 0.0423688h 1.0885l 0.0453543, -0.0746892h 0.498898" fill="none" stroke="#00aa00" stroke-width="3"/>
<path d="M421.683,134.273h 0.589606l 0.0453543, -0.0308631h 1.0885l 0.0453543, -0.312938h 0.453543" fill="none" stroke="#00aa00" stroke-width="3"/>
<path d="M423.905,133.929h 0.634961l 0.0453543, -0.422144h 1.0885l 0.0453543, 0.0844549h 0.408189" fill="none" stroke="#00aa00" stroke-width="3"/>
<path d="M426.128,133.591h 2.22236" fill="none" stroke="#00aa00" stroke-width="3"/>
<path d="M428.35,133.591h 1.85953l 0.0453543, -0.0242076h 0.31748" fill="none" stroke="#00aa00" stroke-width="3"/>
<path d="M430.572,133.567h 0.771024l 0.0453543, 0.0422166h 1.40598" fill="none" stroke="#00aa00" stroke-width="3"/>
<path d="M432.795,133.609h 0.816378l 0.0453543, 0.0221631h 1.0885l 0.0453543, 0.0865211h 0.226772" fill="none" stroke="#00aa00" stroke-width="3"/>
<path d="M435.017,133.718h 2.22236" fill="none" stroke="#00aa00" stroke-width="3"/>
<path d="M437.24,133.718h 2.22236" fill="none" stroke="#00aa00" stroke-width="3"/>
<path d="M439.462,133.718h 2.22236" fill="none" stroke="#00aa00" stroke-width="3"/>
<path d="M441.684,133.718h 0.997795l 0.0453543, -0.0484805h 1.0885l 0.0453543, 0.0443263h 0.0453543" fill="none" stroke="#00aa00" stroke-width="3"/>
<path d="M443.907,133.714h 1.04315l 0.0453543, 0.0221849h 1.0885l 0.0453543, 0.0221631" fill="none" stroke="#00aa00" stroke-width="3"/>
<path d="M446.129,133.758h 1.0885l 0.0453543, -0.0242511h 1.0885" fill="none" stroke="#00aa00" stroke-width="3"/>
<path d="M448.351,133.734l 0.0453543, 0.0665112h 1.0885l 0.0453543, 0.0221631h 1.04315" fill="none" stroke="#00aa00" stroke-width="3"/>
<path d="M450.574,133.823h 0.0453543l 0.0453543, 0.0602907h 1.0885l 0.0453543, -0.00419773h 0.997795" fill="none" stroke="#00aa00" stroke-width="3"/>
<path d="M452.796,133.879h 0.0907087l 0.0453543, -0.0729492h 1.0885l 0.0453543, 0.30228h 0.952441" fill="none" stroke="#00aa00" stroke-width="3"/>
<path d="M455.018,134.108h 0.136063l 0.0453543, 0.197772h 1.0885l 0.0453543, 0.0603342h 0.907087" fill="none" stroke="#00aa00" stroke-width="3"/>
<path d="M457.241,134.366h 0.181417l 0.0453543, 0.25617h 1.0885l 0.0453543, 0.198033h 0.861732" fill="none" stroke="#00aa00" stroke-width="3"/>
<path d="M459.463,134.82h 0.226772l 0.0453543, 0.0275789h 1.0885l 0.0453543, -0.516995h 0.816378" fill="none" stroke="#00aa00" stroke-width="3"/>
<path d="M461.686,134.331h 0.272126l 0.0453543, -0.058616h 1.0885l 0.0453543, -0.0470233h 0.771024" fill="none" stroke="#00aa00" stroke-width="3"/>
<path d="M463.908,134.225h 0.31748l 0.0453543, 0.0223154h 1.85953" fill="none" stroke="#00aa00" stroke-width="3"/>
<path d="M466.13,134.248h 0.362835l 0.0453543, -0.11882h 1.0885l 0.0453543, -0.0519823h 0.680315" fill="none" stroke="#00aa00" stroke-width="3"/>
<path d="M468.353,134.077h 2.22236" fill="none" stroke="#00aa00" stroke-width="3"/>
<path d="M470.575,134.077h 2.22236" fill="none" stroke="#00aa00" stroke-width="3"/>
<path d="M472.797,134.077h 1.63276l 0.0453543, -0.0247949h 0.544252" fill="none" stroke="#00aa00" stroke-width="3"/>
<path d="M475.02,134.052h 0.544252l 0.0453543, 0.0223589h 1.63276" fill="none" stroke="#00aa00" stroke-width="3"/>
<path d="M477.242,134.074h 2.22236" fill="none" stroke="#00aa00" stroke-width="3"/>
<path d="M479.464,134.074h 1.76882l 0.0453543, -0.0322116h 0.408189" fill="none" stroke="#00aa00" stroke-width="3"/>
<path d="M481.687,134.042h 0.680315l 0.0453543, 0.298343h 1.0885l 0.0453543, -0.0349303h 0.362835" fill="none" stroke="#00aa00" stroke-width="3"/>
<path d="M483.909,134.306h 0.725669l 0.0453543, 0.124301h 1.0885l 0.0453543, -0.0300584h 0.31748" fill="none" stroke="#00aa00" stroke-width="3"/>
<path d="M486.132,134.4h 0.771024l 0.0453543, 0.0871301h 1.0885l 0.0453543, -0.122495h 0.272126" fill="none" stroke="#00aa00" stroke-width="3"/>
<path d="M488.354,134.365h 0.816378l 0.0453543, -1.26828h 1.0885l 0.0453543, -0.72462h 0.226772" fill="none" stroke="#00aa00" stroke-width="3"/>
<path d="M490.576,132.372h 0.861732l 0.0453543, -0.214672h 1.0885l 0.0453543, -0.430931h 0.181417" fill="none" stroke="#00aa00" stroke-width="3"/>
<path d="M492.799,131.726h 0.907087l 0.0453543, 0.0284706h 1.0885l 0.0453543, -0.157796h 0.136063" fill="none" stroke="#00aa00" stroke-width="3"/>
<path d="M495.021,131.597h 0.952441l 0.0453543, -0.268046h 1.0885l 0.0453543, -9.62381h 0.0907087" fill="none" stroke="#00aa00" stroke-width="3"/>
<path d="M497.243,121.705h 0.997795l 0.0453543, -2.3742h 1.0885l 0.0453543, -1.30713h 0.0453543" fill="none" stroke="#00aa00" stroke-width="3"/>
<path d="M499.466,118.024h 1.04315l 0.0453543, -1.52182h 1.0885l 0.0453543, -7.41719" fill="none" stroke="#00aa00" stroke-width="3"/>
<path d="M501.688,109.085h 1.0885l 0.0453543, -4.96885h 1.0885" fill="none" stroke="#00aa00" stroke-width="3"/>
<path d="M503.91,104.116l 0.0453543, -3.45508h 1.0885l 0.0453543, -2.57762h 1.04315" fill="none" stroke="#00aa00" stroke-width="3"/>
<path d="M506.133,98.083h 0.0453543l 0.0453543, 0.282031h 1.0885l 0.0453543, 0.161689h 0.997795" fill="none" stroke="#00aa00" stroke-width="3"/>
<path d="M508.355,98.5267h 0.0907087l 0.0453543, -0.473909h 1.0885l 0.0453543, -8.57316h 0.952441" fill="none" stroke="#00aa00" stroke-width="3"/>
<path d="M510.577,89.4796h 0.15874" fill="none" stroke="#00aa00" stroke-width="3"/>
<path d="M57.1929,238.452h 453.543" fill="none" stroke="black"/>
<path d="M57.1929,232.093v 6.35872" fill="none" stroke="black"/>
<path d="M79.87,235.273v 3.17936" fill="none" stroke="black"/>
<path d="M102.547,235.273v 3.17936" fill="none" stroke="black"/>
<path d="M125.224,235.273v 3.17936" fill="none" stroke="black"/>
<path d="M147.901,235.273v 3.17936" fill="none" stroke="black"/>
<path d="M170.578,232.093v 6.35872" fill="none" stroke="black"/>
<path d="M193.255,235.273v 3.17936" fill="none" stroke="black"/>
<path d="M215.932,235.273v 3.17936" fill="none" stroke="black"/>
<path d="M238.609,235.273v 3.17936" fill="none" stroke="black"/>
<path d="M261.286,235.273v 3.17936" fill="none" stroke="black"/>
<path d="M283.963,232.093v 6.35872" fill="none" stroke="black"/>
<path d="M306.64,235.273v 3.17936" fill="none" stroke="black"/>
<path d="M329.318,235.273v 3.17936" fill="none" stroke="black"/>
<path d="M351.995,235.273v 3.17936" fill="none" stroke="black"/>
<path d="M374.672,235.273v 3.17936" fill="none" stroke="black"/>
<path d="M397.349,232.093v 6.35872" fill="none" stroke="black"/>
<path d="M420.026,235.273v 3.17936" fill="none" stroke="black"/>
<path d="M442.703,235.273v 3.17936" fill="none" stroke="black"/>
<path d="M465.38,235.273v 3.17936" fill="none" stroke="black"/>
<path d="M488.057,235.273v 3.17936" fill="none" stroke="black"/>
<path d="M510.734,232.093v 6.35872" fill="none" stroke="black"/>
<path d="M510.734,232.093v 6.35872" fill="none" stroke="black"/>
<path d="M57.1929,238.452v -185.463" fill="none" stroke="black"/>
<path d="M69.0984,235.441h -11.9055" fill="none" stroke="black"/>
<path d="M63.1457,228.143h -5.95276" fill="none" stroke="black"/>
<path d="M63.1457,220.845h -5.95276" fill="none" stroke="black"/>
<path d="M63.1457,213.547h -5.95276" fill="none" stroke="black"/>
<path d="M63.1457,206.249h -5.95276" fill="none" stroke="black"/>
<path d="M69.0984,198.95h -11.9055" fill="none" stroke="black"/>
<path d="M63.1457,191.652h -5.95276" fill="none" stroke="black"/>
<path d="M63.1457,184.354h -5.95276" fill="none" stroke="black"/>
<path d="M63.1457,177.056h -5.95276" fill="none" stroke="black"/>
<path d="M63.1457,169.758h -5.95276" fill="none" stroke="black"/>
<path d="M69.0984,162.46h -11.9055" fill="none" stroke="black"/>
<path d="M63.1457,155.162h -5.95276" fill="none" stroke="black"/>
<path d="M63.1457,147.864h -5.95276" fill="none" stroke="black"/>
<path d="M63.1457,140.566h -5.95276" fill="none" stroke="black"/>
<path d="M63.1457,133.268h -5.95276" fill="none" stroke="black"/>
<path d="M69.0984,125.97h -11.9055" fill="none" stroke="black"/>
<path d="M63.1457,118.672h -5.95276" fill="none" stroke="black"/>
<path d="M63.1457,111.374h -5.95276" fill="none" stroke="black"/>
<path d="M63.1457,104.076h -5.95276" fill="none" stroke="black"/>
<path d="M63.1457,96.7777h -5.95276" fill="none" stroke="black"/>
<path d="M69.0984,89.4796h -11.9055" fill="none" stroke="black"/>
<path d="M63.1457,82.1816h -5.95276" fill="none" stroke="black"/>
<path d="M63.1457,74.8835h -5.95276" fill="none" stroke="black"/>
<path d="M63.1457,67.5855h -5.95276" fill="none" stroke="black"/>
<path d="M63.1457,60.2874h -5.95276" fill="none" stroke="black"/>
<path d="M69.0984,52.9894h -11.9055" fill="none" stroke="black"/>
<path d="M69.0984,235.441h -11.9055" fill="none" stroke="black"/>
<rect x="57.1929" y="21.1957" width="226.772" height="31.7936" fill="none" stroke="black"/>
<path d="M57.1929,52.9894h 226.772" fill="none" stroke="black"/>
<path d="M283.965,52.9894v -31.7936" fill="none" stroke="black"/>
<path d="M283.965,21.1957h -226.772" fill="none" stroke="black"/>
<path d="M57.1929,21.1957v 31.7936" fill="none" stroke="black"/>
<text xml:space="preserve" x="125.139" y="32.05" fill="black" font-size="13.5683" font-family="Helvetica">Signal efficiency</text>
<path d="M67.3976,29.1441h 47.622" fill="none" stroke="#0000ee" stroke-width="3"/>
<text xml:space="preserve" x="125.139" y="48.4311" fill="black" font-size="13.5683" font-family="Helvetica">Background efficiency</text>
<path d="M67.3976,45.041h 47.622" fill="none" stroke="#ff0000" stroke-width="3"/>
<rect x="283.965" y="21.1957" width="226.772" height="31.7936" fill="none" stroke="black"/>
<path d="M283.965,52.9894h 226.772" fill="none" stroke="black"/>
<path d="M510.736,52.9894v -31.7936" fill="none" stroke="black"/>
<path d="M510.736,21.1957h -226.772" fill="none" stroke="black"/>
<path d="M283.965,21.1957v 31.7936" fill="none" stroke="black"/>
<text xml:space="preserve" x="502.617" y="44.1578" fill="black" font-size="20.7455" font-family="Helvetica">}</text>
<text xml:space="preserve" x="489.085" y="44.1578" fill="black" font-size="20.7455" font-family="Helvetica">B</text>
<path d="M481.25,28.4889l 2.84889, 15.6689" fill="none" stroke="black" stroke-width="2"/>
<path d="M484.099,44.1578l 2.84889, -21.3667" fill="none" stroke="black"/>
<path d="M486.948,22.7911h 15.6689" fill="none" stroke="black"/>
<text xml:space="preserve" x="454.186" y="44.1578" fill="black" font-size="20.7455" font-family="Helvetica"> + </text>
<text xml:space="preserve" x="351.626" y="44.1578" fill="black" font-size="20.7455" font-family="Helvetica">eS / {{5./3.}</text>
<path d="M294.169,37.0925h 47.622" fill="none" stroke="#00aa00" stroke-width="3"/>
<text xml:space="preserve" x="182.829" y="13.5322" fill="black" font-size="13.8297" font-family="Helvetica">Signal Efficiency BDTB - MassID1</text>
<path d="M57.1929,89.4796h 453.543" fill="none" stroke="black"/>
<text xml:space="preserve" x="85.2545" y="203.696" fill="black" font-size="8.52133" font-family="Helvetica" font-weight="bold">For 48689 background</text>
<text xml:space="preserve" x="228.411" y="214.379" fill="black" font-size="8.52133" font-family="Helvetica" font-weight="bold"> is</text>
<text xml:space="preserve" x="225.562" y="214.379" fill="black" font-size="8.52133" font-family="Helvetica" font-weight="bold">}</text>
<text xml:space="preserve" x="219.865" y="214.379" fill="black" font-size="8.52133" font-family="Helvetica" font-weight="bold">B</text>
<path d="M216.303,207.969l 1.42445, 6.41" fill="none" stroke="black"/>
<path d="M217.728,214.379l 0.712223, -9.25889" fill="none" stroke="black"/>
<path d="M218.44,205.12h 7.12223" fill="none" stroke="black"/>
<text xml:space="preserve" x="205.62" y="214.379" fill="black" font-size="8.52133" font-family="Helvetica" font-weight="bold"> + </text>
<text xml:space="preserve" x="85.2545" y="214.379" fill="black" font-size="8.52133" font-family="Helvetica" font-weight="bold">events the maximum eS / {{5./3.}</text>
<text xml:space="preserve" x="85.2545" y="225.062" fill="black" font-size="8.52133" font-family="Helvetica" font-weight="bold">8.90e-03 when cutting at  1.00</text>
<path d="M510.736,238.452v -185.463" fill="none" stroke="#00aa00"/>
<path d="M498.831,238.452h 11.9055" fill="none" stroke="#00aa00"/>
<path d="M504.783,234.661h 5.95276" fill="none" stroke="#00aa00"/>
<path d="M504.783,230.87h 5.95276" fill="none" stroke="#00aa00"/>
<path d="M504.783,227.079h 5.95276" fill="none" stroke="#00aa00"/>
<path d="M504.783,223.288h 5.95276" fill="none" stroke="#00aa00"/>
<path d="M498.831,219.497h 11.9055" fill="none" stroke="#00aa00"/>
<path d="M504.783,215.707h 5.95276" fill="none" stroke="#00aa00"/>
<path d="M504.783,211.916h 5.95276" fill="none" stroke="#00aa00"/>
<path d="M504.783,208.125h 5.95276" fill="none" stroke="#00aa00"/>
<path d="M504.783,204.334h 5.95276" fill="none" stroke="#00aa00"/>
<path d="M498.831,200.543h 11.9055" fill="none" stroke="#00aa00"/>
<path d="M504.783,196.752h 5.95276" fill="none" stroke="#00aa00"/>
<path d="M504.783,192.961h 5.95276" fill="none" stroke="#00aa00"/>
<path d="M504.783,189.17h 5.95276" fill="none" stroke="#00aa00"/>
<path d="M504.783,185.379h 5.95276" fill="none" stroke="#00aa00"/>
<path d="M498.831,181.588h 11.9055" fill="none" stroke="#00aa00"/>
<path d="M504.783,177.797h 5.95276" fill="none" stroke="#00aa00"/>
<path d="M504.783,174.006h 5.95276" fill="none" stroke="#00aa00"/>
<path d="M504.783,170.215h 5.95276" fill="none" stroke="#00aa00"/>
<path d="M504.783,166.424h 5.95276" fill="none" stroke="#00aa00"/>
<path d="M498.831,162.633h 11.9055" fill="none" stroke="#00aa00"/>
<path d="M504.783,158.843h 5.95276" fill="none" stroke="#00aa00"/>
<path d="M504.783,155.052h 5.95276" fill="none" stroke="#00aa00"/>
<path d="M504.783,151.261h 5.95276" fill="none" stroke="#00aa00"/>
<path d="M504.783,147.47h 5.95276" fill="none" stroke="#00aa00"/>
<path d="M498.831,143.679h 11.9055" fill="none" stroke="#00aa00"/>
<path d="M504.783,139.888h 5.95276" fill="none" stroke="#00aa00"/>
<path d="M504.783,136.097h 5.95276" fill="none" stroke="#00aa00"/>
<path d="M504.783,132.306h 5.95276" fill="none" stroke="#00aa00"/>
<path d="M504.783,128.515h 5.95276" fill="none" stroke="#00aa00"/>
<path d="M498.831,124.724h 11.9055" fill="none" stroke="#00aa00"/>
<path d="M504.783,120.933h 5.95276" fill="none" stroke="#00aa00"/>
<path d="M504.783,117.142h 5.95276" fill="none" stroke="#00aa00"/>
<path d="M504.783,113.351h 5.95276" fill="none" stroke="#00aa00"/>
<path d="M504.783,109.56h 5.95276" fill="none" stroke="#00aa00"/>
<path d="M498.831,105.769h 11.9055" fill="none" stroke="#00aa00"/>
<path d="M504.783,101.979h 5.95276" fill="none" stroke="#00aa00"/>
<path d="M504.783,98.1876h 5.95276" fill="none" stroke="#00aa00"/>
<path d="M504.783,94.3967h 5.95276" fill="none" stroke="#00aa00"/>
<path d="M504.783,90.6057h 5.95276" fill="none" stroke="#00aa00"/>
<path d="M498.831,86.8148h 11.9055" fill="none" stroke="#00aa00"/>
<path d="M504.783,83.0239h 5.95276" fill="none" stroke="#00aa00"/>
<path d="M504.783,79.2329h 5.95276" fill="none" stroke="#00aa00"/>
<path d="M504.783,75.442h 5.95276" fill="none" stroke="#00aa00"/>
<path d="M504.783,71.6511h 5.95276" fill="none" stroke="#00aa00"/>
<path d="M498.831,67.8601h 11.9055" fill="none" stroke="#00aa00"/>
<path d="M498.831,67.8601h 11.9055" fill="none" stroke="#00aa00"/>
<path d="M504.783,64.0692h 5.95276" fill="none" stroke="#00aa00"/>
<path d="M504.783,60.2783h 5.95276" fill="none" stroke="#00aa00"/>
<path d="M504.783,56.4873h 5.95276" fill="none" stroke="#00aa00"/>
<text xml:space="preserve" x="513.3" y="242.156" fill="#00aa00" font-size="10.2228" font-family="Helvetica" font-weight="bold">0</text>
<text xml:space="preserve" x="513.3" y="223.638" fill="#00aa00" font-size="10.2228" font-family="Helvetica" font-weight="bold">0.001</text>
<text xml:space="preserve" x="513.3" y="204.408" fill="#00aa00" font-size="10.2228" font-family="Helvetica" font-weight="bold">0.002</text>
<text xml:space="preserve" x="513.3" y="185.178" fill="#00aa00" font-size="10.2228" font-family="Helvetica" font-weight="bold">0.003</text>
<text xml:space="preserve" x="513.3" y="166.66" fill="#00aa00" font-size="10.2228" font-family="Helvetica" font-weight="bold">0.004</text>
<text xml:space="preserve" x="513.3" y="147.43" fill="#00aa00" font-size="10.2228" font-family="Helvetica" font-weight="bold">0.005</text>
<text xml:space="preserve" x="513.3" y="128.912" fill="#00aa00" font-size="10.2228" font-family="Helvetica" font-weight="bold">0.006</text>
<text xml:space="preserve" x="513.3" y="109.682" fill="#00aa00" font-size="10.2228" font-family="Helvetica" font-weight="bold">0.007</text>
<text xml:space="preserve" x="513.3" y="90.4523" fill="#00aa00" font-size="10.2228" font-family="Helvetica" font-weight="bold">0.008</text>
<text xml:space="preserve" x="513.3" y="71.9345" fill="#00aa00" font-size="10.2228" font-family="Helvetica" font-weight="bold">0.009</text>
<g transform="rotate(-90,544.638,137.459)">
<text xml:space="preserve" x="544.638" y="137.459" fill="#00aa00" font-size="9.00747" font-family="Helvetica" font-weight="bold">Punzi Figure of Merit</text>
</g></svg>
